{
 "cells": [
  {
   "cell_type": "code",
   "execution_count": 1,
   "id": "ac21d43c-ddfd-4515-bd3c-8a2666916214",
   "metadata": {},
   "outputs": [
    {
     "name": "stdout",
     "output_type": "stream",
     "text": [
      "304 note_on channel=0 note=81 velocity=54 time=304\n",
      "594 note_on channel=0 note=66 velocity=26 time=290\n",
      "652 note_on channel=0 note=62 velocity=32 time=58\n",
      "927 note_off channel=0 note=66 velocity=0 time=275\n",
      "930 note_on channel=0 note=69 velocity=30 time=3\n",
      "1086 note_off channel=0 note=69 velocity=0 time=156\n",
      "1146 note_on channel=0 note=66 velocity=39 time=60\n",
      "1177 note_off channel=0 note=66 velocity=0 time=31\n",
      "1325 note_on channel=0 note=69 velocity=40 time=148\n",
      "1336 note_off channel=0 note=81 velocity=0 time=11\n",
      "1400 note_off channel=0 note=69 velocity=0 time=64\n",
      "1497 note_on channel=0 note=66 velocity=31 time=97\n",
      "1528 note_on channel=0 note=86 velocity=62 time=31\n",
      "1664 note_off channel=0 note=86 velocity=0 time=136\n",
      "1674 note_on channel=0 note=81 velocity=69 time=10\n",
      "1689 note_on channel=0 note=69 velocity=36 time=15\n",
      "1698 note_off channel=0 note=66 velocity=0 time=9\n",
      "1709 note_off channel=0 note=62 velocity=0 time=11\n",
      "1740 note_off channel=0 note=69 velocity=0 time=31\n",
      "1885 note_on channel=0 note=62 velocity=26 time=145\n",
      "1887 note_on channel=0 note=78 velocity=58 time=2\n",
      "1900 note_on channel=0 note=66 velocity=19 time=13\n",
      "1915 note_off channel=0 note=81 velocity=0 time=15\n",
      "2052 note_off channel=0 note=66 velocity=0 time=137\n",
      "2082 note_on channel=0 note=69 velocity=37 time=30\n",
      "2189 note_off channel=0 note=69 velocity=0 time=107\n",
      "2281 note_on channel=0 note=66 velocity=18 time=92\n",
      "2341 note_off channel=0 note=66 velocity=0 time=60\n",
      "2397 note_on channel=0 note=69 velocity=28 time=56\n",
      "2415 note_off channel=0 note=69 velocity=0 time=18\n",
      "2552 note_off channel=0 note=78 velocity=0 time=137\n",
      "2587 note_on channel=0 note=81 velocity=62 time=35\n",
      "2605 note_on channel=0 note=66 velocity=30 time=18\n",
      "2615 note_on channel=0 note=69 velocity=38 time=10\n",
      "2776 note_off channel=0 note=62 velocity=0 time=161\n",
      "2778 note_on channel=0 note=78 velocity=69 time=2\n",
      "2780 note_off channel=0 note=66 velocity=0 time=2\n",
      "2798 note_off channel=0 note=81 velocity=0 time=18\n",
      "2823 note_off channel=0 note=69 velocity=0 time=25\n",
      "3016 note_off channel=0 note=78 velocity=0 time=193\n",
      "3030 note_on channel=0 note=74 velocity=52 time=14\n",
      "3046 note_on channel=0 note=57 velocity=30 time=16\n",
      "3049 note_on channel=0 note=66 velocity=27 time=3\n",
      "3169 note_off channel=0 note=74 velocity=0 time=120\n",
      "3214 note_off channel=0 note=66 velocity=0 time=45\n",
      "3229 note_on channel=0 note=69 velocity=35 time=15\n",
      "3253 note_off channel=0 note=69 velocity=0 time=24\n",
      "3320 note_on channel=0 note=74 velocity=56 time=67\n",
      "3418 note_off channel=0 note=74 velocity=0 time=98\n",
      "3441 note_on channel=0 note=66 velocity=36 time=23\n",
      "3452 note_off channel=0 note=57 velocity=0 time=11\n",
      "3520 note_on channel=0 note=69 velocity=40 time=68\n",
      "3573 note_off channel=0 note=66 velocity=0 time=53\n",
      "3675 note_off channel=0 note=69 velocity=0 time=102\n",
      "3768 note_on channel=0 note=76 velocity=66 time=93\n",
      "3799 note_off channel=0 note=76 velocity=0 time=31\n",
      "3802 note_on channel=0 note=61 velocity=32 time=3\n",
      "3814 note_on channel=0 note=67 velocity=21 time=12\n",
      "3828 note_on channel=0 note=78 velocity=68 time=14\n",
      "3859 note_off channel=0 note=78 velocity=0 time=31\n",
      "3865 note_on channel=0 note=76 velocity=64 time=6\n",
      "3890 note_off channel=0 note=76 velocity=0 time=25\n",
      "3905 note_on channel=0 note=78 velocity=77 time=15\n",
      "3921 note_on channel=0 note=69 velocity=38 time=16\n",
      "3939 note_off channel=0 note=67 velocity=0 time=18\n",
      "3944 note_off channel=0 note=61 velocity=0 time=5\n",
      "3948 note_off channel=0 note=78 velocity=0 time=4\n",
      "3950 note_on channel=0 note=76 velocity=58 time=2\n",
      "3982 note_off channel=0 note=76 velocity=0 time=32\n",
      "4011 note_on channel=0 note=74 velocity=68 time=29\n",
      "4017 note_off channel=0 note=74 velocity=0 time=6\n",
      "4042 note_on channel=0 note=76 velocity=61 time=25\n",
      "4155 note_off channel=0 note=69 velocity=0 time=113\n",
      "4186 note_off channel=0 note=76 velocity=0 time=31\n",
      "4202 note_on channel=0 note=78 velocity=58 time=16\n",
      "4208 note_on channel=0 note=62 velocity=35 time=6\n",
      "4210 note_on channel=0 note=66 velocity=33 time=2\n",
      "4231 note_off channel=0 note=62 velocity=0 time=21\n",
      "4498 note_off channel=0 note=66 velocity=0 time=267\n",
      "4523 note_off channel=0 note=78 velocity=0 time=25\n",
      "4560 note_on channel=0 note=74 velocity=50 time=37\n",
      "4584 note_on channel=0 note=69 velocity=45 time=24\n",
      "4964 note_off channel=0 note=74 velocity=0 time=380\n",
      "5122 note_off channel=0 note=69 velocity=0 time=158\n",
      "5334 note_on channel=0 note=81 velocity=57 time=212\n",
      "5381 note_on channel=0 note=66 velocity=29 time=47\n",
      "5389 note_on channel=0 note=62 velocity=30 time=8\n",
      "5548 note_off channel=0 note=66 velocity=0 time=159\n",
      "5553 note_on channel=0 note=69 velocity=43 time=5\n",
      "5692 note_off channel=0 note=69 velocity=0 time=139\n",
      "5723 note_on channel=0 note=66 velocity=45 time=31\n",
      "5783 note_off channel=0 note=66 velocity=0 time=60\n",
      "5890 note_on channel=0 note=69 velocity=40 time=107\n",
      "5996 note_off channel=0 note=69 velocity=0 time=106\n",
      "6057 note_off channel=0 note=81 velocity=0 time=61\n",
      "6072 note_on channel=0 note=86 velocity=68 time=15\n",
      "6079 note_on channel=0 note=66 velocity=37 time=7\n",
      "6241 note_on channel=0 note=69 velocity=41 time=162\n",
      "6256 note_off channel=0 note=62 velocity=0 time=15\n",
      "6286 note_off channel=0 note=66 velocity=0 time=30\n",
      "6301 note_off channel=0 note=86 velocity=0 time=15\n",
      "6307 note_off channel=0 note=69 velocity=0 time=6\n",
      "6316 note_on channel=0 note=81 velocity=68 time=9\n",
      "6430 note_off channel=0 note=81 velocity=0 time=114\n",
      "6446 note_on channel=0 note=66 velocity=33 time=16\n",
      "6446 note_on channel=0 note=78 velocity=61 time=0\n",
      "6452 note_on channel=0 note=62 velocity=26 time=6\n",
      "6612 note_off channel=0 note=66 velocity=0 time=160\n",
      "6627 note_on channel=0 note=69 velocity=38 time=15\n",
      "6734 note_off channel=0 note=69 velocity=0 time=107\n",
      "6794 note_on channel=0 note=66 velocity=40 time=60\n",
      "6916 note_off channel=0 note=66 velocity=0 time=122\n",
      "6919 note_on channel=0 note=69 velocity=42 time=3\n",
      "7069 note_off channel=0 note=69 velocity=0 time=150\n",
      "7069 note_off channel=0 note=78 velocity=0 time=0\n",
      "7105 note_on channel=0 note=81 velocity=68 time=36\n",
      "7112 note_on channel=0 note=66 velocity=45 time=7\n",
      "7290 note_off channel=0 note=62 velocity=0 time=178\n",
      "7297 note_on channel=0 note=69 velocity=43 time=7\n",
      "7299 note_off channel=0 note=66 velocity=0 time=2\n",
      "7304 note_off channel=0 note=69 velocity=0 time=5\n",
      "7380 note_off channel=0 note=81 velocity=0 time=76\n",
      "7386 note_on channel=0 note=78 velocity=62 time=6\n",
      "7457 note_off channel=0 note=78 velocity=0 time=71\n",
      "7488 note_on channel=0 note=57 velocity=41 time=31\n",
      "7492 note_on channel=0 note=66 velocity=42 time=4\n",
      "7492 note_on channel=0 note=74 velocity=66 time=0\n",
      "7518 note_off channel=0 note=74 velocity=0 time=26\n",
      "7655 note_off channel=0 note=66 velocity=0 time=137\n",
      "7669 note_on channel=0 note=69 velocity=50 time=14\n",
      "7685 note_off channel=0 note=69 velocity=0 time=16\n",
      "7769 note_on channel=0 note=74 velocity=74 time=84\n",
      "7843 note_on channel=0 note=66 velocity=45 time=74\n",
      "7864 note_off channel=0 note=74 velocity=0 time=21\n",
      "7922 note_off channel=0 note=57 velocity=0 time=58\n",
      "7998 note_off channel=0 note=66 velocity=0 time=76\n",
      "8005 note_on channel=0 note=69 velocity=49 time=7\n",
      "8119 note_on channel=0 note=78 velocity=70 time=114\n",
      "8134 note_off channel=0 note=69 velocity=0 time=15\n",
      "8164 note_off channel=0 note=78 velocity=0 time=30\n",
      "8194 note_on channel=0 note=67 velocity=41 time=30\n",
      "8194 note_on channel=0 note=76 velocity=54 time=0\n",
      "8210 note_on channel=0 note=61 velocity=36 time=16\n",
      "8212 note_off channel=0 note=76 velocity=0 time=2\n",
      "8224 note_on channel=0 note=78 velocity=70 time=12\n",
      "8240 note_off channel=0 note=78 velocity=0 time=16\n",
      "8260 note_on channel=0 note=76 velocity=75 time=20\n",
      "8270 note_off channel=0 note=67 velocity=0 time=10\n",
      "8391 note_on channel=0 note=69 velocity=46 time=121\n",
      "8393 note_off channel=0 note=61 velocity=0 time=2\n",
      "8403 note_off channel=0 note=76 velocity=0 time=10\n",
      "8487 note_on channel=0 note=78 velocity=68 time=84\n",
      "8491 note_off channel=0 note=69 velocity=0 time=4\n",
      "8549 note_off channel=0 note=78 velocity=0 time=58\n",
      "8562 note_on channel=0 note=74 velocity=67 time=13\n",
      "8586 note_on channel=0 note=62 velocity=48 time=24\n",
      "8590 note_on channel=0 note=66 velocity=42 time=4\n",
      "8598 note_off channel=0 note=66 velocity=0 time=8\n",
      "8626 note_off channel=0 note=62 velocity=0 time=28\n",
      "8630 note_on channel=0 note=57 velocity=47 time=4\n",
      "8979 note_off channel=0 note=74 velocity=0 time=349\n",
      "8999 note_off channel=0 note=57 velocity=0 time=20\n",
      "9012 note_on channel=0 note=50 velocity=34 time=13\n",
      "9428 note_off channel=0 note=50 velocity=0 time=416\n",
      "9973 note_on channel=0 note=62 velocity=28 time=545\n",
      "9982 note_on channel=0 note=66 velocity=27 time=9\n",
      "10034 note_on channel=0 note=81 velocity=59 time=52\n",
      "10286 note_on channel=0 note=69 velocity=38 time=252\n",
      "10292 note_off channel=0 note=66 velocity=0 time=6\n",
      "10407 note_off channel=0 note=69 velocity=0 time=115\n",
      "10468 note_on channel=0 note=66 velocity=24 time=61\n",
      "10529 note_off channel=0 note=66 velocity=0 time=61\n",
      "10650 note_on channel=0 note=69 velocity=36 time=121\n",
      "10741 note_off channel=0 note=69 velocity=0 time=91\n",
      "10789 note_off channel=0 note=81 velocity=0 time=48\n",
      "10801 note_on channel=0 note=86 velocity=63 time=12\n",
      "10837 note_on channel=0 note=66 velocity=42 time=36\n",
      "10924 note_off channel=0 note=66 velocity=0 time=87\n",
      "10980 note_off channel=0 note=62 velocity=0 time=56\n",
      "10984 note_on channel=0 note=81 velocity=61 time=4\n",
      "11005 note_on channel=0 note=69 velocity=30 time=21\n",
      "11014 note_off channel=0 note=86 velocity=0 time=9\n",
      "11114 note_off channel=0 note=69 velocity=0 time=100\n",
      "11176 note_on channel=0 note=78 velocity=61 time=62\n",
      "11190 note_on channel=0 note=62 velocity=34 time=14\n",
      "11191 note_on channel=0 note=66 velocity=22 time=1\n",
      "11206 note_off channel=0 note=81 velocity=0 time=15\n",
      "11341 note_off channel=0 note=66 velocity=0 time=135\n",
      "11356 note_on channel=0 note=69 velocity=38 time=15\n",
      "11494 note_off channel=0 note=69 velocity=0 time=138\n",
      "11539 note_on channel=0 note=66 velocity=42 time=45\n",
      "11615 note_off channel=0 note=66 velocity=0 time=76\n",
      "11675 note_on channel=0 note=69 velocity=36 time=60\n",
      "11820 note_off channel=0 note=69 velocity=0 time=145\n",
      "11822 note_off channel=0 note=78 velocity=0 time=2\n",
      "11868 note_on channel=0 note=81 velocity=53 time=46\n",
      "11869 note_on channel=0 note=66 velocity=42 time=1\n",
      "11872 note_off channel=0 note=62 velocity=0 time=3\n",
      "12000 note_off channel=0 note=66 velocity=0 time=128\n",
      "12011 note_on channel=0 note=69 velocity=36 time=11\n",
      "12033 note_on channel=0 note=78 velocity=61 time=22\n",
      "12040 note_off channel=0 note=69 velocity=0 time=7\n",
      "12065 note_off channel=0 note=81 velocity=0 time=25\n",
      "12201 note_off channel=0 note=78 velocity=0 time=136\n",
      "12215 note_on channel=0 note=74 velocity=57 time=14\n",
      "12246 note_on channel=0 note=57 velocity=27 time=31\n",
      "12255 note_on channel=0 note=66 velocity=9 time=9\n",
      "12257 note_off channel=0 note=74 velocity=0 time=2\n",
      "12352 note_off channel=0 note=66 velocity=0 time=95\n",
      "12414 note_on channel=0 note=69 velocity=54 time=62\n",
      "12416 note_off channel=0 note=69 velocity=0 time=2\n",
      "12483 note_on channel=0 note=74 velocity=64 time=67\n",
      "12585 note_on channel=0 note=66 velocity=48 time=102\n",
      "12604 note_off channel=0 note=74 velocity=0 time=19\n",
      "12633 note_off channel=0 note=57 velocity=0 time=29\n",
      "12680 note_off channel=0 note=66 velocity=0 time=47\n",
      "12729 note_on channel=0 note=69 velocity=51 time=49\n",
      "12862 note_off channel=0 note=69 velocity=0 time=133\n",
      "12893 note_on channel=0 note=76 velocity=64 time=31\n",
      "12924 note_on channel=0 note=61 velocity=37 time=31\n",
      "12924 note_off channel=0 note=76 velocity=0 time=0\n",
      "12938 note_on channel=0 note=67 velocity=35 time=14\n",
      "12945 note_on channel=0 note=78 velocity=65 time=7\n",
      "12953 note_off channel=0 note=78 velocity=0 time=8\n",
      "12973 note_on channel=0 note=76 velocity=68 time=20\n",
      "13000 note_off channel=0 note=76 velocity=0 time=27\n",
      "13019 note_on channel=0 note=78 velocity=79 time=19\n",
      "13027 note_off channel=0 note=67 velocity=0 time=8\n",
      "13042 note_on channel=0 note=69 velocity=37 time=15\n",
      "13054 note_off channel=0 note=78 velocity=0 time=12\n",
      "13062 note_off channel=0 note=61 velocity=0 time=8\n",
      "13063 note_on channel=0 note=76 velocity=66 time=1\n",
      "13086 note_off channel=0 note=76 velocity=0 time=23\n",
      "13110 note_on channel=0 note=74 velocity=66 time=24\n",
      "13123 note_off channel=0 note=74 velocity=0 time=13\n",
      "13141 note_on channel=0 note=76 velocity=70 time=18\n",
      "13212 note_off channel=0 note=69 velocity=0 time=71\n",
      "13243 note_off channel=0 note=76 velocity=0 time=31\n",
      "13258 note_on channel=0 note=78 velocity=62 time=15\n",
      "13268 note_on channel=0 note=66 velocity=37 time=10\n",
      "13285 note_on channel=0 note=62 velocity=36 time=17\n",
      "13304 note_off channel=0 note=62 velocity=0 time=19\n",
      "13528 note_off channel=0 note=66 velocity=0 time=224\n",
      "13545 note_off channel=0 note=78 velocity=0 time=17\n",
      "13603 note_on channel=0 note=74 velocity=51 time=58\n",
      "13627 note_off channel=0 note=74 velocity=0 time=24\n",
      "13994 note_on channel=0 note=69 velocity=45 time=367\n",
      "14079 note_off channel=0 note=69 velocity=0 time=85\n",
      "14352 note_on channel=0 note=81 velocity=70 time=273\n",
      "14414 note_on channel=0 note=66 velocity=20 time=62\n",
      "14421 note_on channel=0 note=62 velocity=19 time=7\n",
      "14566 note_off channel=0 note=66 velocity=0 time=145\n",
      "14575 note_on channel=0 note=69 velocity=45 time=9\n",
      "14687 note_off channel=0 note=69 velocity=0 time=112\n",
      "14733 note_on channel=0 note=66 velocity=48 time=46\n",
      "14877 note_off channel=0 note=66 velocity=0 time=144\n",
      "14892 note_on channel=0 note=69 velocity=46 time=15\n",
      "14953 note_off channel=0 note=69 velocity=0 time=61\n",
      "15044 note_off channel=0 note=81 velocity=0 time=91\n",
      "15074 note_on channel=0 note=86 velocity=77 time=30\n",
      "15083 note_on channel=0 note=66 velocity=46 time=9\n",
      "15227 note_off channel=0 note=66 velocity=0 time=144\n",
      "15241 note_off channel=0 note=62 velocity=0 time=14\n",
      "15258 note_on channel=0 note=69 velocity=42 time=17\n",
      "15260 note_off channel=0 note=86 velocity=0 time=2\n",
      "15288 note_off channel=0 note=69 velocity=0 time=28\n",
      "15319 note_on channel=0 note=81 velocity=66 time=31\n",
      "15410 note_off channel=0 note=81 velocity=0 time=91\n",
      "15417 note_on channel=0 note=62 velocity=40 time=7\n",
      "15422 note_on channel=0 note=78 velocity=73 time=5\n",
      "15425 note_on channel=0 note=66 velocity=40 time=3\n",
      "15546 note_off channel=0 note=66 velocity=0 time=121\n",
      "15592 note_on channel=0 note=69 velocity=43 time=46\n",
      "15660 note_off channel=0 note=69 velocity=0 time=68\n",
      "15728 note_on channel=0 note=66 velocity=55 time=68\n",
      "15774 note_off channel=0 note=66 velocity=0 time=46\n",
      "15896 note_on channel=0 note=69 velocity=56 time=122\n",
      "15926 note_off channel=0 note=69 velocity=0 time=30\n",
      "16059 note_off channel=0 note=78 velocity=0 time=133\n",
      "16083 note_on channel=0 note=81 velocity=72 time=24\n",
      "16088 note_on channel=0 note=66 velocity=50 time=5\n",
      "16116 note_off channel=0 note=62 velocity=0 time=28\n",
      "16201 note_off channel=0 note=66 velocity=0 time=85\n",
      "16224 note_on channel=0 note=69 velocity=47 time=23\n",
      "16249 note_off channel=0 note=69 velocity=0 time=25\n",
      "16284 note_on channel=0 note=78 velocity=63 time=35\n",
      "16367 note_off channel=0 note=81 velocity=0 time=83\n",
      "16444 note_off channel=0 note=78 velocity=0 time=77\n",
      "16454 note_on channel=0 note=74 velocity=69 time=10\n",
      "16465 note_on channel=0 note=57 velocity=41 time=11\n",
      "16481 note_on channel=0 note=66 velocity=42 time=16\n",
      "16496 note_off channel=0 note=74 velocity=0 time=15\n",
      "16580 note_off channel=0 note=66 velocity=0 time=84\n",
      "16659 note_on channel=0 note=69 velocity=17 time=79\n",
      "16703 note_off channel=0 note=69 velocity=0 time=44\n",
      "16755 note_on channel=0 note=74 velocity=62 time=52\n",
      "16831 note_on channel=0 note=66 velocity=29 time=76\n",
      "16847 note_off channel=0 note=74 velocity=0 time=16\n",
      "16855 note_off channel=0 note=57 velocity=0 time=8\n",
      "16910 note_off channel=0 note=66 velocity=0 time=55\n",
      "16975 note_on channel=0 note=69 velocity=44 time=65\n",
      "17036 note_on channel=0 note=78 velocity=63 time=61\n",
      "17067 note_off channel=0 note=78 velocity=0 time=31\n",
      "17083 note_off channel=0 note=69 velocity=0 time=16\n",
      "17098 note_on channel=0 note=76 velocity=61 time=15\n",
      "17112 note_off channel=0 note=76 velocity=0 time=14\n",
      "17135 note_on channel=0 note=78 velocity=76 time=23\n",
      "17166 note_off channel=0 note=78 velocity=0 time=31\n",
      "17181 note_on channel=0 note=67 velocity=38 time=15\n",
      "17183 note_on channel=0 note=61 velocity=37 time=2\n",
      "17190 note_on channel=0 note=76 velocity=72 time=7\n",
      "17196 note_off channel=0 note=67 velocity=0 time=6\n",
      "17319 note_on channel=0 note=69 velocity=34 time=123\n",
      "17336 note_off channel=0 note=61 velocity=0 time=17\n",
      "17366 note_on channel=0 note=78 velocity=57 time=30\n",
      "17462 note_off channel=0 note=76 velocity=0 time=96\n",
      "17465 note_off channel=0 note=69 velocity=0 time=3\n",
      "17480 note_off channel=0 note=78 velocity=0 time=15\n",
      "17531 note_on channel=0 note=62 velocity=49 time=51\n",
      "17539 note_on channel=0 note=74 velocity=60 time=8\n",
      "17562 note_on channel=0 note=66 velocity=8 time=23\n",
      "17570 note_off channel=0 note=62 velocity=0 time=8\n",
      "17584 note_off channel=0 note=66 velocity=0 time=14\n",
      "17593 note_on channel=0 note=57 velocity=39 time=9\n",
      "17938 note_off channel=0 note=57 velocity=0 time=345\n",
      "17971 note_off channel=0 note=74 velocity=0 time=33\n",
      "18390 note_on channel=0 note=50 velocity=37 time=419\n",
      "18436 note_off channel=0 note=50 velocity=0 time=46\n",
      "18975 note_on channel=0 note=76 velocity=62 time=539\n",
      "19002 note_on channel=0 note=69 velocity=31 time=27\n",
      "19017 note_on channel=0 note=73 velocity=44 time=15\n",
      "19032 note_on channel=0 note=45 velocity=37 time=15\n",
      "19045 note_on channel=0 note=57 velocity=20 time=13\n",
      "19281 note_off channel=0 note=45 velocity=0 time=236\n",
      "19296 note_off channel=0 note=69 velocity=0 time=15\n",
      "19311 note_off channel=0 note=73 velocity=0 time=15\n",
      "19327 note_off channel=0 note=76 velocity=0 time=16\n",
      "19341 note_off channel=0 note=57 velocity=0 time=14\n",
      "19417 note_on channel=0 note=76 velocity=78 time=76\n",
      "19432 note_on channel=0 note=69 velocity=49 time=15\n",
      "19449 note_on channel=0 note=73 velocity=57 time=17\n",
      "19698 note_off channel=0 note=73 velocity=0 time=249\n",
      "19713 note_off channel=0 note=76 velocity=0 time=15\n",
      "19714 note_off channel=0 note=69 velocity=0 time=1\n",
      "19789 note_on channel=0 note=76 velocity=74 time=75\n",
      "19819 note_on channel=0 note=69 velocity=52 time=30\n",
      "19822 note_on channel=0 note=73 velocity=53 time=3\n",
      "20077 note_off channel=0 note=73 velocity=0 time=255\n",
      "20086 note_off channel=0 note=76 velocity=0 time=9\n",
      "20093 note_off channel=0 note=69 velocity=0 time=7\n",
      "20170 note_on channel=0 note=76 velocity=63 time=77\n",
      "20208 note_on channel=0 note=69 velocity=31 time=38\n",
      "20212 note_on channel=0 note=73 velocity=37 time=4\n",
      "20360 note_on channel=0 note=45 velocity=53 time=148\n",
      "20390 note_off channel=0 note=45 velocity=0 time=30\n",
      "20512 note_on channel=0 note=49 velocity=64 time=122\n",
      "20542 note_off channel=0 note=49 velocity=0 time=30\n",
      "20618 note_on channel=0 note=52 velocity=67 time=76\n",
      "20694 note_off channel=0 note=52 velocity=0 time=76\n",
      "20830 note_on channel=0 note=57 velocity=66 time=136\n",
      "20892 note_off channel=0 note=57 velocity=0 time=62\n",
      "21022 note_off channel=0 note=69 velocity=0 time=130\n",
      "21036 note_on channel=0 note=45 velocity=63 time=14\n",
      "21042 note_off channel=0 note=76 velocity=0 time=6\n",
      "21052 note_off channel=0 note=73 velocity=0 time=10\n",
      "21067 note_off channel=0 note=45 velocity=0 time=15\n",
      "21250 note_on channel=0 note=74 velocity=48 time=183\n",
      "21250 note_on channel=0 note=78 velocity=71 time=0\n",
      "21265 note_on channel=0 note=69 velocity=37 time=15\n",
      "21267 note_on channel=0 note=50 velocity=46 time=2\n",
      "21493 note_off channel=0 note=69 velocity=0 time=226\n",
      "21500 note_off channel=0 note=78 velocity=0 time=7\n",
      "21508 note_off channel=0 note=74 velocity=0 time=8\n",
      "21569 note_off channel=0 note=50 velocity=0 time=61\n",
      "21600 note_on channel=0 note=78 velocity=81 time=31\n",
      "21614 note_on channel=0 note=69 velocity=49 time=14\n",
      "21629 note_on channel=0 note=74 velocity=49 time=15\n",
      "21806 note_off channel=0 note=69 velocity=0 time=177\n",
      "21860 note_off channel=0 note=78 velocity=0 time=54\n",
      "21861 note_off channel=0 note=74 velocity=0 time=1\n",
      "21942 note_on channel=0 note=78 velocity=80 time=81\n",
      "21973 note_on channel=0 note=74 velocity=33 time=31\n",
      "21988 note_on channel=0 note=69 velocity=45 time=15\n",
      "22170 note_off channel=0 note=78 velocity=0 time=182\n",
      "22216 note_off channel=0 note=69 velocity=0 time=46\n",
      "22230 note_off channel=0 note=74 velocity=0 time=14\n",
      "22323 note_on channel=0 note=78 velocity=59 time=93\n",
      "22337 note_on channel=0 note=74 velocity=43 time=14\n",
      "22352 note_on channel=0 note=69 velocity=30 time=15\n",
      "22504 note_on channel=0 note=50 velocity=53 time=152\n",
      "22542 note_off channel=0 note=50 velocity=0 time=38\n",
      "22681 note_on channel=0 note=54 velocity=45 time=139\n",
      "22710 note_off channel=0 note=54 velocity=0 time=29\n",
      "22831 note_on channel=0 note=57 velocity=52 time=121\n",
      "22891 note_off channel=0 note=57 velocity=0 time=60\n",
      "22937 note_off channel=0 note=69 velocity=0 time=46\n",
      "22999 note_on channel=0 note=62 velocity=57 time=62\n",
      "23044 note_off channel=0 note=62 velocity=0 time=45\n",
      "23059 note_off channel=0 note=74 velocity=0 time=15\n",
      "23064 note_off channel=0 note=78 velocity=0 time=5\n",
      "23166 note_on channel=0 note=50 velocity=61 time=102\n",
      "23195 note_off channel=0 note=50 velocity=0 time=29\n",
      "23432 note_on channel=0 note=81 velocity=73 time=237\n",
      "23493 note_on channel=0 note=62 velocity=37 time=61\n",
      "23496 note_on channel=0 note=66 velocity=40 time=3\n",
      "23673 note_off channel=0 note=66 velocity=0 time=177\n",
      "23704 note_on channel=0 note=69 velocity=38 time=31\n",
      "23735 note_off channel=0 note=81 velocity=0 time=31\n",
      "23766 note_on channel=0 note=81 velocity=17 time=31\n",
      "23826 note_off channel=0 note=69 velocity=0 time=60\n",
      "23871 note_on channel=0 note=74 velocity=68 time=45\n",
      "23888 note_on channel=0 note=66 velocity=33 time=17\n",
      "23902 note_off channel=0 note=81 velocity=0 time=14\n",
      "24047 note_off channel=0 note=66 velocity=0 time=145\n",
      "24047 note_on channel=0 note=69 velocity=48 time=0\n",
      "24059 note_on channel=0 note=78 velocity=75 time=12\n",
      "24062 note_off channel=0 note=74 velocity=0 time=3\n",
      "24092 note_off channel=0 note=69 velocity=0 time=30\n",
      "24168 note_off channel=0 note=78 velocity=0 time=76\n",
      "24215 note_on channel=0 note=81 velocity=74 time=47\n",
      "24223 note_on channel=0 note=66 velocity=37 time=8\n",
      "24367 note_off channel=0 note=66 velocity=0 time=144\n",
      "24377 note_off channel=0 note=81 velocity=0 time=10\n",
      "24379 note_on channel=0 note=86 velocity=78 time=2\n",
      "24381 note_off channel=0 note=62 velocity=0 time=2\n",
      "24393 note_on channel=0 note=69 velocity=48 time=12\n",
      "24488 note_off channel=0 note=69 velocity=0 time=95\n",
      "24548 note_on channel=0 note=81 velocity=66 time=60\n",
      "24564 note_off channel=0 note=86 velocity=0 time=16\n",
      "24574 note_on channel=0 note=62 velocity=31 time=10\n",
      "24579 note_on channel=0 note=66 velocity=40 time=5\n",
      "24715 note_off channel=0 note=66 velocity=0 time=136\n",
      "24731 note_on channel=0 note=69 velocity=47 time=16\n",
      "24731 note_off channel=0 note=81 velocity=0 time=0\n",
      "24875 note_off channel=0 note=69 velocity=0 time=144\n",
      "24876 note_on channel=0 note=66 velocity=46 time=1\n",
      "24920 note_on channel=0 note=74 velocity=63 time=44\n",
      "24923 note_off channel=0 note=74 velocity=0 time=3\n",
      "25036 note_on channel=0 note=78 velocity=67 time=113\n",
      "25074 note_off channel=0 note=66 velocity=0 time=38\n",
      "25077 note_on channel=0 note=69 velocity=50 time=3\n",
      "25149 note_off channel=0 note=62 velocity=0 time=72\n",
      "25155 note_off channel=0 note=78 velocity=0 time=6\n",
      "25183 note_on channel=0 note=81 velocity=70 time=28\n",
      "25230 note_off channel=0 note=69 velocity=0 time=47\n",
      "25249 note_on channel=0 note=66 velocity=57 time=19\n",
      "25252 note_off channel=0 note=66 velocity=0 time=3\n",
      "25362 note_off channel=0 note=81 velocity=0 time=110\n",
      "25366 note_on channel=0 note=86 velocity=72 time=4\n",
      "25376 note_on channel=0 note=69 velocity=47 time=10\n",
      "25379 note_off channel=0 note=69 velocity=0 time=3\n",
      "25560 note_on channel=0 note=81 velocity=69 time=181\n",
      "25582 note_off channel=0 note=86 velocity=0 time=22\n",
      "25597 note_on channel=0 note=62 velocity=34 time=15\n",
      "25606 note_on channel=0 note=66 velocity=40 time=9\n",
      "25749 note_off channel=0 note=62 velocity=0 time=143\n",
      "25765 note_off channel=0 note=66 velocity=0 time=16\n",
      "25765 note_on channel=0 note=69 velocity=43 time=0\n",
      "25933 note_off channel=0 note=69 velocity=0 time=168\n",
      "25964 note_on channel=0 note=79 velocity=63 time=31\n",
      "25979 note_on channel=0 note=61 velocity=30 time=15\n",
      "25979 note_off channel=0 note=81 velocity=0 time=0\n",
      "25986 note_on channel=0 note=64 velocity=35 time=7\n",
      "26130 note_on channel=0 note=69 velocity=44 time=144\n",
      "26161 note_off channel=0 note=61 velocity=0 time=31\n",
      "26163 note_off channel=0 note=64 velocity=0 time=2\n",
      "26297 note_off channel=0 note=69 velocity=0 time=134\n",
      "26328 note_on channel=0 note=78 velocity=54 time=31\n",
      "26366 note_on channel=0 note=62 velocity=33 time=38\n",
      "26367 note_on channel=0 note=66 velocity=36 time=1\n",
      "26368 note_off channel=0 note=79 velocity=0 time=1\n",
      "26517 note_off channel=0 note=62 velocity=0 time=149\n",
      "26533 note_on channel=0 note=69 velocity=42 time=16\n",
      "26548 note_off channel=0 note=66 velocity=0 time=15\n",
      "26550 note_off channel=0 note=78 velocity=0 time=2\n",
      "26556 note_off channel=0 note=69 velocity=0 time=6\n",
      "26777 note_on channel=0 note=78 velocity=54 time=221\n",
      "26808 note_on channel=0 note=61 velocity=23 time=31\n",
      "26825 note_on channel=0 note=57 velocity=31 time=17\n",
      "26989 note_on channel=0 note=76 velocity=44 time=164\n",
      "27070 note_off channel=0 note=78 velocity=0 time=81\n",
      "27081 note_off channel=0 note=76 velocity=0 time=11\n",
      "27331 note_on channel=0 note=69 velocity=64 time=250\n",
      "27338 note_off channel=0 note=57 velocity=0 time=7\n",
      "27362 note_off channel=0 note=69 velocity=0 time=24\n",
      "27368 note_off channel=0 note=61 velocity=0 time=6\n",
      "27407 note_on channel=0 note=69 velocity=51 time=39\n",
      "27544 note_off channel=0 note=69 velocity=0 time=137\n",
      "27568 note_on channel=0 note=69 velocity=59 time=24\n",
      "27715 note_off channel=0 note=69 velocity=0 time=147\n",
      "27745 note_on channel=0 note=69 velocity=55 time=30\n",
      "27888 note_off channel=0 note=69 velocity=0 time=143\n",
      "28099 note_on channel=0 note=62 velocity=27 time=211\n",
      "28142 note_on channel=0 note=66 velocity=36 time=43\n",
      "28150 note_on channel=0 note=81 velocity=75 time=8\n",
      "28389 note_off channel=0 note=66 velocity=0 time=239\n",
      "28410 note_on channel=0 note=69 velocity=46 time=21\n",
      "28556 note_off channel=0 note=69 velocity=0 time=146\n",
      "28572 note_on channel=0 note=66 velocity=54 time=16\n",
      "28731 note_off channel=0 note=66 velocity=0 time=159\n",
      "28746 note_on channel=0 note=69 velocity=57 time=15\n",
      "28884 note_off channel=0 note=69 velocity=0 time=138\n",
      "28899 note_on channel=0 note=86 velocity=77 time=15\n",
      "28924 note_on channel=0 note=66 velocity=52 time=25\n",
      "28930 note_off channel=0 note=81 velocity=0 time=6\n",
      "28942 note_off channel=0 note=62 velocity=0 time=12\n",
      "29067 note_off channel=0 note=66 velocity=0 time=125\n",
      "29081 note_on channel=0 note=69 velocity=47 time=14\n",
      "29128 note_off channel=0 note=86 velocity=0 time=47\n",
      "29144 note_off channel=0 note=69 velocity=0 time=16\n",
      "29159 note_on channel=0 note=81 velocity=75 time=15\n",
      "29249 note_on channel=0 note=78 velocity=79 time=90\n",
      "29263 note_off channel=0 note=81 velocity=0 time=14\n",
      "29264 note_on channel=0 note=62 velocity=47 time=1\n",
      "29266 note_on channel=0 note=66 velocity=41 time=2\n",
      "29401 note_off channel=0 note=66 velocity=0 time=135\n",
      "29439 note_on channel=0 note=69 velocity=52 time=38\n",
      "29561 note_off channel=0 note=69 velocity=0 time=122\n",
      "29606 note_on channel=0 note=66 velocity=56 time=45\n",
      "29727 note_off channel=0 note=66 velocity=0 time=121\n",
      "29756 note_on channel=0 note=69 velocity=54 time=29\n",
      "29894 note_off channel=0 note=69 velocity=0 time=138\n",
      "29908 note_off channel=0 note=78 velocity=0 time=14\n",
      "29924 note_on channel=0 note=81 velocity=78 time=16\n",
      "29940 note_on channel=0 note=66 velocity=48 time=16\n",
      "30016 note_off channel=0 note=62 velocity=0 time=76\n",
      "30029 note_off channel=0 note=66 velocity=0 time=13\n",
      "30057 note_on channel=0 note=69 velocity=51 time=28\n",
      "30107 note_off channel=0 note=69 velocity=0 time=50\n",
      "30137 note_on channel=0 note=78 velocity=73 time=30\n",
      "30168 note_off channel=0 note=81 velocity=0 time=31\n",
      "30252 note_off channel=0 note=78 velocity=0 time=84\n",
      "30256 note_on channel=0 note=74 velocity=76 time=4\n",
      "30266 note_on channel=0 note=57 velocity=48 time=10\n",
      "30282 note_on channel=0 note=66 velocity=40 time=16\n",
      "30297 note_off channel=0 note=74 velocity=0 time=15\n",
      "30433 note_off channel=0 note=66 velocity=0 time=136\n",
      "30436 note_on channel=0 note=69 velocity=60 time=3\n",
      "30541 note_off channel=0 note=69 velocity=0 time=105\n",
      "30586 note_on channel=0 note=74 velocity=80 time=45\n",
      "30607 note_on channel=0 note=66 velocity=51 time=21\n",
      "30615 note_off channel=0 note=74 velocity=0 time=8\n",
      "30647 note_off channel=0 note=57 velocity=0 time=32\n",
      "30692 note_off channel=0 note=66 velocity=0 time=45\n",
      "30754 note_on channel=0 note=69 velocity=54 time=62\n",
      "30891 note_off channel=0 note=69 velocity=0 time=137\n",
      "30936 note_on channel=0 note=76 velocity=63 time=45\n",
      "30939 note_on channel=0 note=67 velocity=48 time=3\n",
      "30951 note_on channel=0 note=61 velocity=40 time=12\n",
      "30975 note_off channel=0 note=76 velocity=0 time=24\n",
      "30975 note_on channel=0 note=78 velocity=70 time=0\n",
      "31020 note_on channel=0 note=76 velocity=76 time=45\n",
      "31020 note_off channel=0 note=78 velocity=0 time=0\n",
      "31065 note_off channel=0 note=76 velocity=0 time=45\n",
      "31066 note_on channel=0 note=78 velocity=76 time=1\n",
      "31081 note_off channel=0 note=67 velocity=0 time=15\n",
      "31096 note_on channel=0 note=69 velocity=51 time=15\n",
      "31106 note_off channel=0 note=78 velocity=0 time=10\n",
      "31111 note_off channel=0 note=61 velocity=0 time=5\n",
      "31126 note_on channel=0 note=76 velocity=70 time=15\n",
      "31156 note_on channel=0 note=74 velocity=76 time=30\n",
      "31156 note_off channel=0 note=76 velocity=0 time=0\n",
      "31187 note_off channel=0 note=74 velocity=0 time=31\n",
      "31217 note_on channel=0 note=76 velocity=75 time=30\n",
      "31247 note_off channel=0 note=69 velocity=0 time=30\n",
      "31271 note_on channel=0 note=78 velocity=77 time=24\n",
      "31306 note_off channel=0 note=76 velocity=0 time=35\n",
      "31309 note_on channel=0 note=66 velocity=46 time=3\n",
      "31317 note_on channel=0 note=62 velocity=35 time=8\n",
      "31320 note_off channel=0 note=62 velocity=0 time=3\n",
      "31574 note_off channel=0 note=66 velocity=0 time=254\n",
      "31594 note_on channel=0 note=74 velocity=65 time=20\n",
      "31681 note_off channel=0 note=78 velocity=0 time=87\n",
      "31684 note_on channel=0 note=69 velocity=59 time=3\n",
      "32051 note_off channel=0 note=74 velocity=0 time=367\n",
      "32138 note_off channel=0 note=69 velocity=0 time=87\n",
      "32427 note_on channel=0 note=81 velocity=73 time=289\n",
      "32473 note_on channel=0 note=66 velocity=31 time=46\n",
      "32488 note_on channel=0 note=62 velocity=27 time=15\n",
      "32648 note_off channel=0 note=66 velocity=0 time=160\n",
      "32656 note_on channel=0 note=69 velocity=48 time=8\n",
      "32754 note_off channel=0 note=69 velocity=0 time=98\n",
      "32793 note_on channel=0 note=66 velocity=47 time=39\n",
      "32951 note_off channel=0 note=66 velocity=0 time=158\n",
      "32982 note_on channel=0 note=69 velocity=41 time=31\n",
      "33103 note_off channel=0 note=69 velocity=0 time=121\n",
      "33133 note_on channel=0 note=86 velocity=72 time=30\n",
      "33162 note_on channel=0 note=66 velocity=41 time=29\n",
      "33169 note_off channel=0 note=81 velocity=0 time=7\n",
      "33175 note_off channel=0 note=86 velocity=0 time=6\n",
      "33234 note_on channel=0 note=85 velocity=70 time=59\n",
      "33250 note_off channel=0 note=62 velocity=0 time=16\n",
      "33324 note_on channel=0 note=69 velocity=41 time=74\n",
      "33328 note_off channel=0 note=66 velocity=0 time=4\n",
      "33328 note_off channel=0 note=85 velocity=0 time=0\n",
      "33330 note_on channel=0 note=86 velocity=74 time=2\n",
      "33334 note_off channel=0 note=86 velocity=0 time=4\n",
      "33366 note_off channel=0 note=69 velocity=0 time=32\n",
      "33400 note_on channel=0 note=81 velocity=71 time=34\n",
      "33491 note_off channel=0 note=81 velocity=0 time=91\n",
      "33506 note_on channel=0 note=62 velocity=35 time=15\n",
      "33519 note_on channel=0 note=78 velocity=64 time=13\n",
      "33689 note_on channel=0 note=69 velocity=47 time=170\n",
      "33734 note_off channel=0 note=69 velocity=0 time=45\n",
      "33821 note_off channel=0 note=78 velocity=0 time=87\n",
      "33855 note_on channel=0 note=66 velocity=57 time=34\n",
      "33861 note_off channel=0 note=66 velocity=0 time=6\n",
      "33996 note_on channel=0 note=69 velocity=49 time=135\n",
      "34152 note_off channel=0 note=69 velocity=0 time=156\n",
      "34199 note_on channel=0 note=81 velocity=61 time=47\n",
      "34201 note_on channel=0 note=66 velocity=44 time=2\n",
      "34244 note_off channel=0 note=81 velocity=0 time=43\n",
      "34259 note_on channel=0 note=80 velocity=67 time=15\n",
      "34274 note_off channel=0 note=80 velocity=0 time=15\n",
      "34313 note_off channel=0 note=62 velocity=0 time=39\n",
      "34320 note_off channel=0 note=66 velocity=0 time=7\n",
      "34321 note_on channel=0 note=69 velocity=37 time=1\n",
      "34344 note_on channel=0 note=81 velocity=62 time=23\n",
      "34356 note_off channel=0 note=69 velocity=0 time=12\n",
      "34385 note_off channel=0 note=81 velocity=0 time=29\n",
      "34395 note_on channel=0 note=78 velocity=60 time=10\n",
      "34436 note_off channel=0 note=78 velocity=0 time=41\n",
      "34542 note_on channel=0 note=74 velocity=46 time=106\n",
      "34578 note_on channel=0 note=57 velocity=29 time=36\n",
      "34578 note_on channel=0 note=66 velocity=32 time=0\n",
      "34593 note_off channel=0 note=74 velocity=0 time=15\n",
      "34654 note_off channel=0 note=66 velocity=0 time=61\n",
      "34740 note_on channel=0 note=69 velocity=50 time=86\n",
      "34775 note_off channel=0 note=69 velocity=0 time=35\n",
      "34846 note_on channel=0 note=74 velocity=63 time=71\n",
      "34927 note_on channel=0 note=66 velocity=38 time=81\n",
      "34943 note_off channel=0 note=74 velocity=0 time=16\n",
      "34954 note_off channel=0 note=57 velocity=0 time=11\n",
      "35043 note_off channel=0 note=66 velocity=0 time=89\n",
      "35096 note_on channel=0 note=69 velocity=45 time=53\n",
      "35227 note_off channel=0 note=69 velocity=0 time=131\n",
      "35273 note_on channel=0 note=67 velocity=45 time=46\n",
      "35285 note_on channel=0 note=76 velocity=54 time=12\n",
      "35288 note_on channel=0 note=61 velocity=38 time=3\n",
      "35319 note_off channel=0 note=76 velocity=0 time=31\n",
      "35325 note_on channel=0 note=74 velocity=60 time=6\n",
      "35368 note_off channel=0 note=67 velocity=0 time=43\n",
      "35410 note_off channel=0 note=61 velocity=0 time=42\n",
      "35410 note_off channel=0 note=74 velocity=0 time=0\n",
      "35441 note_on channel=0 note=76 velocity=56 time=31\n",
      "35446 note_on channel=0 note=69 velocity=38 time=5\n",
      "35447 note_off channel=0 note=76 velocity=0 time=1\n",
      "35494 note_off channel=0 note=69 velocity=0 time=47\n",
      "35498 note_on channel=0 note=78 velocity=66 time=4\n",
      "35513 note_off channel=0 note=78 velocity=0 time=15\n",
      "35614 note_on channel=0 note=62 velocity=43 time=101\n",
      "35643 note_on channel=0 note=74 velocity=50 time=29\n",
      "35647 note_off channel=0 note=62 velocity=0 time=4\n",
      "35693 note_on channel=0 note=57 velocity=44 time=46\n",
      "36008 note_off channel=0 note=57 velocity=0 time=315\n",
      "36043 note_off channel=0 note=74 velocity=0 time=35\n",
      "36473 note_on channel=0 note=50 velocity=21 time=430\n",
      "36504 note_off channel=0 note=50 velocity=0 time=31\n",
      "37051 note_on channel=0 note=66 velocity=31 time=547\n",
      "37059 note_on channel=0 note=62 velocity=17 time=8\n",
      "37149 note_on channel=0 note=83 velocity=48 time=90\n",
      "37271 note_off channel=0 note=83 velocity=0 time=122\n",
      "37277 note_on channel=0 note=81 velocity=57 time=6\n",
      "37318 note_off channel=0 note=81 velocity=0 time=41\n",
      "37357 note_on channel=0 note=69 velocity=44 time=39\n",
      "37365 note_off channel=0 note=66 velocity=0 time=8\n",
      "37378 note_on channel=0 note=80 velocity=62 time=13\n",
      "37424 note_off channel=0 note=80 velocity=0 time=46\n",
      "37434 note_on channel=0 note=81 velocity=72 time=10\n",
      "37469 note_off channel=0 note=81 velocity=0 time=35\n",
      "37515 note_off channel=0 note=69 velocity=0 time=46\n",
      "37515 note_on channel=0 note=80 velocity=76 time=0\n",
      "37534 note_on channel=0 note=66 velocity=41 time=19\n",
      "37547 note_off channel=0 note=80 velocity=0 time=13\n",
      "37587 note_on channel=0 note=81 velocity=73 time=40\n",
      "37609 note_off channel=0 note=81 velocity=0 time=22\n",
      "37668 note_off channel=0 note=66 velocity=0 time=59\n",
      "37673 note_on channel=0 note=80 velocity=72 time=5\n",
      "37691 note_on channel=0 note=69 velocity=44 time=18\n",
      "37695 note_off channel=0 note=80 velocity=0 time=4\n",
      "37746 note_on channel=0 note=81 velocity=77 time=51\n",
      "37819 note_off channel=0 note=69 velocity=0 time=73\n",
      "37819 note_off channel=0 note=81 velocity=0 time=0\n",
      "37849 note_on channel=0 note=66 velocity=54 time=30\n",
      "37850 note_on channel=0 note=83 velocity=73 time=1\n",
      "37864 note_off channel=0 note=83 velocity=0 time=14\n",
      "37932 note_on channel=0 note=81 velocity=72 time=68\n",
      "37994 note_off channel=0 note=81 velocity=0 time=62\n",
      "37995 note_off channel=0 note=66 velocity=0 time=1\n",
      "38009 note_off channel=0 note=62 velocity=0 time=14\n",
      "38018 note_on channel=0 note=69 velocity=42 time=9\n",
      "38024 note_on channel=0 note=86 velocity=71 time=6\n",
      "38025 note_off channel=0 note=86 velocity=0 time=1\n",
      "38085 note_off channel=0 note=69 velocity=0 time=60\n",
      "38085 note_on channel=0 note=81 velocity=64 time=0\n",
      "38131 note_off channel=0 note=81 velocity=0 time=46\n",
      "38177 note_on channel=0 note=66 velocity=48 time=46\n",
      "38193 note_on channel=0 note=62 velocity=31 time=16\n",
      "38193 note_on channel=0 note=79 velocity=68 time=0\n",
      "38268 note_on channel=0 note=78 velocity=73 time=75\n",
      "38299 note_off channel=0 note=79 velocity=0 time=31\n",
      "38330 note_off channel=0 note=78 velocity=0 time=31\n",
      "38336 note_off channel=0 note=66 velocity=0 time=6\n",
      "38345 note_on channel=0 note=69 velocity=45 time=9\n",
      "38360 note_on channel=0 note=77 velocity=70 time=15\n",
      "38406 note_off channel=0 note=77 velocity=0 time=46\n",
      "38436 note_on channel=0 note=78 velocity=68 time=30\n",
      "38466 note_off channel=0 note=69 velocity=0 time=30\n",
      "38482 note_off channel=0 note=78 velocity=0 time=16\n",
      "38489 note_on channel=0 note=66 velocity=54 time=7\n",
      "38511 note_on channel=0 note=77 velocity=73 time=22\n",
      "38558 note_off channel=0 note=77 velocity=0 time=47\n",
      "38587 note_on channel=0 note=78 velocity=69 time=29\n",
      "38633 note_off channel=0 note=66 velocity=0 time=46\n",
      "38633 note_off channel=0 note=78 velocity=0 time=0\n",
      "38651 note_on channel=0 note=69 velocity=46 time=18\n",
      "38671 note_on channel=0 note=77 velocity=71 time=20\n",
      "38676 note_off channel=0 note=77 velocity=0 time=5\n",
      "38721 note_on channel=0 note=78 velocity=71 time=45\n",
      "38777 note_off channel=0 note=69 velocity=0 time=56\n",
      "38785 note_off channel=0 note=78 velocity=0 time=8\n",
      "38795 note_on channel=0 note=66 velocity=49 time=10\n",
      "38822 note_on channel=0 note=79 velocity=64 time=27\n",
      "38898 note_off channel=0 note=79 velocity=0 time=76\n",
      "38914 note_on channel=0 note=78 velocity=69 time=16\n",
      "38929 note_off channel=0 note=66 velocity=0 time=15\n",
      "38938 note_off channel=0 note=78 velocity=0 time=9\n",
      "38954 note_off channel=0 note=62 velocity=0 time=16\n",
      "38963 note_on channel=0 note=69 velocity=40 time=9\n",
      "38967 note_on channel=0 note=81 velocity=64 time=4\n",
      "38997 note_off channel=0 note=69 velocity=0 time=30\n",
      "39010 note_off channel=0 note=81 velocity=0 time=13\n",
      "39071 note_on channel=0 note=78 velocity=63 time=61\n",
      "39159 note_off channel=0 note=78 velocity=0 time=88\n",
      "39178 note_on channel=0 note=76 velocity=56 time=19\n",
      "39183 note_on channel=0 note=57 velocity=37 time=5\n",
      "39191 note_on channel=0 note=66 velocity=38 time=8\n",
      "39193 note_off channel=0 note=76 velocity=0 time=2\n",
      "39280 note_on channel=0 note=74 velocity=62 time=87\n",
      "39295 note_off channel=0 note=66 velocity=0 time=15\n",
      "39324 note_off channel=0 note=74 velocity=0 time=29\n",
      "39331 note_on channel=0 note=69 velocity=56 time=7\n",
      "39353 note_on channel=0 note=73 velocity=68 time=22\n",
      "39386 note_off channel=0 note=73 velocity=0 time=33\n",
      "39402 note_off channel=0 note=69 velocity=0 time=16\n",
      "39452 note_on channel=0 note=74 velocity=69 time=50\n",
      "39458 note_off channel=0 note=74 velocity=0 time=6\n",
      "39489 note_on channel=0 note=76 velocity=70 time=31\n",
      "39529 note_on channel=0 note=66 velocity=51 time=40\n",
      "39530 note_off channel=0 note=76 velocity=0 time=1\n",
      "39576 note_on channel=0 note=74 velocity=71 time=46\n",
      "39599 note_off channel=0 note=74 velocity=0 time=23\n",
      "39652 note_off channel=0 note=57 velocity=0 time=53\n",
      "39669 note_off channel=0 note=66 velocity=0 time=17\n",
      "39669 note_on channel=0 note=69 velocity=57 time=0\n",
      "39673 note_on channel=0 note=73 velocity=71 time=4\n",
      "39678 note_off channel=0 note=73 velocity=0 time=5\n",
      "39710 note_on channel=0 note=74 velocity=76 time=32\n",
      "39789 note_off channel=0 note=69 velocity=0 time=79\n",
      "39798 note_off channel=0 note=74 velocity=0 time=9\n",
      "39836 note_on channel=0 note=78 velocity=70 time=38\n",
      "39838 note_on channel=0 note=67 velocity=51 time=2\n",
      "39841 note_on channel=0 note=61 velocity=42 time=3\n",
      "39842 note_on channel=0 note=76 velocity=65 time=1\n",
      "39918 note_off channel=0 note=78 velocity=0 time=76\n",
      "39957 note_off channel=0 note=76 velocity=0 time=39\n",
      "39966 note_off channel=0 note=67 velocity=0 time=9\n",
      "39972 note_off channel=0 note=61 velocity=0 time=6\n",
      "39987 note_on channel=0 note=75 velocity=76 time=15\n",
      "39993 note_on channel=0 note=69 velocity=48 time=6\n",
      "39997 note_off channel=0 note=75 velocity=0 time=4\n",
      "40039 note_on channel=0 note=76 velocity=65 time=42\n",
      "40073 note_off channel=0 note=69 velocity=0 time=34\n",
      "40155 note_on channel=0 note=78 velocity=70 time=82\n",
      "40156 note_off channel=0 note=76 velocity=0 time=1\n",
      "40176 note_on channel=0 note=62 velocity=35 time=20\n",
      "40187 note_on channel=0 note=66 velocity=42 time=11\n",
      "40253 note_on channel=0 note=74 velocity=64 time=66\n",
      "40256 note_off channel=0 note=78 velocity=0 time=3\n",
      "40268 note_off channel=0 note=74 velocity=0 time=12\n",
      "40326 note_on channel=0 note=73 velocity=70 time=58\n",
      "40344 note_off channel=0 note=73 velocity=0 time=18\n",
      "40375 note_on channel=0 note=76 velocity=66 time=31\n",
      "40409 note_off channel=0 note=76 velocity=0 time=34\n",
      "40440 note_on channel=0 note=74 velocity=75 time=31\n",
      "40509 note_off channel=0 note=74 velocity=0 time=69\n",
      "40534 note_on channel=0 note=78 velocity=69 time=25\n",
      "40587 note_off channel=0 note=78 velocity=0 time=53\n",
      "40617 note_on channel=0 note=76 velocity=73 time=30\n",
      "40643 note_off channel=0 note=62 velocity=0 time=26\n",
      "40668 note_off channel=0 note=66 velocity=0 time=25\n",
      "40693 note_off channel=0 note=76 velocity=0 time=25\n",
      "40724 note_on channel=0 note=79 velocity=70 time=31\n",
      "40801 note_off channel=0 note=79 velocity=0 time=77\n",
      "40815 note_on channel=0 note=78 velocity=78 time=14\n",
      "40846 note_off channel=0 note=78 velocity=0 time=31\n",
      "40849 note_on channel=0 note=81 velocity=69 time=3\n",
      "40974 note_off channel=0 note=81 velocity=0 time=125\n",
      "40975 note_on channel=0 note=79 velocity=72 time=1\n",
      "40977 note_off channel=0 note=79 velocity=0 time=2\n",
      "41023 note_on channel=0 note=83 velocity=62 time=46\n",
      "41142 note_on channel=0 note=62 velocity=36 time=119\n",
      "41166 note_on channel=0 note=66 velocity=39 time=24\n",
      "41172 note_off channel=0 note=83 velocity=0 time=6\n",
      "41181 note_on channel=0 note=80 velocity=61 time=9\n",
      "41263 note_off channel=0 note=80 velocity=0 time=82\n",
      "41278 note_on channel=0 note=81 velocity=61 time=15\n",
      "41354 note_off channel=0 note=66 velocity=0 time=76\n",
      "41355 note_off channel=0 note=81 velocity=0 time=1\n",
      "41355 note_on channel=0 note=83 velocity=73 time=0\n",
      "41365 note_on channel=0 note=69 velocity=50 time=10\n",
      "41431 note_off channel=0 note=83 velocity=0 time=66\n",
      "41442 note_on channel=0 note=81 velocity=75 time=11\n",
      "41447 note_off channel=0 note=69 velocity=0 time=5\n",
      "41491 note_off channel=0 note=81 velocity=0 time=44\n",
      "41517 note_on channel=0 note=66 velocity=49 time=26\n",
      "41518 note_on channel=0 note=83 velocity=79 time=1\n",
      "41529 note_on channel=0 note=81 velocity=77 time=11\n",
      "41604 note_off channel=0 note=66 velocity=0 time=75\n",
      "41604 note_off channel=0 note=83 velocity=0 time=0\n",
      "41659 note_on channel=0 note=69 velocity=45 time=55\n",
      "41664 note_off channel=0 note=81 velocity=0 time=5\n",
      "41666 note_on channel=0 note=83 velocity=76 time=2\n",
      "41684 note_on channel=0 note=81 velocity=78 time=18\n",
      "41765 note_off channel=0 note=83 velocity=0 time=81\n",
      "41788 note_off channel=0 note=69 velocity=0 time=23\n",
      "41818 note_off channel=0 note=81 velocity=0 time=30\n",
      "41826 note_on channel=0 note=66 velocity=47 time=8\n",
      "41834 note_on channel=0 note=80 velocity=76 time=8\n",
      "41880 note_off channel=0 note=80 velocity=0 time=46\n",
      "41910 note_on channel=0 note=81 velocity=75 time=30\n",
      "41971 note_off channel=0 note=81 velocity=0 time=61\n",
      "41980 note_on channel=0 note=69 velocity=39 time=9\n",
      "41984 note_off channel=0 note=66 velocity=0 time=4\n",
      "41985 note_off channel=0 note=62 velocity=0 time=1\n",
      "42001 note_on channel=0 note=86 velocity=69 time=16\n",
      "42006 note_off channel=0 note=86 velocity=0 time=5\n",
      "42062 note_off channel=0 note=69 velocity=0 time=56\n",
      "42065 note_on channel=0 note=81 velocity=75 time=3\n",
      "42123 note_off channel=0 note=81 velocity=0 time=58\n",
      "42154 note_on channel=0 note=62 velocity=43 time=31\n",
      "42156 note_on channel=0 note=77 velocity=66 time=2\n",
      "42167 note_on channel=0 note=66 velocity=41 time=11\n",
      "42168 note_off channel=0 note=77 velocity=0 time=1\n",
      "42217 note_on channel=0 note=78 velocity=66 time=49\n",
      "42250 note_off channel=0 note=78 velocity=0 time=33\n",
      "42290 note_off channel=0 note=66 velocity=0 time=40\n",
      "42302 note_on channel=0 note=79 velocity=70 time=12\n",
      "42326 note_on channel=0 note=69 velocity=43 time=24\n",
      "42332 note_off channel=0 note=79 velocity=0 time=6\n",
      "42398 note_on channel=0 note=78 velocity=75 time=66\n",
      "42427 note_off channel=0 note=69 velocity=0 time=29\n",
      "42443 note_off channel=0 note=78 velocity=0 time=16\n",
      "42474 note_on channel=0 note=66 velocity=50 time=31\n",
      "42497 note_on channel=0 note=79 velocity=60 time=23\n",
      "42542 note_off channel=0 note=79 velocity=0 time=45\n",
      "42558 note_on channel=0 note=78 velocity=71 time=16\n",
      "42587 note_off channel=0 note=78 velocity=0 time=29\n",
      "42598 note_off channel=0 note=66 velocity=0 time=11\n",
      "42618 note_on channel=0 note=69 velocity=45 time=20\n",
      "42633 note_on channel=0 note=79 velocity=64 time=15\n",
      "42679 note_on channel=0 note=78 velocity=72 time=46\n",
      "42714 note_off channel=0 note=79 velocity=0 time=35\n",
      "42739 note_off channel=0 note=69 velocity=0 time=25\n",
      "42769 note_off channel=0 note=78 velocity=0 time=30\n",
      "42771 note_on channel=0 note=66 velocity=49 time=2\n",
      "42800 note_on channel=0 note=77 velocity=67 time=29\n",
      "42805 note_off channel=0 note=77 velocity=0 time=5\n",
      "42877 note_on channel=0 note=78 velocity=73 time=72\n",
      "42891 note_off channel=0 note=62 velocity=0 time=14\n",
      "42909 note_off channel=0 note=66 velocity=0 time=18\n",
      "42922 note_on channel=0 note=69 velocity=37 time=13\n",
      "42932 note_off channel=0 note=78 velocity=0 time=10\n",
      "42938 note_on channel=0 note=81 velocity=59 time=6\n",
      "42965 note_off channel=0 note=69 velocity=0 time=27\n",
      "42974 note_off channel=0 note=81 velocity=0 time=9\n",
      "43025 note_on channel=0 note=78 velocity=66 time=51\n",
      "43105 note_off channel=0 note=78 velocity=0 time=80\n",
      "43118 note_on channel=0 note=57 velocity=41 time=13\n",
      "43124 note_on channel=0 note=73 velocity=61 time=6\n",
      "43132 note_on channel=0 note=66 velocity=28 time=8\n",
      "43139 note_off channel=0 note=73 velocity=0 time=7\n",
      "43173 note_on channel=0 note=74 velocity=63 time=34\n",
      "43226 note_off channel=0 note=74 velocity=0 time=53\n",
      "43264 note_off channel=0 note=66 velocity=0 time=38\n",
      "43274 note_on channel=0 note=76 velocity=62 time=10\n",
      "43292 note_on channel=0 note=69 velocity=47 time=18\n",
      "43310 note_off channel=0 note=76 velocity=0 time=18\n",
      "43356 note_on channel=0 note=74 velocity=59 time=46\n",
      "43371 note_off channel=0 note=69 velocity=0 time=15\n",
      "43402 note_off channel=0 note=74 velocity=0 time=31\n",
      "43431 note_on channel=0 note=66 velocity=43 time=29\n",
      "43437 note_on channel=0 note=73 velocity=62 time=6\n",
      "43462 note_off channel=0 note=73 velocity=0 time=25\n",
      "43492 note_on channel=0 note=74 velocity=66 time=30\n",
      "43553 note_off channel=0 note=74 velocity=0 time=61\n",
      "43554 note_off channel=0 note=57 velocity=0 time=1\n",
      "43591 note_off channel=0 note=66 velocity=0 time=37\n",
      "43591 note_on channel=0 note=69 velocity=48 time=0\n",
      "43597 note_on channel=0 note=76 velocity=62 time=6\n",
      "43599 note_off channel=0 note=76 velocity=0 time=2\n",
      "43635 note_on channel=0 note=74 velocity=61 time=36\n",
      "43704 note_off channel=0 note=69 velocity=0 time=69\n",
      "43720 note_off channel=0 note=74 velocity=0 time=16\n",
      "43766 note_on channel=0 note=61 velocity=37 time=46\n",
      "43766 note_on channel=0 note=75 velocity=63 time=0\n",
      "43769 note_on channel=0 note=67 velocity=48 time=3\n",
      "43769 note_off channel=0 note=75 velocity=0 time=0\n",
      "43802 note_on channel=0 note=76 velocity=63 time=33\n",
      "43873 note_off channel=0 note=76 velocity=0 time=71\n",
      "43888 note_off channel=0 note=67 velocity=0 time=15\n",
      "43903 note_off channel=0 note=61 velocity=0 time=15\n",
      "43906 note_on channel=0 note=69 velocity=42 time=3\n",
      "43914 note_on channel=0 note=78 velocity=66 time=8\n",
      "43919 note_on channel=0 note=76 velocity=64 time=5\n",
      "43989 note_off channel=0 note=78 velocity=0 time=70\n",
      "43993 note_off channel=0 note=76 velocity=0 time=4\n",
      "44033 note_off channel=0 note=69 velocity=0 time=40\n",
      "44093 note_on channel=0 note=76 velocity=58 time=60\n",
      "44097 note_on channel=0 note=66 velocity=45 time=4\n",
      "44102 note_on channel=0 note=62 velocity=42 time=5\n",
      "44108 note_off channel=0 note=76 velocity=0 time=6\n",
      "44169 note_on channel=0 note=74 velocity=65 time=61\n",
      "44182 note_off channel=0 note=74 velocity=0 time=13\n",
      "44261 note_on channel=0 note=73 velocity=74 time=79\n",
      "44263 note_off channel=0 note=73 velocity=0 time=2\n",
      "44294 note_off channel=0 note=66 velocity=0 time=31\n",
      "44318 note_off channel=0 note=62 velocity=0 time=24\n",
      "44325 note_on channel=0 note=71 velocity=68 time=7\n",
      "44338 note_off channel=0 note=71 velocity=0 time=13\n",
      "44366 note_on channel=0 note=69 velocity=75 time=28\n",
      "44422 note_off channel=0 note=69 velocity=0 time=56\n",
      "44483 note_on channel=0 note=67 velocity=68 time=61\n",
      "44505 note_off channel=0 note=67 velocity=0 time=22\n",
      "44536 note_on channel=0 note=66 velocity=61 time=31\n",
      "44574 note_off channel=0 note=66 velocity=0 time=38\n",
      "44608 note_on channel=0 note=64 velocity=63 time=34\n",
      "44651 note_off channel=0 note=64 velocity=0 time=43\n",
      "44754 note_on channel=0 note=62 velocity=53 time=103\n",
      "44906 note_off channel=0 note=62 velocity=0 time=152\n",
      "45241 note_on channel=0 note=62 velocity=36 time=335\n",
      "45245 note_on channel=0 note=66 velocity=33 time=4\n",
      "45317 note_on channel=0 note=83 velocity=58 time=72\n",
      "45331 note_off channel=0 note=83 velocity=0 time=14\n",
      "45401 note_on channel=0 note=81 velocity=61 time=70\n",
      "45427 note_off channel=0 note=81 velocity=0 time=26\n",
      "45465 note_on channel=0 note=69 velocity=47 time=38\n",
      "45481 note_off channel=0 note=66 velocity=0 time=16\n",
      "45500 note_on channel=0 note=80 velocity=60 time=19\n",
      "45508 note_off channel=0 note=80 velocity=0 time=8\n",
      "45546 note_on channel=0 note=81 velocity=60 time=38\n",
      "45585 note_off channel=0 note=81 velocity=0 time=39\n",
      "45619 note_off channel=0 note=69 velocity=0 time=34\n",
      "45624 note_on channel=0 note=80 velocity=59 time=5\n",
      "45666 note_on channel=0 note=66 velocity=41 time=42\n",
      "45678 note_off channel=0 note=80 velocity=0 time=12\n",
      "45702 note_on channel=0 note=81 velocity=58 time=24\n",
      "45734 note_off channel=0 note=81 velocity=0 time=32\n",
      "45771 note_off channel=0 note=66 velocity=0 time=37\n",
      "45789 note_on channel=0 note=80 velocity=56 time=18\n",
      "45812 note_on channel=0 note=69 velocity=37 time=23\n",
      "45830 note_off channel=0 note=80 velocity=0 time=18\n",
      "45863 note_on channel=0 note=81 velocity=64 time=33\n",
      "45887 note_off channel=0 note=69 velocity=0 time=24\n",
      "45928 note_off channel=0 note=81 velocity=0 time=41\n",
      "45930 note_on channel=0 note=83 velocity=64 time=2\n",
      "45968 note_on channel=0 note=66 velocity=41 time=38\n",
      "45972 note_off channel=0 note=83 velocity=0 time=4\n",
      "46002 note_on channel=0 note=81 velocity=69 time=30\n",
      "46043 note_off channel=0 note=81 velocity=0 time=41\n",
      "46081 note_on channel=0 note=86 velocity=68 time=38\n",
      "46126 note_off channel=0 note=66 velocity=0 time=45\n",
      "46127 note_on channel=0 note=69 velocity=41 time=1\n",
      "46145 note_off channel=0 note=86 velocity=0 time=18\n",
      "46156 note_off channel=0 note=62 velocity=0 time=11\n",
      "46190 note_on channel=0 note=81 velocity=59 time=34\n",
      "46201 note_off channel=0 note=69 velocity=0 time=11\n",
      "46205 note_off channel=0 note=81 velocity=0 time=4\n",
      "46282 note_on channel=0 note=79 velocity=65 time=77\n",
      "46297 note_on channel=0 note=62 velocity=44 time=15\n",
      "46301 note_on channel=0 note=66 velocity=44 time=4\n",
      "46337 note_off channel=0 note=79 velocity=0 time=36\n",
      "46359 note_on channel=0 note=78 velocity=73 time=22\n",
      "46413 note_off channel=0 note=78 velocity=0 time=54\n",
      "46427 note_off channel=0 note=66 velocity=0 time=14\n",
      "46443 note_on channel=0 note=77 velocity=68 time=16\n",
      "46458 note_on channel=0 note=69 velocity=46 time=15\n",
      "46489 note_off channel=0 note=77 velocity=0 time=31\n",
      "46519 note_on channel=0 note=78 velocity=69 time=30\n",
      "46549 note_off channel=0 note=78 velocity=0 time=30\n",
      "46565 note_off channel=0 note=69 velocity=0 time=16\n",
      "46595 note_on channel=0 note=77 velocity=74 time=30\n",
      "46599 note_on channel=0 note=66 velocity=46 time=4\n",
      "46624 note_off channel=0 note=77 velocity=0 time=25\n",
      "46652 note_on channel=0 note=78 velocity=73 time=28\n",
      "46717 note_off channel=0 note=78 velocity=0 time=65\n",
      "46722 note_off channel=0 note=66 velocity=0 time=5\n",
      "46727 note_on channel=0 note=77 velocity=74 time=5\n",
      "46750 note_on channel=0 note=69 velocity=44 time=23\n",
      "46762 note_off channel=0 note=77 velocity=0 time=12\n",
      "46793 note_on channel=0 note=78 velocity=70 time=31\n",
      "46827 note_off channel=0 note=78 velocity=0 time=34\n",
      "46860 note_off channel=0 note=69 velocity=0 time=33\n",
      "46884 note_on channel=0 note=66 velocity=46 time=24\n",
      "46889 note_on channel=0 note=79 velocity=62 time=5\n",
      "46929 note_off channel=0 note=79 velocity=0 time=40\n",
      "46989 note_on channel=0 note=78 velocity=73 time=60\n",
      "47020 note_off channel=0 note=78 velocity=0 time=31\n",
      "47024 note_off channel=0 note=66 velocity=0 time=4\n",
      "47035 note_off channel=0 note=62 velocity=0 time=11\n",
      "47035 note_on channel=0 note=69 velocity=47 time=0\n",
      "47065 note_on channel=0 note=81 velocity=62 time=30\n",
      "47079 note_off channel=0 note=69 velocity=0 time=14\n",
      "47097 note_off channel=0 note=81 velocity=0 time=18\n",
      "47154 note_on channel=0 note=78 velocity=59 time=57\n",
      "47226 note_off channel=0 note=78 velocity=0 time=72\n",
      "47248 note_on channel=0 note=76 velocity=57 time=22\n",
      "47251 note_on channel=0 note=66 velocity=36 time=3\n",
      "47252 note_on channel=0 note=57 velocity=41 time=1\n",
      "47258 note_off channel=0 note=76 velocity=0 time=6\n",
      "47333 note_on channel=0 note=74 velocity=61 time=75\n",
      "47363 note_off channel=0 note=74 velocity=0 time=30\n",
      "47386 note_off channel=0 note=66 velocity=0 time=23\n",
      "47396 note_on channel=0 note=69 velocity=50 time=10\n",
      "47423 note_on channel=0 note=73 velocity=66 time=27\n",
      "47424 note_off channel=0 note=73 velocity=0 time=1\n",
      "47468 note_on channel=0 note=74 velocity=71 time=44\n",
      "47499 note_off channel=0 note=69 velocity=0 time=31\n",
      "47513 note_off channel=0 note=74 velocity=0 time=14\n",
      "47575 note_on channel=0 note=66 velocity=49 time=62\n",
      "47575 note_on channel=0 note=76 velocity=68 time=0\n",
      "47606 note_off channel=0 note=76 velocity=0 time=31\n",
      "47637 note_on channel=0 note=74 velocity=74 time=31\n",
      "47652 note_off channel=0 note=74 velocity=0 time=15\n",
      "47691 note_off channel=0 note=57 velocity=0 time=39\n",
      "47697 note_off channel=0 note=66 velocity=0 time=6\n",
      "47722 note_on channel=0 note=73 velocity=69 time=25\n",
      "47723 note_on channel=0 note=69 velocity=56 time=1\n",
      "47728 note_off channel=0 note=73 velocity=0 time=5\n",
      "47765 note_on channel=0 note=74 velocity=76 time=37\n",
      "47856 note_off channel=0 note=74 velocity=0 time=91\n",
      "47857 note_off channel=0 note=69 velocity=0 time=1\n",
      "47887 note_on channel=0 note=78 velocity=74 time=30\n",
      "47891 note_on channel=0 note=67 velocity=56 time=4\n",
      "47895 note_on channel=0 note=61 velocity=46 time=4\n",
      "47899 note_off channel=0 note=78 velocity=0 time=4\n",
      "47970 note_on channel=0 note=76 velocity=65 time=71\n",
      "48009 note_off channel=0 note=67 velocity=0 time=39\n",
      "48024 note_off channel=0 note=76 velocity=0 time=15\n",
      "48040 note_off channel=0 note=61 velocity=0 time=16\n",
      "48040 note_on channel=0 note=69 velocity=40 time=0\n",
      "48047 note_on channel=0 note=75 velocity=78 time=7\n",
      "48052 note_off channel=0 note=75 velocity=0 time=5\n",
      "48101 note_on channel=0 note=76 velocity=74 time=49\n",
      "48177 note_off channel=0 note=69 velocity=0 time=76\n",
      "48207 note_off channel=0 note=76 velocity=0 time=30\n",
      "48222 note_on channel=0 note=78 velocity=69 time=15\n",
      "48223 note_on channel=0 note=62 velocity=41 time=1\n",
      "48240 note_on channel=0 note=66 velocity=45 time=17\n",
      "48241 note_on channel=0 note=74 velocity=64 time=1\n",
      "48314 note_off channel=0 note=78 velocity=0 time=73\n",
      "48327 note_off channel=0 note=74 velocity=0 time=13\n",
      "48381 note_on channel=0 note=73 velocity=66 time=54\n",
      "48385 note_off channel=0 note=73 velocity=0 time=4\n",
      "48465 note_on channel=0 note=76 velocity=53 time=80\n",
      "48495 note_off channel=0 note=76 velocity=0 time=30\n",
      "48504 note_on channel=0 note=74 velocity=69 time=9\n",
      "48539 note_off channel=0 note=74 velocity=0 time=35\n",
      "48587 note_on channel=0 note=78 velocity=71 time=48\n",
      "48624 note_off channel=0 note=78 velocity=0 time=37\n",
      "48685 note_on channel=0 note=76 velocity=65 time=61\n",
      "48716 note_off channel=0 note=62 velocity=0 time=31\n",
      "48731 note_off channel=0 note=66 velocity=0 time=15\n",
      "48737 note_off channel=0 note=76 velocity=0 time=6\n",
      "48777 note_on channel=0 note=79 velocity=62 time=40\n",
      "48838 note_off channel=0 note=79 velocity=0 time=61\n",
      "48853 note_on channel=0 note=78 velocity=79 time=15\n",
      "48884 note_off channel=0 note=78 velocity=0 time=31\n",
      "48929 note_on channel=0 note=81 velocity=69 time=45\n",
      "48989 note_off channel=0 note=81 velocity=0 time=60\n",
      "49016 note_on channel=0 note=79 velocity=69 time=27\n",
      "49018 note_off channel=0 note=79 velocity=0 time=2\n",
      "49058 note_on channel=0 note=83 velocity=68 time=40\n",
      "49186 note_on channel=0 note=62 velocity=42 time=128\n",
      "49202 note_on channel=0 note=66 velocity=41 time=16\n",
      "49207 note_off channel=0 note=83 velocity=0 time=5\n",
      "49223 note_on channel=0 note=80 velocity=68 time=16\n",
      "49243 note_off channel=0 note=80 velocity=0 time=20\n",
      "49313 note_on channel=0 note=81 velocity=64 time=70\n",
      "49369 note_off channel=0 note=81 velocity=0 time=56\n",
      "49417 note_off channel=0 note=66 velocity=0 time=48\n",
      "49419 note_on channel=0 note=83 velocity=73 time=2\n",
      "49423 note_on channel=0 note=69 velocity=48 time=4\n",
      "49427 note_off channel=0 note=83 velocity=0 time=4\n",
      "49500 note_on channel=0 note=81 velocity=79 time=73\n",
      "49501 note_off channel=0 note=69 velocity=0 time=1\n",
      "49557 note_off channel=0 note=81 velocity=0 time=56\n",
      "49575 note_on channel=0 note=66 velocity=54 time=18\n",
      "49582 note_on channel=0 note=83 velocity=78 time=7\n",
      "49587 note_off channel=0 note=83 velocity=0 time=5\n",
      "49666 note_on channel=0 note=81 velocity=77 time=79\n",
      "49668 note_off channel=0 note=66 velocity=0 time=2\n",
      "49722 note_off channel=0 note=81 velocity=0 time=54\n",
      "49730 note_on channel=0 note=69 velocity=47 time=8\n",
      "49740 note_on channel=0 note=83 velocity=76 time=10\n",
      "49753 note_on channel=0 note=81 velocity=74 time=13\n",
      "49825 note_off channel=0 note=83 velocity=0 time=72\n",
      "49826 note_off channel=0 note=69 velocity=0 time=1\n",
      "49871 note_off channel=0 note=81 velocity=0 time=45\n",
      "49894 note_on channel=0 note=66 velocity=48 time=23\n",
      "49909 note_on channel=0 note=80 velocity=71 time=15\n",
      "49955 note_off channel=0 note=80 velocity=0 time=46\n",
      "49958 note_on channel=0 note=81 velocity=75 time=3\n",
      "50030 note_off channel=0 note=81 velocity=0 time=72\n",
      "50061 note_on channel=0 note=86 velocity=72 time=31\n",
      "50064 note_off channel=0 note=66 velocity=0 time=3\n",
      "50071 note_on channel=0 note=69 velocity=48 time=7\n",
      "50077 note_off channel=0 note=62 velocity=0 time=6\n",
      "50088 note_off channel=0 note=86 velocity=0 time=11\n",
      "50100 note_on channel=0 note=81 velocity=77 time=12\n",
      "50138 note_off channel=0 note=69 velocity=0 time=38\n",
      "50190 note_off channel=0 note=81 velocity=0 time=52\n",
      "50251 note_on channel=0 note=77 velocity=73 time=61\n",
      "50253 note_on channel=0 note=62 velocity=47 time=2\n",
      "50259 note_on channel=0 note=66 velocity=50 time=6\n",
      "50281 note_on channel=0 note=78 velocity=70 time=22\n",
      "50355 note_off channel=0 note=77 velocity=0 time=74\n",
      "50419 note_off channel=0 note=78 velocity=0 time=64\n",
      "50421 note_off channel=0 note=66 velocity=0 time=2\n",
      "50424 note_on channel=0 note=79 velocity=61 time=3\n",
      "50451 note_on channel=0 note=69 velocity=47 time=27\n",
      "50452 note_off channel=0 note=79 velocity=0 time=1\n",
      "50510 note_on channel=0 note=78 velocity=81 time=58\n",
      "50520 note_off channel=0 note=78 velocity=0 time=10\n",
      "50559 note_off channel=0 note=69 velocity=0 time=39\n",
      "50602 note_on channel=0 note=79 velocity=68 time=43\n",
      "50603 note_on channel=0 note=66 velocity=50 time=1\n",
      "50633 note_off channel=0 note=79 velocity=0 time=30\n",
      "50647 note_on channel=0 note=78 velocity=71 time=14\n",
      "50692 note_off channel=0 note=78 velocity=0 time=45\n",
      "50723 note_off channel=0 note=66 velocity=0 time=31\n",
      "50738 note_on channel=0 note=79 velocity=65 time=15\n",
      "50754 note_on channel=0 note=69 velocity=51 time=16\n",
      "50783 note_on channel=0 note=78 velocity=69 time=29\n",
      "50821 note_off channel=0 note=79 velocity=0 time=38\n",
      "50859 note_off channel=0 note=69 velocity=0 time=38\n",
      "50878 note_off channel=0 note=78 velocity=0 time=19\n",
      "50904 note_on channel=0 note=66 velocity=49 time=26\n",
      "50904 note_on channel=0 note=77 velocity=64 time=0\n",
      "50943 note_off channel=0 note=77 velocity=0 time=39\n",
      "50988 note_on channel=0 note=78 velocity=74 time=45\n",
      "51035 note_off channel=0 note=78 velocity=0 time=47\n",
      "51050 note_off channel=0 note=66 velocity=0 time=15\n",
      "51064 note_on channel=0 note=81 velocity=65 time=14\n",
      "51069 note_on channel=0 note=69 velocity=46 time=5\n",
      "51071 note_off channel=0 note=62 velocity=0 time=2\n",
      "51080 note_off channel=0 note=69 velocity=0 time=9\n",
      "51125 note_on channel=0 note=78 velocity=66 time=45\n",
      "51125 note_off channel=0 note=81 velocity=0 time=0\n",
      "51216 note_off channel=0 note=78 velocity=0 time=91\n",
      "51231 note_on channel=0 note=73 velocity=67 time=15\n",
      "51238 note_on channel=0 note=57 velocity=47 time=7\n",
      "51246 note_on channel=0 note=66 velocity=44 time=8\n",
      "51259 note_off channel=0 note=73 velocity=0 time=13\n",
      "51288 note_on channel=0 note=74 velocity=64 time=29\n",
      "51321 note_off channel=0 note=74 velocity=0 time=33\n",
      "51349 note_off channel=0 note=66 velocity=0 time=28\n",
      "51379 note_on channel=0 note=76 velocity=63 time=30\n",
      "51395 note_on channel=0 note=69 velocity=51 time=16\n",
      "51405 note_off channel=0 note=76 velocity=0 time=10\n",
      "51460 note_on channel=0 note=74 velocity=65 time=55\n",
      "51476 note_off channel=0 note=69 velocity=0 time=16\n",
      "51505 note_off channel=0 note=74 velocity=0 time=29\n",
      "51535 note_on channel=0 note=73 velocity=71 time=30\n",
      "51544 note_on channel=0 note=66 velocity=51 time=9\n",
      "51581 note_off channel=0 note=73 velocity=0 time=37\n",
      "51611 note_on channel=0 note=74 velocity=72 time=30\n",
      "51642 note_off channel=0 note=74 velocity=0 time=31\n",
      "51658 note_off channel=0 note=57 velocity=0 time=16\n",
      "51688 note_off channel=0 note=66 velocity=0 time=30\n",
      "51699 note_on channel=0 note=76 velocity=66 time=11\n",
      "51700 note_on channel=0 note=69 velocity=53 time=1\n",
      "51706 note_off channel=0 note=76 velocity=0 time=6\n",
      "51738 note_on channel=0 note=74 velocity=71 time=32\n",
      "51802 note_off channel=0 note=69 velocity=0 time=64\n",
      "51817 note_off channel=0 note=74 velocity=0 time=15\n",
      "51847 note_on channel=0 note=75 velocity=67 time=30\n",
      "51865 note_on channel=0 note=67 velocity=51 time=18\n",
      "51867 note_on channel=0 note=61 velocity=43 time=2\n",
      "51878 note_off channel=0 note=75 velocity=0 time=11\n",
      "51900 note_on channel=0 note=76 velocity=67 time=22\n",
      "51984 note_off channel=0 note=67 velocity=0 time=84\n",
      "51984 note_off channel=0 note=76 velocity=0 time=0\n",
      "52000 note_on channel=0 note=78 velocity=74 time=16\n",
      "52009 note_off channel=0 note=61 velocity=0 time=9\n",
      "52021 note_on channel=0 note=69 velocity=44 time=12\n",
      "52022 note_on channel=0 note=76 velocity=64 time=1\n",
      "52089 note_off channel=0 note=76 velocity=0 time=67\n",
      "52089 note_off channel=0 note=78 velocity=0 time=0\n",
      "52135 note_off channel=0 note=69 velocity=0 time=46\n",
      "52166 note_on channel=0 note=76 velocity=67 time=31\n",
      "52180 note_on channel=0 note=62 velocity=48 time=14\n",
      "52195 note_on channel=0 note=66 velocity=50 time=15\n",
      "52198 note_off channel=0 note=76 velocity=0 time=3\n",
      "52248 note_on channel=0 note=74 velocity=70 time=50\n",
      "52266 note_off channel=0 note=74 velocity=0 time=18\n",
      "52349 note_on channel=0 note=73 velocity=72 time=83\n",
      "52350 note_off channel=0 note=73 velocity=0 time=1\n",
      "52382 note_on channel=0 note=71 velocity=68 time=32\n",
      "52424 note_off channel=0 note=71 velocity=0 time=42\n",
      "52450 note_off channel=0 note=66 velocity=0 time=26\n",
      "52454 note_off channel=0 note=62 velocity=0 time=4\n",
      "52472 note_on channel=0 note=69 velocity=74 time=18\n",
      "52512 note_off channel=0 note=69 velocity=0 time=40\n",
      "52576 note_on channel=0 note=67 velocity=75 time=64\n",
      "52592 note_off channel=0 note=67 velocity=0 time=16\n",
      "52640 note_on channel=0 note=66 velocity=74 time=48\n",
      "52663 note_off channel=0 note=66 velocity=0 time=23\n",
      "52703 note_on channel=0 note=64 velocity=71 time=40\n",
      "52740 note_off channel=0 note=64 velocity=0 time=37\n",
      "52834 note_on channel=0 note=62 velocity=59 time=94\n",
      "52964 note_off channel=0 note=62 velocity=0 time=130\n",
      "53291 note_on channel=0 note=57 velocity=53 time=327\n",
      "53351 note_on channel=0 note=76 velocity=66 time=60\n",
      "53361 note_on channel=0 note=73 velocity=58 time=10\n",
      "53464 note_off channel=0 note=76 velocity=0 time=103\n",
      "53480 note_off channel=0 note=73 velocity=0 time=16\n",
      "53503 note_on channel=0 note=69 velocity=66 time=23\n",
      "53529 note_on channel=0 note=64 velocity=51 time=26\n",
      "53531 note_on channel=0 note=73 velocity=75 time=2\n",
      "53608 note_off channel=0 note=64 velocity=0 time=77\n",
      "53638 note_off channel=0 note=69 velocity=0 time=30\n",
      "53641 note_off channel=0 note=73 velocity=0 time=3\n",
      "53651 note_on channel=0 note=61 velocity=51 time=10\n",
      "53673 note_on channel=0 note=76 velocity=76 time=22\n",
      "53690 note_on channel=0 note=73 velocity=84 time=17\n",
      "53767 note_off channel=0 note=76 velocity=0 time=77\n",
      "53770 note_off channel=0 note=73 velocity=0 time=3\n",
      "53816 note_off channel=0 note=61 velocity=0 time=46\n",
      "53822 note_on channel=0 note=64 velocity=55 time=6\n",
      "53832 note_on channel=0 note=79 velocity=77 time=10\n",
      "53853 note_on channel=0 note=76 velocity=72 time=21\n",
      "53928 note_off channel=0 note=79 velocity=0 time=75\n",
      "53965 note_off channel=0 note=76 velocity=0 time=37\n",
      "53980 note_off channel=0 note=64 velocity=0 time=15\n",
      "53992 note_on channel=0 note=78 velocity=84 time=12\n",
      "54018 note_on channel=0 note=62 velocity=53 time=26\n",
      "54028 note_off channel=0 note=78 velocity=0 time=10\n",
      "54067 note_off channel=0 note=57 velocity=0 time=39\n",
      "54094 note_on channel=0 note=74 velocity=79 time=27\n",
      "54165 note_off channel=0 note=74 velocity=0 time=71\n",
      "54171 note_on channel=0 note=81 velocity=80 time=6\n",
      "54180 note_off channel=0 note=62 velocity=0 time=9\n",
      "54185 note_on channel=0 note=66 velocity=53 time=5\n",
      "54226 note_off channel=0 note=66 velocity=0 time=41\n",
      "54231 note_on channel=0 note=78 velocity=78 time=5\n",
      "54256 note_off channel=0 note=81 velocity=0 time=25\n",
      "54333 note_on channel=0 note=79 velocity=72 time=77\n",
      "54345 note_off channel=0 note=78 velocity=0 time=12\n",
      "54352 note_on channel=0 note=64 velocity=62 time=7\n",
      "54356 note_on channel=0 note=57 velocity=54 time=4\n",
      "54370 note_on channel=0 note=76 velocity=71 time=14\n",
      "54370 note_off channel=0 note=79 velocity=0 time=0\n",
      "54424 note_off channel=0 note=76 velocity=0 time=54\n",
      "54483 note_on channel=0 note=85 velocity=81 time=59\n",
      "54510 note_off channel=0 note=85 velocity=0 time=27\n",
      "54587 note_on channel=0 note=81 velocity=76 time=77\n",
      "54598 note_off channel=0 note=81 velocity=0 time=11\n",
      "54700 note_on channel=0 note=88 velocity=62 time=102\n",
      "54717 note_on channel=0 note=89 velocity=23 time=17\n",
      "54740 note_off channel=0 note=89 velocity=0 time=23\n",
      "54748 note_on channel=0 note=86 velocity=76 time=8\n",
      "54857 note_on channel=0 note=85 velocity=80 time=109\n",
      "54857 note_off channel=0 note=88 velocity=0 time=0\n",
      "54886 note_off channel=0 note=86 velocity=0 time=29\n",
      "54916 note_on channel=0 note=83 velocity=78 time=30\n",
      "54978 note_off channel=0 note=85 velocity=0 time=62\n",
      "54993 note_off channel=0 note=57 velocity=0 time=15\n",
      "54997 note_off channel=0 note=83 velocity=0 time=4\n",
      "55024 note_off channel=0 note=64 velocity=0 time=27\n",
      "55030 note_on channel=0 note=81 velocity=73 time=6\n",
      "55042 note_off channel=0 note=81 velocity=0 time=12\n",
      "55070 note_on channel=0 note=79 velocity=78 time=28\n",
      "55117 note_off channel=0 note=79 velocity=0 time=47\n",
      "55197 note_on channel=0 note=78 velocity=74 time=80\n",
      "55198 note_off channel=0 note=78 velocity=0 time=1\n",
      "55257 note_on channel=0 note=76 velocity=70 time=59\n",
      "55282 note_off channel=0 note=76 velocity=0 time=25\n",
      "55358 note_on channel=0 note=62 velocity=50 time=76\n",
      "55358 note_on channel=0 note=78 velocity=72 time=0\n",
      "55378 note_on channel=0 note=74 velocity=62 time=20\n",
      "55461 note_off channel=0 note=74 velocity=0 time=83\n",
      "55506 note_on channel=0 note=66 velocity=43 time=45\n",
      "55556 note_on channel=0 note=69 velocity=40 time=50\n",
      "55561 note_off channel=0 note=78 velocity=0 time=5\n",
      "55583 note_off channel=0 note=69 velocity=0 time=22\n",
      "55610 note_on channel=0 note=74 velocity=72 time=27\n",
      "55640 note_off channel=0 note=74 velocity=0 time=30\n",
      "55652 note_on channel=0 note=69 velocity=51 time=12\n",
      "55676 note_off channel=0 note=66 velocity=0 time=24\n",
      "55686 note_on channel=0 note=78 velocity=78 time=10\n",
      "55715 note_off channel=0 note=78 velocity=0 time=29\n",
      "55776 note_on channel=0 note=74 velocity=73 time=61\n",
      "55791 note_off channel=0 note=69 velocity=0 time=15\n",
      "55822 note_off channel=0 note=74 velocity=0 time=31\n",
      "55833 note_on channel=0 note=66 velocity=54 time=11\n",
      "55844 note_on channel=0 note=81 velocity=71 time=11\n",
      "55868 note_on channel=0 note=78 velocity=70 time=24\n",
      "55926 note_off channel=0 note=81 velocity=0 time=58\n",
      "55927 note_off channel=0 note=66 velocity=0 time=1\n",
      "55950 note_off channel=0 note=78 velocity=0 time=23\n",
      "55975 note_off channel=0 note=62 velocity=0 time=25\n",
      "55988 note_on channel=0 note=64 velocity=55 time=13\n",
      "55998 note_on channel=0 note=79 velocity=61 time=10\n",
      "56051 note_off channel=0 note=79 velocity=0 time=53\n",
      "56082 note_on channel=0 note=76 velocity=70 time=31\n",
      "56111 note_off channel=0 note=76 velocity=0 time=29\n",
      "56143 note_on channel=0 note=67 velocity=58 time=32\n",
      "56156 note_on channel=0 note=83 velocity=68 time=13\n",
      "56162 note_off channel=0 note=64 velocity=0 time=6\n",
      "56170 note_off channel=0 note=67 velocity=0 time=8\n",
      "56201 note_off channel=0 note=83 velocity=0 time=31\n",
      "56231 note_on channel=0 note=79 velocity=68 time=30\n",
      "56280 note_off channel=0 note=79 velocity=0 time=49\n",
      "56347 note_on channel=0 note=66 velocity=48 time=67\n",
      "56348 note_on channel=0 note=62 velocity=27 time=1\n",
      "56349 note_on channel=0 note=81 velocity=64 time=1\n",
      "56363 note_off channel=0 note=81 velocity=0 time=14\n",
      "56440 note_on channel=0 note=78 velocity=70 time=77\n",
      "56485 note_off channel=0 note=78 velocity=0 time=45\n",
      "56515 note_on channel=0 note=74 velocity=64 time=30\n",
      "56561 note_off channel=0 note=74 velocity=0 time=46\n",
      "56591 note_on channel=0 note=73 velocity=66 time=30\n",
      "56610 note_off channel=0 note=73 velocity=0 time=19\n",
      "56652 note_on channel=0 note=76 velocity=64 time=42\n",
      "56712 note_off channel=0 note=76 velocity=0 time=60\n",
      "56773 note_on channel=0 note=74 velocity=67 time=61\n",
      "56776 note_off channel=0 note=74 velocity=0 time=3\n",
      "56833 note_on channel=0 note=78 velocity=71 time=57\n",
      "56864 note_off channel=0 note=78 velocity=0 time=31\n",
      "56926 note_on channel=0 note=76 velocity=53 time=62\n",
      "56955 note_off channel=0 note=76 velocity=0 time=29\n",
      "57002 note_on channel=0 note=79 velocity=65 time=47\n",
      "57032 note_off channel=0 note=79 velocity=0 time=30\n",
      "57048 note_off channel=0 note=62 velocity=0 time=16\n",
      "57063 note_off channel=0 note=66 velocity=0 time=15\n",
      "57100 note_on channel=0 note=78 velocity=72 time=37\n",
      "57131 note_off channel=0 note=78 velocity=0 time=31\n",
      "57134 note_on channel=0 note=81 velocity=64 time=3\n",
      "57179 note_off channel=0 note=81 velocity=0 time=45\n",
      "57219 note_on channel=0 note=79 velocity=62 time=40\n",
      "57360 note_off channel=0 note=79 velocity=0 time=141\n",
      "57375 note_on channel=0 note=62 velocity=44 time=15\n",
      "57389 note_on channel=0 note=83 velocity=54 time=14\n",
      "57510 note_on channel=0 note=81 velocity=57 time=121\n",
      "57517 note_off channel=0 note=83 velocity=0 time=7\n",
      "57572 note_off channel=0 note=81 velocity=0 time=55\n",
      "57590 note_on channel=0 note=79 velocity=60 time=18\n",
      "57603 note_on channel=0 note=66 velocity=45 time=13\n",
      "57617 note_on channel=0 note=78 velocity=69 time=14\n",
      "57687 note_off channel=0 note=78 velocity=0 time=70\n",
      "57687 note_off channel=0 note=79 velocity=0 time=0\n",
      "57722 note_off channel=0 note=66 velocity=0 time=35\n",
      "57748 note_on channel=0 note=76 velocity=66 time=26\n",
      "57766 note_on channel=0 note=69 velocity=47 time=18\n",
      "57772 note_off channel=0 note=76 velocity=0 time=6\n",
      "57801 note_on channel=0 note=74 velocity=73 time=29\n",
      "57860 note_off channel=0 note=74 velocity=0 time=59\n",
      "57913 note_off channel=0 note=69 velocity=0 time=53\n",
      "57918 note_on channel=0 note=73 velocity=71 time=5\n",
      "57942 note_on channel=0 note=66 velocity=49 time=24\n",
      "57943 note_off channel=0 note=73 velocity=0 time=1\n",
      "57972 note_on channel=0 note=74 velocity=65 time=29\n",
      "58028 note_off channel=0 note=66 velocity=0 time=56\n",
      "58127 note_off channel=0 note=74 velocity=0 time=99\n",
      "58132 note_on channel=0 note=83 velocity=65 time=5\n",
      "58142 note_on channel=0 note=67 velocity=44 time=10\n",
      "58157 note_on channel=0 note=85 velocity=71 time=15\n",
      "58246 note_off channel=0 note=83 velocity=0 time=89\n",
      "58340 note_on channel=0 note=86 velocity=68 time=94\n",
      "58341 note_on channel=0 note=71 velocity=47 time=1\n",
      "58344 note_off channel=0 note=85 velocity=0 time=3\n",
      "58360 note_off channel=0 note=67 velocity=0 time=16\n",
      "58371 note_off channel=0 note=62 velocity=0 time=11\n",
      "58385 note_on channel=0 note=83 velocity=68 time=14\n",
      "58418 note_off channel=0 note=86 velocity=0 time=33\n",
      "58445 note_off channel=0 note=71 velocity=0 time=27\n",
      "58506 note_on channel=0 note=80 velocity=74 time=61\n",
      "58506 note_off channel=0 note=83 velocity=0 time=0\n",
      "58508 note_on channel=0 note=62 velocity=44 time=2\n",
      "58522 note_on channel=0 note=66 velocity=50 time=14\n",
      "58537 note_off channel=0 note=80 velocity=0 time=15\n",
      "58597 note_on channel=0 note=81 velocity=70 time=60\n",
      "58622 note_off channel=0 note=81 velocity=0 time=25\n",
      "58667 note_on channel=0 note=83 velocity=81 time=45\n",
      "58698 note_off channel=0 note=83 velocity=0 time=31\n",
      "58758 note_on channel=0 note=81 velocity=83 time=60\n",
      "58761 note_on channel=0 note=69 velocity=52 time=3\n",
      "58804 note_off channel=0 note=81 velocity=0 time=43\n",
      "58806 note_off channel=0 note=69 velocity=0 time=2\n",
      "58834 note_on channel=0 note=79 velocity=76 time=28\n",
      "58864 note_off channel=0 note=79 velocity=0 time=30\n",
      "58895 note_on channel=0 note=78 velocity=71 time=31\n",
      "58987 note_on channel=0 note=76 velocity=70 time=92\n",
      "58987 note_off channel=0 note=78 velocity=0 time=0\n",
      "58990 note_off channel=0 note=76 velocity=0 time=3\n",
      "59014 note_off channel=0 note=66 velocity=0 time=24\n",
      "59034 note_on channel=0 note=74 velocity=79 time=20\n",
      "59124 note_off channel=0 note=74 velocity=0 time=90\n",
      "59139 note_on channel=0 note=83 velocity=66 time=15\n",
      "59157 note_on channel=0 note=67 velocity=59 time=18\n",
      "59245 note_off channel=0 note=83 velocity=0 time=88\n",
      "59245 note_on channel=0 note=85 velocity=76 time=0\n",
      "59260 note_off channel=0 note=67 velocity=0 time=15\n",
      "59287 note_on channel=0 note=71 velocity=48 time=27\n",
      "59294 note_on channel=0 note=86 velocity=72 time=7\n",
      "59336 note_off channel=0 note=85 velocity=0 time=42\n",
      "59367 note_off channel=0 note=71 velocity=0 time=31\n",
      "59396 note_on channel=0 note=83 velocity=69 time=29\n",
      "59420 note_off channel=0 note=86 velocity=0 time=24\n",
      "59423 note_off channel=0 note=62 velocity=0 time=3\n",
      "59440 note_off channel=0 note=83 velocity=0 time=17\n",
      "59528 note_on channel=0 note=83 velocity=78 time=88\n",
      "59542 note_on channel=0 note=66 velocity=57 time=14\n",
      "59548 note_on channel=0 note=62 velocity=48 time=6\n",
      "59619 note_off channel=0 note=83 velocity=0 time=71\n",
      "59633 note_on channel=0 note=81 velocity=72 time=14\n",
      "59664 note_off channel=0 note=81 velocity=0 time=31\n",
      "59667 note_on channel=0 note=69 velocity=51 time=3\n",
      "59691 note_off channel=0 note=66 velocity=0 time=24\n",
      "59699 note_off channel=0 note=62 velocity=0 time=8\n",
      "59702 note_on channel=0 note=86 velocity=75 time=3\n",
      "59731 note_off channel=0 note=86 velocity=0 time=29\n",
      "59806 note_on channel=0 note=81 velocity=70 time=75\n",
      "59830 note_off channel=0 note=81 velocity=0 time=24\n",
      "59837 note_on channel=0 note=83 velocity=28 time=7\n",
      "59860 note_off channel=0 note=69 velocity=0 time=23\n",
      "59860 note_off channel=0 note=83 velocity=0 time=0\n",
      "59875 note_on channel=0 note=61 velocity=49 time=15\n",
      "59903 note_on channel=0 note=64 velocity=52 time=28\n",
      "59909 note_on channel=0 note=81 velocity=70 time=6\n",
      "59967 note_off channel=0 note=81 velocity=0 time=58\n",
      "59997 note_on channel=0 note=79 velocity=81 time=30\n",
      "60007 note_off channel=0 note=61 velocity=0 time=10\n",
      "60044 note_off channel=0 note=64 velocity=0 time=37\n",
      "60053 note_off channel=0 note=79 velocity=0 time=9\n",
      "60054 note_on channel=0 note=69 velocity=45 time=1\n",
      "60060 note_on channel=0 note=88 velocity=80 time=6\n",
      "60113 note_off channel=0 note=88 velocity=0 time=53\n",
      "60148 note_on channel=0 note=79 velocity=66 time=35\n",
      "60224 note_off channel=0 note=79 velocity=0 time=76\n",
      "60250 note_off channel=0 note=69 velocity=0 time=26\n",
      "60310 note_on channel=0 note=79 velocity=58 time=60\n",
      "60321 note_on channel=0 note=62 velocity=47 time=11\n",
      "60325 note_on channel=0 note=66 velocity=49 time=4\n",
      "60355 note_off channel=0 note=79 velocity=0 time=30\n",
      "60447 note_on channel=0 note=78 velocity=75 time=92\n",
      "60462 note_off channel=0 note=78 velocity=0 time=15\n",
      "60523 note_on channel=0 note=69 velocity=37 time=61\n",
      "60537 note_on channel=0 note=86 velocity=65 time=14\n",
      "60552 note_off channel=0 note=62 velocity=0 time=15\n",
      "60568 note_off channel=0 note=66 velocity=0 time=16\n",
      "60583 note_off channel=0 note=86 velocity=0 time=15\n",
      "60607 note_on channel=0 note=78 velocity=75 time=24\n",
      "60644 note_off channel=0 note=78 velocity=0 time=37\n",
      "60826 note_off channel=0 note=69 velocity=0 time=182\n",
      "60842 note_on channel=0 note=78 velocity=72 time=16\n",
      "60857 note_on channel=0 note=61 velocity=38 time=15\n",
      "60872 note_on channel=0 note=57 velocity=41 time=15\n",
      "60971 note_off channel=0 note=78 velocity=0 time=99\n",
      "61001 note_on channel=0 note=76 velocity=65 time=30\n",
      "61047 note_off channel=0 note=76 velocity=0 time=46\n",
      "61070 note_on channel=0 note=75 velocity=75 time=23\n",
      "61138 note_off channel=0 note=75 velocity=0 time=68\n",
      "61174 note_on channel=0 note=76 velocity=71 time=36\n",
      "61214 note_off channel=0 note=76 velocity=0 time=40\n",
      "61269 note_on channel=0 note=74 velocity=73 time=55\n",
      "61320 note_off channel=0 note=74 velocity=0 time=51\n",
      "61366 note_on channel=0 note=73 velocity=74 time=46\n",
      "61395 note_off channel=0 note=73 velocity=0 time=29\n",
      "61455 note_on channel=0 note=74 velocity=72 time=60\n",
      "61502 note_off channel=0 note=74 velocity=0 time=47\n",
      "61521 note_on channel=0 note=72 velocity=74 time=19\n",
      "61524 note_off channel=0 note=72 velocity=0 time=3\n",
      "61645 note_on channel=0 note=73 velocity=65 time=121\n",
      "61783 note_off channel=0 note=73 velocity=0 time=138\n",
      "61798 note_on channel=0 note=71 velocity=61 time=15\n",
      "61893 note_off channel=0 note=71 velocity=0 time=95\n",
      "61924 note_on channel=0 note=69 velocity=59 time=31\n",
      "61969 note_off channel=0 note=69 velocity=0 time=45\n",
      "62060 note_on channel=0 note=68 velocity=62 time=91\n",
      "62149 note_off channel=0 note=57 velocity=0 time=89\n",
      "62180 note_off channel=0 note=61 velocity=0 time=31\n",
      "62196 note_off channel=0 note=68 velocity=0 time=16\n",
      "62242 note_on channel=0 note=69 velocity=56 time=46\n",
      "62271 note_off channel=0 note=69 velocity=0 time=29\n",
      "62507 note_on channel=0 note=62 velocity=29 time=236\n",
      "62523 note_on channel=0 note=66 velocity=42 time=16\n",
      "62599 note_on channel=0 note=83 velocity=55 time=76\n",
      "62675 note_off channel=0 note=83 velocity=0 time=76\n",
      "62706 note_on channel=0 note=81 velocity=61 time=31\n",
      "62782 note_off channel=0 note=81 velocity=0 time=76\n",
      "62798 note_off channel=0 note=66 velocity=0 time=16\n",
      "62813 note_on channel=0 note=69 velocity=36 time=15\n",
      "62815 note_on channel=0 note=80 velocity=61 time=2\n",
      "62844 note_off channel=0 note=80 velocity=0 time=29\n",
      "62874 note_on channel=0 note=81 velocity=67 time=30\n",
      "62920 note_off channel=0 note=81 velocity=0 time=46\n",
      "62949 note_off channel=0 note=69 velocity=0 time=29\n",
      "62979 note_on channel=0 note=80 velocity=65 time=30\n",
      "62995 note_on channel=0 note=66 velocity=53 time=16\n",
      "63010 note_off channel=0 note=80 velocity=0 time=15\n",
      "63041 note_on channel=0 note=81 velocity=67 time=31\n",
      "63101 note_off channel=0 note=81 velocity=0 time=60\n",
      "63132 note_on channel=0 note=69 velocity=44 time=31\n",
      "63140 note_off channel=0 note=66 velocity=0 time=8\n",
      "63140 note_on channel=0 note=80 velocity=64 time=0\n",
      "63162 note_off channel=0 note=80 velocity=0 time=22\n",
      "63192 note_on channel=0 note=81 velocity=70 time=30\n",
      "63261 note_off channel=0 note=81 velocity=0 time=69\n",
      "63291 note_off channel=0 note=69 velocity=0 time=30\n",
      "63306 note_on channel=0 note=83 velocity=68 time=15\n",
      "63322 note_on channel=0 note=66 velocity=41 time=16\n",
      "63351 note_off channel=0 note=83 velocity=0 time=29\n",
      "63382 note_on channel=0 note=81 velocity=68 time=31\n",
      "63412 note_off channel=0 note=81 velocity=0 time=30\n",
      "63443 note_off channel=0 note=62 velocity=0 time=31\n",
      "63443 note_off channel=0 note=66 velocity=0 time=0\n",
      "63453 note_on channel=0 note=86 velocity=64 time=10\n",
      "63474 note_on channel=0 note=69 velocity=44 time=21\n",
      "63474 note_off channel=0 note=86 velocity=0 time=0\n",
      "63501 note_off channel=0 note=69 velocity=0 time=27\n",
      "63531 note_on channel=0 note=81 velocity=55 time=30\n",
      "63566 note_off channel=0 note=81 velocity=0 time=35\n",
      "63626 note_on channel=0 note=62 velocity=43 time=60\n",
      "63627 note_on channel=0 note=79 velocity=67 time=1\n",
      "63631 note_on channel=0 note=66 velocity=38 time=4\n",
      "63642 note_on channel=0 note=78 velocity=68 time=11\n",
      "63718 note_off channel=0 note=79 velocity=0 time=76\n",
      "63722 note_off channel=0 note=78 velocity=0 time=4\n",
      "63759 note_off channel=0 note=66 velocity=0 time=37\n",
      "63778 note_on channel=0 note=77 velocity=73 time=19\n",
      "63794 note_on channel=0 note=69 velocity=45 time=16\n",
      "63824 note_off channel=0 note=77 velocity=0 time=30\n",
      "63854 note_on channel=0 note=78 velocity=80 time=30\n",
      "63915 note_off channel=0 note=69 velocity=0 time=61\n",
      "63919 note_off channel=0 note=78 velocity=0 time=4\n",
      "63930 note_on channel=0 note=77 velocity=78 time=11\n",
      "63961 note_on channel=0 note=66 velocity=47 time=31\n",
      "63999 note_off channel=0 note=77 velocity=0 time=38\n",
      "64029 note_on channel=0 note=78 velocity=80 time=30\n",
      "64090 note_off channel=0 note=78 velocity=0 time=61\n",
      "64105 note_off channel=0 note=66 velocity=0 time=15\n",
      "64108 note_on channel=0 note=77 velocity=78 time=3\n",
      "64109 note_on channel=0 note=69 velocity=48 time=1\n",
      "64165 note_off channel=0 note=77 velocity=0 time=56\n",
      "64176 note_on channel=0 note=78 velocity=77 time=11\n",
      "64196 note_off channel=0 note=69 velocity=0 time=20\n",
      "64256 note_off channel=0 note=78 velocity=0 time=60\n",
      "64271 note_on channel=0 note=79 velocity=71 time=15\n",
      "64272 note_on channel=0 note=66 velocity=50 time=1\n",
      "64333 note_off channel=0 note=79 velocity=0 time=61\n",
      "64348 note_on channel=0 note=78 velocity=74 time=15\n",
      "64410 note_off channel=0 note=78 velocity=0 time=62\n",
      "64424 note_off channel=0 note=62 velocity=0 time=14\n",
      "64436 note_off channel=0 note=66 velocity=0 time=12\n",
      "64436 note_on channel=0 note=69 velocity=48 time=0\n",
      "64440 note_on channel=0 note=81 velocity=70 time=4\n",
      "64455 note_off channel=0 note=69 velocity=0 time=15\n",
      "64498 note_off channel=0 note=81 velocity=0 time=43\n",
      "64522 note_on channel=0 note=78 velocity=71 time=24\n",
      "64592 note_off channel=0 note=78 velocity=0 time=70\n",
      "64607 note_on channel=0 note=76 velocity=61 time=15\n",
      "64622 note_on channel=0 note=57 velocity=48 time=15\n",
      "64638 note_on channel=0 note=66 velocity=45 time=16\n",
      "64638 note_off channel=0 note=76 velocity=0 time=0\n",
      "64659 note_on channel=0 note=74 velocity=70 time=21\n",
      "64744 note_off channel=0 note=74 velocity=0 time=85\n",
      "64758 note_off channel=0 note=66 velocity=0 time=14\n",
      "64782 note_on channel=0 note=73 velocity=74 time=24\n",
      "64798 note_on channel=0 note=69 velocity=53 time=16\n",
      "64843 note_off channel=0 note=73 velocity=0 time=45\n",
      "64874 note_off channel=0 note=69 velocity=0 time=31\n",
      "64874 note_on channel=0 note=74 velocity=78 time=0\n",
      "64919 note_off channel=0 note=74 velocity=0 time=45\n",
      "64949 note_on channel=0 note=66 velocity=52 time=30\n",
      "64949 note_on channel=0 note=76 velocity=81 time=0\n",
      "64995 note_off channel=0 note=76 velocity=0 time=46\n",
      "65024 note_on channel=0 note=74 velocity=79 time=29\n",
      "65070 note_off channel=0 note=57 velocity=0 time=46\n",
      "65072 note_off channel=0 note=74 velocity=0 time=2\n",
      "65083 note_on channel=0 note=73 velocity=72 time=11\n",
      "65103 note_off channel=0 note=66 velocity=0 time=20\n",
      "65104 note_on channel=0 note=69 velocity=58 time=1\n",
      "65146 note_off channel=0 note=73 velocity=0 time=42\n",
      "65151 note_on channel=0 note=74 velocity=81 time=5\n",
      "65223 note_off channel=0 note=69 velocity=0 time=72\n",
      "65253 note_on channel=0 note=78 velocity=74 time=30\n",
      "65268 note_on channel=0 note=67 velocity=54 time=15\n",
      "65268 note_off channel=0 note=74 velocity=0 time=0\n",
      "65278 note_on channel=0 note=61 velocity=43 time=10\n",
      "65281 note_on channel=0 note=76 velocity=67 time=3\n",
      "65348 note_off channel=0 note=78 velocity=0 time=67\n",
      "65354 note_off channel=0 note=67 velocity=0 time=6\n",
      "65406 note_off channel=0 note=76 velocity=0 time=52\n",
      "65421 note_on channel=0 note=75 velocity=80 time=15\n",
      "65427 note_off channel=0 note=61 velocity=0 time=6\n",
      "65431 note_on channel=0 note=69 velocity=50 time=4\n",
      "65451 note_off channel=0 note=75 velocity=0 time=20\n",
      "65491 note_on channel=0 note=76 velocity=72 time=40\n",
      "65580 note_off channel=0 note=69 velocity=0 time=89\n",
      "65596 note_off channel=0 note=76 velocity=0 time=16\n",
      "65600 note_on channel=0 note=78 velocity=71 time=4\n",
      "65625 note_on channel=0 note=62 velocity=41 time=25\n",
      "65628 note_on channel=0 note=66 velocity=47 time=3\n",
      "65656 note_on channel=0 note=74 velocity=64 time=28\n",
      "65697 note_off channel=0 note=78 velocity=0 time=41\n",
      "65711 note_on channel=0 note=73 velocity=72 time=14\n",
      "65766 note_off channel=0 note=73 velocity=0 time=55\n",
      "65766 note_off channel=0 note=74 velocity=0 time=0\n",
      "65800 note_on channel=0 note=76 velocity=72 time=34\n",
      "65868 note_off channel=0 note=76 velocity=0 time=68\n",
      "65929 note_on channel=0 note=74 velocity=73 time=61\n",
      "65960 note_off channel=0 note=74 velocity=0 time=31\n",
      "66007 note_on channel=0 note=78 velocity=70 time=47\n",
      "66037 note_off channel=0 note=78 velocity=0 time=30\n",
      "66082 note_on channel=0 note=76 velocity=70 time=45\n",
      "66097 note_off channel=0 note=62 velocity=0 time=15\n",
      "66112 note_off channel=0 note=66 velocity=0 time=15\n",
      "66121 note_off channel=0 note=76 velocity=0 time=9\n",
      "66173 note_on channel=0 note=79 velocity=60 time=52\n",
      "66204 note_off channel=0 note=79 velocity=0 time=31\n",
      "66235 note_on channel=0 note=78 velocity=79 time=31\n",
      "66264 note_off channel=0 note=78 velocity=0 time=29\n",
      "66318 note_on channel=0 note=81 velocity=71 time=54\n",
      "66325 note_off channel=0 note=81 velocity=0 time=7\n",
      "66405 note_on channel=0 note=79 velocity=72 time=80\n",
      "66406 note_off channel=0 note=79 velocity=0 time=1\n",
      "66449 note_on channel=0 note=83 velocity=66 time=43\n",
      "66576 note_on channel=0 note=62 velocity=36 time=127\n",
      "66591 note_on channel=0 note=66 velocity=41 time=15\n",
      "66607 note_off channel=0 note=83 velocity=0 time=16\n",
      "66650 note_on channel=0 note=80 velocity=68 time=43\n",
      "66728 note_off channel=0 note=80 velocity=0 time=78\n",
      "66743 note_on channel=0 note=81 velocity=69 time=15\n",
      "66773 note_off channel=0 note=81 velocity=0 time=30\n",
      "66824 note_off channel=0 note=66 velocity=0 time=51\n",
      "66837 note_on channel=0 note=69 velocity=51 time=13\n",
      "66837 note_on channel=0 note=83 velocity=71 time=0\n",
      "66840 note_off channel=0 note=83 velocity=0 time=3\n",
      "66911 note_on channel=0 note=81 velocity=78 time=71\n",
      "66912 note_off channel=0 note=81 velocity=0 time=1\n",
      "66981 note_off channel=0 note=69 velocity=0 time=69\n",
      "66987 note_on channel=0 note=83 velocity=80 time=6\n",
      "66999 note_on channel=0 note=66 velocity=56 time=12\n",
      "67016 note_on channel=0 note=81 velocity=79 time=17\n",
      "67084 note_off channel=0 note=83 velocity=0 time=68\n",
      "67085 note_off channel=0 note=66 velocity=0 time=1\n",
      "67151 note_off channel=0 note=81 velocity=0 time=66\n",
      "67155 note_on channel=0 note=69 velocity=49 time=4\n",
      "67251 note_on channel=0 note=81 velocity=76 time=96\n",
      "67253 note_off channel=0 note=69 velocity=0 time=2\n",
      "67301 note_off channel=0 note=81 velocity=0 time=48\n",
      "67317 note_on channel=0 note=66 velocity=52 time=16\n",
      "67386 note_on channel=0 note=81 velocity=76 time=69\n",
      "67451 note_off channel=0 note=81 velocity=0 time=65\n",
      "67481 note_on channel=0 note=69 velocity=45 time=30\n",
      "67485 note_off channel=0 note=66 velocity=0 time=4\n",
      "67485 note_on channel=0 note=86 velocity=70 time=0\n",
      "67487 note_off channel=0 note=62 velocity=0 time=2\n",
      "67508 note_off channel=0 note=86 velocity=0 time=21\n",
      "67522 note_on channel=0 note=81 velocity=71 time=14\n",
      "67564 note_off channel=0 note=69 velocity=0 time=42\n",
      "67619 note_off channel=0 note=81 velocity=0 time=55\n",
      "67649 note_on channel=0 note=77 velocity=64 time=30\n",
      "67664 note_on channel=0 note=62 velocity=40 time=15\n",
      "67680 note_on channel=0 note=66 velocity=37 time=16\n",
      "67681 note_off channel=0 note=77 velocity=0 time=1\n",
      "67707 note_on channel=0 note=78 velocity=63 time=26\n",
      "67754 note_off channel=0 note=78 velocity=0 time=47\n",
      "67800 note_off channel=0 note=66 velocity=0 time=46\n",
      "67826 note_on channel=0 note=79 velocity=62 time=26\n",
      "67843 note_on channel=0 note=69 velocity=43 time=17\n",
      "67853 note_off channel=0 note=79 velocity=0 time=10\n",
      "67886 note_on channel=0 note=78 velocity=70 time=33\n",
      "67919 note_off channel=0 note=78 velocity=0 time=33\n",
      "67955 note_off channel=0 note=69 velocity=0 time=36\n",
      "67962 note_on channel=0 note=79 velocity=57 time=7\n",
      "68009 note_on channel=0 note=66 velocity=40 time=47\n",
      "68037 note_off channel=0 note=79 velocity=0 time=28\n",
      "68066 note_on channel=0 note=78 velocity=67 time=29\n",
      "68097 note_off channel=0 note=78 velocity=0 time=31\n",
      "68142 note_off channel=0 note=66 velocity=0 time=45\n",
      "68146 note_on channel=0 note=79 velocity=51 time=4\n",
      "68158 note_on channel=0 note=69 velocity=45 time=12\n",
      "68218 note_on channel=0 note=78 velocity=63 time=60\n",
      "68227 note_off channel=0 note=79 velocity=0 time=9\n",
      "68249 note_off channel=0 note=69 velocity=0 time=22\n",
      "68272 note_off channel=0 note=78 velocity=0 time=23\n",
      "68309 note_on channel=0 note=77 velocity=62 time=37\n",
      "68319 note_on channel=0 note=66 velocity=39 time=10\n",
      "68340 note_off channel=0 note=77 velocity=0 time=21\n",
      "68348 note_on channel=0 note=78 velocity=70 time=8\n",
      "68396 note_off channel=0 note=66 velocity=0 time=48\n",
      "68442 note_off channel=0 note=62 velocity=0 time=46\n",
      "68444 note_off channel=0 note=78 velocity=0 time=2\n",
      "68448 note_on channel=0 note=69 velocity=39 time=4\n",
      "68472 note_on channel=0 note=81 velocity=61 time=24\n",
      "68483 note_off channel=0 note=69 velocity=0 time=11\n",
      "68503 note_off channel=0 note=81 velocity=0 time=20\n",
      "68524 note_on channel=0 note=78 velocity=65 time=21\n",
      "68638 note_off channel=0 note=78 velocity=0 time=114\n",
      "68653 note_on channel=0 note=73 velocity=60 time=15\n",
      "68664 note_on channel=0 note=57 velocity=38 time=11\n",
      "68668 note_on channel=0 note=66 velocity=34 time=4\n",
      "68685 note_off channel=0 note=73 velocity=0 time=17\n",
      "68703 note_on channel=0 note=74 velocity=62 time=18\n",
      "68747 note_off channel=0 note=74 velocity=0 time=44\n",
      "68775 note_off channel=0 note=66 velocity=0 time=28\n",
      "68781 note_on channel=0 note=76 velocity=58 time=6\n",
      "68826 note_on channel=0 note=69 velocity=38 time=45\n",
      "68841 note_off channel=0 note=76 velocity=0 time=15\n",
      "68896 note_off channel=0 note=69 velocity=0 time=55\n",
      "68897 note_on channel=0 note=74 velocity=61 time=1\n",
      "68926 note_off channel=0 note=74 velocity=0 time=29\n",
      "68971 note_on channel=0 note=73 velocity=63 time=45\n",
      "68986 note_on channel=0 note=66 velocity=49 time=15\n",
      "69002 note_off channel=0 note=73 velocity=0 time=16\n",
      "69062 note_on channel=0 note=74 velocity=68 time=60\n",
      "69064 note_off channel=0 note=74 velocity=0 time=2\n",
      "69093 note_off channel=0 note=66 velocity=0 time=29\n",
      "69130 note_off channel=0 note=57 velocity=0 time=37\n",
      "69139 note_on channel=0 note=69 velocity=37 time=9\n",
      "69140 note_on channel=0 note=76 velocity=55 time=1\n",
      "69142 note_off channel=0 note=76 velocity=0 time=2\n",
      "69175 note_on channel=0 note=74 velocity=57 time=33\n",
      "69210 note_off channel=0 note=69 velocity=0 time=35\n",
      "69249 note_off channel=0 note=74 velocity=0 time=39\n",
      "69306 note_on channel=0 note=75 velocity=56 time=57\n",
      "69308 note_on channel=0 note=61 velocity=40 time=2\n",
      "69316 note_on channel=0 note=67 velocity=45 time=8\n",
      "69316 note_off channel=0 note=75 velocity=0 time=0\n",
      "69333 note_on channel=0 note=76 velocity=67 time=17\n",
      "69375 note_off channel=0 note=76 velocity=0 time=42\n",
      "69451 note_on channel=0 note=78 velocity=69 time=76\n",
      "69459 note_off channel=0 note=67 velocity=0 time=8\n",
      "69481 note_on channel=0 note=69 velocity=48 time=22\n",
      "69496 note_off channel=0 note=61 velocity=0 time=15\n",
      "69499 note_on channel=0 note=76 velocity=63 time=3\n",
      "69538 note_off channel=0 note=78 velocity=0 time=39\n",
      "69540 note_off channel=0 note=69 velocity=0 time=2\n",
      "69551 note_off channel=0 note=76 velocity=0 time=11\n",
      "69664 note_on channel=0 note=62 velocity=44 time=113\n",
      "69675 note_on channel=0 note=66 velocity=43 time=11\n",
      "69680 note_on channel=0 note=74 velocity=33 time=5\n",
      "69768 note_off channel=0 note=74 velocity=0 time=88\n",
      "69814 note_on channel=0 note=73 velocity=67 time=46\n",
      "69819 note_off channel=0 note=73 velocity=0 time=5\n",
      "69866 note_on channel=0 note=71 velocity=62 time=47\n",
      "69900 note_off channel=0 note=71 velocity=0 time=34\n",
      "69927 note_off channel=0 note=66 velocity=0 time=27\n",
      "69960 note_off channel=0 note=62 velocity=0 time=33\n",
      "69984 note_on channel=0 note=69 velocity=67 time=24\n",
      "69988 note_off channel=0 note=69 velocity=0 time=4\n",
      "70053 note_on channel=0 note=67 velocity=69 time=65\n",
      "70067 note_off channel=0 note=67 velocity=0 time=14\n",
      "70110 note_on channel=0 note=66 velocity=72 time=43\n",
      "70146 note_off channel=0 note=66 velocity=0 time=36\n",
      "70184 note_on channel=0 note=64 velocity=66 time=38\n",
      "70237 note_off channel=0 note=64 velocity=0 time=53\n",
      "70328 note_on channel=0 note=62 velocity=53 time=91\n",
      "70478 note_off channel=0 note=62 velocity=0 time=150\n",
      "70811 note_on channel=0 note=50 velocity=68 time=333\n",
      "70872 note_on channel=0 note=78 velocity=79 time=61\n",
      "70875 note_on channel=0 note=81 velocity=79 time=3\n",
      "70876 note_on channel=0 note=74 velocity=78 time=1\n",
      "70911 note_off channel=0 note=50 velocity=0 time=35\n",
      "70972 note_on channel=0 note=62 velocity=66 time=61\n",
      "70973 note_off channel=0 note=62 velocity=0 time=1\n",
      "71036 note_on channel=0 note=61 velocity=67 time=63\n",
      "71075 note_off channel=0 note=61 velocity=0 time=39\n",
      "71106 note_on channel=0 note=62 velocity=76 time=31\n",
      "71147 note_off channel=0 note=62 velocity=0 time=41\n",
      "71218 note_on channel=0 note=64 velocity=71 time=71\n",
      "71227 note_off channel=0 note=64 velocity=0 time=9\n",
      "71252 note_on channel=0 note=62 velocity=64 time=25\n",
      "71319 note_off channel=0 note=62 velocity=0 time=67\n",
      "71380 note_on channel=0 note=61 velocity=61 time=61\n",
      "71386 note_off channel=0 note=61 velocity=0 time=6\n",
      "71456 note_on channel=0 note=62 velocity=59 time=70\n",
      "71469 note_off channel=0 note=74 velocity=0 time=13\n",
      "71501 note_off channel=0 note=62 velocity=0 time=32\n",
      "71515 note_off channel=0 note=81 velocity=0 time=14\n",
      "71517 note_off channel=0 note=78 velocity=0 time=2\n",
      "71546 note_on channel=0 note=86 velocity=84 time=29\n",
      "71549 note_on channel=0 note=57 velocity=71 time=3\n",
      "71555 note_off channel=0 note=86 velocity=0 time=6\n",
      "71572 note_off channel=0 note=57 velocity=0 time=17\n",
      "71599 note_on channel=0 note=62 velocity=72 time=27\n",
      "71626 note_off channel=0 note=62 velocity=0 time=27\n",
      "71685 note_on channel=0 note=54 velocity=60 time=59\n",
      "71710 note_off channel=0 note=54 velocity=0 time=25\n",
      "71766 note_on channel=0 note=57 velocity=74 time=56\n",
      "71778 note_off channel=0 note=57 velocity=0 time=12\n",
      "71831 note_on channel=0 note=78 velocity=80 time=53\n",
      "71869 note_on channel=0 note=50 velocity=74 time=38\n",
      "71873 note_on channel=0 note=74 velocity=75 time=4\n",
      "71874 note_on channel=0 note=69 velocity=64 time=1\n",
      "71875 note_off channel=0 note=50 velocity=0 time=1\n",
      "71915 note_on channel=0 note=62 velocity=63 time=40\n",
      "71968 note_off channel=0 note=62 velocity=0 time=53\n",
      "72024 note_on channel=0 note=61 velocity=64 time=56\n",
      "72050 note_off channel=0 note=61 velocity=0 time=26\n",
      "72090 note_on channel=0 note=62 velocity=71 time=40\n",
      "72133 note_off channel=0 note=62 velocity=0 time=43\n",
      "72192 note_on channel=0 note=64 velocity=71 time=59\n",
      "72209 note_off channel=0 note=64 velocity=0 time=17\n",
      "72234 note_on channel=0 note=62 velocity=69 time=25\n",
      "72287 note_off channel=0 note=62 velocity=0 time=53\n",
      "72313 note_on channel=0 note=61 velocity=63 time=26\n",
      "72361 note_off channel=0 note=61 velocity=0 time=48\n",
      "72388 note_on channel=0 note=62 velocity=51 time=27\n",
      "72490 note_off channel=0 note=62 velocity=0 time=102\n",
      "72490 note_off channel=0 note=69 velocity=0 time=0\n",
      "72521 note_on channel=0 note=57 velocity=74 time=31\n",
      "72525 note_off channel=0 note=74 velocity=0 time=4\n",
      "72525 note_on channel=0 note=81 velocity=72 time=0\n",
      "72536 note_off channel=0 note=78 velocity=0 time=11\n",
      "72551 note_off channel=0 note=81 velocity=0 time=15\n",
      "72567 note_off channel=0 note=57 velocity=0 time=16\n",
      "72588 note_on channel=0 note=62 velocity=71 time=21\n",
      "72609 note_off channel=0 note=62 velocity=0 time=21\n",
      "72665 note_on channel=0 note=54 velocity=58 time=56\n",
      "72735 note_off channel=0 note=54 velocity=0 time=70\n",
      "72765 note_on channel=0 note=57 velocity=61 time=30\n",
      "72780 note_off channel=0 note=57 velocity=0 time=15\n",
      "72799 note_on channel=0 note=74 velocity=84 time=19\n",
      "72830 note_on channel=0 note=66 velocity=71 time=31\n",
      "72834 note_on channel=0 note=71 velocity=65 time=4\n",
      "72835 note_on channel=0 note=47 velocity=72 time=1\n",
      "72853 note_off channel=0 note=47 velocity=0 time=18\n",
      "72917 note_on channel=0 note=50 velocity=57 time=64\n",
      "72933 note_off channel=0 note=66 velocity=0 time=16\n",
      "72938 note_off channel=0 note=50 velocity=0 time=5\n",
      "72997 note_on channel=0 note=54 velocity=66 time=59\n",
      "73001 note_off channel=0 note=54 velocity=0 time=4\n",
      "73056 note_on channel=0 note=59 velocity=71 time=55\n",
      "73058 note_off channel=0 note=59 velocity=0 time=2\n",
      "73089 note_off channel=0 note=71 velocity=0 time=31\n",
      "73103 note_off channel=0 note=74 velocity=0 time=14\n",
      "73111 note_on channel=0 note=43 velocity=75 time=8\n",
      "73157 note_on channel=0 note=71 velocity=57 time=46\n",
      "73157 note_on channel=0 note=76 velocity=80 time=0\n",
      "73159 note_on channel=0 note=74 velocity=66 time=2\n",
      "73162 note_on channel=0 note=67 velocity=73 time=3\n",
      "73165 note_off channel=0 note=67 velocity=0 time=3\n",
      "73227 note_off channel=0 note=43 velocity=0 time=62\n",
      "73234 note_on channel=0 note=47 velocity=59 time=7\n",
      "73238 note_off channel=0 note=71 velocity=0 time=4\n",
      "73238 note_off channel=0 note=76 velocity=0 time=0\n",
      "73243 note_off channel=0 note=74 velocity=0 time=5\n",
      "73258 note_on channel=0 note=52 velocity=65 time=15\n",
      "73307 note_off channel=0 note=47 velocity=0 time=49\n",
      "73308 note_on channel=0 note=55 velocity=70 time=1\n",
      "73382 note_off channel=0 note=52 velocity=0 time=74\n",
      "73442 note_off channel=0 note=55 velocity=0 time=60\n",
      "73457 note_on channel=0 note=45 velocity=67 time=15\n",
      "73478 note_on channel=0 note=76 velocity=71 time=21\n",
      "73486 note_on channel=0 note=69 velocity=54 time=8\n",
      "73488 note_on channel=0 note=79 velocity=76 time=2\n",
      "73490 note_on channel=0 note=73 velocity=66 time=2\n",
      "73491 note_off channel=0 note=45 velocity=0 time=1\n",
      "73567 note_on channel=0 note=49 velocity=61 time=76\n",
      "73577 note_off channel=0 note=69 velocity=0 time=10\n",
      "73592 note_off channel=0 note=76 velocity=0 time=15\n",
      "73608 note_off channel=0 note=73 velocity=0 time=16\n",
      "73616 note_on channel=0 note=52 velocity=67 time=8\n",
      "73616 note_off channel=0 note=79 velocity=0 time=0\n",
      "73630 note_off channel=0 note=49 velocity=0 time=14\n",
      "73652 note_off channel=0 note=52 velocity=0 time=22\n",
      "73667 note_on channel=0 note=57 velocity=59 time=15\n",
      "73744 note_off channel=0 note=57 velocity=0 time=77\n",
      "73805 note_on channel=0 note=50 velocity=66 time=61\n",
      "73820 note_on channel=0 note=78 velocity=81 time=15\n",
      "73835 note_on channel=0 note=74 velocity=76 time=15\n",
      "73912 note_off channel=0 note=78 velocity=0 time=77\n",
      "73947 note_on channel=0 note=73 velocity=77 time=35\n",
      "73994 note_off channel=0 note=74 velocity=0 time=47\n",
      "74007 note_off channel=0 note=73 velocity=0 time=13\n",
      "74051 note_on channel=0 note=76 velocity=69 time=44\n",
      "74074 note_off channel=0 note=76 velocity=0 time=23\n",
      "74124 note_on channel=0 note=74 velocity=81 time=50\n",
      "74150 note_off channel=0 note=74 velocity=0 time=26\n",
      "74199 note_on channel=0 note=78 velocity=84 time=49\n",
      "74230 note_off channel=0 note=50 velocity=0 time=31\n",
      "74254 note_off channel=0 note=78 velocity=0 time=24\n",
      "74283 note_on channel=0 note=76 velocity=75 time=29\n",
      "74306 note_off channel=0 note=76 velocity=0 time=23\n",
      "74378 note_on channel=0 note=79 velocity=78 time=72\n",
      "74381 note_off channel=0 note=79 velocity=0 time=3\n",
      "74431 note_on channel=0 note=78 velocity=86 time=50\n",
      "74459 note_off channel=0 note=78 velocity=0 time=28\n",
      "74510 note_on channel=0 note=81 velocity=70 time=51\n",
      "74534 note_off channel=0 note=81 velocity=0 time=24\n",
      "74609 note_on channel=0 note=79 velocity=75 time=75\n",
      "74612 note_off channel=0 note=79 velocity=0 time=3\n",
      "74659 note_on channel=0 note=83 velocity=74 time=47\n",
      "74709 note_off channel=0 note=83 velocity=0 time=50\n",
      "74763 note_on channel=0 note=50 velocity=58 time=54\n",
      "74787 note_on channel=0 note=81 velocity=80 time=24\n",
      "74789 note_on channel=0 note=74 velocity=78 time=2\n",
      "74792 note_on channel=0 note=78 velocity=81 time=3\n",
      "74795 note_off channel=0 note=50 velocity=0 time=3\n",
      "74829 note_on channel=0 note=62 velocity=66 time=34\n",
      "74871 note_off channel=0 note=62 velocity=0 time=42\n",
      "74932 note_on channel=0 note=61 velocity=70 time=61\n",
      "74961 note_off channel=0 note=61 velocity=0 time=29\n",
      "74997 note_on channel=0 note=62 velocity=75 time=36\n",
      "75037 note_off channel=0 note=62 velocity=0 time=40\n",
      "75092 note_on channel=0 note=64 velocity=69 time=55\n",
      "75119 note_off channel=0 note=64 velocity=0 time=27\n",
      "75144 note_on channel=0 note=62 velocity=72 time=25\n",
      "75188 note_off channel=0 note=81 velocity=0 time=44\n",
      "75196 note_off channel=0 note=62 velocity=0 time=8\n",
      "75217 note_on channel=0 note=61 velocity=61 time=21\n",
      "75263 note_off channel=0 note=61 velocity=0 time=46\n",
      "75290 note_on channel=0 note=62 velocity=65 time=27\n",
      "75328 note_off channel=0 note=74 velocity=0 time=38\n",
      "75380 note_off channel=0 note=62 velocity=0 time=52\n",
      "75381 note_off channel=0 note=78 velocity=0 time=1\n",
      "75404 note_on channel=0 note=57 velocity=72 time=23\n",
      "75404 note_on channel=0 note=86 velocity=77 time=0\n",
      "75417 note_off channel=0 note=86 velocity=0 time=13\n",
      "75419 note_off channel=0 note=57 velocity=0 time=2\n",
      "75465 note_on channel=0 note=62 velocity=73 time=46\n",
      "75490 note_off channel=0 note=62 velocity=0 time=25\n",
      "75547 note_on channel=0 note=54 velocity=65 time=57\n",
      "75571 note_on channel=0 note=73 velocity=32 time=24\n",
      "75594 note_off channel=0 note=54 velocity=0 time=23\n",
      "75629 note_off channel=0 note=73 velocity=0 time=35\n",
      "75630 note_on channel=0 note=57 velocity=66 time=1\n",
      "75650 note_off channel=0 note=57 velocity=0 time=20\n",
      "75701 note_on channel=0 note=69 velocity=65 time=51\n",
      "75710 note_on channel=0 note=78 velocity=74 time=9\n",
      "75712 note_on channel=0 note=74 velocity=67 time=2\n",
      "75715 note_on channel=0 note=50 velocity=72 time=3\n",
      "75721 note_off channel=0 note=50 velocity=0 time=6\n",
      "75759 note_on channel=0 note=62 velocity=64 time=38\n",
      "75809 note_off channel=0 note=62 velocity=0 time=50\n",
      "75862 note_on channel=0 note=61 velocity=69 time=53\n",
      "75890 note_off channel=0 note=61 velocity=0 time=28\n",
      "75933 note_on channel=0 note=62 velocity=69 time=43\n",
      "75972 note_off channel=0 note=62 velocity=0 time=39\n",
      "76026 note_on channel=0 note=64 velocity=72 time=54\n",
      "76043 note_off channel=0 note=64 velocity=0 time=17\n",
      "76109 note_on channel=0 note=62 velocity=71 time=66\n",
      "76139 note_off channel=0 note=62 velocity=0 time=30\n",
      "76170 note_on channel=0 note=61 velocity=64 time=31\n",
      "76215 note_off channel=0 note=61 velocity=0 time=45\n",
      "76268 note_on channel=0 note=62 velocity=65 time=53\n",
      "76299 note_off channel=0 note=69 velocity=0 time=31\n",
      "76305 note_off channel=0 note=62 velocity=0 time=6\n",
      "76344 note_on channel=0 note=81 velocity=51 time=39\n",
      "76345 note_off channel=0 note=78 velocity=0 time=1\n",
      "76348 note_off channel=0 note=74 velocity=0 time=3\n",
      "76349 note_on channel=0 note=57 velocity=72 time=1\n",
      "76359 note_off channel=0 note=81 velocity=0 time=10\n",
      "76375 note_off channel=0 note=57 velocity=0 time=16\n",
      "76383 note_on channel=0 note=62 velocity=59 time=8\n",
      "76427 note_on channel=0 note=60 velocity=33 time=44\n",
      "76458 note_off channel=0 note=62 velocity=0 time=31\n",
      "76463 note_off channel=0 note=60 velocity=0 time=5\n",
      "76496 note_on channel=0 note=54 velocity=69 time=33\n",
      "76497 note_off channel=0 note=54 velocity=0 time=1\n",
      "76572 note_on channel=0 note=57 velocity=58 time=75\n",
      "76603 note_off channel=0 note=57 velocity=0 time=31\n",
      "76603 note_on channel=0 note=74 velocity=71 time=0\n",
      "76655 note_on channel=0 note=66 velocity=59 time=52\n",
      "76661 note_on channel=0 note=47 velocity=59 time=6\n",
      "76668 note_on channel=0 note=71 velocity=31 time=7\n",
      "76709 note_on channel=0 note=72 velocity=9 time=41\n",
      "76727 note_off channel=0 note=47 velocity=0 time=18\n",
      "76742 note_off channel=0 note=72 velocity=0 time=15\n",
      "76746 note_on channel=0 note=50 velocity=60 time=4\n",
      "76747 note_off channel=0 note=66 velocity=0 time=1\n",
      "76773 note_off channel=0 note=50 velocity=0 time=26\n",
      "76788 note_off channel=0 note=74 velocity=0 time=15\n",
      "76792 note_on channel=0 note=54 velocity=67 time=4\n",
      "76804 note_off channel=0 note=54 velocity=0 time=12\n",
      "76864 note_on channel=0 note=59 velocity=55 time=60\n",
      "76880 note_off channel=0 note=59 velocity=0 time=16\n",
      "76940 note_on channel=0 note=43 velocity=68 time=60\n",
      "76957 note_on channel=0 note=76 velocity=79 time=17\n",
      "76967 note_off channel=0 note=71 velocity=0 time=10\n",
      "76969 note_on channel=0 note=67 velocity=67 time=2\n",
      "76974 note_on channel=0 note=71 velocity=52 time=5\n",
      "76981 note_off channel=0 note=76 velocity=0 time=7\n",
      "77006 note_off channel=0 note=67 velocity=0 time=25\n",
      "77010 note_off channel=0 note=71 velocity=0 time=4\n",
      "77031 note_off channel=0 note=43 velocity=0 time=21\n",
      "77099 note_on channel=0 note=50 velocity=59 time=68\n",
      "77134 note_off channel=0 note=50 velocity=0 time=35\n",
      "77206 note_on channel=0 note=55 velocity=56 time=72\n",
      "77237 note_off channel=0 note=55 velocity=0 time=31\n",
      "77240 note_on channel=0 note=45 velocity=63 time=3\n",
      "77293 note_on channel=0 note=64 velocity=65 time=53\n",
      "77293 note_on channel=0 note=73 velocity=77 time=0\n",
      "77297 note_on channel=0 note=67 velocity=68 time=4\n",
      "77297 note_on channel=0 note=69 velocity=67 time=0\n",
      "77299 note_off channel=0 note=64 velocity=0 time=2\n",
      "77358 note_off channel=0 note=73 velocity=0 time=59\n",
      "77372 note_off channel=0 note=45 velocity=0 time=14\n",
      "77372 note_on channel=0 note=49 velocity=50 time=0\n",
      "77372 note_off channel=0 note=67 velocity=0 time=0\n",
      "77381 note_off channel=0 note=69 velocity=0 time=9\n",
      "77387 note_off channel=0 note=49 velocity=0 time=6\n",
      "77438 note_on channel=0 note=52 velocity=60 time=51\n",
      "77480 note_off channel=0 note=52 velocity=0 time=42\n",
      "77483 note_on channel=0 note=57 velocity=65 time=3\n",
      "77509 note_off channel=0 note=57 velocity=0 time=26\n",
      "77647 note_on channel=0 note=38 velocity=60 time=138\n",
      "77652 note_on channel=0 note=74 velocity=77 time=5\n",
      "77657 note_on channel=0 note=62 velocity=56 time=5\n",
      "77661 note_on channel=0 note=69 velocity=59 time=4\n",
      "77665 note_on channel=0 note=66 velocity=49 time=4\n",
      "77675 note_off channel=0 note=38 velocity=0 time=10\n",
      "77706 note_on channel=0 note=50 velocity=71 time=31\n",
      "77738 note_off channel=0 note=50 velocity=0 time=32\n",
      "77776 note_on channel=0 note=54 velocity=72 time=38\n",
      "77842 note_off channel=0 note=54 velocity=0 time=66\n",
      "77865 note_on channel=0 note=50 velocity=73 time=23\n",
      "77915 note_off channel=0 note=50 velocity=0 time=50\n",
      "77948 note_on channel=0 note=45 velocity=65 time=33\n",
      "77999 note_off channel=0 note=45 velocity=0 time=51\n",
      "78035 note_on channel=0 note=50 velocity=63 time=36\n",
      "78067 note_off channel=0 note=50 velocity=0 time=32\n",
      "78106 note_on channel=0 note=42 velocity=59 time=39\n",
      "78162 note_off channel=0 note=42 velocity=0 time=56\n",
      "78207 note_off channel=0 note=62 velocity=0 time=45\n",
      "78238 note_on channel=0 note=45 velocity=52 time=31\n",
      "78253 note_off channel=0 note=45 velocity=0 time=15\n",
      "78336 note_off channel=0 note=74 velocity=0 time=83\n",
      "78392 note_off channel=0 note=66 velocity=0 time=56\n",
      "78395 note_on channel=0 note=38 velocity=37 time=3\n",
      "78402 note_off channel=0 note=69 velocity=0 time=7\n",
      "78519 note_off channel=0 note=38 velocity=0 time=117\n",
      "78861 note_on channel=0 note=50 velocity=52 time=342\n",
      "78922 note_on channel=0 note=81 velocity=65 time=61\n",
      "78938 note_on channel=0 note=78 velocity=54 time=16\n",
      "78951 note_on channel=0 note=74 velocity=54 time=13\n",
      "78956 note_off channel=0 note=50 velocity=0 time=5\n",
      "78970 note_on channel=0 note=62 velocity=31 time=14\n",
      "79036 note_off channel=0 note=62 velocity=0 time=66\n",
      "79096 note_on channel=0 note=61 velocity=50 time=60\n",
      "79121 note_off channel=0 note=61 velocity=0 time=25\n",
      "79146 note_on channel=0 note=62 velocity=67 time=25\n",
      "79197 note_off channel=0 note=62 velocity=0 time=51\n",
      "79234 note_on channel=0 note=64 velocity=56 time=37\n",
      "79290 note_off channel=0 note=64 velocity=0 time=56\n",
      "79312 note_on channel=0 note=62 velocity=67 time=22\n",
      "79361 note_off channel=0 note=62 velocity=0 time=49\n",
      "79390 note_on channel=0 note=60 velocity=39 time=29\n",
      "79464 note_off channel=0 note=60 velocity=0 time=74\n",
      "79498 note_on channel=0 note=62 velocity=59 time=34\n",
      "79523 note_off channel=0 note=74 velocity=0 time=25\n",
      "79541 note_off channel=0 note=62 velocity=0 time=18\n",
      "79555 note_off channel=0 note=78 velocity=0 time=14\n",
      "79608 note_off channel=0 note=81 velocity=0 time=53\n",
      "79608 note_on channel=0 note=86 velocity=80 time=0\n",
      "79610 note_on channel=0 note=54 velocity=48 time=2\n",
      "79620 note_off channel=0 note=86 velocity=0 time=10\n",
      "79629 note_on channel=0 note=62 velocity=60 time=9\n",
      "79644 note_off channel=0 note=54 velocity=0 time=15\n",
      "79653 note_off channel=0 note=62 velocity=0 time=9\n",
      "79701 note_on channel=0 note=56 velocity=78 time=48\n",
      "79740 note_off channel=0 note=56 velocity=0 time=39\n",
      "79776 note_on channel=0 note=50 velocity=69 time=36\n",
      "79888 note_on channel=0 note=78 velocity=83 time=112\n",
      "79909 note_on channel=0 note=69 velocity=62 time=21\n",
      "79917 note_off channel=0 note=50 velocity=0 time=8\n",
      "79917 note_on channel=0 note=74 velocity=70 time=0\n",
      "79932 note_on channel=0 note=62 velocity=58 time=15\n",
      "79993 note_off channel=0 note=62 velocity=0 time=61\n",
      "80054 note_on channel=0 note=61 velocity=64 time=61\n",
      "80072 note_off channel=0 note=61 velocity=0 time=18\n",
      "80115 note_on channel=0 note=62 velocity=68 time=43\n",
      "80164 note_off channel=0 note=62 velocity=0 time=49\n",
      "80218 note_on channel=0 note=64 velocity=59 time=54\n",
      "80244 note_off channel=0 note=64 velocity=0 time=26\n",
      "80271 note_on channel=0 note=62 velocity=70 time=27\n",
      "80314 note_off channel=0 note=62 velocity=0 time=43\n",
      "80341 note_on channel=0 note=61 velocity=63 time=27\n",
      "80384 note_off channel=0 note=61 velocity=0 time=43\n",
      "80444 note_on channel=0 note=62 velocity=62 time=60\n",
      "80473 note_off channel=0 note=69 velocity=0 time=29\n",
      "80489 note_off channel=0 note=62 velocity=0 time=16\n",
      "80535 note_on channel=0 note=57 velocity=65 time=46\n",
      "80537 note_on channel=0 note=81 velocity=71 time=2\n",
      "80540 note_off channel=0 note=74 velocity=0 time=3\n",
      "80542 note_off channel=0 note=78 velocity=0 time=2\n",
      "80565 note_off channel=0 note=81 velocity=0 time=23\n",
      "80580 note_off channel=0 note=57 velocity=0 time=15\n",
      "80586 note_on channel=0 note=62 velocity=72 time=6\n",
      "80607 note_off channel=0 note=62 velocity=0 time=21\n",
      "80671 note_on channel=0 note=54 velocity=65 time=64\n",
      "80733 note_off channel=0 note=54 velocity=0 time=62\n",
      "80764 note_on channel=0 note=57 velocity=53 time=31\n",
      "80794 note_off channel=0 note=57 velocity=0 time=30\n",
      "80794 note_on channel=0 note=74 velocity=77 time=0\n",
      "80838 note_on channel=0 note=66 velocity=65 time=44\n",
      "80843 note_on channel=0 note=71 velocity=57 time=5\n",
      "80845 note_on channel=0 note=47 velocity=71 time=2\n",
      "80923 note_off channel=0 note=47 velocity=0 time=78\n",
      "80923 note_off channel=0 note=66 velocity=0 time=0\n",
      "80932 note_on channel=0 note=50 velocity=53 time=9\n",
      "80969 note_off channel=0 note=50 velocity=0 time=37\n",
      "80984 note_on channel=0 note=54 velocity=55 time=15\n",
      "81029 note_off channel=0 note=54 velocity=0 time=45\n",
      "81045 note_on channel=0 note=59 velocity=50 time=16\n",
      "81091 note_off channel=0 note=74 velocity=0 time=46\n",
      "81096 note_off channel=0 note=71 velocity=0 time=5\n",
      "81097 note_off channel=0 note=59 velocity=0 time=1\n",
      "81106 note_on channel=0 note=76 velocity=75 time=9\n",
      "81157 note_on channel=0 note=43 velocity=65 time=51\n",
      "81158 note_on channel=0 note=67 velocity=63 time=1\n",
      "81162 note_on channel=0 note=71 velocity=60 time=4\n",
      "81167 note_on channel=0 note=74 velocity=68 time=5\n",
      "81170 note_on channel=0 note=47 velocity=64 time=3\n",
      "81215 note_off channel=0 note=67 velocity=0 time=45\n",
      "81226 note_off channel=0 note=71 velocity=0 time=11\n",
      "81241 note_off channel=0 note=76 velocity=0 time=15\n",
      "81244 note_off channel=0 note=43 velocity=0 time=3\n",
      "81246 note_off channel=0 note=74 velocity=0 time=2\n",
      "81287 note_off channel=0 note=47 velocity=0 time=41\n",
      "81303 note_on channel=0 note=52 velocity=65 time=16\n",
      "81312 note_on channel=0 note=55 velocity=68 time=9\n",
      "81378 note_off channel=0 note=52 velocity=0 time=66\n",
      "81424 note_off channel=0 note=55 velocity=0 time=46\n",
      "81438 note_on channel=0 note=45 velocity=65 time=14\n",
      "81464 note_on channel=0 note=76 velocity=69 time=26\n",
      "81472 note_on channel=0 note=69 velocity=57 time=8\n",
      "81477 note_on channel=0 note=73 velocity=61 time=5\n",
      "81477 note_on channel=0 note=79 velocity=74 time=0\n",
      "81485 note_on channel=0 note=49 velocity=57 time=8\n",
      "81555 note_off channel=0 note=45 velocity=0 time=70\n",
      "81577 note_off channel=0 note=69 velocity=0 time=22\n",
      "81592 note_off channel=0 note=76 velocity=0 time=15\n",
      "81608 note_on channel=0 note=52 velocity=57 time=16\n",
      "81611 note_off channel=0 note=73 velocity=0 time=3\n",
      "81611 note_off channel=0 note=79 velocity=0 time=0\n",
      "81618 note_off channel=0 note=49 velocity=0 time=7\n",
      "81622 note_off channel=0 note=52 velocity=0 time=4\n",
      "81656 note_on channel=0 note=57 velocity=60 time=34\n",
      "81736 note_off channel=0 note=57 velocity=0 time=80\n",
      "81812 note_on channel=0 note=78 velocity=73 time=76\n",
      "81816 note_on channel=0 note=50 velocity=66 time=4\n",
      "81818 note_on channel=0 note=74 velocity=77 time=2\n",
      "81913 note_off channel=0 note=78 velocity=0 time=95\n",
      "81983 note_on channel=0 note=73 velocity=73 time=70\n",
      "81986 note_off channel=0 note=74 velocity=0 time=3\n",
      "81988 note_off channel=0 note=73 velocity=0 time=2\n",
      "82041 note_on channel=0 note=76 velocity=69 time=53\n",
      "82072 note_off channel=0 note=76 velocity=0 time=31\n",
      "82116 note_on channel=0 note=74 velocity=83 time=44\n",
      "82142 note_off channel=0 note=74 velocity=0 time=26\n",
      "82179 note_on channel=0 note=78 velocity=85 time=37\n",
      "82219 note_off channel=0 note=78 velocity=0 time=40\n",
      "82263 note_on channel=0 note=76 velocity=83 time=44\n",
      "82296 note_off channel=0 note=50 velocity=0 time=33\n",
      "82301 note_off channel=0 note=76 velocity=0 time=5\n",
      "82348 note_on channel=0 note=79 velocity=77 time=47\n",
      "82370 note_off channel=0 note=79 velocity=0 time=22\n",
      "82435 note_on channel=0 note=78 velocity=86 time=65\n",
      "82504 note_off channel=0 note=78 velocity=0 time=69\n",
      "82534 note_on channel=0 note=81 velocity=66 time=30\n",
      "82549 note_on channel=0 note=79 velocity=67 time=15\n",
      "82594 note_off channel=0 note=79 velocity=0 time=45\n",
      "82602 note_off channel=0 note=81 velocity=0 time=8\n",
      "82633 note_on channel=0 note=80 velocity=62 time=31\n",
      "82671 note_off channel=0 note=80 velocity=0 time=38\n",
      "82674 note_on channel=0 note=83 velocity=60 time=3\n",
      "82701 note_off channel=0 note=83 velocity=0 time=27\n",
      "82809 note_on channel=0 note=81 velocity=74 time=108\n",
      "82824 note_on channel=0 note=74 velocity=71 time=15\n",
      "82824 note_on channel=0 note=78 velocity=75 time=0\n",
      "82827 note_on channel=0 note=50 velocity=63 time=3\n",
      "82831 note_off channel=0 note=50 velocity=0 time=4\n",
      "82873 note_on channel=0 note=62 velocity=65 time=42\n",
      "82961 note_off channel=0 note=62 velocity=0 time=88\n",
      "82976 note_on channel=0 note=61 velocity=67 time=15\n",
      "82997 note_off channel=0 note=61 velocity=0 time=21\n",
      "83066 note_on channel=0 note=62 velocity=76 time=69\n",
      "83074 note_off channel=0 note=62 velocity=0 time=8\n",
      "83111 note_on channel=0 note=64 velocity=74 time=37\n",
      "83145 note_off channel=0 note=64 velocity=0 time=34\n",
      "83213 note_on channel=0 note=62 velocity=75 time=68\n",
      "83243 note_off channel=0 note=62 velocity=0 time=30\n",
      "83259 note_on channel=0 note=61 velocity=61 time=16\n",
      "83301 note_off channel=0 note=61 velocity=0 time=42\n",
      "83349 note_on channel=0 note=62 velocity=76 time=48\n",
      "83379 note_off channel=0 note=74 velocity=0 time=30\n",
      "83402 note_off channel=0 note=62 velocity=0 time=23\n",
      "83410 note_off channel=0 note=78 velocity=0 time=8\n",
      "83435 note_off channel=0 note=81 velocity=0 time=25\n",
      "83435 note_on channel=0 note=86 velocity=86 time=0\n",
      "83438 note_on channel=0 note=57 velocity=76 time=3\n",
      "83445 note_off channel=0 note=86 velocity=0 time=7\n",
      "83487 note_off channel=0 note=57 velocity=0 time=42\n",
      "83516 note_on channel=0 note=62 velocity=73 time=29\n",
      "83563 note_off channel=0 note=62 velocity=0 time=47\n",
      "83577 note_on channel=0 note=54 velocity=61 time=14\n",
      "83638 note_off channel=0 note=54 velocity=0 time=61\n",
      "83647 note_on channel=0 note=57 velocity=57 time=9\n",
      "83684 note_on channel=0 note=78 velocity=87 time=37\n",
      "83726 note_on channel=0 note=69 velocity=69 time=42\n",
      "83728 note_off channel=0 note=57 velocity=0 time=2\n",
      "83729 note_on channel=0 note=50 velocity=71 time=1\n",
      "83729 note_on channel=0 note=74 velocity=82 time=0\n",
      "83742 note_off channel=0 note=50 velocity=0 time=13\n",
      "83777 note_on channel=0 note=62 velocity=68 time=35\n",
      "83818 note_off channel=0 note=62 velocity=0 time=41\n",
      "83883 note_on channel=0 note=61 velocity=65 time=65\n",
      "83898 note_off channel=0 note=61 velocity=0 time=15\n",
      "83939 note_on channel=0 note=62 velocity=74 time=41\n",
      "83985 note_off channel=0 note=62 velocity=0 time=46\n",
      "84038 note_on channel=0 note=64 velocity=70 time=53\n",
      "84060 note_off channel=0 note=64 velocity=0 time=22\n",
      "84086 note_on channel=0 note=62 velocity=74 time=26\n",
      "84130 note_off channel=0 note=62 velocity=0 time=44\n",
      "84166 note_on channel=0 note=61 velocity=65 time=36\n",
      "84204 note_off channel=0 note=61 velocity=0 time=38\n",
      "84228 note_on channel=0 note=62 velocity=75 time=24\n",
      "84265 note_off channel=0 note=69 velocity=0 time=37\n",
      "84315 note_off channel=0 note=62 velocity=0 time=50\n",
      "84345 note_off channel=0 note=74 velocity=0 time=30\n",
      "84348 note_on channel=0 note=57 velocity=75 time=3\n",
      "84349 note_on channel=0 note=81 velocity=62 time=1\n",
      "84361 note_off channel=0 note=78 velocity=0 time=12\n",
      "84362 note_off channel=0 note=81 velocity=0 time=1\n",
      "84374 note_off channel=0 note=57 velocity=0 time=12\n",
      "84421 note_on channel=0 note=62 velocity=75 time=47\n",
      "84423 note_off channel=0 note=62 velocity=0 time=2\n",
      "84461 note_on channel=0 note=54 velocity=59 time=38\n",
      "84542 note_off channel=0 note=54 velocity=0 time=81\n",
      "84557 note_on channel=0 note=57 velocity=59 time=15\n",
      "84567 note_off channel=0 note=57 velocity=0 time=10\n",
      "84595 note_on channel=0 note=71 velocity=68 time=28\n",
      "84636 note_on channel=0 note=74 velocity=71 time=41\n",
      "84644 note_on channel=0 note=66 velocity=63 time=8\n",
      "84645 note_on channel=0 note=47 velocity=63 time=1\n",
      "84710 note_off channel=0 note=47 velocity=0 time=65\n",
      "84713 note_on channel=0 note=50 velocity=61 time=3\n",
      "84733 note_off channel=0 note=66 velocity=0 time=20\n",
      "84778 note_off channel=0 note=50 velocity=0 time=45\n",
      "84781 note_on channel=0 note=54 velocity=73 time=3\n",
      "84793 note_off channel=0 note=74 velocity=0 time=12\n",
      "84825 note_off channel=0 note=54 velocity=0 time=32\n",
      "84839 note_on channel=0 note=59 velocity=67 time=14\n",
      "84870 note_off channel=0 note=59 velocity=0 time=31\n",
      "84886 note_off channel=0 note=71 velocity=0 time=16\n",
      "84903 note_on channel=0 note=76 velocity=75 time=17\n",
      "84947 note_on channel=0 note=43 velocity=66 time=44\n",
      "84948 note_on channel=0 note=71 velocity=41 time=1\n",
      "84958 note_on channel=0 note=67 velocity=65 time=10\n",
      "84962 note_off channel=0 note=76 velocity=0 time=4\n",
      "84977 note_off channel=0 note=71 velocity=0 time=15\n",
      "84988 note_off channel=0 note=67 velocity=0 time=11\n",
      "84990 note_off channel=0 note=43 velocity=0 time=2\n",
      "85011 note_on channel=0 note=47 velocity=52 time=21\n",
      "85052 note_off channel=0 note=47 velocity=0 time=41\n",
      "85074 note_on channel=0 note=52 velocity=64 time=22\n",
      "85112 note_off channel=0 note=52 velocity=0 time=38\n",
      "85153 note_on channel=0 note=55 velocity=61 time=41\n",
      "85204 note_off channel=0 note=55 velocity=0 time=51\n",
      "85219 note_on channel=0 note=45 velocity=65 time=15\n",
      "85255 note_on channel=0 note=69 velocity=61 time=36\n",
      "85258 note_on channel=0 note=67 velocity=58 time=3\n",
      "85258 note_on channel=0 note=73 velocity=69 time=0\n",
      "85264 note_on channel=0 note=64 velocity=51 time=6\n",
      "85267 note_off channel=0 note=45 velocity=0 time=3\n",
      "85327 note_off channel=0 note=64 velocity=0 time=60\n",
      "85340 note_off channel=0 note=73 velocity=0 time=13\n",
      "85341 note_on channel=0 note=49 velocity=58 time=1\n",
      "85348 note_off channel=0 note=67 velocity=0 time=7\n",
      "85355 note_off channel=0 note=69 velocity=0 time=7\n",
      "85371 note_on channel=0 note=52 velocity=65 time=16\n",
      "85405 note_off channel=0 note=49 velocity=0 time=34\n",
      "85410 note_off channel=0 note=52 velocity=0 time=5\n",
      "85449 note_on channel=0 note=57 velocity=43 time=39\n",
      "85530 note_off channel=0 note=57 velocity=0 time=81\n",
      "85607 note_on channel=0 note=62 velocity=41 time=77\n",
      "85613 note_on channel=0 note=66 velocity=47 time=6\n",
      "85613 note_on channel=0 note=74 velocity=68 time=0\n",
      "85614 note_on channel=0 note=38 velocity=44 time=1\n",
      "85616 note_on channel=0 note=69 velocity=52 time=2\n",
      "85619 note_on channel=0 note=40 velocity=38 time=3\n",
      "85633 note_off channel=0 note=38 velocity=0 time=14\n",
      "85652 note_off channel=0 note=40 velocity=0 time=19\n",
      "85673 note_on channel=0 note=54 velocity=63 time=21\n",
      "85775 note_off channel=0 note=54 velocity=0 time=102\n",
      "85801 note_on channel=0 note=52 velocity=42 time=26\n",
      "85878 note_on channel=0 note=50 velocity=28 time=77\n",
      "85890 note_off channel=0 note=52 velocity=0 time=12\n",
      "85909 note_off channel=0 note=50 velocity=0 time=19\n",
      "85934 note_on channel=0 note=50 velocity=71 time=25\n",
      "86013 note_off channel=0 note=50 velocity=0 time=79\n",
      "86053 note_on channel=0 note=42 velocity=57 time=40\n",
      "86104 note_off channel=0 note=42 velocity=0 time=51\n",
      "86147 note_on channel=0 note=45 velocity=46 time=43\n",
      "86186 note_off channel=0 note=45 velocity=0 time=39\n",
      "86358 note_off channel=0 note=62 velocity=0 time=172\n",
      "86380 note_on channel=0 note=38 velocity=41 time=22\n",
      "86384 note_off channel=0 note=74 velocity=0 time=4\n",
      "86511 note_off channel=0 note=66 velocity=0 time=127\n",
      "86542 note_off channel=0 note=69 velocity=0 time=31\n",
      "86561 note_off channel=0 note=38 velocity=0 time=19\n",
      "86907 note_on channel=0 note=76 velocity=68 time=346\n",
      "86924 note_on channel=0 note=69 velocity=48 time=17\n",
      "86938 note_on channel=0 note=73 velocity=30 time=14\n",
      "86954 note_on channel=0 note=45 velocity=59 time=16\n",
      "87057 note_off channel=0 note=76 velocity=0 time=103\n",
      "87135 note_on channel=0 note=47 velocity=59 time=78\n",
      "87150 note_off channel=0 note=45 velocity=0 time=15\n",
      "87159 note_off channel=0 note=73 velocity=0 time=9\n",
      "87179 note_on channel=0 note=49 velocity=65 time=20\n",
      "87215 note_off channel=0 note=69 velocity=0 time=36\n",
      "87230 note_off channel=0 note=47 velocity=0 time=15\n",
      "87242 note_on channel=0 note=50 velocity=63 time=12\n",
      "87315 note_on channel=0 note=76 velocity=78 time=73\n",
      "87320 note_on channel=0 note=69 velocity=75 time=5\n",
      "87323 note_on channel=0 note=73 velocity=74 time=3\n",
      "87324 note_off channel=0 note=49 velocity=0 time=1\n",
      "87358 note_off channel=0 note=50 velocity=0 time=34\n",
      "87391 note_on channel=0 note=52 velocity=69 time=33\n",
      "87408 note_off channel=0 note=52 velocity=0 time=17\n",
      "87480 note_on channel=0 note=54 velocity=75 time=72\n",
      "87556 note_on channel=0 note=56 velocity=77 time=76\n",
      "87567 note_off channel=0 note=69 velocity=0 time=11\n",
      "87568 note_off channel=0 note=76 velocity=0 time=1\n",
      "87574 note_off channel=0 note=73 velocity=0 time=6\n",
      "87585 note_off channel=0 note=54 velocity=0 time=11\n",
      "87616 note_off channel=0 note=56 velocity=0 time=31\n",
      "87632 note_on channel=0 note=57 velocity=72 time=16\n",
      "87644 note_on channel=0 note=76 velocity=81 time=12\n",
      "87648 note_on channel=0 note=73 velocity=76 time=4\n",
      "87651 note_on channel=0 note=69 velocity=75 time=3\n",
      "87657 note_off channel=0 note=57 velocity=0 time=6\n",
      "87737 note_on channel=0 note=59 velocity=69 time=80\n",
      "87782 note_off channel=0 note=69 velocity=0 time=45\n",
      "87804 note_on channel=0 note=61 velocity=68 time=22\n",
      "87822 note_off channel=0 note=76 velocity=0 time=18\n",
      "87828 note_off channel=0 note=59 velocity=0 time=6\n",
      "87835 note_off channel=0 note=73 velocity=0 time=7\n",
      "87882 note_on channel=0 note=62 velocity=77 time=47\n",
      "87900 note_off channel=0 note=61 velocity=0 time=18\n",
      "87972 note_off channel=0 note=62 velocity=0 time=72\n",
      "87987 note_on channel=0 note=64 velocity=67 time=15\n",
      "88003 note_on channel=0 note=76 velocity=86 time=16\n",
      "88010 note_on channel=0 note=73 velocity=75 time=7\n",
      "88012 note_off channel=0 note=64 velocity=0 time=2\n",
      "88064 note_on channel=0 note=62 velocity=65 time=52\n",
      "88084 note_off channel=0 note=62 velocity=0 time=20\n",
      "88153 note_on channel=0 note=61 velocity=63 time=69\n",
      "88161 note_off channel=0 note=61 velocity=0 time=8\n",
      "88192 note_on channel=0 note=59 velocity=71 time=31\n",
      "88242 note_off channel=0 note=59 velocity=0 time=50\n",
      "88293 note_on channel=0 note=57 velocity=67 time=51\n",
      "88326 note_off channel=0 note=57 velocity=0 time=33\n",
      "88389 note_on channel=0 note=55 velocity=64 time=63\n",
      "88401 note_off channel=0 note=55 velocity=0 time=12\n",
      "88475 note_on channel=0 note=54 velocity=69 time=74\n",
      "88480 note_off channel=0 note=73 velocity=0 time=5\n",
      "88505 note_off channel=0 note=54 velocity=0 time=25\n",
      "88508 note_off channel=0 note=76 velocity=0 time=3\n",
      "88527 note_on channel=0 note=52 velocity=73 time=19\n",
      "88567 note_on channel=0 note=78 velocity=79 time=40\n",
      "88589 note_on channel=0 note=74 velocity=72 time=22\n",
      "88592 note_off channel=0 note=52 velocity=0 time=3\n",
      "88597 note_off channel=0 note=74 velocity=0 time=5\n",
      "88624 note_on channel=0 note=50 velocity=55 time=27\n",
      "88651 note_off channel=0 note=78 velocity=0 time=27\n",
      "88663 note_on channel=0 note=79 velocity=77 time=12\n",
      "88679 note_on channel=0 note=76 velocity=67 time=16\n",
      "88681 note_off channel=0 note=50 velocity=0 time=2\n",
      "88702 note_on channel=0 note=49 velocity=63 time=21\n",
      "88715 note_off channel=0 note=49 velocity=0 time=13\n",
      "88802 note_on channel=0 note=47 velocity=66 time=87\n",
      "88847 note_on channel=0 note=45 velocity=73 time=45\n",
      "88866 note_off channel=0 note=47 velocity=0 time=19\n",
      "88894 note_off channel=0 note=79 velocity=0 time=28\n",
      "88895 note_off channel=0 note=45 velocity=0 time=1\n",
      "88907 note_off channel=0 note=76 velocity=0 time=12\n",
      "88985 note_on channel=0 note=78 velocity=84 time=78\n",
      "88991 note_on channel=0 note=74 velocity=75 time=6\n",
      "88995 note_on channel=0 note=69 velocity=63 time=4\n",
      "89000 note_on channel=0 note=50 velocity=69 time=5\n",
      "89064 note_off channel=0 note=50 velocity=0 time=64\n",
      "89167 note_on channel=0 note=52 velocity=58 time=103\n",
      "89171 note_on channel=0 note=54 velocity=68 time=4\n",
      "89229 note_off channel=0 note=52 velocity=0 time=58\n",
      "89239 note_off channel=0 note=69 velocity=0 time=10\n",
      "89254 note_off channel=0 note=78 velocity=0 time=15\n",
      "89256 note_off channel=0 note=74 velocity=0 time=2\n",
      "89262 note_on channel=0 note=55 velocity=60 time=6\n",
      "89336 note_off channel=0 note=54 velocity=0 time=74\n",
      "89337 note_on channel=0 note=78 velocity=87 time=1\n",
      "89343 note_on channel=0 note=74 velocity=76 time=6\n",
      "89347 note_on channel=0 note=69 velocity=73 time=4\n",
      "89351 note_off channel=0 note=55 velocity=0 time=4\n",
      "89407 note_on channel=0 note=57 velocity=68 time=56\n",
      "89463 note_off channel=0 note=57 velocity=0 time=56\n",
      "89509 note_on channel=0 note=59 velocity=74 time=46\n",
      "89555 note_off channel=0 note=69 velocity=0 time=46\n",
      "89582 note_on channel=0 note=61 velocity=70 time=27\n",
      "89583 note_off channel=0 note=74 velocity=0 time=1\n",
      "89583 note_off channel=0 note=78 velocity=0 time=0\n",
      "89587 note_off channel=0 note=59 velocity=0 time=4\n",
      "89615 note_on channel=0 note=78 velocity=87 time=28\n",
      "89656 note_on channel=0 note=74 velocity=77 time=41\n",
      "89659 note_on channel=0 note=69 velocity=66 time=3\n",
      "89662 note_on channel=0 note=62 velocity=73 time=3\n",
      "89663 note_off channel=0 note=61 velocity=0 time=1\n",
      "89668 note_off channel=0 note=62 velocity=0 time=5\n",
      "89739 note_on channel=0 note=64 velocity=71 time=71\n",
      "89755 note_off channel=0 note=69 velocity=0 time=16\n",
      "89769 note_off channel=0 note=64 velocity=0 time=14\n",
      "89800 note_off channel=0 note=74 velocity=0 time=31\n",
      "89810 note_on channel=0 note=66 velocity=76 time=10\n",
      "89824 note_off channel=0 note=78 velocity=0 time=14\n",
      "89827 note_on channel=0 note=67 velocity=78 time=3\n",
      "89892 note_off channel=0 note=66 velocity=0 time=65\n",
      "89951 note_off channel=0 note=67 velocity=0 time=59\n",
      "89981 note_on channel=0 note=69 velocity=73 time=30\n",
      "89984 note_on channel=0 note=78 velocity=92 time=3\n",
      "89988 note_on channel=0 note=74 velocity=82 time=4\n",
      "89997 note_off channel=0 note=69 velocity=0 time=9\n",
      "90046 note_on channel=0 note=67 velocity=74 time=49\n",
      "90110 note_off channel=0 note=67 velocity=0 time=64\n",
      "90126 note_on channel=0 note=66 velocity=63 time=16\n",
      "90144 note_off channel=0 note=66 velocity=0 time=18\n",
      "90202 note_on channel=0 note=64 velocity=71 time=58\n",
      "90221 note_off channel=0 note=64 velocity=0 time=19\n",
      "90265 note_on channel=0 note=62 velocity=78 time=44\n",
      "90297 note_off channel=0 note=62 velocity=0 time=32\n",
      "90361 note_on channel=0 note=61 velocity=72 time=64\n",
      "90429 note_off channel=0 note=61 velocity=0 time=68\n",
      "90445 note_on channel=0 note=59 velocity=59 time=16\n",
      "90446 note_off channel=0 note=78 velocity=0 time=1\n",
      "90447 note_off channel=0 note=59 velocity=0 time=1\n",
      "90468 note_off channel=0 note=74 velocity=0 time=21\n",
      "90521 note_on channel=0 note=57 velocity=67 time=53\n",
      "90525 note_on channel=0 note=79 velocity=84 time=4\n",
      "90536 note_on channel=0 note=76 velocity=70 time=11\n",
      "90541 note_off channel=0 note=57 velocity=0 time=5\n",
      "90559 note_on channel=0 note=55 velocity=70 time=18\n",
      "90607 note_off channel=0 note=76 velocity=0 time=48\n",
      "90607 note_on channel=0 note=81 velocity=82 time=0\n",
      "90623 note_on channel=0 note=78 velocity=85 time=16\n",
      "90625 note_off channel=0 note=79 velocity=0 time=2\n",
      "90652 note_off channel=0 note=55 velocity=0 time=27\n",
      "90673 note_on channel=0 note=54 velocity=64 time=21\n",
      "90704 note_off channel=0 note=81 velocity=0 time=31\n",
      "90722 note_off channel=0 note=78 velocity=0 time=18\n",
      "90734 note_off channel=0 note=54 velocity=0 time=12\n",
      "90752 note_on channel=0 note=52 velocity=73 time=18\n",
      "90841 note_on channel=0 note=50 velocity=85 time=89\n",
      "90856 note_off channel=0 note=52 velocity=0 time=15\n",
      "90879 note_off channel=0 note=50 velocity=0 time=23\n",
      "90923 note_on channel=0 note=86 velocity=92 time=44\n",
      "90955 note_on channel=0 note=62 velocity=69 time=32\n",
      "91064 note_off channel=0 note=62 velocity=0 time=109\n",
      "91106 note_on channel=0 note=61 velocity=72 time=42\n",
      "91149 note_off channel=0 note=61 velocity=0 time=43\n",
      "91211 note_on channel=0 note=62 velocity=71 time=62\n",
      "91240 note_off channel=0 note=62 velocity=0 time=29\n",
      "91256 note_off channel=0 note=86 velocity=0 time=16\n",
      "91264 note_on channel=0 note=60 velocity=77 time=8\n",
      "91280 note_on channel=0 note=78 velocity=87 time=16\n",
      "91302 note_off channel=0 note=78 velocity=0 time=22\n",
      "91317 note_off channel=0 note=60 velocity=0 time=15\n",
      "91330 note_on channel=0 note=62 velocity=75 time=13\n",
      "91357 note_off channel=0 note=62 velocity=0 time=27\n",
      "91439 note_on channel=0 note=59 velocity=69 time=82\n",
      "91443 note_on channel=0 note=79 velocity=87 time=4\n",
      "91448 note_off channel=0 note=79 velocity=0 time=5\n",
      "91466 note_off channel=0 note=59 velocity=0 time=18\n",
      "91489 note_on channel=0 note=62 velocity=68 time=23\n",
      "91523 note_off channel=0 note=62 velocity=0 time=34\n",
      "91574 note_on channel=0 note=81 velocity=87 time=51\n",
      "91598 note_on channel=0 note=57 velocity=75 time=24\n",
      "91604 note_off channel=0 note=81 velocity=0 time=6\n",
      "91645 note_off channel=0 note=57 velocity=0 time=41\n",
      "91675 note_on channel=0 note=62 velocity=71 time=30\n",
      "91706 note_off channel=0 note=62 velocity=0 time=31\n",
      "91751 note_on channel=0 note=83 velocity=94 time=45\n",
      "91755 note_on channel=0 note=55 velocity=74 time=4\n",
      "91759 note_off channel=0 note=83 velocity=0 time=4\n",
      "91796 note_off channel=0 note=55 velocity=0 time=37\n",
      "91810 note_on channel=0 note=62 velocity=69 time=14\n",
      "91872 note_off channel=0 note=62 velocity=0 time=62\n",
      "91903 note_on channel=0 note=81 velocity=92 time=31\n",
      "91978 note_on channel=0 note=62 velocity=48 time=75\n",
      "92054 note_off channel=0 note=62 velocity=0 time=76\n",
      "92069 note_off channel=0 note=81 velocity=0 time=15\n",
      "92085 note_on channel=0 note=61 velocity=64 time=16\n",
      "92090 note_on channel=0 note=86 velocity=81 time=5\n",
      "92114 note_off channel=0 note=61 velocity=0 time=24\n",
      "92117 note_off channel=0 note=86 velocity=0 time=3\n",
      "92145 note_on channel=0 note=62 velocity=64 time=28\n",
      "92176 note_off channel=0 note=62 velocity=0 time=31\n",
      "92200 note_on channel=0 note=60 velocity=71 time=24\n",
      "92243 note_on channel=0 note=78 velocity=78 time=43\n",
      "92258 note_off channel=0 note=60 velocity=0 time=15\n",
      "92280 note_off channel=0 note=78 velocity=0 time=22\n",
      "92283 note_on channel=0 note=62 velocity=65 time=3\n",
      "92315 note_off channel=0 note=62 velocity=0 time=32\n",
      "92364 note_on channel=0 note=81 velocity=71 time=49\n",
      "92385 note_on channel=0 note=59 velocity=65 time=21\n",
      "92408 note_off channel=0 note=81 velocity=0 time=23\n",
      "92427 note_off channel=0 note=59 velocity=0 time=19\n",
      "92440 note_on channel=0 note=79 velocity=66 time=13\n",
      "92453 note_on channel=0 note=62 velocity=67 time=13\n",
      "92476 note_on channel=0 note=78 velocity=67 time=23\n",
      "92476 note_off channel=0 note=79 velocity=0 time=0\n",
      "92479 note_off channel=0 note=62 velocity=0 time=3\n",
      "92515 note_off channel=0 note=78 velocity=0 time=36\n",
      "92519 note_on channel=0 note=79 velocity=74 time=4\n",
      "92531 note_on channel=0 note=57 velocity=72 time=12\n",
      "92552 note_off channel=0 note=79 velocity=0 time=21\n",
      "92556 note_on channel=0 note=81 velocity=71 time=4\n",
      "92558 note_off channel=0 note=57 velocity=0 time=2\n",
      "92589 note_off channel=0 note=81 velocity=0 time=31\n",
      "92591 note_on channel=0 note=62 velocity=70 time=2\n",
      "92620 note_off channel=0 note=62 velocity=0 time=29\n",
      "92676 note_on channel=0 note=83 velocity=81 time=56\n",
      "92702 note_on channel=0 note=55 velocity=69 time=26\n",
      "92708 note_off channel=0 note=83 velocity=0 time=6\n",
      "92725 note_off channel=0 note=55 velocity=0 time=17\n",
      "92751 note_on channel=0 note=62 velocity=63 time=26\n",
      "92788 note_off channel=0 note=62 velocity=0 time=37\n",
      "92839 note_on channel=0 note=83 velocity=63 time=51\n",
      "92884 note_on channel=0 note=54 velocity=62 time=45\n",
      "92891 note_on channel=0 note=62 velocity=57 time=7\n",
      "92972 note_off channel=0 note=62 velocity=0 time=81\n",
      "93020 note_off channel=0 note=54 velocity=0 time=48\n",
      "93023 note_on channel=0 note=57 velocity=60 time=3\n",
      "93066 note_on channel=0 note=81 velocity=69 time=43\n",
      "93067 note_off channel=0 note=83 velocity=0 time=1\n",
      "93077 note_off channel=0 note=81 velocity=0 time=10\n",
      "93093 note_off channel=0 note=57 velocity=0 time=16\n",
      "93140 note_on channel=0 note=62 velocity=58 time=47\n",
      "93143 note_off channel=0 note=62 velocity=0 time=3\n",
      "93204 note_on channel=0 note=81 velocity=72 time=61\n",
      "93237 note_on channel=0 note=52 velocity=55 time=33\n",
      "93239 note_off channel=0 note=52 velocity=0 time=2\n",
      "93315 note_on channel=0 note=61 velocity=59 time=76\n",
      "93322 note_off channel=0 note=61 velocity=0 time=7\n",
      "93363 note_on channel=0 note=57 velocity=58 time=41\n",
      "93397 note_on channel=0 note=79 velocity=69 time=34\n",
      "93403 note_off channel=0 note=81 velocity=0 time=6\n",
      "93411 note_off channel=0 note=79 velocity=0 time=8\n",
      "93429 note_off channel=0 note=57 velocity=0 time=18\n",
      "93458 note_on channel=0 note=61 velocity=59 time=29\n",
      "93474 note_off channel=0 note=61 velocity=0 time=16\n",
      "93522 note_on channel=0 note=79 velocity=55 time=48\n",
      "93565 note_on channel=0 note=50 velocity=68 time=43\n",
      "93569 note_off channel=0 note=50 velocity=0 time=4\n",
      "93627 note_on channel=0 note=62 velocity=45 time=58\n",
      "93656 note_off channel=0 note=62 velocity=0 time=29\n",
      "93697 note_off channel=0 note=79 velocity=0 time=41\n",
      "93717 note_on channel=0 note=78 velocity=72 time=20\n",
      "93727 note_on channel=0 note=57 velocity=46 time=10\n",
      "93742 note_off channel=0 note=78 velocity=0 time=15\n",
      "93773 note_off channel=0 note=57 velocity=0 time=31\n",
      "93779 note_on channel=0 note=62 velocity=41 time=6\n",
      "93819 note_off channel=0 note=62 velocity=0 time=40\n",
      "93926 note_on channel=0 note=76 velocity=62 time=107\n",
      "93956 note_on channel=0 note=61 velocity=43 time=30\n",
      "93965 note_on channel=0 note=57 velocity=40 time=9\n",
      "93978 note_off channel=0 note=76 velocity=0 time=13\n",
      "94051 note_on channel=0 note=69 velocity=59 time=73\n",
      "94079 note_off channel=0 note=69 velocity=0 time=28\n",
      "94122 note_on channel=0 note=71 velocity=61 time=43\n",
      "94162 note_on channel=0 note=72 velocity=77 time=40\n",
      "94240 note_off channel=0 note=71 velocity=0 time=78\n",
      "94243 note_off channel=0 note=72 velocity=0 time=3\n",
      "94298 note_on channel=0 note=73 velocity=73 time=55\n",
      "94324 note_off channel=0 note=73 velocity=0 time=26\n",
      "94368 note_on channel=0 note=74 velocity=76 time=44\n",
      "94406 note_off channel=0 note=57 velocity=0 time=38\n",
      "94442 note_off channel=0 note=61 velocity=0 time=36\n",
      "94448 note_off channel=0 note=74 velocity=0 time=6\n",
      "94470 note_on channel=0 note=75 velocity=81 time=22\n",
      "94485 note_off channel=0 note=75 velocity=0 time=15\n",
      "94527 note_on channel=0 note=76 velocity=77 time=42\n",
      "94568 note_off channel=0 note=76 velocity=0 time=41\n",
      "94616 note_on channel=0 note=77 velocity=81 time=48\n",
      "94642 note_off channel=0 note=77 velocity=0 time=26\n",
      "94690 note_on channel=0 note=78 velocity=38 time=48\n",
      "94756 note_off channel=0 note=78 velocity=0 time=66\n",
      "94757 note_on channel=0 note=79 velocity=14 time=1\n",
      "94784 note_off channel=0 note=79 velocity=0 time=27\n",
      "94844 note_on channel=0 note=80 velocity=80 time=60\n",
      "94872 note_off channel=0 note=80 velocity=0 time=28\n",
      "94917 note_on channel=0 note=81 velocity=79 time=45\n",
      "94982 note_on channel=0 note=50 velocity=55 time=65\n",
      "94988 note_on channel=0 note=74 velocity=64 time=6\n",
      "94988 note_on channel=0 note=78 velocity=62 time=0\n",
      "94999 note_off channel=0 note=50 velocity=0 time=11\n",
      "95018 note_on channel=0 note=62 velocity=61 time=19\n",
      "95058 note_off channel=0 note=62 velocity=0 time=40\n",
      "95101 note_on channel=0 note=61 velocity=65 time=43\n",
      "95141 note_off channel=0 note=61 velocity=0 time=40\n",
      "95169 note_on channel=0 note=62 velocity=69 time=28\n",
      "95216 note_off channel=0 note=62 velocity=0 time=47\n",
      "95261 note_on channel=0 note=64 velocity=63 time=45\n",
      "95298 note_off channel=0 note=64 velocity=0 time=37\n",
      "95328 note_on channel=0 note=62 velocity=69 time=30\n",
      "95366 note_off channel=0 note=81 velocity=0 time=38\n",
      "95382 note_off channel=0 note=62 velocity=0 time=16\n",
      "95395 note_on channel=0 note=61 velocity=50 time=13\n",
      "95445 note_off channel=0 note=61 velocity=0 time=50\n",
      "95478 note_on channel=0 note=62 velocity=67 time=33\n",
      "95515 note_off channel=0 note=62 velocity=0 time=37\n",
      "95551 note_off channel=0 note=74 velocity=0 time=36\n",
      "95603 note_on channel=0 note=57 velocity=52 time=52\n",
      "95622 note_on channel=0 note=86 velocity=81 time=19\n",
      "95623 note_off channel=0 note=78 velocity=0 time=1\n",
      "95631 note_off channel=0 note=86 velocity=0 time=8\n",
      "95646 note_off channel=0 note=57 velocity=0 time=15\n",
      "95659 note_on channel=0 note=62 velocity=68 time=13\n",
      "95680 note_off channel=0 note=62 velocity=0 time=21\n",
      "95718 note_on channel=0 note=54 velocity=66 time=38\n",
      "95756 note_off channel=0 note=54 velocity=0 time=38\n",
      "95812 note_on channel=0 note=57 velocity=59 time=56\n",
      "95842 note_off channel=0 note=57 velocity=0 time=30\n",
      "95894 note_on channel=0 note=78 velocity=74 time=52\n",
      "95918 note_on channel=0 note=50 velocity=58 time=24\n",
      "95926 note_off channel=0 note=50 velocity=0 time=8\n",
      "95926 note_on channel=0 note=69 velocity=50 time=0\n",
      "95926 note_on channel=0 note=74 velocity=60 time=0\n",
      "95952 note_on channel=0 note=62 velocity=59 time=26\n",
      "96011 note_off channel=0 note=62 velocity=0 time=59\n",
      "96058 note_on channel=0 note=61 velocity=60 time=47\n",
      "96087 note_off channel=0 note=61 velocity=0 time=29\n",
      "96117 note_on channel=0 note=62 velocity=67 time=30\n",
      "96168 note_off channel=0 note=62 velocity=0 time=51\n",
      "96209 note_on channel=0 note=64 velocity=58 time=41\n",
      "96248 note_off channel=0 note=64 velocity=0 time=39\n",
      "96276 note_on channel=0 note=62 velocity=66 time=28\n",
      "96316 note_off channel=0 note=62 velocity=0 time=40\n",
      "96344 note_on channel=0 note=61 velocity=54 time=28\n",
      "96396 note_off channel=0 note=61 velocity=0 time=52\n",
      "96424 note_on channel=0 note=62 velocity=62 time=28\n",
      "96467 note_off channel=0 note=62 velocity=0 time=43\n",
      "96510 note_off channel=0 note=69 velocity=0 time=43\n",
      "96522 note_on channel=0 note=81 velocity=69 time=12\n",
      "96542 note_on channel=0 note=57 velocity=62 time=20\n",
      "96556 note_off channel=0 note=74 velocity=0 time=14\n",
      "96562 note_off channel=0 note=78 velocity=0 time=6\n",
      "96563 note_off channel=0 note=81 velocity=0 time=1\n",
      "96603 note_off channel=0 note=57 velocity=0 time=40\n",
      "96604 note_on channel=0 note=62 velocity=63 time=1\n",
      "96633 note_off channel=0 note=62 velocity=0 time=29\n",
      "96665 note_on channel=0 note=54 velocity=55 time=32\n",
      "96739 note_off channel=0 note=54 velocity=0 time=74\n",
      "96769 note_on channel=0 note=57 velocity=40 time=30\n",
      "96784 note_off channel=0 note=57 velocity=0 time=15\n",
      "96812 note_on channel=0 note=74 velocity=69 time=28\n",
      "96847 note_on channel=0 note=71 velocity=58 time=35\n",
      "96848 note_on channel=0 note=66 velocity=60 time=1\n",
      "96851 note_on channel=0 note=47 velocity=65 time=3\n",
      "96860 note_off channel=0 note=47 velocity=0 time=9\n",
      "96922 note_on channel=0 note=50 velocity=63 time=62\n",
      "96925 note_off channel=0 note=66 velocity=0 time=3\n",
      "96967 note_off channel=0 note=50 velocity=0 time=42\n",
      "96997 note_on channel=0 note=54 velocity=59 time=30\n",
      "97050 note_off channel=0 note=54 velocity=0 time=53\n",
      "97050 note_on channel=0 note=59 velocity=66 time=0\n",
      "97065 note_off channel=0 note=59 velocity=0 time=15\n",
      "97112 note_off channel=0 note=71 velocity=0 time=47\n",
      "97119 note_off channel=0 note=74 velocity=0 time=7\n",
      "97142 note_on channel=0 note=43 velocity=69 time=23\n",
      "97166 note_on channel=0 note=74 velocity=57 time=24\n",
      "97178 note_on channel=0 note=71 velocity=60 time=12\n",
      "97178 note_on channel=0 note=76 velocity=72 time=0\n",
      "97185 note_on channel=0 note=67 velocity=60 time=7\n",
      "97190 note_off channel=0 note=43 velocity=0 time=5\n",
      "97231 note_on channel=0 note=47 velocity=64 time=41\n",
      "97251 note_off channel=0 note=67 velocity=0 time=20\n",
      "97266 note_off channel=0 note=71 velocity=0 time=15\n",
      "97270 note_off channel=0 note=76 velocity=0 time=4\n",
      "97282 note_off channel=0 note=74 velocity=0 time=12\n",
      "97297 note_off channel=0 note=47 velocity=0 time=15\n",
      "97299 note_on channel=0 note=52 velocity=61 time=2\n",
      "97327 note_off channel=0 note=52 velocity=0 time=28\n",
      "97385 note_on channel=0 note=55 velocity=73 time=58\n",
      "97433 note_off channel=0 note=55 velocity=0 time=48\n",
      "97464 note_on channel=0 note=45 velocity=63 time=31\n",
      "97490 note_on channel=0 note=76 velocity=63 time=26\n",
      "97509 note_on channel=0 note=79 velocity=72 time=19\n",
      "97510 note_on channel=0 note=69 velocity=59 time=1\n",
      "97517 note_on channel=0 note=73 velocity=50 time=7\n",
      "97521 note_off channel=0 note=45 velocity=0 time=4\n",
      "97587 note_on channel=0 note=49 velocity=59 time=66\n",
      "97630 note_off channel=0 note=69 velocity=0 time=43\n",
      "97646 note_off channel=0 note=76 velocity=0 time=16\n",
      "97648 note_on channel=0 note=52 velocity=63 time=2\n",
      "97650 note_off channel=0 note=49 velocity=0 time=2\n",
      "97654 note_off channel=0 note=79 velocity=0 time=4\n",
      "97660 note_off channel=0 note=52 velocity=0 time=6\n",
      "97693 note_off channel=0 note=73 velocity=0 time=33\n",
      "97698 note_on channel=0 note=57 velocity=56 time=5\n",
      "97768 note_off channel=0 note=57 velocity=0 time=70\n",
      "97851 note_on channel=0 note=50 velocity=58 time=83\n",
      "97864 note_on channel=0 note=78 velocity=69 time=13\n",
      "97878 note_on channel=0 note=74 velocity=69 time=14\n",
      "97972 note_off channel=0 note=74 velocity=0 time=94\n",
      "98042 note_on channel=0 note=73 velocity=70 time=70\n",
      "98058 note_off channel=0 note=73 velocity=0 time=16\n",
      "98100 note_off channel=0 note=78 velocity=0 time=42\n",
      "98133 note_on channel=0 note=76 velocity=59 time=33\n",
      "98142 note_off channel=0 note=76 velocity=0 time=9\n",
      "98181 note_on channel=0 note=74 velocity=75 time=39\n",
      "98215 note_off channel=0 note=74 velocity=0 time=34\n",
      "98246 note_on channel=0 note=78 velocity=76 time=31\n",
      "98288 note_off channel=0 note=78 velocity=0 time=42\n",
      "98325 note_on channel=0 note=76 velocity=64 time=37\n",
      "98369 note_off channel=0 note=50 velocity=0 time=44\n",
      "98420 note_off channel=0 note=76 velocity=0 time=51\n",
      "98423 note_on channel=0 note=79 velocity=73 time=3\n",
      "98432 note_off channel=0 note=79 velocity=0 time=9\n",
      "98486 note_on channel=0 note=78 velocity=81 time=54\n",
      "98523 note_off channel=0 note=78 velocity=0 time=37\n",
      "98570 note_on channel=0 note=81 velocity=65 time=47\n",
      "98596 note_off channel=0 note=81 velocity=0 time=26\n",
      "98675 note_on channel=0 note=79 velocity=75 time=79\n",
      "98677 note_off channel=0 note=79 velocity=0 time=2\n",
      "98713 note_on channel=0 note=83 velocity=71 time=36\n",
      "98751 note_off channel=0 note=83 velocity=0 time=38\n",
      "98797 note_on channel=0 note=81 velocity=72 time=46\n",
      "98843 note_on channel=0 note=50 velocity=56 time=46\n",
      "98846 note_on channel=0 note=74 velocity=61 time=3\n",
      "98846 note_on channel=0 note=78 velocity=71 time=0\n",
      "98858 note_off channel=0 note=50 velocity=0 time=12\n",
      "98878 note_on channel=0 note=62 velocity=61 time=20\n",
      "98920 note_off channel=0 note=62 velocity=0 time=42\n",
      "98976 note_on channel=0 note=61 velocity=55 time=56\n",
      "99016 note_off channel=0 note=61 velocity=0 time=40\n",
      "99048 note_on channel=0 note=62 velocity=68 time=32\n",
      "99088 note_off channel=0 note=62 velocity=0 time=40\n",
      "99141 note_on channel=0 note=64 velocity=75 time=53\n",
      "99164 note_off channel=0 note=64 velocity=0 time=23\n",
      "99187 note_off channel=0 note=81 velocity=0 time=23\n",
      "99194 note_on channel=0 note=62 velocity=59 time=7\n",
      "99242 note_off channel=0 note=62 velocity=0 time=48\n",
      "99269 note_on channel=0 note=61 velocity=51 time=27\n",
      "99324 note_off channel=0 note=61 velocity=0 time=55\n",
      "99347 note_on channel=0 note=62 velocity=58 time=23\n",
      "99383 note_off channel=0 note=62 velocity=0 time=36\n",
      "99428 note_off channel=0 note=74 velocity=0 time=45\n",
      "99436 note_on channel=0 note=86 velocity=76 time=8\n",
      "99462 note_off channel=0 note=78 velocity=0 time=26\n",
      "99468 note_on channel=0 note=57 velocity=67 time=6\n",
      "99474 note_off channel=0 note=86 velocity=0 time=6\n",
      "99487 note_off channel=0 note=57 velocity=0 time=13\n",
      "99518 note_on channel=0 note=62 velocity=67 time=31\n",
      "99547 note_off channel=0 note=62 velocity=0 time=29\n",
      "99589 note_on channel=0 note=54 velocity=64 time=42\n",
      "99612 note_off channel=0 note=54 velocity=0 time=23\n",
      "99664 note_on channel=0 note=57 velocity=60 time=52\n",
      "99683 note_off channel=0 note=57 velocity=0 time=19\n",
      "99747 note_on channel=0 note=50 velocity=69 time=64\n",
      "99771 note_on channel=0 note=78 velocity=79 time=24\n",
      "99776 note_on channel=0 note=74 velocity=70 time=5\n",
      "99778 note_on channel=0 note=69 velocity=64 time=2\n",
      "99780 note_off channel=0 note=50 velocity=0 time=2\n",
      "99802 note_on channel=0 note=62 velocity=62 time=22\n",
      "99853 note_off channel=0 note=62 velocity=0 time=51\n",
      "99903 note_on channel=0 note=61 velocity=64 time=50\n",
      "99935 note_off channel=0 note=61 velocity=0 time=32\n",
      "99976 note_on channel=0 note=62 velocity=71 time=41\n",
      "100013 note_off channel=0 note=62 velocity=0 time=37\n",
      "100059 note_on channel=0 note=64 velocity=64 time=46\n",
      "100097 note_off channel=0 note=64 velocity=0 time=38\n",
      "100123 note_on channel=0 note=62 velocity=72 time=26\n",
      "100163 note_off channel=0 note=62 velocity=0 time=40\n",
      "100194 note_on channel=0 note=61 velocity=62 time=31\n",
      "100245 note_off channel=0 note=61 velocity=0 time=51\n",
      "100268 note_on channel=0 note=62 velocity=64 time=23\n",
      "100322 note_off channel=0 note=69 velocity=0 time=54\n",
      "100358 note_off channel=0 note=62 velocity=0 time=36\n",
      "100367 note_on channel=0 note=81 velocity=57 time=9\n",
      "100382 note_off channel=0 note=74 velocity=0 time=15\n",
      "100395 note_off channel=0 note=78 velocity=0 time=13\n",
      "100398 note_on channel=0 note=57 velocity=66 time=3\n",
      "100400 note_off channel=0 note=81 velocity=0 time=2\n",
      "100404 note_off channel=0 note=57 velocity=0 time=4\n",
      "100445 note_on channel=0 note=62 velocity=68 time=41\n",
      "100475 note_off channel=0 note=62 velocity=0 time=30\n",
      "100533 note_on channel=0 note=54 velocity=44 time=58\n",
      "100564 note_off channel=0 note=54 velocity=0 time=31\n",
      "100593 note_on channel=0 note=57 velocity=49 time=29\n",
      "100603 note_off channel=0 note=57 velocity=0 time=10\n",
      "100630 note_on channel=0 note=74 velocity=72 time=27\n",
      "100676 note_on channel=0 note=47 velocity=64 time=46\n",
      "100687 note_on channel=0 note=71 velocity=54 time=11\n",
      "100689 note_on channel=0 note=66 velocity=53 time=2\n",
      "100695 note_off channel=0 note=66 velocity=0 time=6\n",
      "100731 note_off channel=0 note=47 velocity=0 time=36\n",
      "100749 note_on channel=0 note=50 velocity=57 time=18\n",
      "100759 note_off channel=0 note=71 velocity=0 time=10\n",
      "100789 note_off channel=0 note=74 velocity=0 time=30\n",
      "100802 note_off channel=0 note=50 velocity=0 time=13\n",
      "100804 note_on channel=0 note=54 velocity=59 time=2\n",
      "100827 note_off channel=0 note=54 velocity=0 time=23\n",
      "100873 note_on channel=0 note=59 velocity=65 time=46\n",
      "100887 note_off channel=0 note=59 velocity=0 time=14\n",
      "100911 note_on channel=0 note=76 velocity=75 time=24\n",
      "100986 note_on channel=0 note=43 velocity=62 time=75\n",
      "100994 note_on channel=0 note=67 velocity=64 time=8\n",
      "100996 note_on channel=0 note=71 velocity=41 time=2\n",
      "100997 note_off channel=0 note=76 velocity=0 time=1\n",
      "101015 note_off channel=0 note=67 velocity=0 time=18\n",
      "101027 note_off channel=0 note=71 velocity=0 time=12\n",
      "101031 note_off channel=0 note=43 velocity=0 time=4\n",
      "101056 note_on channel=0 note=47 velocity=54 time=25\n",
      "101060 note_off channel=0 note=47 velocity=0 time=4\n",
      "101107 note_on channel=0 note=52 velocity=60 time=47\n",
      "101136 note_off channel=0 note=52 velocity=0 time=29\n",
      "101185 note_on channel=0 note=55 velocity=64 time=49\n",
      "101219 note_off channel=0 note=55 velocity=0 time=34\n",
      "101255 note_on channel=0 note=69 velocity=60 time=36\n",
      "101303 note_on channel=0 note=45 velocity=60 time=48\n",
      "101303 note_on channel=0 note=73 velocity=68 time=0\n",
      "101304 note_on channel=0 note=64 velocity=58 time=1\n",
      "101309 note_on channel=0 note=67 velocity=59 time=5\n",
      "101312 note_off channel=0 note=73 velocity=0 time=3\n",
      "101336 note_off channel=0 note=64 velocity=0 time=24\n",
      "101337 note_off channel=0 note=67 velocity=0 time=1\n",
      "101345 note_off channel=0 note=69 velocity=0 time=8\n",
      "101348 note_off channel=0 note=45 velocity=0 time=3\n",
      "101392 note_on channel=0 note=49 velocity=55 time=44\n",
      "101453 note_on channel=0 note=52 velocity=64 time=61\n",
      "101455 note_off channel=0 note=49 velocity=0 time=2\n",
      "101498 note_off channel=0 note=52 velocity=0 time=43\n",
      "101529 note_on channel=0 note=57 velocity=64 time=31\n",
      "101544 note_off channel=0 note=57 velocity=0 time=15\n",
      "101643 note_on channel=0 note=38 velocity=54 time=99\n",
      "101679 note_on channel=0 note=62 velocity=44 time=36\n",
      "101679 note_on channel=0 note=69 velocity=56 time=0\n",
      "101679 note_on channel=0 note=74 velocity=63 time=0\n",
      "101680 note_on channel=0 note=66 velocity=41 time=1\n",
      "101691 note_off channel=0 note=38 velocity=0 time=11\n",
      "101710 note_on channel=0 note=50 velocity=67 time=19\n",
      "101762 note_off channel=0 note=50 velocity=0 time=52\n",
      "101797 note_on channel=0 note=54 velocity=52 time=35\n",
      "101861 note_off channel=0 note=54 velocity=0 time=64\n",
      "101889 note_on channel=0 note=50 velocity=70 time=28\n",
      "101933 note_off channel=0 note=50 velocity=0 time=44\n",
      "101969 note_on channel=0 note=45 velocity=55 time=36\n",
      "102028 note_off channel=0 note=45 velocity=0 time=59\n",
      "102078 note_on channel=0 note=50 velocity=55 time=50\n",
      "102116 note_off channel=0 note=50 velocity=0 time=38\n",
      "102145 note_on channel=0 note=42 velocity=46 time=29\n",
      "102192 note_off channel=0 note=42 velocity=0 time=47\n",
      "102245 note_on channel=0 note=45 velocity=40 time=53\n",
      "102285 note_off channel=0 note=45 velocity=0 time=40\n",
      "102353 note_off channel=0 note=62 velocity=0 time=68\n",
      "102355 note_off channel=0 note=74 velocity=0 time=2\n",
      "102425 note_on channel=0 note=38 velocity=45 time=70\n",
      "102512 note_off channel=0 note=66 velocity=0 time=87\n",
      "102523 note_off channel=0 note=69 velocity=0 time=11\n",
      "102789 note_off channel=0 note=38 velocity=0 time=266\n",
      "103314 note_on channel=0 note=69 velocity=48 time=525\n",
      "103450 note_off channel=0 note=69 velocity=0 time=136\n",
      "103495 note_on channel=0 note=74 velocity=59 time=45\n",
      "103504 note_off channel=0 note=74 velocity=0 time=9\n",
      "103547 note_on channel=0 note=78 velocity=63 time=43\n",
      "103554 note_off channel=0 note=78 velocity=0 time=7\n",
      "103617 note_on channel=0 note=81 velocity=77 time=63\n",
      "103773 note_off channel=0 note=81 velocity=0 time=156\n",
      "103782 note_on channel=0 note=50 velocity=59 time=9\n",
      "103863 note_off channel=0 note=50 velocity=0 time=81\n",
      "103865 note_on channel=0 note=54 velocity=59 time=2\n",
      "103947 note_off channel=0 note=54 velocity=0 time=82\n",
      "103978 note_on channel=0 note=57 velocity=63 time=31\n",
      "104069 note_on channel=0 note=62 velocity=64 time=91\n",
      "104073 note_off channel=0 note=57 velocity=0 time=4\n",
      "104144 note_on channel=0 note=69 velocity=62 time=71\n",
      "104175 note_off channel=0 note=69 velocity=0 time=31\n",
      "104184 note_on channel=0 note=74 velocity=8 time=9\n",
      "104293 note_on channel=0 note=78 velocity=74 time=109\n",
      "104328 note_off channel=0 note=62 velocity=0 time=35\n",
      "104332 note_off channel=0 note=74 velocity=0 time=4\n",
      "104351 note_off channel=0 note=78 velocity=0 time=19\n",
      "104373 note_on channel=0 note=81 velocity=77 time=22\n",
      "104421 note_off channel=0 note=81 velocity=0 time=48\n",
      "104450 note_on channel=0 note=78 velocity=69 time=29\n",
      "104518 note_off channel=0 note=78 velocity=0 time=68\n",
      "104549 note_on channel=0 note=86 velocity=75 time=31\n",
      "104592 note_off channel=0 note=86 velocity=0 time=43\n",
      "104619 note_on channel=0 note=86 velocity=77 time=27\n",
      "104678 note_off channel=0 note=86 velocity=0 time=59\n",
      "104714 note_on channel=0 note=78 velocity=73 time=36\n",
      "104928 note_on channel=0 note=38 velocity=55 time=214\n",
      "104958 note_off channel=0 note=78 velocity=0 time=30\n",
      "104986 note_off channel=0 note=38 velocity=0 time=28\n",
      "105027 note_on channel=0 note=42 velocity=55 time=41\n",
      "105079 note_off channel=0 note=42 velocity=0 time=52\n",
      "105095 note_on channel=0 note=45 velocity=63 time=16\n",
      "105185 note_on channel=0 note=50 velocity=68 time=90\n",
      "105216 note_off channel=0 note=45 velocity=0 time=31\n",
      "105242 note_on channel=0 note=66 velocity=73 time=26\n",
      "105251 note_off channel=0 note=66 velocity=0 time=9\n",
      "105285 note_on channel=0 note=69 velocity=72 time=34\n",
      "105347 note_off channel=0 note=50 velocity=0 time=62\n",
      "105378 note_off channel=0 note=69 velocity=0 time=31\n",
      "105415 note_on channel=0 note=74 velocity=81 time=37\n",
      "105419 note_off channel=0 note=74 velocity=0 time=4\n",
      "105473 note_on channel=0 note=78 velocity=79 time=54\n",
      "105509 note_off channel=0 note=78 velocity=0 time=36\n",
      "105537 note_on channel=0 note=74 velocity=75 time=28\n",
      "105586 note_off channel=0 note=74 velocity=0 time=49\n",
      "105617 note_on channel=0 note=81 velocity=75 time=31\n",
      "105669 note_off channel=0 note=81 velocity=0 time=52\n",
      "105694 note_on channel=0 note=81 velocity=71 time=25\n",
      "105745 note_off channel=0 note=81 velocity=0 time=51\n",
      "105770 note_on channel=0 note=59 velocity=78 time=25\n",
      "105849 note_off channel=0 note=59 velocity=0 time=79\n",
      "105872 note_on channel=0 note=66 velocity=66 time=23\n",
      "105958 note_off channel=0 note=66 velocity=0 time=86\n",
      "105997 note_on channel=0 note=71 velocity=59 time=39\n",
      "106032 note_off channel=0 note=71 velocity=0 time=35\n",
      "106069 note_on channel=0 note=74 velocity=68 time=37\n",
      "106113 note_off channel=0 note=74 velocity=0 time=44\n",
      "106158 note_on channel=0 note=55 velocity=82 time=45\n",
      "106213 note_off channel=0 note=55 velocity=0 time=55\n",
      "106244 note_on channel=0 note=67 velocity=64 time=31\n",
      "106301 note_off channel=0 note=67 velocity=0 time=57\n",
      "106349 note_on channel=0 note=71 velocity=60 time=48\n",
      "106384 note_off channel=0 note=71 velocity=0 time=35\n",
      "106430 note_on channel=0 note=76 velocity=60 time=46\n",
      "106455 note_off channel=0 note=76 velocity=0 time=25\n",
      "106475 note_on channel=0 note=57 velocity=76 time=20\n",
      "106546 note_off channel=0 note=57 velocity=0 time=71\n",
      "106571 note_on channel=0 note=64 velocity=58 time=25\n",
      "106638 note_off channel=0 note=64 velocity=0 time=67\n",
      "106700 note_on channel=0 note=67 velocity=60 time=62\n",
      "106702 note_off channel=0 note=67 velocity=0 time=2\n",
      "106762 note_on channel=0 note=73 velocity=72 time=60\n",
      "106777 note_off channel=0 note=73 velocity=0 time=15\n",
      "106800 note_on channel=0 note=50 velocity=70 time=23\n",
      "106889 note_on channel=0 note=74 velocity=72 time=89\n",
      "106895 note_off channel=0 note=74 velocity=0 time=6\n",
      "106919 note_on channel=0 note=62 velocity=70 time=24\n",
      "106991 note_on channel=0 note=64 velocity=76 time=72\n",
      "107070 note_off channel=0 note=62 velocity=0 time=79\n",
      "107075 note_off channel=0 note=64 velocity=0 time=5\n",
      "107119 note_on channel=0 note=66 velocity=81 time=44\n",
      "107148 note_off channel=0 note=66 velocity=0 time=29\n",
      "107191 note_off channel=0 note=50 velocity=0 time=43\n",
      "107205 note_on channel=0 note=67 velocity=83 time=14\n",
      "107231 note_off channel=0 note=67 velocity=0 time=26\n",
      "107274 note_on channel=0 note=69 velocity=77 time=43\n",
      "107308 note_off channel=0 note=69 velocity=0 time=34\n",
      "107363 note_on channel=0 note=71 velocity=77 time=55\n",
      "107384 note_off channel=0 note=71 velocity=0 time=21\n",
      "107450 note_on channel=0 note=72 velocity=53 time=66\n",
      "107488 note_off channel=0 note=72 velocity=0 time=38\n",
      "107511 note_on channel=0 note=74 velocity=72 time=23\n",
      "107554 note_off channel=0 note=74 velocity=0 time=43\n",
      "107593 note_on channel=0 note=76 velocity=71 time=39\n",
      "107616 note_off channel=0 note=76 velocity=0 time=23\n",
      "107662 note_on channel=0 note=78 velocity=68 time=46\n",
      "107772 note_off channel=0 note=78 velocity=0 time=110\n",
      "107784 note_on channel=0 note=79 velocity=74 time=12\n",
      "107818 note_off channel=0 note=79 velocity=0 time=34\n",
      "107879 note_on channel=0 note=81 velocity=70 time=61\n",
      "107985 note_on channel=0 note=38 velocity=50 time=106\n",
      "108000 note_off channel=0 note=81 velocity=0 time=15\n",
      "108030 note_on channel=0 note=42 velocity=64 time=30\n",
      "108071 note_off channel=0 note=38 velocity=0 time=41\n",
      "108137 note_off channel=0 note=42 velocity=0 time=66\n",
      "108140 note_on channel=0 note=45 velocity=63 time=3\n",
      "108227 note_on channel=0 note=50 velocity=69 time=87\n",
      "108243 note_off channel=0 note=45 velocity=0 time=16\n",
      "108273 note_on channel=0 note=69 velocity=66 time=30\n",
      "108289 note_off channel=0 note=69 velocity=0 time=16\n",
      "108319 note_on channel=0 note=74 velocity=73 time=30\n",
      "108391 note_off channel=0 note=50 velocity=0 time=72\n",
      "108426 note_off channel=0 note=74 velocity=0 time=35\n",
      "108461 note_on channel=0 note=78 velocity=74 time=35\n",
      "108467 note_off channel=0 note=78 velocity=0 time=6\n",
      "108501 note_on channel=0 note=81 velocity=70 time=34\n",
      "108565 note_off channel=0 note=81 velocity=0 time=64\n",
      "108591 note_on channel=0 note=78 velocity=75 time=26\n",
      "108644 note_off channel=0 note=78 velocity=0 time=53\n",
      "108668 note_on channel=0 note=86 velocity=62 time=24\n",
      "108733 note_off channel=0 note=86 velocity=0 time=65\n",
      "108758 note_on channel=0 note=86 velocity=67 time=25\n",
      "108797 note_off channel=0 note=86 velocity=0 time=39\n",
      "108819 note_on channel=0 note=78 velocity=78 time=22\n",
      "108913 note_on channel=0 note=50 velocity=52 time=94\n",
      "109040 note_off channel=0 note=78 velocity=0 time=127\n",
      "109056 note_on channel=0 note=54 velocity=55 time=16\n",
      "109092 note_off channel=0 note=50 velocity=0 time=36\n",
      "109148 note_off channel=0 note=54 velocity=0 time=56\n",
      "109149 note_on channel=0 note=57 velocity=61 time=1\n",
      "109238 note_on channel=0 note=62 velocity=63 time=89\n",
      "109242 note_off channel=0 note=57 velocity=0 time=4\n",
      "109307 note_on channel=0 note=66 velocity=70 time=65\n",
      "109337 note_off channel=0 note=66 velocity=0 time=30\n",
      "109383 note_on channel=0 note=69 velocity=33 time=46\n",
      "109433 note_off channel=0 note=62 velocity=0 time=50\n",
      "109461 note_off channel=0 note=69 velocity=0 time=28\n",
      "109467 note_on channel=0 note=74 velocity=66 time=6\n",
      "109482 note_off channel=0 note=74 velocity=0 time=15\n",
      "109513 note_on channel=0 note=78 velocity=75 time=31\n",
      "109555 note_off channel=0 note=78 velocity=0 time=42\n",
      "109583 note_on channel=0 note=74 velocity=60 time=28\n",
      "109640 note_off channel=0 note=74 velocity=0 time=57\n",
      "109671 note_on channel=0 note=81 velocity=66 time=31\n",
      "109701 note_off channel=0 note=81 velocity=0 time=30\n",
      "109726 note_on channel=0 note=81 velocity=75 time=25\n",
      "109784 note_off channel=0 note=81 velocity=0 time=58\n",
      "109810 note_on channel=0 note=74 velocity=80 time=26\n",
      "109877 note_off channel=0 note=74 velocity=0 time=67\n",
      "109900 note_on channel=0 note=47 velocity=54 time=23\n",
      "109952 note_off channel=0 note=47 velocity=0 time=52\n",
      "110034 note_on channel=0 note=50 velocity=63 time=82\n",
      "110040 note_off channel=0 note=50 velocity=0 time=6\n",
      "110122 note_on channel=0 note=59 velocity=59 time=82\n",
      "110136 note_off channel=0 note=59 velocity=0 time=14\n",
      "110165 note_on channel=0 note=76 velocity=67 time=29\n",
      "110212 note_on channel=0 note=67 velocity=70 time=47\n",
      "110216 note_off channel=0 note=76 velocity=0 time=4\n",
      "110237 note_off channel=0 note=67 velocity=0 time=21\n",
      "110239 note_on channel=0 note=43 velocity=50 time=2\n",
      "110318 note_on channel=0 note=47 velocity=55 time=79\n",
      "110375 note_off channel=0 note=43 velocity=0 time=57\n",
      "110418 note_off channel=0 note=47 velocity=0 time=43\n",
      "110462 note_on channel=0 note=55 velocity=62 time=44\n",
      "110478 note_off channel=0 note=55 velocity=0 time=16\n",
      "110508 note_on channel=0 note=73 velocity=70 time=30\n",
      "110529 note_on channel=0 note=64 velocity=56 time=21\n",
      "110533 note_off channel=0 note=73 velocity=0 time=4\n",
      "110553 note_off channel=0 note=64 velocity=0 time=20\n",
      "110554 note_on channel=0 note=45 velocity=61 time=1\n",
      "110639 note_on channel=0 note=49 velocity=56 time=85\n",
      "110710 note_off channel=0 note=45 velocity=0 time=71\n",
      "110731 note_off channel=0 note=49 velocity=0 time=21\n",
      "110771 note_on channel=0 note=57 velocity=63 time=40\n",
      "110793 note_off channel=0 note=57 velocity=0 time=22\n",
      "110821 note_on channel=0 note=66 velocity=61 time=28\n",
      "110889 note_on channel=0 note=74 velocity=68 time=68\n",
      "110891 note_on channel=0 note=50 velocity=63 time=2\n",
      "110985 note_off channel=0 note=50 velocity=0 time=94\n",
      "111057 note_on channel=0 note=54 velocity=48 time=72\n",
      "111077 note_off channel=0 note=54 velocity=0 time=20\n",
      "111106 note_on channel=0 note=50 velocity=72 time=29\n",
      "111153 note_off channel=0 note=50 velocity=0 time=47\n",
      "111185 note_on channel=0 note=45 velocity=61 time=32\n",
      "111233 note_off channel=0 note=45 velocity=0 time=48\n",
      "111288 note_on channel=0 note=50 velocity=26 time=55\n",
      "111346 note_on channel=0 note=42 velocity=61 time=58\n",
      "111386 note_off channel=0 note=50 velocity=0 time=40\n",
      "111389 note_off channel=0 note=42 velocity=0 time=3\n",
      "111438 note_on channel=0 note=45 velocity=46 time=49\n",
      "111484 note_off channel=0 note=74 velocity=0 time=46\n",
      "111568 note_off channel=0 note=66 velocity=0 time=84\n",
      "111605 note_on channel=0 note=38 velocity=48 time=37\n",
      "111673 note_off channel=0 note=45 velocity=0 time=68\n",
      "111838 note_off channel=0 note=38 velocity=0 time=165\n",
      "112143 note_on channel=0 note=69 velocity=43 time=305\n",
      "112189 note_off channel=0 note=69 velocity=0 time=46\n",
      "112205 note_on channel=0 note=74 velocity=52 time=16\n",
      "112250 note_off channel=0 note=74 velocity=0 time=45\n",
      "112262 note_on channel=0 note=78 velocity=37 time=12\n",
      "112310 note_off channel=0 note=78 velocity=0 time=48\n",
      "112320 note_on channel=0 note=81 velocity=59 time=10\n",
      "112485 note_on channel=0 note=50 velocity=48 time=165\n",
      "112515 note_off channel=0 note=81 velocity=0 time=30\n",
      "112576 note_off channel=0 note=50 velocity=0 time=61\n",
      "112587 note_on channel=0 note=54 velocity=52 time=11\n",
      "112607 note_off channel=0 note=54 velocity=0 time=20\n",
      "112684 note_on channel=0 note=57 velocity=48 time=77\n",
      "112759 note_off channel=0 note=57 velocity=0 time=75\n",
      "112760 note_on channel=0 note=62 velocity=57 time=1\n",
      "112789 note_on channel=0 note=69 velocity=60 time=29\n",
      "112832 note_off channel=0 note=69 velocity=0 time=43\n",
      "112862 note_on channel=0 note=74 velocity=70 time=30\n",
      "112930 note_off channel=0 note=74 velocity=0 time=68\n",
      "112971 note_off channel=0 note=62 velocity=0 time=41\n",
      "113000 note_on channel=0 note=78 velocity=70 time=29\n",
      "113006 note_off channel=0 note=78 velocity=0 time=6\n",
      "113040 note_on channel=0 note=81 velocity=69 time=34\n",
      "113092 note_off channel=0 note=81 velocity=0 time=52\n",
      "113121 note_on channel=0 note=78 velocity=67 time=29\n",
      "113188 note_off channel=0 note=78 velocity=0 time=67\n",
      "113214 note_on channel=0 note=86 velocity=70 time=26\n",
      "113267 note_off channel=0 note=86 velocity=0 time=53\n",
      "113292 note_on channel=0 note=86 velocity=62 time=25\n",
      "113348 note_off channel=0 note=86 velocity=0 time=56\n",
      "113368 note_on channel=0 note=78 velocity=52 time=20\n",
      "113479 note_on channel=0 note=38 velocity=40 time=111\n",
      "113618 note_off channel=0 note=78 velocity=0 time=139\n",
      "113633 note_on channel=0 note=42 velocity=53 time=15\n",
      "113648 note_off channel=0 note=38 velocity=0 time=15\n",
      "113694 note_off channel=0 note=42 velocity=0 time=46\n",
      "113709 note_on channel=0 note=45 velocity=58 time=15\n",
      "113816 note_off channel=0 note=45 velocity=0 time=107\n",
      "113816 note_on channel=0 note=50 velocity=66 time=0\n",
      "113861 note_on channel=0 note=66 velocity=63 time=45\n",
      "113893 note_off channel=0 note=66 velocity=0 time=32\n",
      "113927 note_on channel=0 note=69 velocity=62 time=34\n",
      "113987 note_off channel=0 note=50 velocity=0 time=60\n",
      "113997 note_off channel=0 note=69 velocity=0 time=10\n",
      "114030 note_on channel=0 note=74 velocity=69 time=33\n",
      "114060 note_off channel=0 note=74 velocity=0 time=30\n",
      "114092 note_on channel=0 note=78 velocity=70 time=32\n",
      "114136 note_off channel=0 note=78 velocity=0 time=44\n",
      "114166 note_on channel=0 note=74 velocity=68 time=30\n",
      "114218 note_off channel=0 note=74 velocity=0 time=52\n",
      "114251 note_on channel=0 note=81 velocity=70 time=33\n",
      "114297 note_off channel=0 note=81 velocity=0 time=46\n",
      "114324 note_on channel=0 note=81 velocity=65 time=27\n",
      "114382 note_off channel=0 note=81 velocity=0 time=58\n",
      "114409 note_on channel=0 note=59 velocity=61 time=27\n",
      "114473 note_off channel=0 note=59 velocity=0 time=64\n",
      "114495 note_on channel=0 note=66 velocity=65 time=22\n",
      "114579 note_off channel=0 note=66 velocity=0 time=84\n",
      "114615 note_on channel=0 note=71 velocity=61 time=36\n",
      "114651 note_off channel=0 note=71 velocity=0 time=36\n",
      "114715 note_on channel=0 note=74 velocity=69 time=64\n",
      "114742 note_off channel=0 note=74 velocity=0 time=27\n",
      "114778 note_on channel=0 note=55 velocity=76 time=36\n",
      "114818 note_off channel=0 note=55 velocity=0 time=40\n",
      "114841 note_on channel=0 note=67 velocity=69 time=23\n",
      "114897 note_off channel=0 note=67 velocity=0 time=56\n",
      "114927 note_on channel=0 note=71 velocity=68 time=30\n",
      "114981 note_off channel=0 note=71 velocity=0 time=54\n",
      "115033 note_on channel=0 note=76 velocity=52 time=52\n",
      "115058 note_off channel=0 note=76 velocity=0 time=25\n",
      "115079 note_on channel=0 note=57 velocity=76 time=21\n",
      "115136 note_off channel=0 note=57 velocity=0 time=57\n",
      "115161 note_on channel=0 note=64 velocity=63 time=25\n",
      "115276 note_off channel=0 note=64 velocity=0 time=115\n",
      "115292 note_on channel=0 note=67 velocity=64 time=16\n",
      "115306 note_off channel=0 note=67 velocity=0 time=14\n",
      "115348 note_on channel=0 note=73 velocity=66 time=42\n",
      "115382 note_off channel=0 note=73 velocity=0 time=34\n",
      "115428 note_on channel=0 note=50 velocity=66 time=46\n",
      "115470 note_on channel=0 note=74 velocity=67 time=42\n",
      "115477 note_off channel=0 note=74 velocity=0 time=7\n",
      "115505 note_on channel=0 note=62 velocity=62 time=28\n",
      "115567 note_on channel=0 note=64 velocity=72 time=62\n",
      "115640 note_off channel=0 note=62 velocity=0 time=73\n",
      "115645 note_off channel=0 note=64 velocity=0 time=5\n",
      "115688 note_on channel=0 note=66 velocity=79 time=43\n",
      "115718 note_off channel=0 note=50 velocity=0 time=30\n",
      "115752 note_off channel=0 note=66 velocity=0 time=34\n",
      "115754 note_on channel=0 note=67 velocity=79 time=2\n",
      "115804 note_off channel=0 note=67 velocity=0 time=50\n",
      "115840 note_on channel=0 note=69 velocity=79 time=36\n",
      "115877 note_off channel=0 note=69 velocity=0 time=37\n",
      "115929 note_on channel=0 note=71 velocity=78 time=52\n",
      "115951 note_off channel=0 note=71 velocity=0 time=22\n",
      "116023 note_on channel=0 note=73 velocity=74 time=72\n",
      "116035 note_off channel=0 note=73 velocity=0 time=12\n",
      "116067 note_on channel=0 note=74 velocity=82 time=32\n",
      "116111 note_off channel=0 note=74 velocity=0 time=44\n",
      "116149 note_on channel=0 note=76 velocity=80 time=38\n",
      "116183 note_off channel=0 note=76 velocity=0 time=34\n",
      "116230 note_on channel=0 note=78 velocity=80 time=47\n",
      "116266 note_off channel=0 note=78 velocity=0 time=36\n",
      "116324 note_on channel=0 note=79 velocity=74 time=58\n",
      "116344 note_off channel=0 note=79 velocity=0 time=20\n",
      "116435 note_on channel=0 note=81 velocity=74 time=91\n",
      "116443 note_on channel=0 note=38 velocity=56 time=8\n",
      "116583 note_off channel=0 note=81 velocity=0 time=140\n",
      "116614 note_on channel=0 note=42 velocity=73 time=31\n",
      "116620 note_off channel=0 note=38 velocity=0 time=6\n",
      "116660 note_off channel=0 note=42 velocity=0 time=40\n",
      "116695 note_on channel=0 note=45 velocity=69 time=35\n",
      "116782 note_on channel=0 note=50 velocity=73 time=87\n",
      "116785 note_off channel=0 note=45 velocity=0 time=3\n",
      "116828 note_on channel=0 note=69 velocity=68 time=43\n",
      "116846 note_off channel=0 note=69 velocity=0 time=18\n",
      "116871 note_on channel=0 note=74 velocity=74 time=25\n",
      "116944 note_off channel=0 note=74 velocity=0 time=73\n",
      "116990 note_off channel=0 note=50 velocity=0 time=46\n",
      "117011 note_on channel=0 note=78 velocity=81 time=21\n",
      "117019 note_off channel=0 note=78 velocity=0 time=8\n",
      "117060 note_on channel=0 note=81 velocity=76 time=41\n",
      "117105 note_off channel=0 note=81 velocity=0 time=45\n",
      "117131 note_on channel=0 note=78 velocity=70 time=26\n",
      "117194 note_off channel=0 note=78 velocity=0 time=63\n",
      "117223 note_on channel=0 note=86 velocity=76 time=29\n",
      "117260 note_off channel=0 note=86 velocity=0 time=37\n",
      "117286 note_on channel=0 note=86 velocity=61 time=26\n",
      "117359 note_off channel=0 note=86 velocity=0 time=73\n",
      "117409 note_on channel=0 note=78 velocity=70 time=50\n",
      "117470 note_on channel=0 note=50 velocity=47 time=61\n",
      "117641 note_off channel=0 note=78 velocity=0 time=171\n",
      "117643 note_on channel=0 note=54 velocity=47 time=2\n",
      "117653 note_off channel=0 note=50 velocity=0 time=10\n",
      "117656 note_off channel=0 note=54 velocity=0 time=3\n",
      "117702 note_on channel=0 note=57 velocity=53 time=46\n",
      "117785 note_off channel=0 note=57 velocity=0 time=83\n",
      "117800 note_on channel=0 note=62 velocity=59 time=15\n",
      "117876 note_on channel=0 note=66 velocity=62 time=76\n",
      "117907 note_off channel=0 note=66 velocity=0 time=31\n",
      "117938 note_on channel=0 note=69 velocity=54 time=31\n",
      "117975 note_off channel=0 note=62 velocity=0 time=37\n",
      "117995 note_off channel=0 note=69 velocity=0 time=20\n",
      "118014 note_on channel=0 note=74 velocity=65 time=19\n",
      "118041 note_off channel=0 note=74 velocity=0 time=27\n",
      "118075 note_on channel=0 note=78 velocity=70 time=34\n",
      "118116 note_off channel=0 note=78 velocity=0 time=41\n",
      "118148 note_on channel=0 note=74 velocity=63 time=32\n",
      "118197 note_off channel=0 note=74 velocity=0 time=49\n",
      "118232 note_on channel=0 note=81 velocity=67 time=35\n",
      "118277 note_off channel=0 note=81 velocity=0 time=45\n",
      "118302 note_on channel=0 note=81 velocity=73 time=25\n",
      "118357 note_off channel=0 note=81 velocity=0 time=55\n",
      "118387 note_on channel=0 note=74 velocity=77 time=30\n",
      "118444 note_off channel=0 note=74 velocity=0 time=57\n",
      "118467 note_on channel=0 note=47 velocity=48 time=23\n",
      "118516 note_off channel=0 note=47 velocity=0 time=49\n",
      "118613 note_on channel=0 note=50 velocity=56 time=97\n",
      "118619 note_off channel=0 note=50 velocity=0 time=6\n",
      "118684 note_on channel=0 note=59 velocity=57 time=65\n",
      "118696 note_off channel=0 note=59 velocity=0 time=12\n",
      "118719 note_on channel=0 note=76 velocity=59 time=23\n",
      "118778 note_on channel=0 note=67 velocity=62 time=59\n",
      "118783 note_off channel=0 note=76 velocity=0 time=5\n",
      "118799 note_off channel=0 note=67 velocity=0 time=16\n",
      "118805 note_on channel=0 note=43 velocity=55 time=6\n",
      "118871 note_on channel=0 note=47 velocity=51 time=66\n",
      "118943 note_off channel=0 note=43 velocity=0 time=72\n",
      "118973 note_off channel=0 note=47 velocity=0 time=30\n",
      "119021 note_on channel=0 note=55 velocity=59 time=48\n",
      "119031 note_off channel=0 note=55 velocity=0 time=10\n",
      "119063 note_on channel=0 note=64 velocity=63 time=32\n",
      "119116 note_on channel=0 note=73 velocity=62 time=53\n",
      "119117 note_off channel=0 note=64 velocity=0 time=1\n",
      "119137 note_off channel=0 note=73 velocity=0 time=20\n",
      "119144 note_on channel=0 note=45 velocity=57 time=7\n",
      "119200 note_on channel=0 note=49 velocity=50 time=56\n",
      "119294 note_off channel=0 note=45 velocity=0 time=94\n",
      "119301 note_off channel=0 note=49 velocity=0 time=7\n",
      "119358 note_on channel=0 note=57 velocity=58 time=57\n",
      "119372 note_off channel=0 note=57 velocity=0 time=14\n",
      "119407 note_on channel=0 note=74 velocity=59 time=35\n",
      "119460 note_on channel=0 note=66 velocity=46 time=53\n",
      "119464 note_on channel=0 note=50 velocity=56 time=4\n",
      "119555 note_off channel=0 note=50 velocity=0 time=91\n",
      "119627 note_on channel=0 note=54 velocity=31 time=72\n",
      "119658 note_off channel=0 note=54 velocity=0 time=31\n",
      "119694 note_on channel=0 note=50 velocity=69 time=36\n",
      "119727 note_off channel=0 note=50 velocity=0 time=33\n",
      "119760 note_on channel=0 note=45 velocity=63 time=33\n",
      "119808 note_off channel=0 note=45 velocity=0 time=48\n",
      "119860 note_on channel=0 note=50 velocity=51 time=52\n",
      "119898 note_off channel=0 note=50 velocity=0 time=38\n",
      "119930 note_on channel=0 note=42 velocity=55 time=32\n",
      "119958 note_off channel=0 note=42 velocity=0 time=28\n",
      "120010 note_on channel=0 note=45 velocity=41 time=52\n",
      "120074 note_off channel=0 note=45 velocity=0 time=64\n",
      "120221 note_off channel=0 note=74 velocity=0 time=147\n",
      "120237 note_on channel=0 note=38 velocity=37 time=16\n",
      "120255 note_off channel=0 note=66 velocity=0 time=18\n",
      "120378 note_off channel=0 note=38 velocity=0 time=123\n",
      "121208 note_on channel=0 note=73 velocity=50 time=830\n",
      "121223 note_on channel=0 note=76 velocity=55 time=15\n",
      "121227 note_on channel=0 note=69 velocity=36 time=4\n",
      "121299 note_on channel=0 note=33 velocity=48 time=72\n",
      "121414 note_off channel=0 note=76 velocity=0 time=115\n",
      "121496 note_off channel=0 note=69 velocity=0 time=82\n",
      "121505 note_off channel=0 note=33 velocity=0 time=9\n",
      "121517 note_off channel=0 note=73 velocity=0 time=12\n",
      "121519 note_on channel=0 note=37 velocity=51 time=2\n",
      "121557 note_off channel=0 note=37 velocity=0 time=38\n",
      "121595 note_on channel=0 note=40 velocity=52 time=38\n",
      "121688 note_on channel=0 note=45 velocity=67 time=93\n",
      "121703 note_off channel=0 note=40 velocity=0 time=15\n",
      "121748 note_off channel=0 note=45 velocity=0 time=45\n",
      "121763 note_on channel=0 note=61 velocity=55 time=15\n",
      "121778 note_on channel=0 note=64 velocity=68 time=15\n",
      "121847 note_off channel=0 note=61 velocity=0 time=69\n",
      "121852 note_on channel=0 note=69 velocity=71 time=5\n",
      "121945 note_off channel=0 note=64 velocity=0 time=93\n",
      "122021 note_on channel=0 note=73 velocity=70 time=76\n",
      "122081 note_off channel=0 note=69 velocity=0 time=60\n",
      "122094 note_on channel=0 note=57 velocity=57 time=13\n",
      "122112 note_off channel=0 note=73 velocity=0 time=18\n",
      "122117 note_on channel=0 note=61 velocity=57 time=5\n",
      "122186 note_off channel=0 note=57 velocity=0 time=69\n",
      "122249 note_on channel=0 note=64 velocity=68 time=63\n",
      "122251 note_off channel=0 note=61 velocity=0 time=2\n",
      "122325 note_off channel=0 note=64 velocity=0 time=74\n",
      "122340 note_on channel=0 note=69 velocity=74 time=15\n",
      "122408 note_on channel=0 note=76 velocity=66 time=68\n",
      "122423 note_on channel=0 note=81 velocity=77 time=15\n",
      "122505 note_off channel=0 note=76 velocity=0 time=82\n",
      "122517 note_off channel=0 note=81 velocity=0 time=12\n",
      "122558 note_off channel=0 note=69 velocity=0 time=41\n",
      "122578 note_on channel=0 note=85 velocity=84 time=20\n",
      "122585 note_on channel=0 note=88 velocity=83 time=7\n",
      "122670 note_off channel=0 note=85 velocity=0 time=85\n",
      "122678 note_on channel=0 note=86 velocity=82 time=8\n",
      "122753 note_off channel=0 note=88 velocity=0 time=75\n",
      "122832 note_on channel=0 note=85 velocity=79 time=79\n",
      "122836 note_off channel=0 note=86 velocity=0 time=4\n",
      "122868 note_on channel=0 note=83 velocity=78 time=32\n",
      "122916 note_off channel=0 note=85 velocity=0 time=48\n",
      "122948 note_off channel=0 note=83 velocity=0 time=32\n",
      "122977 note_on channel=0 note=81 velocity=72 time=29\n",
      "122997 note_off channel=0 note=81 velocity=0 time=20\n",
      "123028 note_on channel=0 note=79 velocity=74 time=31\n",
      "123074 note_on channel=0 note=78 velocity=74 time=46\n",
      "123165 note_off channel=0 note=79 velocity=0 time=91\n",
      "123183 note_on channel=0 note=76 velocity=76 time=18\n",
      "123234 note_off channel=0 note=78 velocity=0 time=51\n",
      "123235 note_off channel=0 note=76 velocity=0 time=1\n",
      "123350 note_on channel=0 note=78 velocity=71 time=115\n",
      "123355 note_on channel=0 note=50 velocity=50 time=5\n",
      "123572 note_off channel=0 note=50 velocity=0 time=217\n",
      "123586 note_on channel=0 note=54 velocity=48 time=14\n",
      "123617 note_off channel=0 note=54 velocity=0 time=31\n",
      "123634 note_on channel=0 note=57 velocity=61 time=17\n",
      "123652 note_off channel=0 note=78 velocity=0 time=18\n",
      "123724 note_off channel=0 note=57 velocity=0 time=72\n",
      "123724 note_on channel=0 note=62 velocity=56 time=0\n",
      "123798 note_on channel=0 note=66 velocity=66 time=74\n",
      "123829 note_off channel=0 note=62 velocity=0 time=31\n",
      "123847 note_off channel=0 note=66 velocity=0 time=18\n",
      "123889 note_on channel=0 note=69 velocity=63 time=42\n",
      "123943 note_off channel=0 note=69 velocity=0 time=54\n",
      "123958 note_on channel=0 note=74 velocity=74 time=15\n",
      "124034 note_on channel=0 note=78 velocity=72 time=76\n",
      "124127 note_off channel=0 note=74 velocity=0 time=93\n",
      "124143 note_on channel=0 note=62 velocity=58 time=16\n",
      "124158 note_off channel=0 note=78 velocity=0 time=15\n",
      "124166 note_on channel=0 note=66 velocity=56 time=8\n",
      "124229 note_off channel=0 note=62 velocity=0 time=63\n",
      "124241 note_on channel=0 note=69 velocity=61 time=12\n",
      "124279 note_off channel=0 note=66 velocity=0 time=38\n",
      "124371 note_on channel=0 note=74 velocity=70 time=92\n",
      "124385 note_off channel=0 note=69 velocity=0 time=14\n",
      "124395 note_on channel=0 note=81 velocity=59 time=10\n",
      "124444 note_off channel=0 note=81 velocity=0 time=49\n",
      "124507 note_on channel=0 note=83 velocity=75 time=63\n",
      "124569 note_off channel=0 note=83 velocity=0 time=62\n",
      "124583 note_off channel=0 note=74 velocity=0 time=14\n",
      "124598 note_on channel=0 note=85 velocity=84 time=15\n",
      "124599 note_on channel=0 note=86 velocity=84 time=1\n",
      "124687 note_off channel=0 note=85 velocity=0 time=88\n",
      "124689 note_on channel=0 note=85 velocity=86 time=2\n",
      "124769 note_off channel=0 note=86 velocity=0 time=80\n",
      "124794 note_on channel=0 note=83 velocity=81 time=25\n",
      "124851 note_off channel=0 note=85 velocity=0 time=57\n",
      "124873 note_off channel=0 note=83 velocity=0 time=22\n",
      "124904 note_on channel=0 note=81 velocity=77 time=31\n",
      "124930 note_off channel=0 note=81 velocity=0 time=26\n",
      "124960 note_on channel=0 note=79 velocity=77 time=30\n",
      "125007 note_on channel=0 note=78 velocity=80 time=47\n",
      "125084 note_off channel=0 note=79 velocity=0 time=77\n",
      "125096 note_on channel=0 note=76 velocity=78 time=12\n",
      "125150 note_off channel=0 note=78 velocity=0 time=54\n",
      "125177 note_off channel=0 note=76 velocity=0 time=27\n",
      "125198 note_on channel=0 note=74 velocity=80 time=21\n",
      "125231 note_off channel=0 note=74 velocity=0 time=33\n",
      "125336 note_on channel=0 note=78 velocity=73 time=105\n",
      "125336 note_on channel=0 note=81 velocity=71 time=0\n",
      "125342 note_on channel=0 note=50 velocity=91 time=6\n",
      "125351 note_off channel=0 note=81 velocity=0 time=9\n",
      "125396 note_off channel=0 note=78 velocity=0 time=45\n",
      "125397 note_on channel=0 note=74 velocity=76 time=1\n",
      "125441 note_off channel=0 note=74 velocity=0 time=44\n",
      "125509 note_on channel=0 note=86 velocity=84 time=68\n",
      "125546 note_off channel=0 note=86 velocity=0 time=37\n",
      "125579 note_on channel=0 note=74 velocity=75 time=33\n",
      "125627 note_off channel=0 note=74 velocity=0 time=48\n",
      "125681 note_on channel=0 note=81 velocity=73 time=54\n",
      "125718 note_on channel=0 note=78 velocity=75 time=37\n",
      "125725 note_off channel=0 note=81 velocity=0 time=7\n",
      "125746 note_off channel=0 note=78 velocity=0 time=21\n",
      "125761 note_on channel=0 note=74 velocity=78 time=15\n",
      "125798 note_off channel=0 note=50 velocity=0 time=37\n",
      "125822 note_off channel=0 note=74 velocity=0 time=24\n",
      "125840 note_on channel=0 note=55 velocity=72 time=18\n",
      "125878 note_on channel=0 note=79 velocity=78 time=38\n",
      "125878 note_on channel=0 note=83 velocity=74 time=0\n",
      "125880 note_off channel=0 note=55 velocity=0 time=2\n",
      "125903 note_off channel=0 note=79 velocity=0 time=23\n",
      "125906 note_off channel=0 note=83 velocity=0 time=3\n",
      "125911 note_on channel=0 note=74 velocity=71 time=5\n",
      "125959 note_off channel=0 note=74 velocity=0 time=48\n",
      "126015 note_on channel=0 note=81 velocity=78 time=56\n",
      "126043 note_on channel=0 note=50 velocity=74 time=28\n",
      "126045 note_on channel=0 note=78 velocity=76 time=2\n",
      "126049 note_off channel=0 note=50 velocity=0 time=4\n",
      "126068 note_off channel=0 note=81 velocity=0 time=19\n",
      "126074 note_off channel=0 note=78 velocity=0 time=6\n",
      "126079 note_on channel=0 note=74 velocity=75 time=5\n",
      "126126 note_off channel=0 note=74 velocity=0 time=47\n",
      "126161 note_on channel=0 note=83 velocity=76 time=35\n",
      "126208 note_on channel=0 note=55 velocity=72 time=47\n",
      "126212 note_on channel=0 note=79 velocity=64 time=4\n",
      "126233 note_off channel=0 note=55 velocity=0 time=21\n",
      "126239 note_off channel=0 note=79 velocity=0 time=6\n",
      "126248 note_off channel=0 note=83 velocity=0 time=9\n",
      "126278 note_on channel=0 note=74 velocity=74 time=30\n",
      "126354 note_off channel=0 note=74 velocity=0 time=76\n",
      "126370 note_on channel=0 note=81 velocity=75 time=16\n",
      "126379 note_on channel=0 note=50 velocity=77 time=9\n",
      "126385 note_on channel=0 note=78 velocity=68 time=6\n",
      "126400 note_off channel=0 note=81 velocity=0 time=15\n",
      "126416 note_off channel=0 note=78 velocity=0 time=16\n",
      "126447 note_on channel=0 note=74 velocity=74 time=31\n",
      "126507 note_off channel=0 note=74 velocity=0 time=60\n",
      "126537 note_on channel=0 note=86 velocity=79 time=30\n",
      "126568 note_off channel=0 note=86 velocity=0 time=31\n",
      "126599 note_on channel=0 note=74 velocity=72 time=31\n",
      "126660 note_off channel=0 note=74 velocity=0 time=61\n",
      "126705 note_on channel=0 note=81 velocity=64 time=45\n",
      "126720 note_on channel=0 note=78 velocity=61 time=15\n",
      "126736 note_off channel=0 note=81 velocity=0 time=16\n",
      "126750 note_off channel=0 note=78 velocity=0 time=14\n",
      "126781 note_off channel=0 note=50 velocity=0 time=31\n",
      "126782 note_on channel=0 note=74 velocity=64 time=1\n",
      "126826 note_off channel=0 note=74 velocity=0 time=44\n",
      "126857 note_on channel=0 note=79 velocity=60 time=31\n",
      "126872 note_on channel=0 note=55 velocity=54 time=15\n",
      "126879 note_on channel=0 note=83 velocity=50 time=7\n",
      "126887 note_off channel=0 note=79 velocity=0 time=8\n",
      "126900 note_off channel=0 note=55 velocity=0 time=13\n",
      "126905 note_off channel=0 note=83 velocity=0 time=5\n",
      "126907 note_on channel=0 note=74 velocity=59 time=2\n",
      "126953 note_off channel=0 note=74 velocity=0 time=46\n",
      "127006 note_on channel=0 note=78 velocity=63 time=53\n",
      "127050 note_on channel=0 note=81 velocity=59 time=44\n",
      "127052 note_on channel=0 note=50 velocity=50 time=2\n",
      "127055 note_off channel=0 note=81 velocity=0 time=3\n",
      "127079 note_off channel=0 note=78 velocity=0 time=24\n",
      "127083 note_off channel=0 note=50 velocity=0 time=4\n",
      "127085 note_on channel=0 note=74 velocity=59 time=2\n",
      "127127 note_off channel=0 note=74 velocity=0 time=42\n",
      "127161 note_on channel=0 note=83 velocity=61 time=34\n",
      "127203 note_on channel=0 note=55 velocity=58 time=42\n",
      "127205 note_off channel=0 note=55 velocity=0 time=2\n",
      "127205 note_on channel=0 note=79 velocity=54 time=0\n",
      "127228 note_off channel=0 note=79 velocity=0 time=23\n",
      "127234 note_off channel=0 note=83 velocity=0 time=6\n",
      "127238 note_on channel=0 note=74 velocity=64 time=4\n",
      "127283 note_off channel=0 note=74 velocity=0 time=45\n",
      "127339 note_on channel=0 note=81 velocity=74 time=56\n",
      "127382 note_on channel=0 note=50 velocity=55 time=43\n",
      "127384 note_off channel=0 note=81 velocity=0 time=2\n",
      "127460 note_on channel=0 note=78 velocity=70 time=76\n",
      "127463 note_on channel=0 note=57 velocity=48 time=3\n",
      "127484 note_off channel=0 note=78 velocity=0 time=21\n",
      "127510 note_off channel=0 note=50 velocity=0 time=26\n",
      "127515 note_off channel=0 note=57 velocity=0 time=5\n",
      "127516 note_on channel=0 note=74 velocity=69 time=1\n",
      "127550 note_on channel=0 note=54 velocity=49 time=34\n",
      "127565 note_off channel=0 note=74 velocity=0 time=15\n",
      "127582 note_off channel=0 note=54 velocity=0 time=17\n",
      "127592 note_on channel=0 note=81 velocity=71 time=10\n",
      "127630 note_on channel=0 note=57 velocity=51 time=38\n",
      "127632 note_off channel=0 note=57 velocity=0 time=2\n",
      "127670 note_off channel=0 note=81 velocity=0 time=38\n",
      "127683 note_on channel=0 note=49 velocity=50 time=13\n",
      "127721 note_off channel=0 note=49 velocity=0 time=38\n",
      "127721 note_on channel=0 note=79 velocity=72 time=0\n",
      "127764 note_on channel=0 note=76 velocity=68 time=43\n",
      "127803 note_on channel=0 note=57 velocity=53 time=39\n",
      "127804 note_off channel=0 note=79 velocity=0 time=1\n",
      "127815 note_off channel=0 note=57 velocity=0 time=11\n",
      "127836 note_off channel=0 note=76 velocity=0 time=21\n",
      "127853 note_on channel=0 note=52 velocity=54 time=17\n",
      "127881 note_on channel=0 note=69 velocity=62 time=28\n",
      "127888 note_off channel=0 note=69 velocity=0 time=7\n",
      "127917 note_off channel=0 note=52 velocity=0 time=29\n",
      "127924 note_on channel=0 note=57 velocity=57 time=7\n",
      "127959 note_on channel=0 note=79 velocity=66 time=35\n",
      "127965 note_off channel=0 note=57 velocity=0 time=6\n",
      "128012 note_on channel=0 note=78 velocity=76 time=47\n",
      "128054 note_on channel=0 note=50 velocity=55 time=42\n",
      "128057 note_off channel=0 note=79 velocity=0 time=3\n",
      "128106 note_on channel=0 note=74 velocity=70 time=49\n",
      "128126 note_off channel=0 note=78 velocity=0 time=20\n",
      "128138 note_off channel=0 note=50 velocity=0 time=12\n",
      "128165 note_on channel=0 note=54 velocity=48 time=27\n",
      "128195 note_off channel=0 note=54 velocity=0 time=30\n",
      "128196 note_off channel=0 note=74 velocity=0 time=1\n",
      "128211 note_on channel=0 note=69 velocity=56 time=15\n",
      "128256 note_on channel=0 note=57 velocity=51 time=45\n",
      "128260 note_off channel=0 note=69 velocity=0 time=4\n",
      "128271 note_on channel=0 note=78 velocity=74 time=11\n",
      "128281 note_off channel=0 note=57 velocity=0 time=10\n",
      "128308 note_off channel=0 note=78 velocity=0 time=27\n",
      "128409 note_on channel=0 note=76 velocity=65 time=101\n",
      "128424 note_on channel=0 note=45 velocity=36 time=15\n",
      "128437 note_off channel=0 note=76 velocity=0 time=13\n",
      "128518 note_on channel=0 note=69 velocity=58 time=81\n",
      "128583 note_off channel=0 note=69 velocity=0 time=65\n",
      "128601 note_on channel=0 note=73 velocity=68 time=18\n",
      "128659 note_off channel=0 note=73 velocity=0 time=58\n",
      "128704 note_on channel=0 note=69 velocity=68 time=45\n",
      "128735 note_off channel=0 note=69 velocity=0 time=31\n",
      "128744 note_on channel=0 note=74 velocity=73 time=9\n",
      "128792 note_on channel=0 note=71 velocity=62 time=48\n",
      "128797 note_off channel=0 note=74 velocity=0 time=5\n",
      "128837 note_off channel=0 note=71 velocity=0 time=40\n",
      "128854 note_on channel=0 note=69 velocity=75 time=17\n",
      "128875 note_off channel=0 note=45 velocity=0 time=21\n",
      "128892 note_off channel=0 note=69 velocity=0 time=17\n",
      "128929 note_on channel=0 note=76 velocity=72 time=37\n",
      "128947 note_on channel=0 note=73 velocity=76 time=18\n",
      "128960 note_off channel=0 note=76 velocity=0 time=13\n",
      "128982 note_off channel=0 note=73 velocity=0 time=22\n",
      "128989 note_on channel=0 note=69 velocity=75 time=7\n",
      "129038 note_off channel=0 note=69 velocity=0 time=49\n",
      "129125 note_on channel=0 note=74 velocity=73 time=87\n",
      "129125 note_on channel=0 note=78 velocity=82 time=0\n",
      "129127 note_off channel=0 note=74 velocity=0 time=2\n",
      "129194 note_off channel=0 note=78 velocity=0 time=67\n",
      "129200 note_on channel=0 note=69 velocity=75 time=6\n",
      "129216 note_off channel=0 note=69 velocity=0 time=16\n",
      "129291 note_on channel=0 note=76 velocity=73 time=75\n",
      "129305 note_on channel=0 note=79 velocity=71 time=14\n",
      "129336 note_off channel=0 note=76 velocity=0 time=31\n",
      "129344 note_off channel=0 note=79 velocity=0 time=8\n",
      "129366 note_on channel=0 note=69 velocity=77 time=22\n",
      "129381 note_off channel=0 note=69 velocity=0 time=15\n",
      "129424 note_on channel=0 note=69 velocity=74 time=43\n",
      "129534 note_on channel=0 note=74 velocity=68 time=110\n",
      "129539 note_off channel=0 note=69 velocity=0 time=5\n",
      "129564 note_off channel=0 note=74 velocity=0 time=25\n",
      "129582 note_on channel=0 note=78 velocity=70 time=18\n",
      "129583 note_on channel=0 note=81 velocity=90 time=1\n",
      "129645 note_off channel=0 note=78 velocity=0 time=62\n",
      "129666 note_on channel=0 note=50 velocity=59 time=21\n",
      "129807 note_off channel=0 note=81 velocity=0 time=141\n",
      "129836 note_off channel=0 note=50 velocity=0 time=29\n",
      "129852 note_on channel=0 note=54 velocity=61 time=16\n",
      "129914 note_off channel=0 note=54 velocity=0 time=62\n",
      "129923 note_on channel=0 note=57 velocity=70 time=9\n",
      "130005 note_on channel=0 note=62 velocity=74 time=82\n",
      "130020 note_off channel=0 note=57 velocity=0 time=15\n",
      "130104 note_on channel=0 note=69 velocity=67 time=84\n",
      "130119 note_off channel=0 note=69 velocity=0 time=15\n",
      "130194 note_on channel=0 note=74 velocity=77 time=75\n",
      "130240 note_on channel=0 note=78 velocity=81 time=46\n",
      "130273 note_off channel=0 note=74 velocity=0 time=33\n",
      "130301 note_off channel=0 note=78 velocity=0 time=28\n",
      "130326 note_off channel=0 note=62 velocity=0 time=25\n",
      "130327 note_on channel=0 note=81 velocity=79 time=1\n",
      "130365 note_off channel=0 note=81 velocity=0 time=38\n",
      "130408 note_on channel=0 note=78 velocity=79 time=43\n",
      "130484 note_off channel=0 note=78 velocity=0 time=76\n",
      "130529 note_on channel=0 note=86 velocity=81 time=45\n",
      "130544 note_off channel=0 note=86 velocity=0 time=15\n",
      "130570 note_on channel=0 note=88 velocity=58 time=26\n",
      "130646 note_on channel=0 note=86 velocity=55 time=76\n",
      "130647 note_off channel=0 note=88 velocity=0 time=1\n",
      "130665 note_off channel=0 note=86 velocity=0 time=18\n",
      "130669 note_on channel=0 note=78 velocity=67 time=4\n",
      "130750 note_on channel=0 note=38 velocity=50 time=81\n",
      "130903 note_off channel=0 note=78 velocity=0 time=153\n",
      "130923 note_on channel=0 note=42 velocity=60 time=20\n",
      "130932 note_off channel=0 note=38 velocity=0 time=9\n",
      "130978 note_off channel=0 note=42 velocity=0 time=46\n",
      "130992 note_on channel=0 note=45 velocity=61 time=14\n",
      "131085 note_on channel=0 note=50 velocity=68 time=93\n",
      "131101 note_off channel=0 note=45 velocity=0 time=16\n",
      "131146 note_on channel=0 note=66 velocity=69 time=45\n",
      "131176 note_off channel=0 note=66 velocity=0 time=30\n",
      "131237 note_on channel=0 note=69 velocity=70 time=61\n",
      "131253 note_off channel=0 note=50 velocity=0 time=16\n",
      "131283 note_off channel=0 note=69 velocity=0 time=30\n",
      "131298 note_on channel=0 note=74 velocity=73 time=15\n",
      "131344 note_off channel=0 note=74 velocity=0 time=46\n",
      "131374 note_on channel=0 note=78 velocity=76 time=30\n",
      "131396 note_off channel=0 note=78 velocity=0 time=22\n",
      "131424 note_on channel=0 note=74 velocity=72 time=28\n",
      "131481 note_off channel=0 note=74 velocity=0 time=57\n",
      "131514 note_on channel=0 note=81 velocity=65 time=33\n",
      "131558 note_off channel=0 note=81 velocity=0 time=44\n",
      "131594 note_on channel=0 note=81 velocity=66 time=36\n",
      "131646 note_off channel=0 note=81 velocity=0 time=52\n",
      "131664 note_on channel=0 note=59 velocity=57 time=18\n",
      "131748 note_off channel=0 note=59 velocity=0 time=84\n",
      "131772 note_on channel=0 note=66 velocity=54 time=24\n",
      "131858 note_off channel=0 note=66 velocity=0 time=86\n",
      "131903 note_on channel=0 note=71 velocity=56 time=45\n",
      "131924 note_off channel=0 note=71 velocity=0 time=21\n",
      "131964 note_on channel=0 note=74 velocity=70 time=40\n",
      "131998 note_off channel=0 note=74 velocity=0 time=34\n",
      "132027 note_on channel=0 note=55 velocity=68 time=29\n",
      "132085 note_off channel=0 note=55 velocity=0 time=58\n",
      "132114 note_on channel=0 note=67 velocity=64 time=29\n",
      "132166 note_off channel=0 note=67 velocity=0 time=52\n",
      "132196 note_on channel=0 note=71 velocity=61 time=30\n",
      "132249 note_off channel=0 note=71 velocity=0 time=53\n",
      "132291 note_on channel=0 note=76 velocity=58 time=42\n",
      "132326 note_off channel=0 note=76 velocity=0 time=35\n",
      "132353 note_on channel=0 note=57 velocity=67 time=27\n",
      "132411 note_off channel=0 note=57 velocity=0 time=58\n",
      "132437 note_on channel=0 note=64 velocity=55 time=26\n",
      "132545 note_off channel=0 note=64 velocity=0 time=108\n",
      "132560 note_on channel=0 note=67 velocity=62 time=15\n",
      "132568 note_off channel=0 note=67 velocity=0 time=8\n",
      "132620 note_on channel=0 note=73 velocity=63 time=52\n",
      "132681 note_off channel=0 note=73 velocity=0 time=61\n",
      "132697 note_on channel=0 note=50 velocity=66 time=16\n",
      "132734 note_on channel=0 note=74 velocity=77 time=37\n",
      "132754 note_off channel=0 note=74 velocity=0 time=20\n",
      "132785 note_on channel=0 note=62 velocity=65 time=31\n",
      "132841 note_off channel=0 note=62 velocity=0 time=56\n",
      "132913 note_on channel=0 note=64 velocity=68 time=72\n",
      "132916 note_off channel=0 note=64 velocity=0 time=3\n",
      "132965 note_on channel=0 note=66 velocity=79 time=49\n",
      "132995 note_off channel=0 note=66 velocity=0 time=30\n",
      "133030 note_off channel=0 note=50 velocity=0 time=35\n",
      "133038 note_on channel=0 note=67 velocity=77 time=8\n",
      "133077 note_off channel=0 note=67 velocity=0 time=39\n",
      "133125 note_on channel=0 note=69 velocity=77 time=48\n",
      "133159 note_off channel=0 note=69 velocity=0 time=34\n",
      "133206 note_on channel=0 note=71 velocity=76 time=47\n",
      "133239 note_off channel=0 note=71 velocity=0 time=33\n",
      "133297 note_on channel=0 note=73 velocity=82 time=58\n",
      "133313 note_off channel=0 note=73 velocity=0 time=16\n",
      "133357 note_on channel=0 note=74 velocity=81 time=44\n",
      "133404 note_off channel=0 note=74 velocity=0 time=47\n",
      "133448 note_on channel=0 note=76 velocity=78 time=44\n",
      "133472 note_off channel=0 note=76 velocity=0 time=24\n",
      "133541 note_on channel=0 note=78 velocity=82 time=69\n",
      "133616 note_off channel=0 note=78 velocity=0 time=75\n",
      "133631 note_on channel=0 note=79 velocity=80 time=15\n",
      "133723 note_on channel=0 note=81 velocity=82 time=92\n",
      "133738 note_off channel=0 note=79 velocity=0 time=15\n",
      "133799 note_on channel=0 note=38 velocity=59 time=61\n",
      "133845 note_off channel=0 note=81 velocity=0 time=46\n",
      "133860 note_on channel=0 note=42 velocity=68 time=15\n",
      "133906 note_off channel=0 note=38 velocity=0 time=46\n",
      "133958 note_on channel=0 note=45 velocity=73 time=52\n",
      "133990 note_off channel=0 note=42 velocity=0 time=32\n",
      "134065 note_on channel=0 note=50 velocity=78 time=75\n",
      "134080 note_off channel=0 note=45 velocity=0 time=15\n",
      "134096 note_on channel=0 note=69 velocity=62 time=16\n",
      "134146 note_off channel=0 note=69 velocity=0 time=50\n",
      "134174 note_on channel=0 note=74 velocity=79 time=28\n",
      "134238 note_off channel=0 note=74 velocity=0 time=64\n",
      "134299 note_on channel=0 note=78 velocity=83 time=61\n",
      "134310 note_off channel=0 note=50 velocity=0 time=11\n",
      "134311 note_off channel=0 note=78 velocity=0 time=1\n",
      "134360 note_on channel=0 note=81 velocity=79 time=49\n",
      "134430 note_off channel=0 note=81 velocity=0 time=70\n",
      "134446 note_on channel=0 note=78 velocity=80 time=16\n",
      "134477 note_off channel=0 note=78 velocity=0 time=31\n",
      "134567 note_on channel=0 note=86 velocity=70 time=90\n",
      "134568 note_off channel=0 note=86 velocity=0 time=1\n",
      "134627 note_on channel=0 note=86 velocity=84 time=59\n",
      "134665 note_off channel=0 note=86 velocity=0 time=38\n",
      "134756 note_on channel=0 note=78 velocity=70 time=91\n",
      "134819 note_on channel=0 note=50 velocity=51 time=63\n",
      "134909 note_off channel=0 note=78 velocity=0 time=90\n",
      "134925 note_on channel=0 note=54 velocity=51 time=16\n",
      "134933 note_off channel=0 note=50 velocity=0 time=8\n",
      "134940 note_off channel=0 note=54 velocity=0 time=7\n",
      "135000 note_on channel=0 note=57 velocity=61 time=60\n",
      "135076 note_on channel=0 note=62 velocity=66 time=76\n",
      "135092 note_off channel=0 note=57 velocity=0 time=16\n",
      "135168 note_on channel=0 note=66 velocity=71 time=76\n",
      "135197 note_off channel=0 note=66 velocity=0 time=29\n",
      "135211 note_on channel=0 note=69 velocity=63 time=14\n",
      "135270 note_off channel=0 note=62 velocity=0 time=59\n",
      "135305 note_off channel=0 note=69 velocity=0 time=35\n",
      "135340 note_on channel=0 note=74 velocity=50 time=35\n",
      "135365 note_on channel=0 note=72 velocity=36 time=25\n",
      "135368 note_off channel=0 note=74 velocity=0 time=3\n",
      "135389 note_off channel=0 note=72 velocity=0 time=21\n",
      "135410 note_on channel=0 note=78 velocity=69 time=21\n",
      "135441 note_off channel=0 note=78 velocity=0 time=31\n",
      "135467 note_on channel=0 note=74 velocity=62 time=26\n",
      "135509 note_off channel=0 note=74 velocity=0 time=42\n",
      "135556 note_on channel=0 note=81 velocity=64 time=47\n",
      "135599 note_off channel=0 note=81 velocity=0 time=43\n",
      "135627 note_on channel=0 note=81 velocity=77 time=28\n",
      "135681 note_off channel=0 note=81 velocity=0 time=54\n",
      "135705 note_on channel=0 note=74 velocity=83 time=24\n",
      "135761 note_off channel=0 note=74 velocity=0 time=56\n",
      "135784 note_on channel=0 note=47 velocity=57 time=23\n",
      "135845 note_off channel=0 note=47 velocity=0 time=61\n",
      "135925 note_on channel=0 note=50 velocity=62 time=80\n",
      "135927 note_off channel=0 note=50 velocity=0 time=2\n",
      "135994 note_on channel=0 note=59 velocity=51 time=67\n",
      "136024 note_off channel=0 note=59 velocity=0 time=30\n",
      "136050 note_on channel=0 note=76 velocity=64 time=26\n",
      "136100 note_on channel=0 note=67 velocity=64 time=50\n",
      "136107 note_off channel=0 note=76 velocity=0 time=7\n",
      "136125 note_off channel=0 note=67 velocity=0 time=18\n",
      "136128 note_on channel=0 note=43 velocity=54 time=3\n",
      "136209 note_on channel=0 note=47 velocity=44 time=81\n",
      "136291 note_off channel=0 note=43 velocity=0 time=82\n",
      "136304 note_off channel=0 note=47 velocity=0 time=13\n",
      "136361 note_on channel=0 note=55 velocity=51 time=57\n",
      "136380 note_off channel=0 note=55 velocity=0 time=19\n",
      "136407 note_on channel=0 note=73 velocity=66 time=27\n",
      "136450 note_on channel=0 note=64 velocity=54 time=43\n",
      "136454 note_off channel=0 note=73 velocity=0 time=4\n",
      "136473 note_off channel=0 note=64 velocity=0 time=19\n",
      "136477 note_on channel=0 note=45 velocity=55 time=4\n",
      "136544 note_off channel=0 note=45 velocity=0 time=67\n",
      "136621 note_on channel=0 note=49 velocity=54 time=77\n",
      "136624 note_off channel=0 note=49 velocity=0 time=3\n",
      "136684 note_on channel=0 note=57 velocity=59 time=60\n",
      "136708 note_off channel=0 note=57 velocity=0 time=24\n",
      "136738 note_on channel=0 note=74 velocity=68 time=30\n",
      "136808 note_on channel=0 note=66 velocity=47 time=70\n",
      "136815 note_on channel=0 note=50 velocity=54 time=7\n",
      "136915 note_off channel=0 note=50 velocity=0 time=100\n",
      "136988 note_on channel=0 note=54 velocity=46 time=73\n",
      "137008 note_off channel=0 note=54 velocity=0 time=20\n",
      "137035 note_on channel=0 note=50 velocity=57 time=27\n",
      "137099 note_off channel=0 note=50 velocity=0 time=64\n",
      "137130 note_on channel=0 note=45 velocity=50 time=31\n",
      "137187 note_off channel=0 note=45 velocity=0 time=57\n",
      "137250 note_on channel=0 note=50 velocity=50 time=63\n",
      "137284 note_off channel=0 note=50 velocity=0 time=34\n",
      "137317 note_on channel=0 note=42 velocity=50 time=33\n",
      "137357 note_off channel=0 note=42 velocity=0 time=40\n",
      "137416 note_on channel=0 note=45 velocity=55 time=59\n",
      "137458 note_off channel=0 note=74 velocity=0 time=42\n",
      "137548 note_off channel=0 note=66 velocity=0 time=90\n",
      "137681 note_off channel=0 note=45 velocity=0 time=133\n",
      "137719 note_on channel=0 note=38 velocity=46 time=38\n",
      "137980 note_off channel=0 note=38 velocity=0 time=261\n",
      "138551 note_on channel=0 note=81 velocity=56 time=571\n",
      "138560 note_on channel=0 note=78 velocity=52 time=9\n",
      "138567 note_on channel=0 note=62 velocity=45 time=7\n",
      "138612 note_off channel=0 note=78 velocity=0 time=45\n",
      "138688 note_on channel=0 note=79 velocity=55 time=76\n",
      "138741 note_on channel=0 note=76 velocity=55 time=53\n",
      "138748 note_off channel=0 note=81 velocity=0 time=7\n",
      "138758 note_off channel=0 note=62 velocity=0 time=10\n",
      "138769 note_off channel=0 note=76 velocity=0 time=11\n",
      "138780 note_off channel=0 note=79 velocity=0 time=11\n",
      "138785 note_on channel=0 note=78 velocity=41 time=5\n",
      "138877 note_on channel=0 note=74 velocity=49 time=92\n",
      "138885 note_off channel=0 note=74 velocity=0 time=8\n",
      "138910 note_off channel=0 note=78 velocity=0 time=25\n",
      "138912 note_on channel=0 note=78 velocity=61 time=2\n",
      "138988 note_on channel=0 note=74 velocity=61 time=76\n",
      "138990 note_off channel=0 note=74 velocity=0 time=2\n",
      "139017 note_off channel=0 note=78 velocity=0 time=27\n",
      "139018 note_on channel=0 note=78 velocity=59 time=1\n",
      "139117 note_on channel=0 note=74 velocity=55 time=99\n",
      "139120 note_off channel=0 note=78 velocity=0 time=3\n",
      "139147 note_off channel=0 note=74 velocity=0 time=27\n",
      "139149 note_on channel=0 note=78 velocity=57 time=2\n",
      "139251 note_on channel=0 note=74 velocity=57 time=102\n",
      "139254 note_off channel=0 note=78 velocity=0 time=3\n",
      "139279 note_off channel=0 note=74 velocity=0 time=25\n",
      "139282 note_on channel=0 note=74 velocity=59 time=3\n",
      "139371 note_on channel=0 note=78 velocity=55 time=89\n",
      "139372 note_off channel=0 note=74 velocity=0 time=1\n",
      "139399 note_on channel=0 note=78 velocity=58 time=27\n",
      "139491 note_on channel=0 note=74 velocity=53 time=92\n",
      "139497 note_off channel=0 note=78 velocity=0 time=6\n",
      "139519 note_off channel=0 note=74 velocity=0 time=22\n",
      "139528 note_on channel=0 note=74 velocity=63 time=9\n",
      "139617 note_on channel=0 note=78 velocity=36 time=89\n",
      "139626 note_off channel=0 note=74 velocity=0 time=9\n",
      "139644 note_off channel=0 note=78 velocity=0 time=18\n",
      "139659 note_on channel=0 note=78 velocity=61 time=15\n",
      "139754 note_on channel=0 note=50 velocity=57 time=95\n",
      "139770 note_on channel=0 note=69 velocity=57 time=16\n",
      "139773 note_off channel=0 note=69 velocity=0 time=3\n",
      "139804 note_off channel=0 note=78 velocity=0 time=31\n",
      "139834 note_on channel=0 note=67 velocity=63 time=30\n",
      "139886 note_on channel=0 note=76 velocity=49 time=52\n",
      "139893 note_off channel=0 note=50 velocity=0 time=7\n",
      "139904 note_off channel=0 note=67 velocity=0 time=11\n",
      "139922 note_off channel=0 note=76 velocity=0 time=18\n",
      "139941 note_on channel=0 note=74 velocity=63 time=19\n",
      "140028 note_on channel=0 note=66 velocity=56 time=87\n",
      "140030 note_off channel=0 note=66 velocity=0 time=2\n",
      "140056 note_off channel=0 note=74 velocity=0 time=26\n",
      "140057 note_on channel=0 note=74 velocity=62 time=1\n",
      "140145 note_on channel=0 note=66 velocity=37 time=88\n",
      "140157 note_off channel=0 note=74 velocity=0 time=12\n",
      "140181 note_off channel=0 note=66 velocity=0 time=24\n",
      "140187 note_on channel=0 note=74 velocity=66 time=6\n",
      "140270 note_on channel=0 note=66 velocity=51 time=83\n",
      "140274 note_off channel=0 note=74 velocity=0 time=4\n",
      "140301 note_off channel=0 note=66 velocity=0 time=27\n",
      "140302 note_on channel=0 note=74 velocity=62 time=1\n",
      "140385 note_on channel=0 note=66 velocity=55 time=83\n",
      "140390 note_off channel=0 note=66 velocity=0 time=5\n",
      "140420 note_off channel=0 note=74 velocity=0 time=30\n",
      "140421 note_on channel=0 note=74 velocity=60 time=1\n",
      "140513 note_on channel=0 note=66 velocity=40 time=92\n",
      "140522 note_off channel=0 note=66 velocity=0 time=9\n",
      "140552 note_off channel=0 note=74 velocity=0 time=30\n",
      "140553 note_on channel=0 note=66 velocity=52 time=1\n",
      "140654 note_on channel=0 note=74 velocity=60 time=101\n",
      "140660 note_off channel=0 note=66 velocity=0 time=6\n",
      "140684 note_off channel=0 note=74 velocity=0 time=24\n",
      "140688 note_on channel=0 note=74 velocity=67 time=4\n",
      "140765 note_on channel=0 note=66 velocity=17 time=77\n",
      "140798 note_off channel=0 note=66 velocity=0 time=33\n",
      "140798 note_off channel=0 note=74 velocity=0 time=0\n",
      "140835 note_on channel=0 note=59 velocity=62 time=37\n",
      "140904 note_off channel=0 note=59 velocity=0 time=69\n",
      "140930 note_on channel=0 note=74 velocity=69 time=26\n",
      "141014 note_on channel=0 note=66 velocity=28 time=84\n",
      "141030 note_off channel=0 note=74 velocity=0 time=16\n",
      "141054 note_off channel=0 note=66 velocity=0 time=24\n",
      "141067 note_on channel=0 note=69 velocity=58 time=13\n",
      "141132 note_on channel=0 note=78 velocity=48 time=65\n",
      "141138 note_off channel=0 note=69 velocity=0 time=6\n",
      "141152 note_off channel=0 note=78 velocity=0 time=14\n",
      "141182 note_on channel=0 note=55 velocity=57 time=30\n",
      "141262 note_off channel=0 note=55 velocity=0 time=80\n",
      "141287 note_on channel=0 note=67 velocity=63 time=25\n",
      "141382 note_on channel=0 note=76 velocity=58 time=95\n",
      "141384 note_off channel=0 note=67 velocity=0 time=2\n",
      "141407 note_off channel=0 note=76 velocity=0 time=23\n",
      "141459 note_on channel=0 note=71 velocity=63 time=52\n",
      "141503 note_on channel=0 note=79 velocity=55 time=44\n",
      "141510 note_off channel=0 note=71 velocity=0 time=7\n",
      "141528 note_off channel=0 note=79 velocity=0 time=18\n",
      "141532 note_on channel=0 note=57 velocity=61 time=4\n",
      "141638 note_off channel=0 note=57 velocity=0 time=106\n",
      "141667 note_on channel=0 note=73 velocity=64 time=29\n",
      "141753 note_on channel=0 note=64 velocity=54 time=86\n",
      "141757 note_off channel=0 note=64 velocity=0 time=4\n",
      "141781 note_off channel=0 note=73 velocity=0 time=24\n",
      "141819 note_on channel=0 note=76 velocity=57 time=38\n",
      "141876 note_on channel=0 note=67 velocity=44 time=57\n",
      "141878 note_off channel=0 note=76 velocity=0 time=2\n",
      "141903 note_off channel=0 note=67 velocity=0 time=25\n",
      "141910 note_on channel=0 note=50 velocity=51 time=7\n",
      "141993 note_on channel=0 note=74 velocity=73 time=83\n",
      "142001 note_off channel=0 note=74 velocity=0 time=8\n",
      "142061 note_on channel=0 note=69 velocity=66 time=60\n",
      "142109 note_off channel=0 note=69 velocity=0 time=48\n",
      "142141 note_off channel=0 note=50 velocity=0 time=32\n",
      "142171 note_on channel=0 note=71 velocity=65 time=30\n",
      "142226 note_off channel=0 note=71 velocity=0 time=55\n",
      "142252 note_on channel=0 note=73 velocity=67 time=26\n",
      "142347 note_off channel=0 note=73 velocity=0 time=95\n",
      "142372 note_on channel=0 note=74 velocity=76 time=25\n",
      "142462 note_off channel=0 note=74 velocity=0 time=90\n",
      "142574 note_on channel=0 note=76 velocity=62 time=112\n",
      "142589 note_off channel=0 note=76 velocity=0 time=15\n",
      "142696 note_on channel=0 note=78 velocity=68 time=107\n",
      "142711 note_off channel=0 note=78 velocity=0 time=15\n",
      "142801 note_on channel=0 note=79 velocity=68 time=90\n",
      "142832 note_off channel=0 note=79 velocity=0 time=31\n",
      "142924 note_on channel=0 note=80 velocity=63 time=92\n",
      "142934 note_off channel=0 note=80 velocity=0 time=10\n",
      "143000 note_on channel=0 note=81 velocity=76 time=66\n",
      "143084 note_on channel=0 note=69 velocity=55 time=84\n",
      "143108 note_on channel=0 note=66 velocity=50 time=24\n",
      "143112 note_off channel=0 note=69 velocity=0 time=4\n",
      "143145 note_off channel=0 note=66 velocity=0 time=33\n",
      "143164 note_on channel=0 note=64 velocity=56 time=19\n",
      "143225 note_on channel=0 note=67 velocity=62 time=61\n",
      "143241 note_off channel=0 note=64 velocity=0 time=16\n",
      "143270 note_on channel=0 note=62 velocity=58 time=29\n",
      "143270 note_off channel=0 note=67 velocity=0 time=0\n",
      "143350 note_on channel=0 note=66 velocity=33 time=80\n",
      "143364 note_off channel=0 note=62 velocity=0 time=14\n",
      "143382 note_off channel=0 note=66 velocity=0 time=18\n",
      "143396 note_on channel=0 note=66 velocity=68 time=14\n",
      "143475 note_on channel=0 note=62 velocity=48 time=79\n",
      "143485 note_off channel=0 note=66 velocity=0 time=10\n",
      "143509 note_off channel=0 note=62 velocity=0 time=24\n",
      "143525 note_off channel=0 note=81 velocity=0 time=16\n",
      "143542 note_on channel=0 note=83 velocity=61 time=17\n",
      "143599 note_on channel=0 note=66 velocity=70 time=57\n",
      "143604 note_on channel=0 note=62 velocity=59 time=5\n",
      "143607 note_off channel=0 note=66 velocity=0 time=3\n",
      "143631 note_off channel=0 note=62 velocity=0 time=24\n",
      "143637 note_off channel=0 note=83 velocity=0 time=6\n",
      "143639 note_on channel=0 note=81 velocity=67 time=2\n",
      "143649 note_off channel=0 note=81 velocity=0 time=10\n",
      "143680 note_on channel=0 note=80 velocity=72 time=31\n",
      "143693 note_on channel=0 note=66 velocity=64 time=13\n",
      "143718 note_on channel=0 note=62 velocity=54 time=25\n",
      "143722 note_off channel=0 note=80 velocity=0 time=4\n",
      "143732 note_on channel=0 note=81 velocity=79 time=10\n",
      "143744 note_off channel=0 note=66 velocity=0 time=12\n",
      "143753 note_off channel=0 note=62 velocity=0 time=9\n",
      "143757 note_off channel=0 note=81 velocity=0 time=4\n",
      "143806 note_on channel=0 note=86 velocity=86 time=49\n",
      "143809 note_off channel=0 note=86 velocity=0 time=3\n",
      "143829 note_on channel=0 note=66 velocity=74 time=20\n",
      "143832 note_on channel=0 note=62 velocity=68 time=3\n",
      "143835 note_off channel=0 note=66 velocity=0 time=3\n",
      "143867 note_off channel=0 note=62 velocity=0 time=32\n",
      "143870 note_on channel=0 note=62 velocity=62 time=3\n",
      "143954 note_on channel=0 note=66 velocity=73 time=84\n",
      "143956 note_off channel=0 note=66 velocity=0 time=2\n",
      "143981 note_off channel=0 note=62 velocity=0 time=25\n",
      "143987 note_on channel=0 note=66 velocity=65 time=6\n",
      "144063 note_on channel=0 note=62 velocity=70 time=76\n",
      "144074 note_off channel=0 note=66 velocity=0 time=11\n",
      "144095 note_off channel=0 note=62 velocity=0 time=21\n",
      "144102 note_on channel=0 note=78 velocity=87 time=7\n",
      "144185 note_on channel=0 note=66 velocity=68 time=83\n",
      "144188 note_on channel=0 note=57 velocity=47 time=3\n",
      "144213 note_off channel=0 note=66 velocity=0 time=25\n",
      "144216 note_off channel=0 note=57 velocity=0 time=3\n",
      "144239 note_on channel=0 note=55 velocity=64 time=23\n",
      "144313 note_on channel=0 note=64 velocity=59 time=74\n",
      "144319 note_off channel=0 note=64 velocity=0 time=6\n",
      "144341 note_off channel=0 note=55 velocity=0 time=22\n",
      "144342 note_on channel=0 note=62 velocity=55 time=1\n",
      "144444 note_on channel=0 note=54 velocity=60 time=102\n",
      "144450 note_off channel=0 note=62 velocity=0 time=6\n",
      "144468 note_off channel=0 note=54 velocity=0 time=18\n",
      "144473 note_on channel=0 note=62 velocity=59 time=5\n",
      "144566 note_on channel=0 note=54 velocity=62 time=93\n",
      "144570 note_off channel=0 note=54 velocity=0 time=4\n",
      "144602 note_off channel=0 note=62 velocity=0 time=32\n",
      "144604 note_off channel=0 note=78 velocity=0 time=2\n",
      "144677 note_on channel=0 note=79 velocity=67 time=73\n",
      "144704 note_on channel=0 note=54 velocity=51 time=27\n",
      "144718 note_on channel=0 note=62 velocity=51 time=14\n",
      "144726 note_off channel=0 note=79 velocity=0 time=8\n",
      "144728 note_off channel=0 note=54 velocity=0 time=2\n",
      "144745 note_off channel=0 note=62 velocity=0 time=17\n",
      "144750 note_on channel=0 note=78 velocity=64 time=5\n",
      "144769 note_off channel=0 note=78 velocity=0 time=19\n",
      "144796 note_on channel=0 note=76 velocity=65 time=27\n",
      "144800 note_on channel=0 note=62 velocity=55 time=4\n",
      "144841 note_off channel=0 note=76 velocity=0 time=41\n",
      "144842 note_on channel=0 note=54 velocity=44 time=1\n",
      "144853 note_off channel=0 note=54 velocity=0 time=11\n",
      "144853 note_on channel=0 note=78 velocity=80 time=0\n",
      "144884 note_off channel=0 note=62 velocity=0 time=31\n",
      "144884 note_off channel=0 note=78 velocity=0 time=0\n",
      "144906 note_on channel=0 note=81 velocity=68 time=22\n",
      "144912 note_off channel=0 note=81 velocity=0 time=6\n",
      "144937 note_on channel=0 note=54 velocity=62 time=25\n",
      "144960 note_on channel=0 note=62 velocity=37 time=23\n",
      "144977 note_off channel=0 note=54 velocity=0 time=17\n",
      "144987 note_off channel=0 note=62 velocity=0 time=10\n",
      "145009 note_on channel=0 note=54 velocity=43 time=22\n",
      "145074 note_on channel=0 note=62 velocity=54 time=65\n",
      "145081 note_off channel=0 note=62 velocity=0 time=7\n",
      "145106 note_off channel=0 note=54 velocity=0 time=25\n",
      "145124 note_on channel=0 note=62 velocity=71 time=18\n",
      "145170 note_on channel=0 note=54 velocity=49 time=46\n",
      "145186 note_off channel=0 note=62 velocity=0 time=16\n",
      "145196 note_off channel=0 note=54 velocity=0 time=10\n",
      "145215 note_on channel=0 note=59 velocity=72 time=19\n",
      "145293 note_off channel=0 note=59 velocity=0 time=78\n",
      "145319 note_on channel=0 note=74 velocity=64 time=26\n",
      "145413 note_on channel=0 note=66 velocity=42 time=94\n",
      "145422 note_off channel=0 note=66 velocity=0 time=9\n",
      "145452 note_off channel=0 note=74 velocity=0 time=30\n",
      "145517 note_on channel=0 note=69 velocity=45 time=65\n",
      "145529 note_on channel=0 note=78 velocity=70 time=12\n",
      "145531 note_off channel=0 note=69 velocity=0 time=2\n",
      "145557 note_off channel=0 note=78 velocity=0 time=26\n",
      "145561 note_on channel=0 note=55 velocity=61 time=4\n",
      "145650 note_off channel=0 note=55 velocity=0 time=89\n",
      "145673 note_on channel=0 note=67 velocity=59 time=23\n",
      "145774 note_on channel=0 note=76 velocity=55 time=101\n",
      "145780 note_off channel=0 note=67 velocity=0 time=6\n",
      "145799 note_off channel=0 note=76 velocity=0 time=19\n",
      "145865 note_on channel=0 note=71 velocity=62 time=66\n",
      "145881 note_on channel=0 note=79 velocity=56 time=16\n",
      "145891 note_off channel=0 note=71 velocity=0 time=10\n",
      "145906 note_off channel=0 note=79 velocity=0 time=15\n",
      "145913 note_on channel=0 note=57 velocity=60 time=7\n",
      "146005 note_off channel=0 note=57 velocity=0 time=92\n",
      "146032 note_on channel=0 note=64 velocity=51 time=27\n",
      "146129 note_off channel=0 note=64 velocity=0 time=97\n",
      "146129 note_on channel=0 note=73 velocity=59 time=0\n",
      "146153 note_off channel=0 note=73 velocity=0 time=24\n",
      "146176 note_on channel=0 note=67 velocity=64 time=23\n",
      "146242 note_on channel=0 note=76 velocity=61 time=66\n",
      "146255 note_off channel=0 note=67 velocity=0 time=13\n",
      "146266 note_off channel=0 note=76 velocity=0 time=11\n",
      "146277 note_on channel=0 note=74 velocity=56 time=11\n",
      "146398 note_on channel=0 note=66 velocity=52 time=121\n",
      "146411 note_on channel=0 note=62 velocity=60 time=13\n",
      "146519 note_off channel=0 note=62 velocity=0 time=108\n",
      "146550 note_on channel=0 note=57 velocity=65 time=31\n",
      "146639 note_off channel=0 note=57 velocity=0 time=89\n",
      "146710 note_on channel=0 note=54 velocity=56 time=71\n",
      "146762 note_off channel=0 note=54 velocity=0 time=52\n",
      "146789 note_off channel=0 note=66 velocity=0 time=27\n",
      "146793 note_off channel=0 note=74 velocity=0 time=4\n",
      "146860 note_on channel=0 note=50 velocity=66 time=67\n",
      "146878 note_off channel=0 note=50 velocity=0 time=18\n",
      "146909 note_on channel=0 note=45 velocity=57 time=31\n",
      "147014 note_off channel=0 note=45 velocity=0 time=105\n",
      "147044 note_on channel=0 note=38 velocity=45 time=30\n",
      "147393 note_off channel=0 note=38 velocity=0 time=349\n",
      "147826 note_on channel=0 note=62 velocity=40 time=433\n",
      "147888 note_on channel=0 note=81 velocity=58 time=62\n",
      "147925 note_on channel=0 note=78 velocity=42 time=37\n",
      "147945 note_off channel=0 note=78 velocity=0 time=20\n",
      "148050 note_on channel=0 note=79 velocity=62 time=105\n",
      "148092 note_on channel=0 note=76 velocity=56 time=42\n",
      "148102 note_off channel=0 note=62 velocity=0 time=10\n",
      "148112 note_off channel=0 note=81 velocity=0 time=10\n",
      "148127 note_off channel=0 note=76 velocity=0 time=15\n",
      "148140 note_off channel=0 note=79 velocity=0 time=13\n",
      "148152 note_on channel=0 note=78 velocity=50 time=12\n",
      "148232 note_on channel=0 note=74 velocity=53 time=80\n",
      "148239 note_off channel=0 note=78 velocity=0 time=7\n",
      "148257 note_off channel=0 note=74 velocity=0 time=18\n",
      "148264 note_on channel=0 note=78 velocity=53 time=7\n",
      "148349 note_on channel=0 note=74 velocity=63 time=85\n",
      "148351 note_off channel=0 note=74 velocity=0 time=2\n",
      "148378 note_off channel=0 note=78 velocity=0 time=27\n",
      "148380 note_on channel=0 note=74 velocity=55 time=2\n",
      "148489 note_off channel=0 note=74 velocity=0 time=109\n",
      "148489 note_on channel=0 note=78 velocity=59 time=0\n",
      "148610 note_on channel=0 note=74 velocity=53 time=121\n",
      "148615 note_off channel=0 note=78 velocity=0 time=5\n",
      "148639 note_off channel=0 note=74 velocity=0 time=24\n",
      "148642 note_on channel=0 note=74 velocity=63 time=3\n",
      "148766 note_off channel=0 note=74 velocity=0 time=124\n",
      "148768 note_on channel=0 note=78 velocity=53 time=2\n",
      "148863 note_on channel=0 note=74 velocity=55 time=95\n",
      "148866 note_off channel=0 note=78 velocity=0 time=3\n",
      "148890 note_off channel=0 note=74 velocity=0 time=24\n",
      "148895 note_on channel=0 note=78 velocity=62 time=5\n",
      "148974 note_on channel=0 note=74 velocity=62 time=79\n",
      "148979 note_off channel=0 note=78 velocity=0 time=5\n",
      "149000 note_off channel=0 note=74 velocity=0 time=21\n",
      "149007 note_on channel=0 note=78 velocity=57 time=7\n",
      "149126 note_on channel=0 note=50 velocity=53 time=119\n",
      "149136 note_on channel=0 note=69 velocity=52 time=10\n",
      "149137 note_off channel=0 note=69 velocity=0 time=1\n",
      "149167 note_off channel=0 note=78 velocity=0 time=30\n",
      "149237 note_on channel=0 note=76 velocity=63 time=70\n",
      "149262 note_on channel=0 note=67 velocity=67 time=25\n",
      "149264 note_off channel=0 note=67 velocity=0 time=2\n",
      "149294 note_off channel=0 note=50 velocity=0 time=30\n",
      "149297 note_off channel=0 note=76 velocity=0 time=3\n",
      "149325 note_on channel=0 note=74 velocity=60 time=28\n",
      "149397 note_on channel=0 note=66 velocity=52 time=72\n",
      "149404 note_off channel=0 note=74 velocity=0 time=7\n",
      "149419 note_off channel=0 note=66 velocity=0 time=15\n",
      "149427 note_on channel=0 note=74 velocity=59 time=8\n",
      "149516 note_on channel=0 note=66 velocity=51 time=89\n",
      "149518 note_off channel=0 note=66 velocity=0 time=2\n",
      "149547 note_on channel=0 note=74 velocity=60 time=29\n",
      "149639 note_on channel=0 note=66 velocity=55 time=92\n",
      "149642 note_off channel=0 note=66 velocity=0 time=3\n",
      "149672 note_off channel=0 note=74 velocity=0 time=30\n",
      "149678 note_on channel=0 note=74 velocity=65 time=6\n",
      "149765 note_on channel=0 note=66 velocity=46 time=87\n",
      "149771 note_off channel=0 note=66 velocity=0 time=6\n",
      "149798 note_on channel=0 note=74 velocity=63 time=27\n",
      "149885 note_on channel=0 note=66 velocity=56 time=87\n",
      "149890 note_off channel=0 note=74 velocity=0 time=5\n",
      "149917 note_off channel=0 note=66 velocity=0 time=27\n",
      "149918 note_on channel=0 note=74 velocity=59 time=1\n",
      "150014 note_on channel=0 note=66 velocity=47 time=96\n",
      "150021 note_off channel=0 note=66 velocity=0 time=7\n",
      "150049 note_off channel=0 note=74 velocity=0 time=28\n",
      "150051 note_on channel=0 note=66 velocity=52 time=2\n",
      "150138 note_on channel=0 note=74 velocity=56 time=87\n",
      "150144 note_off channel=0 note=66 velocity=0 time=6\n",
      "150165 note_off channel=0 note=74 velocity=0 time=21\n",
      "150168 note_on channel=0 note=59 velocity=65 time=3\n",
      "150266 note_off channel=0 note=59 velocity=0 time=98\n",
      "150287 note_on channel=0 note=74 velocity=56 time=21\n",
      "150385 note_off channel=0 note=74 velocity=0 time=98\n",
      "150493 note_on channel=0 note=78 velocity=63 time=108\n",
      "150503 note_on channel=0 note=69 velocity=62 time=10\n",
      "150516 note_off channel=0 note=69 velocity=0 time=13\n",
      "150545 note_off channel=0 note=78 velocity=0 time=29\n",
      "150556 note_on channel=0 note=55 velocity=72 time=11\n",
      "150637 note_off channel=0 note=55 velocity=0 time=81\n",
      "150663 note_on channel=0 note=76 velocity=58 time=26\n",
      "150748 note_on channel=0 note=67 velocity=65 time=85\n",
      "150751 note_off channel=0 note=67 velocity=0 time=3\n",
      "150788 note_off channel=0 note=76 velocity=0 time=37\n",
      "150838 note_on channel=0 note=79 velocity=59 time=50\n",
      "150888 note_on channel=0 note=71 velocity=57 time=50\n",
      "150892 note_off channel=0 note=79 velocity=0 time=4\n",
      "150909 note_off channel=0 note=71 velocity=0 time=17\n",
      "150917 note_on channel=0 note=57 velocity=56 time=8\n",
      "151015 note_off channel=0 note=57 velocity=0 time=98\n",
      "151036 note_on channel=0 note=73 velocity=53 time=21\n",
      "151125 note_off channel=0 note=73 velocity=0 time=89\n",
      "151194 note_on channel=0 note=76 velocity=61 time=69\n",
      "151248 note_off channel=0 note=76 velocity=0 time=54\n",
      "151272 note_on channel=0 note=50 velocity=50 time=24\n",
      "151380 note_on channel=0 note=74 velocity=67 time=108\n",
      "151384 note_off channel=0 note=74 velocity=0 time=4\n",
      "151430 note_on channel=0 note=69 velocity=62 time=46\n",
      "151504 note_off channel=0 note=69 velocity=0 time=74\n",
      "151539 note_off channel=0 note=50 velocity=0 time=35\n",
      "151562 note_on channel=0 note=71 velocity=65 time=23\n",
      "151626 note_off channel=0 note=71 velocity=0 time=64\n",
      "151651 note_on channel=0 note=73 velocity=70 time=25\n",
      "151750 note_off channel=0 note=73 velocity=0 time=99\n",
      "151776 note_on channel=0 note=74 velocity=82 time=26\n",
      "151896 note_off channel=0 note=74 velocity=0 time=120\n",
      "151987 note_on channel=0 note=76 velocity=72 time=91\n",
      "152018 note_off channel=0 note=76 velocity=0 time=31\n",
      "152109 note_on channel=0 note=78 velocity=75 time=91\n",
      "152117 note_off channel=0 note=78 velocity=0 time=8\n",
      "152143 note_on channel=0 note=79 velocity=75 time=26\n",
      "152237 note_off channel=0 note=79 velocity=0 time=94\n",
      "152345 note_on channel=0 note=80 velocity=78 time=108\n",
      "152364 note_off channel=0 note=80 velocity=0 time=19\n",
      "152511 note_on channel=0 note=81 velocity=73 time=147\n",
      "152557 note_on channel=0 note=66 velocity=42 time=46\n",
      "152562 note_on channel=0 note=69 velocity=35 time=5\n",
      "152587 note_off channel=0 note=69 velocity=0 time=25\n",
      "152618 note_off channel=0 note=66 velocity=0 time=31\n",
      "152663 note_on channel=0 note=64 velocity=57 time=45\n",
      "152678 note_on channel=0 note=67 velocity=60 time=15\n",
      "152708 note_off channel=0 note=64 velocity=0 time=30\n",
      "152724 note_off channel=0 note=67 velocity=0 time=16\n",
      "152800 note_on channel=0 note=62 velocity=56 time=76\n",
      "152816 note_on channel=0 note=66 velocity=36 time=16\n",
      "152831 note_off channel=0 note=62 velocity=0 time=15\n",
      "152847 note_off channel=0 note=66 velocity=0 time=16\n",
      "152876 note_on channel=0 note=66 velocity=64 time=29\n",
      "152939 note_on channel=0 note=62 velocity=50 time=63\n",
      "152945 note_off channel=0 note=66 velocity=0 time=6\n",
      "152969 note_off channel=0 note=81 velocity=0 time=24\n",
      "152973 note_off channel=0 note=62 velocity=0 time=4\n",
      "152981 note_on channel=0 note=83 velocity=53 time=8\n",
      "153027 note_on channel=0 note=66 velocity=56 time=46\n",
      "153070 note_on channel=0 note=62 velocity=58 time=43\n",
      "153072 note_off channel=0 note=83 velocity=0 time=2\n",
      "153074 note_on channel=0 note=81 velocity=70 time=2\n",
      "153081 note_off channel=0 note=66 velocity=0 time=7\n",
      "153100 note_off channel=0 note=62 velocity=0 time=19\n",
      "153104 note_off channel=0 note=81 velocity=0 time=4\n",
      "153114 note_on channel=0 note=80 velocity=73 time=10\n",
      "153131 note_off channel=0 note=80 velocity=0 time=17\n",
      "153174 note_on channel=0 note=81 velocity=75 time=43\n",
      "153188 note_on channel=0 note=66 velocity=63 time=14\n",
      "153191 note_on channel=0 note=62 velocity=51 time=3\n",
      "153197 note_off channel=0 note=66 velocity=0 time=6\n",
      "153236 note_off channel=0 note=62 velocity=0 time=39\n",
      "153238 note_off channel=0 note=81 velocity=0 time=2\n",
      "153253 note_on channel=0 note=86 velocity=78 time=15\n",
      "153263 note_off channel=0 note=86 velocity=0 time=10\n",
      "153290 note_on channel=0 note=66 velocity=63 time=27\n",
      "153306 note_on channel=0 note=62 velocity=55 time=16\n",
      "153324 note_off channel=0 note=66 velocity=0 time=18\n",
      "153335 note_off channel=0 note=62 velocity=0 time=11\n",
      "153348 note_on channel=0 note=66 velocity=68 time=13\n",
      "153418 note_on channel=0 note=62 velocity=62 time=70\n",
      "153424 note_off channel=0 note=66 velocity=0 time=6\n",
      "153446 note_off channel=0 note=62 velocity=0 time=22\n",
      "153452 note_on channel=0 note=62 velocity=61 time=6\n",
      "153557 note_off channel=0 note=62 velocity=0 time=105\n",
      "153571 note_on channel=0 note=66 velocity=68 time=14\n",
      "153651 note_off channel=0 note=66 velocity=0 time=80\n",
      "153651 note_on channel=0 note=78 velocity=81 time=0\n",
      "153677 note_on channel=0 note=57 velocity=37 time=26\n",
      "153689 note_off channel=0 note=57 velocity=0 time=12\n",
      "153724 note_on channel=0 note=55 velocity=45 time=35\n",
      "153786 note_on channel=0 note=64 velocity=47 time=62\n",
      "153791 note_off channel=0 note=55 velocity=0 time=5\n",
      "153817 note_off channel=0 note=64 velocity=0 time=26\n",
      "153819 note_on channel=0 note=54 velocity=55 time=2\n",
      "153921 note_off channel=0 note=54 velocity=0 time=102\n",
      "153947 note_on channel=0 note=62 velocity=57 time=26\n",
      "154045 note_on channel=0 note=54 velocity=56 time=98\n",
      "154051 note_off channel=0 note=54 velocity=0 time=6\n",
      "154075 note_off channel=0 note=62 velocity=0 time=24\n",
      "154081 note_off channel=0 note=78 velocity=0 time=6\n",
      "154150 note_on channel=0 note=54 velocity=56 time=69\n",
      "154178 note_on channel=0 note=62 velocity=60 time=28\n",
      "154178 note_on channel=0 note=79 velocity=52 time=0\n",
      "154185 note_off channel=0 note=79 velocity=0 time=7\n",
      "154200 note_off channel=0 note=54 velocity=0 time=15\n",
      "154207 note_off channel=0 note=62 velocity=0 time=7\n",
      "154215 note_on channel=0 note=78 velocity=63 time=8\n",
      "154237 note_off channel=0 note=78 velocity=0 time=22\n",
      "154265 note_on channel=0 note=76 velocity=64 time=28\n",
      "154274 note_on channel=0 note=62 velocity=48 time=9\n",
      "154307 note_off channel=0 note=76 velocity=0 time=33\n",
      "154311 note_on channel=0 note=54 velocity=46 time=4\n",
      "154319 note_on channel=0 note=78 velocity=75 time=8\n",
      "154322 note_off channel=0 note=62 velocity=0 time=3\n",
      "154347 note_off channel=0 note=54 velocity=0 time=25\n",
      "154349 note_off channel=0 note=78 velocity=0 time=2\n",
      "154385 note_on channel=0 note=81 velocity=60 time=36\n",
      "154399 note_on channel=0 note=54 velocity=60 time=14\n",
      "154424 note_off channel=0 note=81 velocity=0 time=25\n",
      "154428 note_on channel=0 note=62 velocity=46 time=4\n",
      "154438 note_off channel=0 note=54 velocity=0 time=10\n",
      "154452 note_off channel=0 note=62 velocity=0 time=14\n",
      "154467 note_on channel=0 note=54 velocity=38 time=15\n",
      "154542 note_on channel=0 note=62 velocity=63 time=75\n",
      "154547 note_off channel=0 note=62 velocity=0 time=5\n",
      "154577 note_off channel=0 note=54 velocity=0 time=30\n",
      "154580 note_on channel=0 note=62 velocity=60 time=3\n",
      "154659 note_on channel=0 note=54 velocity=61 time=79\n",
      "154666 note_off channel=0 note=62 velocity=0 time=7\n",
      "154690 note_off channel=0 note=54 velocity=0 time=24\n",
      "154694 note_on channel=0 note=59 velocity=67 time=4\n",
      "154791 note_off channel=0 note=59 velocity=0 time=97\n",
      "154812 note_on channel=0 note=74 velocity=65 time=21\n",
      "154909 note_on channel=0 note=66 velocity=35 time=97\n",
      "154919 note_off channel=0 note=66 velocity=0 time=10\n",
      "154952 note_off channel=0 note=74 velocity=0 time=33\n",
      "155005 note_on channel=0 note=69 velocity=30 time=53\n",
      "155038 note_on channel=0 note=78 velocity=63 time=33\n",
      "155045 note_off channel=0 note=69 velocity=0 time=7\n",
      "155073 note_on channel=0 note=55 velocity=43 time=28\n",
      "155073 note_off channel=0 note=78 velocity=0 time=0\n",
      "155171 note_off channel=0 note=55 velocity=0 time=98\n",
      "155204 note_on channel=0 note=76 velocity=55 time=33\n",
      "155277 note_on channel=0 note=67 velocity=43 time=73\n",
      "155289 note_off channel=0 note=67 velocity=0 time=12\n",
      "155319 note_off channel=0 note=76 velocity=0 time=30\n",
      "155359 note_on channel=0 note=71 velocity=48 time=40\n",
      "155416 note_off channel=0 note=71 velocity=0 time=57\n",
      "155416 note_on channel=0 note=79 velocity=51 time=0\n",
      "155438 note_on channel=0 note=57 velocity=54 time=22\n",
      "155438 note_off channel=0 note=79 velocity=0 time=0\n",
      "155544 note_off channel=0 note=57 velocity=0 time=106\n",
      "155571 note_on channel=0 note=73 velocity=64 time=27\n",
      "155659 note_on channel=0 note=64 velocity=49 time=88\n",
      "155664 note_off channel=0 note=64 velocity=0 time=5\n",
      "155689 note_off channel=0 note=73 velocity=0 time=25\n",
      "155724 note_on channel=0 note=67 velocity=60 time=35\n",
      "155775 note_on channel=0 note=76 velocity=51 time=51\n",
      "155790 note_off channel=0 note=67 velocity=0 time=15\n",
      "155796 note_off channel=0 note=76 velocity=0 time=6\n",
      "155813 note_on channel=0 note=74 velocity=64 time=17\n",
      "155926 note_on channel=0 note=66 velocity=53 time=113\n",
      "155937 note_on channel=0 note=62 velocity=56 time=11\n",
      "156046 note_off channel=0 note=62 velocity=0 time=109\n",
      "156075 note_on channel=0 note=57 velocity=54 time=29\n",
      "156179 note_off channel=0 note=57 velocity=0 time=104\n",
      "156234 note_on channel=0 note=54 velocity=42 time=55\n",
      "156298 note_off channel=0 note=54 velocity=0 time=64\n",
      "156329 note_on channel=0 note=50 velocity=48 time=31\n",
      "156421 note_off channel=0 note=66 velocity=0 time=92\n",
      "156437 note_off channel=0 note=50 velocity=0 time=16\n",
      "156451 note_off channel=0 note=74 velocity=0 time=14\n",
      "156481 note_on channel=0 note=45 velocity=47 time=30\n",
      "156549 note_off channel=0 note=45 velocity=0 time=68\n",
      "156578 note_on channel=0 note=38 velocity=38 time=29\n",
      "156938 note_off channel=0 note=38 velocity=0 time=360\n",
      "157378 note_on channel=0 note=76 velocity=59 time=440\n",
      "157393 note_on channel=0 note=73 velocity=52 time=15\n",
      "157408 note_on channel=0 note=45 velocity=41 time=15\n",
      "157438 note_on channel=0 note=57 velocity=16 time=30\n",
      "157560 note_off channel=0 note=73 velocity=0 time=122\n",
      "157565 note_off channel=0 note=76 velocity=0 time=5\n",
      "157591 note_on channel=0 note=69 velocity=70 time=26\n",
      "157604 note_off channel=0 note=69 velocity=0 time=13\n",
      "157719 note_on channel=0 note=79 velocity=76 time=115\n",
      "157758 note_on channel=0 note=76 velocity=64 time=39\n",
      "157769 note_off channel=0 note=76 velocity=0 time=11\n",
      "157801 note_off channel=0 note=79 velocity=0 time=32\n",
      "157858 note_on channel=0 note=79 velocity=71 time=57\n",
      "157892 note_on channel=0 note=76 velocity=55 time=34\n",
      "157934 note_off channel=0 note=76 velocity=0 time=42\n",
      "157934 note_off channel=0 note=79 velocity=0 time=0\n",
      "158009 note_on channel=0 note=73 velocity=65 time=75\n",
      "158039 note_off channel=0 note=73 velocity=0 time=30\n",
      "158131 note_on channel=0 note=85 velocity=82 time=92\n",
      "158132 note_on channel=0 note=79 velocity=70 time=1\n",
      "158145 note_off channel=0 note=45 velocity=0 time=13\n",
      "158160 note_off channel=0 note=79 velocity=0 time=15\n",
      "158175 note_off channel=0 note=85 velocity=0 time=15\n",
      "158187 note_off channel=0 note=57 velocity=0 time=12\n",
      "158236 note_on channel=0 note=85 velocity=81 time=49\n",
      "158267 note_on channel=0 note=79 velocity=67 time=31\n",
      "158312 note_off channel=0 note=79 velocity=0 time=45\n",
      "158343 note_off channel=0 note=85 velocity=0 time=31\n",
      "158358 note_on channel=0 note=76 velocity=81 time=15\n",
      "158434 note_off channel=0 note=76 velocity=0 time=76\n",
      "158472 note_on channel=0 note=88 velocity=85 time=38\n",
      "158494 note_on channel=0 note=85 velocity=74 time=22\n",
      "158502 note_off channel=0 note=88 velocity=0 time=8\n",
      "158565 note_off channel=0 note=85 velocity=0 time=63\n",
      "158639 note_on channel=0 note=69 velocity=78 time=74\n",
      "158792 note_on channel=0 note=85 velocity=76 time=153\n",
      "158798 note_on channel=0 note=88 velocity=77 time=6\n",
      "158885 note_off channel=0 note=85 velocity=0 time=87\n",
      "158914 note_on channel=0 note=83 velocity=80 time=29\n",
      "158930 note_on channel=0 note=86 velocity=84 time=16\n",
      "158990 note_off channel=0 note=88 velocity=0 time=60\n",
      "159035 note_off channel=0 note=83 velocity=0 time=45\n",
      "159037 note_off channel=0 note=86 velocity=0 time=2\n",
      "159048 note_on channel=0 note=85 velocity=74 time=11\n",
      "159051 note_on channel=0 note=81 velocity=76 time=3\n",
      "159066 note_off channel=0 note=85 velocity=0 time=15\n",
      "159081 note_off channel=0 note=81 velocity=0 time=15\n",
      "159127 note_off channel=0 note=69 velocity=0 time=46\n",
      "159172 note_on channel=0 note=83 velocity=70 time=45\n",
      "159187 note_on channel=0 note=79 velocity=61 time=15\n",
      "159256 note_off channel=0 note=79 velocity=0 time=69\n",
      "159264 note_off channel=0 note=83 velocity=0 time=8\n",
      "159278 note_on channel=0 note=78 velocity=76 time=14\n",
      "159303 note_on channel=0 note=81 velocity=67 time=25\n",
      "159307 note_off channel=0 note=78 velocity=0 time=4\n",
      "159368 note_off channel=0 note=81 velocity=0 time=61\n",
      "159401 note_on channel=0 note=79 velocity=72 time=33\n",
      "159416 note_on channel=0 note=76 velocity=60 time=15\n",
      "159431 note_off channel=0 note=79 velocity=0 time=15\n",
      "159439 note_off channel=0 note=76 velocity=0 time=8\n",
      "159493 note_on channel=0 note=78 velocity=63 time=54\n",
      "159540 note_on channel=0 note=74 velocity=57 time=47\n",
      "159554 note_off channel=0 note=78 velocity=0 time=14\n",
      "159625 note_off channel=0 note=74 velocity=0 time=71\n",
      "159630 note_on channel=0 note=73 velocity=63 time=5\n",
      "159670 note_off channel=0 note=73 velocity=0 time=40\n",
      "159670 note_on channel=0 note=76 velocity=62 time=0\n",
      "159794 note_off channel=0 note=76 velocity=0 time=124\n",
      "159817 note_on channel=0 note=78 velocity=63 time=23\n",
      "159850 note_on channel=0 note=74 velocity=49 time=33\n",
      "159870 note_on channel=0 note=62 velocity=41 time=20\n",
      "159875 note_on channel=0 note=50 velocity=39 time=5\n",
      "159884 note_off channel=0 note=78 velocity=0 time=9\n",
      "159969 note_on channel=0 note=69 velocity=61 time=85\n",
      "159993 note_off channel=0 note=74 velocity=0 time=24\n",
      "160023 note_off channel=0 note=69 velocity=0 time=30\n",
      "160099 note_on channel=0 note=78 velocity=68 time=76\n",
      "160102 note_on channel=0 note=81 velocity=70 time=3\n",
      "160130 note_off channel=0 note=78 velocity=0 time=28\n",
      "160131 note_off channel=0 note=81 velocity=0 time=1\n",
      "160191 note_on channel=0 note=81 velocity=82 time=60\n",
      "160224 note_on channel=0 note=78 velocity=58 time=33\n",
      "160226 note_off channel=0 note=50 velocity=0 time=2\n",
      "160262 note_off channel=0 note=78 velocity=0 time=36\n",
      "160267 note_off channel=0 note=81 velocity=0 time=5\n",
      "160282 note_off channel=0 note=62 velocity=0 time=15\n",
      "160343 note_on channel=0 note=74 velocity=78 time=61\n",
      "160434 note_off channel=0 note=74 velocity=0 time=91\n",
      "160435 note_on channel=0 note=86 velocity=77 time=1\n",
      "160469 note_on channel=0 note=78 velocity=64 time=34\n",
      "160495 note_off channel=0 note=78 velocity=0 time=26\n",
      "160505 note_off channel=0 note=86 velocity=0 time=10\n",
      "160586 note_on channel=0 note=86 velocity=75 time=81\n",
      "160599 note_on channel=0 note=78 velocity=52 time=13\n",
      "160616 note_off channel=0 note=78 velocity=0 time=17\n",
      "160642 note_off channel=0 note=86 velocity=0 time=26\n",
      "160721 note_on channel=0 note=85 velocity=71 time=79\n",
      "160737 note_on channel=0 note=76 velocity=57 time=16\n",
      "160776 note_off channel=0 note=76 velocity=0 time=39\n",
      "160806 note_off channel=0 note=85 velocity=0 time=30\n",
      "160881 note_on channel=0 note=86 velocity=67 time=75\n",
      "160882 note_on channel=0 note=78 velocity=52 time=1\n",
      "160942 note_off channel=0 note=86 velocity=0 time=60\n",
      "160988 note_off channel=0 note=78 velocity=0 time=46\n",
      "161022 note_on channel=0 note=38 velocity=55 time=34\n",
      "161187 note_on channel=0 note=73 velocity=62 time=165\n",
      "161247 note_off channel=0 note=73 velocity=0 time=60\n",
      "161273 note_off channel=0 note=38 velocity=0 time=26\n",
      "161302 note_on channel=0 note=74 velocity=67 time=29\n",
      "161362 note_off channel=0 note=74 velocity=0 time=60\n",
      "161391 note_on channel=0 note=75 velocity=66 time=29\n",
      "161474 note_off channel=0 note=75 velocity=0 time=83\n",
      "161502 note_on channel=0 note=76 velocity=64 time=28\n",
      "161594 note_off channel=0 note=76 velocity=0 time=92\n",
      "161621 note_on channel=0 note=77 velocity=60 time=27\n",
      "161706 note_off channel=0 note=77 velocity=0 time=85\n",
      "161736 note_on channel=0 note=78 velocity=66 time=30\n",
      "161826 note_off channel=0 note=78 velocity=0 time=90\n",
      "161860 note_on channel=0 note=79 velocity=66 time=34\n",
      "161943 note_off channel=0 note=79 velocity=0 time=83\n",
      "161973 note_on channel=0 note=80 velocity=71 time=30\n",
      "162064 note_off channel=0 note=80 velocity=0 time=91\n",
      "162089 note_on channel=0 note=81 velocity=69 time=25\n",
      "162188 note_off channel=0 note=81 velocity=0 time=99\n",
      "162221 note_on channel=0 note=86 velocity=51 time=33\n",
      "162328 note_off channel=0 note=86 velocity=0 time=107\n",
      "162351 note_on channel=0 note=85 velocity=61 time=23\n",
      "162427 note_off channel=0 note=85 velocity=0 time=76\n",
      "162451 note_on channel=0 note=84 velocity=70 time=24\n",
      "162540 note_off channel=0 note=84 velocity=0 time=89\n",
      "162567 note_on channel=0 note=83 velocity=65 time=27\n",
      "162660 note_off channel=0 note=83 velocity=0 time=93\n",
      "162688 note_on channel=0 note=82 velocity=64 time=28\n",
      "162776 note_off channel=0 note=82 velocity=0 time=88\n",
      "162804 note_on channel=0 note=81 velocity=46 time=28\n",
      "162949 note_off channel=0 note=81 velocity=0 time=145\n",
      "162974 note_on channel=0 note=67 velocity=35 time=25\n",
      "162976 note_on channel=0 note=61 velocity=26 time=2\n",
      "163494 note_on channel=0 note=66 velocity=37 time=518\n",
      "163509 note_off channel=0 note=61 velocity=0 time=15\n",
      "163509 note_on channel=0 note=62 velocity=32 time=0\n",
      "163525 note_off channel=0 note=67 velocity=0 time=16\n",
      "163554 note_on channel=0 note=86 velocity=66 time=29\n",
      "163644 note_off channel=0 note=86 velocity=0 time=90\n",
      "163680 note_off channel=0 note=62 velocity=0 time=36\n",
      "163711 note_off channel=0 note=66 velocity=0 time=31\n",
      "163718 note_on channel=0 note=85 velocity=65 time=7\n",
      "163762 note_off channel=0 note=85 velocity=0 time=44\n",
      "163789 note_on channel=0 note=84 velocity=58 time=27\n",
      "163895 note_off channel=0 note=84 velocity=0 time=106\n",
      "163919 note_on channel=0 note=83 velocity=49 time=24\n",
      "164014 note_off channel=0 note=83 velocity=0 time=95\n",
      "164038 note_on channel=0 note=82 velocity=57 time=24\n",
      "164125 note_off channel=0 note=82 velocity=0 time=87\n",
      "164153 note_on channel=0 note=81 velocity=41 time=28\n",
      "164297 note_on channel=0 note=67 velocity=37 time=144\n",
      "164325 note_on channel=0 note=61 velocity=30 time=28\n",
      "164326 note_off channel=0 note=81 velocity=0 time=1\n",
      "164786 note_off channel=0 note=61 velocity=0 time=460\n",
      "164801 note_off channel=0 note=67 velocity=0 time=15\n",
      "164816 note_on channel=0 note=62 velocity=42 time=15\n",
      "164821 note_on channel=0 note=66 velocity=44 time=5\n",
      "164876 note_off channel=0 note=62 velocity=0 time=55\n",
      "164914 note_off channel=0 note=66 velocity=0 time=38\n",
      "164916 note_on channel=0 note=80 velocity=58 time=2\n",
      "164940 note_on channel=0 note=77 velocity=49 time=24\n",
      "164945 note_off channel=0 note=77 velocity=0 time=5\n",
      "164983 note_off channel=0 note=80 velocity=0 time=38\n",
      "165005 note_on channel=0 note=81 velocity=46 time=22\n",
      "165068 note_on channel=0 note=78 velocity=43 time=63\n",
      "165071 note_off channel=0 note=81 velocity=0 time=3\n",
      "165095 note_off channel=0 note=78 velocity=0 time=24\n",
      "165101 note_on channel=0 note=55 velocity=61 time=6\n",
      "165205 note_off channel=0 note=55 velocity=0 time=104\n",
      "165233 note_on channel=0 note=78 velocity=62 time=28\n",
      "165326 note_on channel=0 note=75 velocity=64 time=93\n",
      "165328 note_off channel=0 note=78 velocity=0 time=2\n",
      "165405 note_off channel=0 note=75 velocity=0 time=77\n",
      "165417 note_on channel=0 note=79 velocity=45 time=12\n",
      "165448 note_on channel=0 note=76 velocity=47 time=31\n",
      "165456 note_off channel=0 note=79 velocity=0 time=8\n",
      "165474 note_off channel=0 note=76 velocity=0 time=18\n",
      "165482 note_on channel=0 note=56 velocity=46 time=8\n",
      "165592 note_off channel=0 note=56 velocity=0 time=110\n",
      "165622 note_on channel=0 note=77 velocity=54 time=30\n",
      "165713 note_on channel=0 note=73 velocity=47 time=91\n",
      "165722 note_off channel=0 note=77 velocity=0 time=9\n",
      "165812 note_off channel=0 note=73 velocity=0 time=90\n",
      "165820 note_on channel=0 note=78 velocity=60 time=8\n",
      "165827 note_on channel=0 note=74 velocity=49 time=7\n",
      "165842 note_off channel=0 note=74 velocity=0 time=15\n",
      "165860 note_off channel=0 note=78 velocity=0 time=18\n",
      "165965 note_on channel=0 note=73 velocity=58 time=105\n",
      "165976 note_on channel=0 note=76 velocity=62 time=11\n",
      "165977 note_on channel=0 note=45 velocity=66 time=1\n",
      "166112 note_on channel=0 note=49 velocity=71 time=135\n",
      "166262 note_off channel=0 note=45 velocity=0 time=150\n",
      "166280 note_off channel=0 note=76 velocity=0 time=18\n",
      "166296 note_off channel=0 note=73 velocity=0 time=16\n",
      "166297 note_off channel=0 note=49 velocity=0 time=1\n",
      "166303 note_on channel=0 note=52 velocity=59 time=6\n",
      "166392 note_off channel=0 note=52 velocity=0 time=89\n",
      "166417 note_on channel=0 note=57 velocity=51 time=25\n",
      "166504 note_off channel=0 note=57 velocity=0 time=87\n",
      "166534 note_on channel=0 note=58 velocity=53 time=30\n",
      "166622 note_off channel=0 note=58 velocity=0 time=88\n",
      "166652 note_on channel=0 note=59 velocity=60 time=30\n",
      "166746 note_off channel=0 note=59 velocity=0 time=94\n",
      "166776 note_on channel=0 note=60 velocity=62 time=30\n",
      "166875 note_off channel=0 note=60 velocity=0 time=99\n",
      "166914 note_on channel=0 note=61 velocity=60 time=39\n",
      "167000 note_off channel=0 note=61 velocity=0 time=86\n",
      "167025 note_on channel=0 note=78 velocity=62 time=25\n",
      "167199 note_on channel=0 note=81 velocity=59 time=174\n",
      "167209 note_on channel=0 note=62 velocity=61 time=10\n",
      "167218 note_off channel=0 note=78 velocity=0 time=9\n",
      "167309 note_on channel=0 note=79 velocity=60 time=91\n",
      "167384 note_on channel=0 note=76 velocity=54 time=75\n",
      "167400 note_off channel=0 note=81 velocity=0 time=16\n",
      "167422 note_off channel=0 note=76 velocity=0 time=22\n",
      "167444 note_off channel=0 note=79 velocity=0 time=22\n",
      "167457 note_on channel=0 note=78 velocity=65 time=13\n",
      "167519 note_on channel=0 note=74 velocity=64 time=62\n",
      "167524 note_off channel=0 note=62 velocity=0 time=5\n",
      "167542 note_off channel=0 note=78 velocity=0 time=18\n",
      "167544 note_off channel=0 note=74 velocity=0 time=2\n",
      "167556 note_on channel=0 note=78 velocity=62 time=12\n",
      "167635 note_on channel=0 note=74 velocity=58 time=79\n",
      "167643 note_off channel=0 note=78 velocity=0 time=8\n",
      "167674 note_off channel=0 note=74 velocity=0 time=31\n",
      "167683 note_on channel=0 note=78 velocity=57 time=9\n",
      "167770 note_on channel=0 note=74 velocity=64 time=87\n",
      "167773 note_off channel=0 note=78 velocity=0 time=3\n",
      "167806 note_off channel=0 note=74 velocity=0 time=33\n",
      "167808 note_on channel=0 note=78 velocity=66 time=2\n",
      "167894 note_on channel=0 note=74 velocity=64 time=86\n",
      "167897 note_off channel=0 note=78 velocity=0 time=3\n",
      "167927 note_off channel=0 note=74 velocity=0 time=30\n",
      "167930 note_on channel=0 note=74 velocity=65 time=3\n",
      "168010 note_on channel=0 note=78 velocity=70 time=80\n",
      "168013 note_off channel=0 note=78 velocity=0 time=3\n",
      "168044 note_off channel=0 note=74 velocity=0 time=31\n",
      "168049 note_on channel=0 note=78 velocity=75 time=5\n",
      "168133 note_on channel=0 note=74 velocity=67 time=84\n",
      "168145 note_off channel=0 note=78 velocity=0 time=12\n",
      "168162 note_off channel=0 note=74 velocity=0 time=17\n",
      "168171 note_on channel=0 note=74 velocity=62 time=9\n",
      "168246 note_on channel=0 note=78 velocity=73 time=75\n",
      "168247 note_off channel=0 note=78 velocity=0 time=1\n",
      "168275 note_off channel=0 note=74 velocity=0 time=28\n",
      "168288 note_on channel=0 note=78 velocity=67 time=13\n",
      "168395 note_on channel=0 note=50 velocity=83 time=107\n",
      "168406 note_on channel=0 note=69 velocity=58 time=11\n",
      "168410 note_off channel=0 note=69 velocity=0 time=4\n",
      "168448 note_off channel=0 note=78 velocity=0 time=38\n",
      "168507 note_on channel=0 note=76 velocity=68 time=59\n",
      "168536 note_on channel=0 note=67 velocity=65 time=29\n",
      "168543 note_off channel=0 note=67 velocity=0 time=7\n",
      "168575 note_off channel=0 note=76 velocity=0 time=32\n",
      "168605 note_off channel=0 note=50 velocity=0 time=30\n",
      "168617 note_on channel=0 note=66 velocity=67 time=12\n",
      "168665 note_on channel=0 note=74 velocity=68 time=48\n",
      "168668 note_off channel=0 note=66 velocity=0 time=3\n",
      "168695 note_off channel=0 note=74 velocity=0 time=27\n",
      "168703 note_on channel=0 note=74 velocity=69 time=8\n",
      "168800 note_on channel=0 note=66 velocity=56 time=97\n",
      "168801 note_off channel=0 note=74 velocity=0 time=1\n",
      "168829 note_off channel=0 note=66 velocity=0 time=28\n",
      "168831 note_on channel=0 note=74 velocity=66 time=2\n",
      "168909 note_on channel=0 note=66 velocity=58 time=78\n",
      "168918 note_off channel=0 note=74 velocity=0 time=9\n",
      "168945 note_off channel=0 note=66 velocity=0 time=27\n",
      "168948 note_on channel=0 note=66 velocity=57 time=3\n",
      "169038 note_on channel=0 note=74 velocity=67 time=90\n",
      "169043 note_off channel=0 note=66 velocity=0 time=5\n",
      "169067 note_off channel=0 note=74 velocity=0 time=24\n",
      "169069 note_on channel=0 note=74 velocity=65 time=2\n",
      "169148 note_on channel=0 note=66 velocity=55 time=79\n",
      "169157 note_off channel=0 note=66 velocity=0 time=9\n",
      "169188 note_off channel=0 note=74 velocity=0 time=31\n",
      "169189 note_on channel=0 note=66 velocity=44 time=1\n",
      "169300 note_on channel=0 note=74 velocity=68 time=111\n",
      "169301 note_off channel=0 note=66 velocity=0 time=1\n",
      "169327 note_off channel=0 note=74 velocity=0 time=26\n",
      "169335 note_on channel=0 note=74 velocity=59 time=8\n",
      "169415 note_on channel=0 note=66 velocity=53 time=80\n",
      "169417 note_off channel=0 note=74 velocity=0 time=2\n",
      "169443 note_off channel=0 note=66 velocity=0 time=26\n",
      "169447 note_on channel=0 note=59 velocity=56 time=4\n",
      "169559 note_off channel=0 note=59 velocity=0 time=112\n",
      "169582 note_on channel=0 note=74 velocity=69 time=23\n",
      "169675 note_on channel=0 note=66 velocity=30 time=93\n",
      "169689 note_off channel=0 note=66 velocity=0 time=14\n",
      "169722 note_off channel=0 note=74 velocity=0 time=33\n",
      "169783 note_on channel=0 note=78 velocity=55 time=61\n",
      "169784 note_on channel=0 note=69 velocity=61 time=1\n",
      "169794 note_off channel=0 note=69 velocity=0 time=10\n",
      "169816 note_off channel=0 note=78 velocity=0 time=22\n",
      "169841 note_on channel=0 note=55 velocity=63 time=25\n",
      "169929 note_off channel=0 note=55 velocity=0 time=88\n",
      "169958 note_on channel=0 note=67 velocity=62 time=29\n",
      "170058 note_on channel=0 note=76 velocity=53 time=100\n",
      "170068 note_off channel=0 note=67 velocity=0 time=10\n",
      "170089 note_off channel=0 note=76 velocity=0 time=21\n",
      "170136 note_on channel=0 note=71 velocity=59 time=47\n",
      "170177 note_on channel=0 note=79 velocity=43 time=41\n",
      "170181 note_off channel=0 note=71 velocity=0 time=4\n",
      "170205 note_off channel=0 note=79 velocity=0 time=24\n",
      "170210 note_on channel=0 note=57 velocity=63 time=5\n",
      "170308 note_off channel=0 note=57 velocity=0 time=98\n",
      "170336 note_on channel=0 note=73 velocity=58 time=28\n",
      "170426 note_on channel=0 note=64 velocity=39 time=90\n",
      "170431 note_off channel=0 note=64 velocity=0 time=5\n",
      "170465 note_off channel=0 note=73 velocity=0 time=34\n",
      "170467 note_on channel=0 note=76 velocity=58 time=2\n",
      "170539 note_off channel=0 note=76 velocity=0 time=72\n",
      "170566 note_on channel=0 note=50 velocity=58 time=27\n",
      "170676 note_on channel=0 note=74 velocity=55 time=110\n",
      "170683 note_off channel=0 note=74 velocity=0 time=7\n",
      "170762 note_on channel=0 note=69 velocity=57 time=79\n",
      "170805 note_off channel=0 note=69 velocity=0 time=43\n",
      "170830 note_off channel=0 note=50 velocity=0 time=25\n",
      "170856 note_on channel=0 note=71 velocity=57 time=26\n",
      "170925 note_off channel=0 note=71 velocity=0 time=69\n",
      "170952 note_on channel=0 note=73 velocity=64 time=27\n",
      "171043 note_off channel=0 note=73 velocity=0 time=91\n",
      "171071 note_on channel=0 note=74 velocity=73 time=28\n",
      "171187 note_off channel=0 note=74 velocity=0 time=116\n",
      "171262 note_on channel=0 note=76 velocity=67 time=75\n",
      "171285 note_off channel=0 note=76 velocity=0 time=23\n",
      "171398 note_on channel=0 note=78 velocity=68 time=113\n",
      "171429 note_off channel=0 note=78 velocity=0 time=31\n",
      "171529 note_on channel=0 note=79 velocity=72 time=100\n",
      "171558 note_off channel=0 note=79 velocity=0 time=29\n",
      "171650 note_on channel=0 note=80 velocity=77 time=92\n",
      "171666 note_off channel=0 note=80 velocity=0 time=16\n",
      "171831 note_on channel=0 note=81 velocity=76 time=165\n",
      "171847 note_on channel=0 note=69 velocity=37 time=16\n",
      "171872 note_on channel=0 note=66 velocity=38 time=25\n",
      "171878 note_off channel=0 note=69 velocity=0 time=6\n",
      "171953 note_off channel=0 note=66 velocity=0 time=75\n",
      "171998 note_on channel=0 note=64 velocity=51 time=45\n",
      "172014 note_on channel=0 note=67 velocity=60 time=16\n",
      "172043 note_off channel=0 note=67 velocity=0 time=29\n",
      "172049 note_off channel=0 note=64 velocity=0 time=6\n",
      "172119 note_on channel=0 note=62 velocity=59 time=70\n",
      "172150 note_off channel=0 note=62 velocity=0 time=31\n",
      "172257 note_on channel=0 note=66 velocity=67 time=107\n",
      "172276 note_on channel=0 note=62 velocity=50 time=19\n",
      "172295 note_off channel=0 note=66 velocity=0 time=19\n",
      "172309 note_off channel=0 note=62 velocity=0 time=14\n",
      "172355 note_off channel=0 note=81 velocity=0 time=46\n",
      "172400 note_on channel=0 note=62 velocity=53 time=45\n",
      "172400 note_on channel=0 note=66 velocity=56 time=0\n",
      "172402 note_on channel=0 note=83 velocity=62 time=2\n",
      "172431 note_off channel=0 note=62 velocity=0 time=29\n",
      "172431 note_off channel=0 note=66 velocity=0 time=0\n",
      "172447 note_off channel=0 note=83 velocity=0 time=16\n",
      "172449 note_on channel=0 note=81 velocity=64 time=2\n",
      "172477 note_off channel=0 note=81 velocity=0 time=28\n",
      "172492 note_on channel=0 note=80 velocity=71 time=15\n",
      "172509 note_on channel=0 note=62 velocity=52 time=17\n",
      "172523 note_on channel=0 note=66 velocity=58 time=14\n",
      "172523 note_off channel=0 note=80 velocity=0 time=0\n",
      "172549 note_on channel=0 note=81 velocity=74 time=26\n",
      "172556 note_off channel=0 note=66 velocity=0 time=7\n",
      "172561 note_off channel=0 note=62 velocity=0 time=5\n",
      "172563 note_off channel=0 note=81 velocity=0 time=2\n",
      "172634 note_on channel=0 note=86 velocity=78 time=71\n",
      "172637 note_on channel=0 note=66 velocity=66 time=3\n",
      "172643 note_on channel=0 note=62 velocity=55 time=6\n",
      "172659 note_off channel=0 note=86 velocity=0 time=16\n",
      "172662 note_off channel=0 note=66 velocity=0 time=3\n",
      "172673 note_off channel=0 note=62 velocity=0 time=11\n",
      "172688 note_on channel=0 note=66 velocity=66 time=15\n",
      "172760 note_on channel=0 note=62 velocity=59 time=72\n",
      "172766 note_off channel=0 note=66 velocity=0 time=6\n",
      "172791 note_off channel=0 note=62 velocity=0 time=25\n",
      "172798 note_on channel=0 note=66 velocity=67 time=7\n",
      "172875 note_on channel=0 note=62 velocity=64 time=77\n",
      "172879 note_off channel=0 note=66 velocity=0 time=4\n",
      "172903 note_off channel=0 note=62 velocity=0 time=24\n",
      "172914 note_on channel=0 note=66 velocity=61 time=11\n",
      "173012 note_on channel=0 note=78 velocity=83 time=98\n",
      "173023 note_off channel=0 note=66 velocity=0 time=11\n",
      "173059 note_on channel=0 note=57 velocity=25 time=36\n",
      "173070 note_off channel=0 note=57 velocity=0 time=11\n",
      "173119 note_on channel=0 note=64 velocity=43 time=49\n",
      "173186 note_off channel=0 note=64 velocity=0 time=67\n",
      "173217 note_on channel=0 note=62 velocity=70 time=31\n",
      "173288 note_off channel=0 note=62 velocity=0 time=71\n",
      "173316 note_on channel=0 note=54 velocity=41 time=28\n",
      "173320 note_off channel=0 note=54 velocity=0 time=4\n",
      "173321 note_on channel=0 note=62 velocity=52 time=1\n",
      "173428 note_on channel=0 note=54 velocity=71 time=107\n",
      "173430 note_off channel=0 note=54 velocity=0 time=2\n",
      "173454 note_off channel=0 note=62 velocity=0 time=24\n",
      "173459 note_on channel=0 note=54 velocity=61 time=5\n",
      "173548 note_on channel=0 note=62 velocity=56 time=89\n",
      "173550 note_off channel=0 note=78 velocity=0 time=2\n",
      "173554 note_off channel=0 note=54 velocity=0 time=4\n",
      "173581 note_off channel=0 note=62 velocity=0 time=27\n",
      "173588 note_on channel=0 note=79 velocity=40 time=7\n",
      "173603 note_off channel=0 note=79 velocity=0 time=15\n",
      "173635 note_on channel=0 note=78 velocity=58 time=32\n",
      "173652 note_off channel=0 note=78 velocity=0 time=17\n",
      "173673 note_on channel=0 note=76 velocity=62 time=21\n",
      "173679 note_on channel=0 note=62 velocity=61 time=6\n",
      "173689 note_on channel=0 note=54 velocity=48 time=10\n",
      "173703 note_off channel=0 note=76 velocity=0 time=14\n",
      "173718 note_off channel=0 note=62 velocity=0 time=15\n",
      "173721 note_off channel=0 note=54 velocity=0 time=3\n",
      "173733 note_on channel=0 note=78 velocity=78 time=12\n",
      "173737 note_off channel=0 note=78 velocity=0 time=4\n",
      "173795 note_on channel=0 note=81 velocity=68 time=58\n",
      "173798 note_on channel=0 note=54 velocity=65 time=3\n",
      "173813 note_off channel=0 note=54 velocity=0 time=15\n",
      "173813 note_on channel=0 note=62 velocity=57 time=0\n",
      "173838 note_off channel=0 note=62 velocity=0 time=25\n",
      "173845 note_off channel=0 note=81 velocity=0 time=7\n",
      "173873 note_on channel=0 note=62 velocity=65 time=28\n",
      "173923 note_on channel=0 note=54 velocity=41 time=50\n",
      "173936 note_off channel=0 note=62 velocity=0 time=13\n",
      "173965 note_off channel=0 note=54 velocity=0 time=29\n",
      "173971 note_on channel=0 note=54 velocity=63 time=6\n",
      "174058 note_on channel=0 note=62 velocity=69 time=87\n",
      "174059 note_off channel=0 note=62 velocity=0 time=1\n",
      "174087 note_off channel=0 note=54 velocity=0 time=28\n",
      "174095 note_on channel=0 note=59 velocity=74 time=8\n",
      "174180 note_off channel=0 note=59 velocity=0 time=85\n",
      "174206 note_on channel=0 note=66 velocity=62 time=26\n",
      "174283 note_on channel=0 note=74 velocity=69 time=77\n",
      "174287 note_off channel=0 note=66 velocity=0 time=4\n",
      "174312 note_off channel=0 note=74 velocity=0 time=25\n",
      "174384 note_on channel=0 note=69 velocity=52 time=72\n",
      "174398 note_on channel=0 note=78 velocity=69 time=14\n",
      "174401 note_off channel=0 note=69 velocity=0 time=3\n",
      "174422 note_off channel=0 note=78 velocity=0 time=21\n",
      "174433 note_on channel=0 note=55 velocity=60 time=11\n",
      "174528 note_off channel=0 note=55 velocity=0 time=95\n",
      "174553 note_on channel=0 note=67 velocity=56 time=25\n",
      "174648 note_on channel=0 note=76 velocity=50 time=95\n",
      "174654 note_off channel=0 note=67 velocity=0 time=6\n",
      "174672 note_off channel=0 note=76 velocity=0 time=18\n",
      "174713 note_on channel=0 note=71 velocity=63 time=41\n",
      "174759 note_on channel=0 note=79 velocity=52 time=46\n",
      "174765 note_off channel=0 note=71 velocity=0 time=6\n",
      "174785 note_off channel=0 note=79 velocity=0 time=20\n",
      "174787 note_on channel=0 note=57 velocity=58 time=2\n",
      "174899 note_off channel=0 note=57 velocity=0 time=112\n",
      "174928 note_on channel=0 note=73 velocity=55 time=29\n",
      "175015 note_on channel=0 note=64 velocity=45 time=87\n",
      "175018 note_off channel=0 note=64 velocity=0 time=3\n",
      "175047 note_off channel=0 note=73 velocity=0 time=29\n",
      "175058 note_on channel=0 note=67 velocity=55 time=11\n",
      "175128 note_on channel=0 note=76 velocity=40 time=70\n",
      "175144 note_off channel=0 note=67 velocity=0 time=16\n",
      "175152 note_off channel=0 note=76 velocity=0 time=8\n",
      "175173 note_on channel=0 note=74 velocity=58 time=21\n",
      "175277 note_on channel=0 note=66 velocity=47 time=104\n",
      "175295 note_on channel=0 note=62 velocity=55 time=18\n",
      "175413 note_off channel=0 note=62 velocity=0 time=118\n",
      "175443 note_on channel=0 note=57 velocity=52 time=30\n",
      "175537 note_off channel=0 note=57 velocity=0 time=94\n",
      "175594 note_on channel=0 note=54 velocity=58 time=57\n",
      "175663 note_off channel=0 note=54 velocity=0 time=69\n",
      "175692 note_off channel=0 note=66 velocity=0 time=29\n",
      "175761 note_on channel=0 note=50 velocity=59 time=69\n",
      "175793 note_off channel=0 note=74 velocity=0 time=32\n",
      "175794 note_off channel=0 note=50 velocity=0 time=1\n",
      "175820 note_on channel=0 note=45 velocity=32 time=26\n",
      "175935 note_off channel=0 note=45 velocity=0 time=115\n",
      "175972 note_on channel=0 note=38 velocity=37 time=37\n",
      "176348 note_off channel=0 note=38 velocity=0 time=376\n",
      "177390 note_on channel=0 note=81 velocity=66 time=1042\n",
      "177406 note_off channel=0 note=81 velocity=0 time=16\n",
      "177589 note_on channel=0 note=81 velocity=71 time=183\n",
      "177659 note_off channel=0 note=81 velocity=0 time=70\n",
      "177681 note_on channel=0 note=81 velocity=79 time=22\n",
      "177861 note_off channel=0 note=81 velocity=0 time=180\n",
      "177875 note_on channel=0 note=79 velocity=63 time=14\n",
      "178050 note_on channel=0 note=81 velocity=79 time=175\n",
      "178051 note_on channel=0 note=73 velocity=59 time=1\n",
      "178056 note_off channel=0 note=81 velocity=0 time=5\n",
      "178074 note_off channel=0 note=79 velocity=0 time=18\n",
      "178077 note_off channel=0 note=73 velocity=0 time=3\n",
      "178220 note_on channel=0 note=81 velocity=66 time=143\n",
      "178234 note_on channel=0 note=78 velocity=57 time=14\n",
      "178243 note_on channel=0 note=74 velocity=56 time=9\n",
      "178250 note_off channel=0 note=81 velocity=0 time=7\n",
      "178261 note_on channel=0 note=83 velocity=75 time=11\n",
      "178280 note_off channel=0 note=83 velocity=0 time=19\n",
      "178311 note_on channel=0 note=81 velocity=80 time=31\n",
      "178341 note_on channel=0 note=80 velocity=71 time=30\n",
      "178341 note_off channel=0 note=81 velocity=0 time=0\n",
      "178372 note_off channel=0 note=74 velocity=0 time=31\n",
      "178376 note_off channel=0 note=78 velocity=0 time=4\n",
      "178389 note_off channel=0 note=80 velocity=0 time=13\n",
      "178393 note_on channel=0 note=81 velocity=75 time=4\n",
      "178425 note_off channel=0 note=81 velocity=0 time=32\n",
      "178427 note_on channel=0 note=86 velocity=73 time=2\n",
      "178440 note_off channel=0 note=86 velocity=0 time=13\n",
      "178637 note_on channel=0 note=78 velocity=70 time=197\n",
      "178653 note_off channel=0 note=78 velocity=0 time=16\n",
      "178834 note_on channel=0 note=78 velocity=72 time=181\n",
      "178850 note_off channel=0 note=78 velocity=0 time=16\n",
      "178941 note_on channel=0 note=78 velocity=82 time=91\n",
      "179025 note_off channel=0 note=78 velocity=0 time=84\n",
      "179193 note_on channel=0 note=78 velocity=72 time=168\n",
      "179213 note_on channel=0 note=76 velocity=54 time=20\n",
      "179215 note_on channel=0 note=70 velocity=54 time=2\n",
      "179238 note_off channel=0 note=78 velocity=0 time=23\n",
      "179241 note_off channel=0 note=76 velocity=0 time=3\n",
      "179254 note_off channel=0 note=70 velocity=0 time=13\n",
      "179390 note_on channel=0 note=78 velocity=64 time=136\n",
      "179391 note_on channel=0 note=74 velocity=55 time=1\n",
      "179406 note_off channel=0 note=78 velocity=0 time=15\n",
      "179421 note_on channel=0 note=71 velocity=47 time=15\n",
      "179421 note_on channel=0 note=79 velocity=73 time=0\n",
      "179451 note_off channel=0 note=79 velocity=0 time=30\n",
      "179466 note_on channel=0 note=78 velocity=76 time=15\n",
      "179497 note_off channel=0 note=78 velocity=0 time=31\n",
      "179512 note_on channel=0 note=77 velocity=66 time=15\n",
      "179542 note_off channel=0 note=74 velocity=0 time=30\n",
      "179557 note_off channel=0 note=71 velocity=0 time=15\n",
      "179561 note_off channel=0 note=77 velocity=0 time=4\n",
      "179563 note_on channel=0 note=78 velocity=89 time=2\n",
      "179588 note_off channel=0 note=78 velocity=0 time=25\n",
      "179603 note_on channel=0 note=83 velocity=55 time=15\n",
      "179618 note_off channel=0 note=83 velocity=0 time=15\n",
      "179649 note_on channel=0 note=74 velocity=84 time=31\n",
      "179790 note_off channel=0 note=74 velocity=0 time=141\n",
      "179812 note_on channel=0 note=66 velocity=52 time=22\n",
      "180022 note_off channel=0 note=66 velocity=0 time=210\n",
      "180023 note_on channel=0 note=76 velocity=69 time=1\n",
      "180185 note_off channel=0 note=76 velocity=0 time=162\n",
      "180213 note_on channel=0 note=67 velocity=55 time=28\n",
      "180389 note_on channel=0 note=71 velocity=39 time=176\n",
      "180398 note_off channel=0 note=67 velocity=0 time=9\n",
      "180414 note_off channel=0 note=71 velocity=0 time=16\n",
      "180426 note_on channel=0 note=79 velocity=81 time=12\n",
      "180582 note_off channel=0 note=79 velocity=0 time=156\n",
      "180603 note_on channel=0 note=69 velocity=55 time=21\n",
      "180783 note_on channel=0 note=73 velocity=49 time=180\n",
      "180785 note_off channel=0 note=73 velocity=0 time=2\n",
      "180811 note_off channel=0 note=69 velocity=0 time=26\n",
      "180815 note_on channel=0 note=78 velocity=68 time=4\n",
      "180972 note_on channel=0 note=62 velocity=50 time=157\n",
      "180987 note_off channel=0 note=78 velocity=0 time=15\n",
      "180998 note_on channel=0 note=74 velocity=64 time=11\n",
      "181235 note_on channel=0 note=76 velocity=72 time=237\n",
      "181258 note_off channel=0 note=74 velocity=0 time=23\n",
      "181263 note_off channel=0 note=76 velocity=0 time=5\n",
      "181281 note_on channel=0 note=76 velocity=69 time=18\n",
      "181427 note_off channel=0 note=76 velocity=0 time=146\n",
      "181455 note_off channel=0 note=62 velocity=0 time=28\n",
      "181456 note_on channel=0 note=78 velocity=72 time=1\n",
      "181460 note_off channel=0 note=78 velocity=0 time=4\n",
      "181494 note_on channel=0 note=78 velocity=69 time=34\n",
      "181631 note_on channel=0 note=79 velocity=74 time=137\n",
      "181653 note_off channel=0 note=78 velocity=0 time=22\n",
      "181661 note_off channel=0 note=79 velocity=0 time=8\n",
      "181677 note_on channel=0 note=79 velocity=65 time=16\n",
      "181811 note_on channel=0 note=81 velocity=79 time=134\n",
      "181830 note_off channel=0 note=79 velocity=0 time=19\n",
      "181841 note_off channel=0 note=81 velocity=0 time=11\n",
      "181854 note_on channel=0 note=81 velocity=74 time=13\n",
      "181983 note_off channel=0 note=81 velocity=0 time=129\n",
      "182007 note_on channel=0 note=83 velocity=73 time=24\n",
      "182012 note_off channel=0 note=83 velocity=0 time=5\n",
      "182035 note_on channel=0 note=81 velocity=82 time=23\n",
      "182184 note_off channel=0 note=81 velocity=0 time=149\n",
      "182202 note_on channel=0 note=81 velocity=82 time=18\n",
      "182377 note_on channel=0 note=79 velocity=58 time=175\n",
      "182388 note_on channel=0 note=73 velocity=61 time=11\n",
      "182389 note_off channel=0 note=81 velocity=0 time=1\n",
      "182398 note_off channel=0 note=79 velocity=0 time=9\n",
      "182414 note_off channel=0 note=73 velocity=0 time=16\n",
      "182417 note_on channel=0 note=81 velocity=84 time=3\n",
      "182561 note_on channel=0 note=74 velocity=56 time=144\n",
      "182567 note_on channel=0 note=78 velocity=55 time=6\n",
      "182568 note_off channel=0 note=81 velocity=0 time=1\n",
      "182583 note_off channel=0 note=74 velocity=0 time=15\n",
      "182602 note_off channel=0 note=78 velocity=0 time=19\n",
      "182606 note_on channel=0 note=81 velocity=87 time=4\n",
      "182735 note_on channel=0 note=79 velocity=65 time=129\n",
      "182740 note_on channel=0 note=73 velocity=63 time=5\n",
      "182747 note_off channel=0 note=81 velocity=0 time=7\n",
      "182753 note_off channel=0 note=79 velocity=0 time=6\n",
      "182769 note_off channel=0 note=73 velocity=0 time=16\n",
      "182775 note_on channel=0 note=78 velocity=59 time=6\n",
      "182926 note_on channel=0 note=81 velocity=80 time=151\n",
      "182927 note_on channel=0 note=74 velocity=58 time=1\n",
      "182931 note_off channel=0 note=74 velocity=0 time=4\n",
      "182961 note_off channel=0 note=81 velocity=0 time=30\n",
      "182962 note_off channel=0 note=78 velocity=0 time=1\n",
      "182963 note_on channel=0 note=83 velocity=69 time=1\n",
      "183025 note_off channel=0 note=83 velocity=0 time=62\n",
      "183050 note_on channel=0 note=85 velocity=75 time=25\n",
      "183098 note_off channel=0 note=85 velocity=0 time=48\n",
      "183131 note_on channel=0 note=86 velocity=81 time=33\n",
      "183187 note_off channel=0 note=86 velocity=0 time=56\n",
      "183208 note_on channel=0 note=78 velocity=88 time=21\n",
      "183293 note_off channel=0 note=78 velocity=0 time=85\n",
      "183314 note_on channel=0 note=78 velocity=83 time=21\n",
      "183490 note_on channel=0 note=76 velocity=59 time=176\n",
      "183491 note_on channel=0 note=70 velocity=61 time=1\n",
      "183493 note_off channel=0 note=78 velocity=0 time=2\n",
      "183505 note_off channel=0 note=76 velocity=0 time=12\n",
      "183520 note_off channel=0 note=70 velocity=0 time=15\n",
      "183531 note_on channel=0 note=71 velocity=40 time=11\n",
      "183682 note_on channel=0 note=74 velocity=55 time=151\n",
      "183701 note_off channel=0 note=71 velocity=0 time=19\n",
      "183714 note_off channel=0 note=74 velocity=0 time=13\n",
      "183716 note_on channel=0 note=78 velocity=68 time=2\n",
      "183862 note_on channel=0 note=70 velocity=44 time=146\n",
      "183880 note_off channel=0 note=78 velocity=0 time=18\n",
      "183889 note_on channel=0 note=76 velocity=23 time=9\n",
      "183891 note_off channel=0 note=70 velocity=0 time=2\n",
      "183908 note_off channel=0 note=76 velocity=0 time=17\n",
      "183933 note_on channel=0 note=71 velocity=46 time=25\n",
      "184047 note_on channel=0 note=78 velocity=70 time=114\n",
      "184053 note_on channel=0 note=74 velocity=54 time=6\n",
      "184055 note_off channel=0 note=78 velocity=0 time=2\n",
      "184078 note_off channel=0 note=71 velocity=0 time=23\n",
      "184080 note_off channel=0 note=74 velocity=0 time=2\n",
      "184085 note_on channel=0 note=80 velocity=65 time=5\n",
      "184145 note_off channel=0 note=80 velocity=0 time=60\n",
      "184173 note_on channel=0 note=82 velocity=69 time=28\n",
      "184230 note_off channel=0 note=82 velocity=0 time=57\n",
      "184253 note_on channel=0 note=83 velocity=71 time=23\n",
      "184302 note_off channel=0 note=83 velocity=0 time=49\n",
      "184327 note_on channel=0 note=74 velocity=73 time=25\n",
      "184425 note_on channel=0 note=66 velocity=55 time=98\n",
      "184633 note_on channel=0 note=69 velocity=51 time=208\n",
      "184639 note_off channel=0 note=66 velocity=0 time=6\n",
      "184662 note_off channel=0 note=69 velocity=0 time=23\n",
      "184669 note_off channel=0 note=74 velocity=0 time=7\n",
      "184688 note_on channel=0 note=78 velocity=66 time=19\n",
      "184734 note_off channel=0 note=78 velocity=0 time=46\n",
      "184780 note_on channel=0 note=76 velocity=67 time=46\n",
      "184801 note_on channel=0 note=71 velocity=48 time=21\n",
      "185019 note_on channel=0 note=67 velocity=49 time=218\n",
      "185025 note_off channel=0 note=71 velocity=0 time=6\n",
      "185046 note_off channel=0 note=67 velocity=0 time=21\n",
      "185052 note_off channel=0 note=76 velocity=0 time=6\n",
      "185052 note_on channel=0 note=79 velocity=64 time=0\n",
      "185100 note_off channel=0 note=79 velocity=0 time=48\n",
      "185134 note_on channel=0 note=73 velocity=62 time=34\n",
      "185211 note_on channel=0 note=67 velocity=50 time=77\n",
      "185422 note_on channel=0 note=57 velocity=40 time=211\n",
      "185431 note_off channel=0 note=67 velocity=0 time=9\n",
      "185449 note_off channel=0 note=57 velocity=0 time=18\n",
      "185465 note_off channel=0 note=73 velocity=0 time=16\n",
      "185496 note_on channel=0 note=76 velocity=58 time=31\n",
      "185514 note_off channel=0 note=76 velocity=0 time=18\n",
      "185602 note_on channel=0 note=74 velocity=64 time=88\n",
      "185607 note_on channel=0 note=42 velocity=74 time=5\n",
      "185817 note_on channel=0 note=54 velocity=78 time=210\n",
      "185820 note_off channel=0 note=54 velocity=0 time=3\n",
      "185845 note_off channel=0 note=42 velocity=0 time=25\n",
      "185848 note_on channel=0 note=55 velocity=73 time=3\n",
      "186029 note_on channel=0 note=43 velocity=68 time=181\n",
      "186034 note_off channel=0 note=55 velocity=0 time=5\n",
      "186054 note_off channel=0 note=43 velocity=0 time=20\n",
      "186066 note_off channel=0 note=74 velocity=0 time=12\n",
      "186209 note_on channel=0 note=57 velocity=64 time=143\n",
      "186247 note_on channel=0 note=45 velocity=72 time=38\n",
      "186248 note_off channel=0 note=45 velocity=0 time=1\n",
      "186272 note_off channel=0 note=57 velocity=0 time=24\n",
      "186274 note_on channel=0 note=50 velocity=47 time=2\n",
      "186562 note_on channel=0 note=38 velocity=46 time=288\n",
      "186819 note_off channel=0 note=38 velocity=0 time=257\n",
      "186887 note_off channel=0 note=50 velocity=0 time=68\n",
      "187237 note_on channel=0 note=81 velocity=42 time=350\n",
      "187280 note_off channel=0 note=81 velocity=0 time=43\n",
      "187310 note_on channel=0 note=81 velocity=55 time=30\n",
      "187510 note_off channel=0 note=81 velocity=0 time=200\n",
      "187700 note_on channel=0 note=81 velocity=54 time=190\n",
      "187715 note_off channel=0 note=81 velocity=0 time=15\n",
      "187868 note_on channel=0 note=81 velocity=68 time=153\n",
      "187881 note_on channel=0 note=79 velocity=58 time=13\n",
      "187883 note_on channel=0 note=73 velocity=52 time=2\n",
      "187898 note_off channel=0 note=81 velocity=0 time=15\n",
      "187901 note_off channel=0 note=79 velocity=0 time=3\n",
      "187913 note_off channel=0 note=73 velocity=0 time=12\n",
      "188066 note_on channel=0 note=78 velocity=48 time=153\n",
      "188079 note_on channel=0 note=81 velocity=54 time=13\n",
      "188081 note_on channel=0 note=74 velocity=47 time=2\n",
      "188097 note_off channel=0 note=81 velocity=0 time=16\n",
      "188112 note_on channel=0 note=83 velocity=63 time=15\n",
      "188127 note_off channel=0 note=83 velocity=0 time=15\n",
      "188142 note_on channel=0 note=81 velocity=63 time=15\n",
      "188168 note_off channel=0 note=81 velocity=0 time=26\n",
      "188186 note_on channel=0 note=80 velocity=66 time=18\n",
      "188187 note_off channel=0 note=80 velocity=0 time=1\n",
      "188229 note_on channel=0 note=81 velocity=70 time=42\n",
      "188238 note_off channel=0 note=74 velocity=0 time=9\n",
      "188247 note_off channel=0 note=78 velocity=0 time=9\n",
      "188252 note_off channel=0 note=81 velocity=0 time=5\n",
      "188272 note_on channel=0 note=86 velocity=69 time=20\n",
      "188287 note_off channel=0 note=86 velocity=0 time=15\n",
      "188305 note_on channel=0 note=78 velocity=28 time=18\n",
      "188531 note_off channel=0 note=78 velocity=0 time=226\n",
      "188573 note_on channel=0 note=78 velocity=67 time=42\n",
      "188695 note_off channel=0 note=78 velocity=0 time=122\n",
      "188721 note_on channel=0 note=78 velocity=76 time=26\n",
      "188883 note_off channel=0 note=78 velocity=0 time=162\n",
      "188908 note_on channel=0 note=78 velocity=61 time=25\n",
      "189050 note_on channel=0 note=76 velocity=51 time=142\n",
      "189057 note_on channel=0 note=70 velocity=56 time=7\n",
      "189058 note_off channel=0 note=78 velocity=0 time=1\n",
      "189083 note_off channel=0 note=76 velocity=0 time=25\n",
      "189087 note_off channel=0 note=70 velocity=0 time=4\n",
      "189097 note_on channel=0 note=78 velocity=42 time=10\n",
      "189249 note_on channel=0 note=74 velocity=51 time=152\n",
      "189259 note_on channel=0 note=71 velocity=45 time=10\n",
      "189261 note_on channel=0 note=79 velocity=54 time=2\n",
      "189272 note_off channel=0 note=78 velocity=0 time=11\n",
      "189281 note_off channel=0 note=79 velocity=0 time=9\n",
      "189293 note_on channel=0 note=78 velocity=49 time=12\n",
      "189333 note_on channel=0 note=77 velocity=70 time=40\n",
      "189351 note_off channel=0 note=74 velocity=0 time=18\n",
      "189378 note_off channel=0 note=71 velocity=0 time=27\n",
      "189378 note_off channel=0 note=78 velocity=0 time=0\n",
      "189382 note_off channel=0 note=77 velocity=0 time=4\n",
      "189386 note_on channel=0 note=78 velocity=74 time=4\n",
      "189388 note_off channel=0 note=78 velocity=0 time=2\n",
      "189466 note_on channel=0 note=74 velocity=67 time=78\n",
      "189651 note_off channel=0 note=74 velocity=0 time=185\n",
      "189670 note_on channel=0 note=66 velocity=55 time=19\n",
      "189834 note_on channel=0 note=69 velocity=53 time=164\n",
      "189837 note_off channel=0 note=66 velocity=0 time=3\n",
      "189863 note_off channel=0 note=69 velocity=0 time=26\n",
      "189864 note_on channel=0 note=76 velocity=72 time=1\n",
      "190038 note_off channel=0 note=76 velocity=0 time=174\n",
      "190065 note_on channel=0 note=71 velocity=57 time=27\n",
      "190230 note_on channel=0 note=67 velocity=56 time=165\n",
      "190236 note_off channel=0 note=71 velocity=0 time=6\n",
      "190256 note_off channel=0 note=67 velocity=0 time=20\n",
      "190267 note_on channel=0 note=79 velocity=62 time=11\n",
      "190424 note_off channel=0 note=79 velocity=0 time=157\n",
      "190442 note_on channel=0 note=69 velocity=54 time=18\n",
      "190655 note_off channel=0 note=69 velocity=0 time=213\n",
      "190659 note_on channel=0 note=78 velocity=61 time=4\n",
      "190830 note_on channel=0 note=62 velocity=32 time=171\n",
      "190850 note_off channel=0 note=78 velocity=0 time=20\n",
      "190853 note_on channel=0 note=74 velocity=48 time=3\n",
      "191063 note_on channel=0 note=76 velocity=65 time=210\n",
      "191074 note_off channel=0 note=74 velocity=0 time=11\n",
      "191091 note_off channel=0 note=76 velocity=0 time=17\n",
      "191100 note_on channel=0 note=76 velocity=62 time=9\n",
      "191253 note_on channel=0 note=78 velocity=80 time=153\n",
      "191270 note_off channel=0 note=76 velocity=0 time=17\n",
      "191278 note_off channel=0 note=62 velocity=0 time=8\n",
      "191280 note_off channel=0 note=78 velocity=0 time=2\n",
      "191294 note_on channel=0 note=78 velocity=54 time=14\n",
      "191437 note_on channel=0 note=79 velocity=69 time=143\n",
      "191454 note_off channel=0 note=78 velocity=0 time=17\n",
      "191462 note_off channel=0 note=79 velocity=0 time=8\n",
      "191487 note_on channel=0 note=79 velocity=69 time=25\n",
      "191621 note_on channel=0 note=81 velocity=76 time=134\n",
      "191638 note_off channel=0 note=79 velocity=0 time=17\n",
      "191647 note_off channel=0 note=81 velocity=0 time=9\n",
      "191662 note_on channel=0 note=81 velocity=64 time=15\n",
      "191809 note_on channel=0 note=83 velocity=80 time=147\n",
      "191819 note_off channel=0 note=81 velocity=0 time=10\n",
      "191834 note_off channel=0 note=83 velocity=0 time=15\n",
      "191841 note_on channel=0 note=81 velocity=78 time=7\n",
      "192008 note_off channel=0 note=81 velocity=0 time=167\n",
      "192030 note_on channel=0 note=81 velocity=77 time=22\n",
      "192191 note_on channel=0 note=73 velocity=58 time=161\n",
      "192203 note_on channel=0 note=79 velocity=56 time=12\n",
      "192204 note_off channel=0 note=81 velocity=0 time=1\n",
      "192216 note_off channel=0 note=79 velocity=0 time=12\n",
      "192232 note_off channel=0 note=73 velocity=0 time=16\n",
      "192244 note_on channel=0 note=81 velocity=80 time=12\n",
      "192388 note_on channel=0 note=74 velocity=61 time=144\n",
      "192390 note_on channel=0 note=78 velocity=59 time=2\n",
      "192398 note_off channel=0 note=81 velocity=0 time=8\n",
      "192411 note_off channel=0 note=74 velocity=0 time=13\n",
      "192421 note_off channel=0 note=78 velocity=0 time=10\n",
      "192431 note_on channel=0 note=81 velocity=88 time=10\n",
      "192558 note_on channel=0 note=79 velocity=67 time=127\n",
      "192561 note_on channel=0 note=73 velocity=68 time=3\n",
      "192568 note_off channel=0 note=81 velocity=0 time=7\n",
      "192577 note_off channel=0 note=79 velocity=0 time=9\n",
      "192585 note_off channel=0 note=73 velocity=0 time=8\n",
      "192594 note_on channel=0 note=78 velocity=55 time=9\n",
      "192746 note_on channel=0 note=81 velocity=82 time=152\n",
      "192753 note_on channel=0 note=74 velocity=51 time=7\n",
      "192756 note_off channel=0 note=81 velocity=0 time=3\n",
      "192795 note_on channel=0 note=83 velocity=83 time=39\n",
      "192839 note_off channel=0 note=83 velocity=0 time=44\n",
      "192873 note_off channel=0 note=74 velocity=0 time=34\n",
      "192895 note_off channel=0 note=78 velocity=0 time=22\n",
      "192899 note_on channel=0 note=85 velocity=80 time=4\n",
      "192924 note_off channel=0 note=85 velocity=0 time=25\n",
      "192961 note_on channel=0 note=86 velocity=87 time=37\n",
      "193014 note_off channel=0 note=86 velocity=0 time=53\n",
      "193035 note_on channel=0 note=78 velocity=91 time=21\n",
      "193127 note_off channel=0 note=78 velocity=0 time=92\n",
      "193276 note_on channel=0 note=78 velocity=86 time=149\n",
      "193313 note_on channel=0 note=76 velocity=58 time=37\n",
      "193321 note_on channel=0 note=70 velocity=62 time=8\n",
      "193322 note_off channel=0 note=78 velocity=0 time=1\n",
      "193337 note_off channel=0 note=76 velocity=0 time=15\n",
      "193357 note_off channel=0 note=70 velocity=0 time=20\n",
      "193428 note_on channel=0 note=78 velocity=80 time=71\n",
      "193503 note_on channel=0 note=71 velocity=51 time=75\n",
      "193511 note_on channel=0 note=74 velocity=60 time=8\n",
      "193512 note_off channel=0 note=78 velocity=0 time=1\n",
      "193526 note_off channel=0 note=71 velocity=0 time=14\n",
      "193550 note_off channel=0 note=74 velocity=0 time=24\n",
      "193555 note_on channel=0 note=78 velocity=76 time=5\n",
      "193681 note_on channel=0 note=76 velocity=55 time=126\n",
      "193693 note_off channel=0 note=78 velocity=0 time=12\n",
      "193706 note_on channel=0 note=70 velocity=46 time=13\n",
      "193707 note_off channel=0 note=76 velocity=0 time=1\n",
      "193713 note_off channel=0 note=70 velocity=0 time=6\n",
      "193733 note_on channel=0 note=71 velocity=44 time=20\n",
      "193891 note_on channel=0 note=74 velocity=53 time=158\n",
      "193894 note_on channel=0 note=78 velocity=57 time=3\n",
      "193897 note_off channel=0 note=78 velocity=0 time=3\n",
      "193920 note_off channel=0 note=74 velocity=0 time=23\n",
      "193944 note_off channel=0 note=71 velocity=0 time=24\n",
      "193956 note_on channel=0 note=80 velocity=62 time=12\n",
      "193983 note_off channel=0 note=80 velocity=0 time=27\n",
      "194008 note_on channel=0 note=82 velocity=70 time=25\n",
      "194064 note_off channel=0 note=82 velocity=0 time=56\n",
      "194092 note_on channel=0 note=83 velocity=61 time=28\n",
      "194145 note_off channel=0 note=83 velocity=0 time=53\n",
      "194163 note_on channel=0 note=74 velocity=68 time=18\n",
      "194260 note_on channel=0 note=66 velocity=49 time=97\n",
      "194480 note_on channel=0 note=69 velocity=48 time=220\n",
      "194481 note_off channel=0 note=66 velocity=0 time=1\n",
      "194510 note_off channel=0 note=69 velocity=0 time=29\n",
      "194514 note_off channel=0 note=74 velocity=0 time=4\n",
      "194517 note_on channel=0 note=78 velocity=61 time=3\n",
      "194578 note_off channel=0 note=78 velocity=0 time=61\n",
      "194640 note_on channel=0 note=76 velocity=55 time=62\n",
      "194664 note_on channel=0 note=67 velocity=55 time=24\n",
      "194861 note_on channel=0 note=71 velocity=49 time=197\n",
      "194864 note_off channel=0 note=71 velocity=0 time=3\n",
      "194894 note_off channel=0 note=67 velocity=0 time=30\n",
      "194899 note_off channel=0 note=76 velocity=0 time=5\n",
      "194911 note_on channel=0 note=79 velocity=51 time=12\n",
      "194957 note_off channel=0 note=79 velocity=0 time=46\n",
      "195024 note_on channel=0 note=73 velocity=56 time=67\n",
      "195046 note_on channel=0 note=67 velocity=43 time=22\n",
      "195268 note_on channel=0 note=57 velocity=37 time=222\n",
      "195273 note_off channel=0 note=67 velocity=0 time=5\n",
      "195301 note_off channel=0 note=57 velocity=0 time=28\n",
      "195307 note_off channel=0 note=73 velocity=0 time=6\n",
      "195369 note_on channel=0 note=76 velocity=50 time=62\n",
      "195377 note_off channel=0 note=76 velocity=0 time=8\n",
      "195478 note_on channel=0 note=74 velocity=50 time=101\n",
      "195488 note_on channel=0 note=42 velocity=53 time=10\n",
      "195703 note_on channel=0 note=54 velocity=50 time=215\n",
      "195707 note_off channel=0 note=42 velocity=0 time=4\n",
      "195733 note_off channel=0 note=54 velocity=0 time=26\n",
      "195734 note_on channel=0 note=55 velocity=57 time=1\n",
      "195906 note_on channel=0 note=43 velocity=48 time=172\n",
      "195914 note_off channel=0 note=55 velocity=0 time=8\n",
      "195931 note_off channel=0 note=43 velocity=0 time=17\n",
      "195945 note_on channel=0 note=57 velocity=46 time=14\n",
      "196129 note_on channel=0 note=45 velocity=55 time=184\n",
      "196130 note_off channel=0 note=74 velocity=0 time=1\n",
      "196138 note_off channel=0 note=45 velocity=0 time=8\n",
      "196158 note_on channel=0 note=50 velocity=32 time=20\n",
      "196158 note_off channel=0 note=57 velocity=0 time=0\n",
      "196464 note_on channel=0 note=38 velocity=42 time=306\n",
      "196712 note_off channel=0 note=38 velocity=0 time=248\n",
      "196788 note_off channel=0 note=50 velocity=0 time=76\n",
      "197266 note_on channel=0 note=76 velocity=66 time=478\n",
      "197281 note_on channel=0 note=57 velocity=42 time=15\n",
      "197291 note_on channel=0 note=61 velocity=31 time=10\n",
      "197294 note_on channel=0 note=69 velocity=44 time=3\n",
      "197419 note_off channel=0 note=69 velocity=0 time=125\n",
      "197434 note_off channel=0 note=61 velocity=0 time=15\n",
      "197437 note_off channel=0 note=76 velocity=0 time=3\n",
      "197448 note_off channel=0 note=57 velocity=0 time=11\n",
      "197555 note_on channel=0 note=76 velocity=78 time=107\n",
      "197571 note_on channel=0 note=57 velocity=48 time=16\n",
      "197581 note_on channel=0 note=61 velocity=43 time=10\n",
      "197586 note_on channel=0 note=69 velocity=52 time=5\n",
      "197639 note_off channel=0 note=57 velocity=0 time=53\n",
      "197669 note_off channel=0 note=61 velocity=0 time=30\n",
      "197673 note_off channel=0 note=69 velocity=0 time=4\n",
      "197684 note_off channel=0 note=76 velocity=0 time=11\n",
      "197776 note_on channel=0 note=76 velocity=85 time=92\n",
      "197791 note_on channel=0 note=61 velocity=57 time=15\n",
      "197792 note_on channel=0 note=57 velocity=51 time=1\n",
      "197798 note_on channel=0 note=69 velocity=58 time=6\n",
      "197836 note_off channel=0 note=57 velocity=0 time=38\n",
      "197842 note_off channel=0 note=61 velocity=0 time=6\n",
      "197866 note_off channel=0 note=69 velocity=0 time=24\n",
      "197898 note_off channel=0 note=76 velocity=0 time=32\n",
      "197974 note_on channel=0 note=76 velocity=83 time=76\n",
      "197979 note_on channel=0 note=61 velocity=50 time=5\n",
      "197989 note_on channel=0 note=57 velocity=51 time=10\n",
      "197994 note_on channel=0 note=69 velocity=68 time=5\n",
      "198020 note_off channel=0 note=57 velocity=0 time=26\n",
      "198065 note_off channel=0 note=61 velocity=0 time=45\n",
      "198096 note_off channel=0 note=76 velocity=0 time=31\n",
      "198107 note_off channel=0 note=69 velocity=0 time=11\n",
      "198186 note_on channel=0 note=77 velocity=87 time=79\n",
      "198195 note_on channel=0 note=69 velocity=60 time=9\n",
      "198201 note_on channel=0 note=57 velocity=53 time=6\n",
      "198201 note_on channel=0 note=62 velocity=55 time=0\n",
      "198277 note_off channel=0 note=57 velocity=0 time=76\n",
      "198308 note_off channel=0 note=69 velocity=0 time=31\n",
      "198323 note_off channel=0 note=77 velocity=0 time=15\n",
      "198339 note_off channel=0 note=62 velocity=0 time=16\n",
      "198369 note_on channel=0 note=78 velocity=85 time=30\n",
      "198391 note_on channel=0 note=63 velocity=60 time=22\n",
      "198407 note_on channel=0 note=57 velocity=40 time=16\n",
      "198453 note_off channel=0 note=57 velocity=0 time=46\n",
      "198498 note_off channel=0 note=63 velocity=0 time=45\n",
      "198559 note_off channel=0 note=78 velocity=0 time=61\n",
      "198680 note_on channel=0 note=79 velocity=61 time=121\n",
      "198688 note_on channel=0 note=69 velocity=44 time=8\n",
      "198697 note_on channel=0 note=57 velocity=32 time=9\n",
      "198702 note_on channel=0 note=64 velocity=35 time=5\n",
      "198891 note_off channel=0 note=79 velocity=0 time=189\n",
      "199279 note_off channel=0 note=64 velocity=0 time=388\n",
      "199309 note_on channel=0 note=78 velocity=50 time=30\n",
      "199317 note_off channel=0 note=69 velocity=0 time=8\n",
      "199324 note_on channel=0 note=66 velocity=39 time=7\n",
      "199370 note_on channel=0 note=76 velocity=47 time=46\n",
      "199386 note_off channel=0 note=78 velocity=0 time=16\n",
      "199400 note_off channel=0 note=76 velocity=0 time=14\n",
      "199430 note_on channel=0 note=74 velocity=60 time=30\n",
      "199447 note_off channel=0 note=66 velocity=0 time=17\n",
      "199471 note_on channel=0 note=67 velocity=46 time=24\n",
      "199499 note_off channel=0 note=74 velocity=0 time=28\n",
      "199530 note_on channel=0 note=73 velocity=54 time=31\n",
      "199676 note_off channel=0 note=57 velocity=0 time=146\n",
      "199691 note_off channel=0 note=73 velocity=0 time=15\n",
      "199813 note_off channel=0 note=67 velocity=0 time=122\n",
      "200063 note_on channel=0 note=78 velocity=73 time=250\n",
      "200078 note_on channel=0 note=62 velocity=40 time=15\n",
      "200088 note_on channel=0 note=74 velocity=46 time=10\n",
      "200184 note_off channel=0 note=62 velocity=0 time=96\n",
      "200215 note_off channel=0 note=74 velocity=0 time=31\n",
      "200221 note_off channel=0 note=78 velocity=0 time=6\n",
      "200321 note_on channel=0 note=78 velocity=84 time=100\n",
      "200340 note_on channel=0 note=62 velocity=53 time=19\n",
      "200342 note_on channel=0 note=74 velocity=59 time=2\n",
      "200400 note_off channel=0 note=62 velocity=0 time=58\n",
      "200430 note_off channel=0 note=74 velocity=0 time=30\n",
      "200461 note_off channel=0 note=78 velocity=0 time=31\n",
      "200507 note_on channel=0 note=62 velocity=58 time=46\n",
      "200538 note_on channel=0 note=78 velocity=86 time=31\n",
      "200544 note_on channel=0 note=74 velocity=71 time=6\n",
      "200552 note_off channel=0 note=62 velocity=0 time=8\n",
      "200613 note_off channel=0 note=74 velocity=0 time=61\n",
      "200643 note_off channel=0 note=78 velocity=0 time=30\n",
      "200728 note_on channel=0 note=62 velocity=61 time=85\n",
      "200728 note_on channel=0 note=78 velocity=85 time=0\n",
      "200742 note_on channel=0 note=74 velocity=70 time=14\n",
      "200757 note_off channel=0 note=62 velocity=0 time=15\n",
      "200782 note_off channel=0 note=74 velocity=0 time=25\n",
      "200849 note_off channel=0 note=78 velocity=0 time=67\n",
      "200924 note_on channel=0 note=79 velocity=80 time=75\n",
      "200926 note_on channel=0 note=62 velocity=44 time=2\n",
      "200932 note_on channel=0 note=64 velocity=64 time=6\n",
      "200940 note_on channel=0 note=74 velocity=63 time=8\n",
      "200985 note_off channel=0 note=62 velocity=0 time=45\n",
      "201015 note_off channel=0 note=64 velocity=0 time=30\n",
      "201015 note_off channel=0 note=74 velocity=0 time=0\n",
      "201030 note_off channel=0 note=79 velocity=0 time=15\n",
      "201106 note_on channel=0 note=80 velocity=88 time=76\n",
      "201107 note_on channel=0 note=65 velocity=62 time=1\n",
      "201121 note_on channel=0 note=62 velocity=46 time=14\n",
      "201122 note_on channel=0 note=74 velocity=67 time=1\n",
      "201152 note_off channel=0 note=62 velocity=0 time=30\n",
      "201168 note_off channel=0 note=65 velocity=0 time=16\n",
      "201243 note_off channel=0 note=74 velocity=0 time=75\n",
      "201244 note_off channel=0 note=80 velocity=0 time=1\n",
      "201382 note_on channel=0 note=81 velocity=75 time=138\n",
      "201397 note_on channel=0 note=66 velocity=44 time=15\n",
      "201412 note_on channel=0 note=74 velocity=48 time=15\n",
      "201428 note_on channel=0 note=62 velocity=32 time=16\n",
      "201725 note_off channel=0 note=66 velocity=0 time=297\n",
      "201815 note_off channel=0 note=74 velocity=0 time=90\n",
      "201861 note_off channel=0 note=81 velocity=0 time=46\n",
      "201891 note_on channel=0 note=79 velocity=62 time=30\n",
      "201906 note_on channel=0 note=67 velocity=47 time=15\n",
      "201937 note_off channel=0 note=67 velocity=0 time=31\n",
      "201941 note_off channel=0 note=79 velocity=0 time=4\n",
      "201952 note_on channel=0 note=78 velocity=71 time=11\n",
      "201968 note_on channel=0 note=69 velocity=34 time=16\n",
      "201999 note_off channel=0 note=69 velocity=0 time=31\n",
      "202011 note_off channel=0 note=78 velocity=0 time=12\n",
      "202025 note_on channel=0 note=76 velocity=69 time=14\n",
      "202030 note_on channel=0 note=67 velocity=56 time=5\n",
      "202034 note_off channel=0 note=62 velocity=0 time=4\n",
      "202086 note_off channel=0 note=67 velocity=0 time=52\n",
      "202087 note_off channel=0 note=76 velocity=0 time=1\n",
      "202097 note_on channel=0 note=74 velocity=77 time=10\n",
      "202109 note_on channel=0 note=66 velocity=58 time=12\n",
      "202196 note_off channel=0 note=74 velocity=0 time=87\n",
      "202295 note_off channel=0 note=66 velocity=0 time=99\n",
      "202326 note_on channel=0 note=86 velocity=78 time=31\n",
      "202341 note_on channel=0 note=83 velocity=66 time=15\n",
      "202462 note_off channel=0 note=83 velocity=0 time=121\n",
      "202538 note_on channel=0 note=85 velocity=83 time=76\n",
      "202540 note_on channel=0 note=81 velocity=76 time=2\n",
      "202599 note_off channel=0 note=86 velocity=0 time=59\n",
      "202674 note_off channel=0 note=81 velocity=0 time=75\n",
      "202705 note_on channel=0 note=83 velocity=81 time=31\n",
      "202720 note_on channel=0 note=79 velocity=71 time=15\n",
      "202726 note_on channel=0 note=61 velocity=50 time=6\n",
      "202729 note_off channel=0 note=85 velocity=0 time=3\n",
      "202735 note_off channel=0 note=79 velocity=0 time=6\n",
      "202919 note_on channel=0 note=81 velocity=74 time=184\n",
      "202923 note_on channel=0 note=62 velocity=50 time=4\n",
      "202928 note_on channel=0 note=78 velocity=67 time=5\n",
      "202934 note_off channel=0 note=61 velocity=0 time=6\n",
      "202934 note_off channel=0 note=83 velocity=0 time=0\n",
      "203093 note_off channel=0 note=62 velocity=0 time=159\n",
      "203124 note_on channel=0 note=64 velocity=67 time=31\n",
      "203246 note_off channel=0 note=81 velocity=0 time=122\n",
      "203260 note_off channel=0 note=78 velocity=0 time=14\n",
      "203306 note_on channel=0 note=66 velocity=69 time=46\n",
      "203313 note_off channel=0 note=64 velocity=0 time=7\n",
      "203459 note_off channel=0 note=66 velocity=0 time=146\n",
      "203504 note_on channel=0 note=86 velocity=72 time=45\n",
      "203511 note_on channel=0 note=83 velocity=63 time=7\n",
      "203703 note_off channel=0 note=83 velocity=0 time=192\n",
      "203717 note_on channel=0 note=81 velocity=63 time=14\n",
      "203729 note_on channel=0 note=85 velocity=61 time=12\n",
      "203802 note_off channel=0 note=86 velocity=0 time=73\n",
      "203893 note_off channel=0 note=81 velocity=0 time=91\n",
      "203908 note_on channel=0 note=83 velocity=66 time=15\n",
      "203923 note_on channel=0 note=73 velocity=47 time=15\n",
      "203933 note_on channel=0 note=79 velocity=51 time=10\n",
      "203953 note_off channel=0 note=85 velocity=0 time=20\n",
      "203969 note_off channel=0 note=79 velocity=0 time=16\n",
      "204120 note_off channel=0 note=73 velocity=0 time=151\n",
      "204129 note_on channel=0 note=81 velocity=57 time=9\n",
      "204135 note_on channel=0 note=78 velocity=45 time=6\n",
      "204138 note_off channel=0 note=83 velocity=0 time=3\n",
      "204141 note_on channel=0 note=74 velocity=45 time=3\n",
      "204227 note_off channel=0 note=78 velocity=0 time=86\n",
      "204303 note_off channel=0 note=74 velocity=0 time=76\n",
      "204348 note_on channel=0 note=76 velocity=50 time=45\n",
      "204409 note_off channel=0 note=81 velocity=0 time=61\n",
      "204584 note_off channel=0 note=76 velocity=0 time=175\n",
      "204590 note_on channel=0 note=78 velocity=55 time=6\n",
      "204782 note_on channel=0 note=83 velocity=66 time=192\n",
      "204792 note_on channel=0 note=75 velocity=45 time=10\n",
      "204809 note_off channel=0 note=78 velocity=0 time=17\n",
      "204949 note_off channel=0 note=75 velocity=0 time=140\n",
      "204979 note_on channel=0 note=79 velocity=72 time=30\n",
      "204985 note_on channel=0 note=76 velocity=50 time=6\n",
      "204988 note_off channel=0 note=83 velocity=0 time=3\n",
      "205147 note_off channel=0 note=76 velocity=0 time=159\n",
      "205155 note_on channel=0 note=81 velocity=77 time=8\n",
      "205172 note_on channel=0 note=73 velocity=50 time=17\n",
      "205187 note_off channel=0 note=79 velocity=0 time=15\n",
      "205204 note_off channel=0 note=73 velocity=0 time=17\n",
      "205334 note_on channel=0 note=74 velocity=58 time=130\n",
      "205367 note_on channel=0 note=78 velocity=81 time=33\n",
      "205368 note_off channel=0 note=81 velocity=0 time=1\n",
      "205396 note_off channel=0 note=78 velocity=0 time=28\n",
      "205496 note_off channel=0 note=74 velocity=0 time=100\n",
      "205506 note_on channel=0 note=79 velocity=75 time=10\n",
      "205544 note_on channel=0 note=71 velocity=32 time=38\n",
      "205655 note_off channel=0 note=79 velocity=0 time=111\n",
      "205716 note_on channel=0 note=81 velocity=72 time=61\n",
      "205743 note_off channel=0 note=71 velocity=0 time=27\n",
      "205747 note_on channel=0 note=74 velocity=48 time=4\n",
      "205762 note_on channel=0 note=66 velocity=37 time=15\n",
      "205808 note_off channel=0 note=74 velocity=0 time=46\n",
      "205823 note_off channel=0 note=81 velocity=0 time=15\n",
      "205839 note_off channel=0 note=66 velocity=0 time=16\n",
      "205944 note_on channel=0 note=83 velocity=69 time=105\n",
      "205960 note_on channel=0 note=68 velocity=45 time=16\n",
      "205981 note_on channel=0 note=74 velocity=42 time=21\n",
      "206074 note_off channel=0 note=68 velocity=0 time=93\n",
      "206089 note_off channel=0 note=74 velocity=0 time=15\n",
      "206097 note_off channel=0 note=83 velocity=0 time=8\n",
      "206317 note_on channel=0 note=78 velocity=58 time=220\n",
      "206348 note_on channel=0 note=69 velocity=28 time=31\n",
      "206348 note_on channel=0 note=74 velocity=39 time=0\n",
      "206683 note_off channel=0 note=78 velocity=0 time=335\n",
      "206759 note_on channel=0 note=79 velocity=46 time=76\n",
      "206820 note_on channel=0 note=78 velocity=57 time=61\n",
      "206820 note_off channel=0 note=79 velocity=0 time=0\n",
      "206872 note_off channel=0 note=78 velocity=0 time=52\n",
      "206904 note_on channel=0 note=76 velocity=56 time=32\n",
      "206921 note_off channel=0 note=74 velocity=0 time=17\n",
      "206930 note_on channel=0 note=73 velocity=26 time=9\n",
      "207087 note_on channel=0 note=78 velocity=65 time=157\n",
      "207116 note_off channel=0 note=76 velocity=0 time=29\n",
      "207239 note_off channel=0 note=78 velocity=0 time=123\n",
      "207269 note_on channel=0 note=79 velocity=57 time=30\n",
      "207272 note_off channel=0 note=69 velocity=0 time=3\n",
      "207295 note_off channel=0 note=73 velocity=0 time=23\n",
      "207314 note_off channel=0 note=79 velocity=0 time=19\n",
      "207466 note_on channel=0 note=80 velocity=53 time=152\n",
      "207472 note_off channel=0 note=80 velocity=0 time=6\n",
      "207656 note_on channel=0 note=81 velocity=65 time=184\n",
      "207686 note_off channel=0 note=81 velocity=0 time=30\n",
      "207694 note_on channel=0 note=81 velocity=46 time=8\n",
      "207897 note_off channel=0 note=81 velocity=0 time=203\n",
      "207925 note_on channel=0 note=81 velocity=68 time=28\n",
      "208089 note_off channel=0 note=81 velocity=0 time=164\n",
      "208106 note_on channel=0 note=81 velocity=69 time=17\n",
      "208262 note_on channel=0 note=79 velocity=54 time=156\n",
      "208272 note_on channel=0 note=73 velocity=46 time=10\n",
      "208279 note_off channel=0 note=81 velocity=0 time=7\n",
      "208287 note_off channel=0 note=79 velocity=0 time=8\n",
      "208304 note_off channel=0 note=73 velocity=0 time=17\n",
      "208311 note_on channel=0 note=78 velocity=51 time=7\n",
      "208479 note_on channel=0 note=74 velocity=47 time=168\n",
      "208485 note_on channel=0 note=81 velocity=63 time=6\n",
      "208488 note_off channel=0 note=81 velocity=0 time=3\n",
      "208509 note_on channel=0 note=83 velocity=73 time=21\n",
      "208527 note_off channel=0 note=83 velocity=0 time=18\n",
      "208560 note_on channel=0 note=81 velocity=78 time=33\n",
      "208578 note_off channel=0 note=81 velocity=0 time=18\n",
      "208605 note_on channel=0 note=80 velocity=79 time=27\n",
      "208623 note_off channel=0 note=74 velocity=0 time=18\n",
      "208641 note_off channel=0 note=78 velocity=0 time=18\n",
      "208653 note_off channel=0 note=80 velocity=0 time=12\n",
      "208710 note_on channel=0 note=86 velocity=83 time=57\n",
      "208715 note_off channel=0 note=86 velocity=0 time=5\n",
      "208741 note_on channel=0 note=78 velocity=70 time=26\n",
      "208925 note_off channel=0 note=78 velocity=0 time=184\n",
      "208943 note_on channel=0 note=78 velocity=64 time=18\n",
      "209113 note_off channel=0 note=78 velocity=0 time=170\n",
      "209142 note_on channel=0 note=78 velocity=64 time=29\n",
      "209314 note_off channel=0 note=78 velocity=0 time=172\n",
      "209336 note_on channel=0 note=78 velocity=68 time=22\n",
      "209473 note_on channel=0 note=70 velocity=47 time=137\n",
      "209479 note_on channel=0 note=76 velocity=46 time=6\n",
      "209483 note_off channel=0 note=78 velocity=0 time=4\n",
      "209504 note_off channel=0 note=70 velocity=0 time=21\n",
      "209513 note_off channel=0 note=76 velocity=0 time=9\n",
      "209521 note_on channel=0 note=78 velocity=46 time=8\n",
      "209626 note_on channel=0 note=74 velocity=57 time=105\n",
      "209652 note_off channel=0 note=78 velocity=0 time=26\n",
      "209661 note_on channel=0 note=71 velocity=45 time=9\n",
      "209670 note_on channel=0 note=79 velocity=51 time=9\n",
      "209675 note_off channel=0 note=79 velocity=0 time=5\n",
      "209700 note_on channel=0 note=78 velocity=79 time=25\n",
      "209707 note_off channel=0 note=78 velocity=0 time=7\n",
      "209734 note_on channel=0 note=77 velocity=53 time=27\n",
      "209745 note_on channel=0 note=78 velocity=72 time=11\n",
      "209787 note_off channel=0 note=77 velocity=0 time=42\n",
      "209803 note_off channel=0 note=74 velocity=0 time=16\n",
      "209807 note_off channel=0 note=71 velocity=0 time=4\n",
      "209814 note_on channel=0 note=83 velocity=70 time=7\n",
      "209834 note_off channel=0 note=78 velocity=0 time=20\n",
      "209840 note_off channel=0 note=83 velocity=0 time=6\n",
      "209861 note_on channel=0 note=74 velocity=73 time=21\n",
      "210046 note_off channel=0 note=74 velocity=0 time=185\n",
      "210063 note_on channel=0 note=66 velocity=51 time=17\n",
      "210231 note_on channel=0 note=69 velocity=52 time=168\n",
      "210233 note_off channel=0 note=66 velocity=0 time=2\n",
      "210256 note_off channel=0 note=69 velocity=0 time=23\n",
      "210258 note_on channel=0 note=75 velocity=68 time=2\n",
      "210423 note_on channel=0 note=76 velocity=78 time=165\n",
      "210447 note_off channel=0 note=75 velocity=0 time=24\n",
      "210452 note_off channel=0 note=76 velocity=0 time=5\n",
      "210469 note_on channel=0 note=67 velocity=51 time=17\n",
      "210639 note_on channel=0 note=71 velocity=47 time=170\n",
      "210641 note_off channel=0 note=71 velocity=0 time=2\n",
      "210663 note_off channel=0 note=67 velocity=0 time=22\n",
      "210664 note_on channel=0 note=78 velocity=73 time=1\n",
      "210799 note_off channel=0 note=78 velocity=0 time=135\n",
      "210825 note_on channel=0 note=79 velocity=63 time=26\n",
      "210835 note_off channel=0 note=79 velocity=0 time=10\n",
      "210855 note_on channel=0 note=73 velocity=58 time=20\n",
      "211008 note_on channel=0 note=69 velocity=48 time=153\n",
      "211015 note_off channel=0 note=73 velocity=0 time=7\n",
      "211035 note_off channel=0 note=69 velocity=0 time=20\n",
      "211042 note_on channel=0 note=78 velocity=61 time=7\n",
      "211202 note_on channel=0 note=62 velocity=51 time=160\n",
      "211206 note_off channel=0 note=78 velocity=0 time=4\n",
      "211222 note_on channel=0 note=74 velocity=61 time=16\n",
      "211415 note_off channel=0 note=74 velocity=0 time=193\n",
      "211453 note_on channel=0 note=76 velocity=57 time=38\n",
      "211507 note_off channel=0 note=76 velocity=0 time=54\n",
      "211529 note_on channel=0 note=76 velocity=73 time=22\n",
      "211604 note_off channel=0 note=76 velocity=0 time=75\n",
      "211635 note_off channel=0 note=62 velocity=0 time=31\n",
      "211691 note_on channel=0 note=78 velocity=75 time=56\n",
      "211693 note_off channel=0 note=78 velocity=0 time=2\n",
      "211715 note_on channel=0 note=78 velocity=66 time=22\n",
      "211774 note_off channel=0 note=78 velocity=0 time=59\n",
      "211810 note_on channel=0 note=79 velocity=66 time=36\n",
      "211855 note_off channel=0 note=79 velocity=0 time=45\n",
      "211879 note_on channel=0 note=79 velocity=70 time=24\n",
      "211947 note_off channel=0 note=79 velocity=0 time=68\n",
      "211980 note_on channel=0 note=81 velocity=70 time=33\n",
      "212020 note_off channel=0 note=81 velocity=0 time=40\n",
      "212046 note_on channel=0 note=81 velocity=67 time=26\n",
      "212109 note_off channel=0 note=81 velocity=0 time=63\n",
      "212143 note_on channel=0 note=83 velocity=64 time=34\n",
      "212185 note_off channel=0 note=83 velocity=0 time=42\n",
      "212219 note_on channel=0 note=81 velocity=75 time=34\n",
      "212283 note_off channel=0 note=81 velocity=0 time=64\n",
      "212308 note_on channel=0 note=81 velocity=63 time=25\n",
      "212467 note_on channel=0 note=79 velocity=56 time=159\n",
      "212470 note_on channel=0 note=73 velocity=52 time=3\n",
      "212479 note_off channel=0 note=81 velocity=0 time=9\n",
      "212486 note_off channel=0 note=79 velocity=0 time=7\n",
      "212493 note_off channel=0 note=73 velocity=0 time=7\n",
      "212504 note_on channel=0 note=81 velocity=76 time=11\n",
      "212641 note_on channel=0 note=74 velocity=54 time=137\n",
      "212649 note_on channel=0 note=78 velocity=55 time=8\n",
      "212658 note_off channel=0 note=81 velocity=0 time=9\n",
      "212665 note_off channel=0 note=74 velocity=0 time=7\n",
      "212689 note_off channel=0 note=78 velocity=0 time=24\n",
      "212809 note_on channel=0 note=81 velocity=81 time=120\n",
      "212813 note_on channel=0 note=79 velocity=51 time=4\n",
      "212823 note_on channel=0 note=73 velocity=51 time=10\n",
      "212830 note_off channel=0 note=81 velocity=0 time=7\n",
      "212838 note_off channel=0 note=79 velocity=0 time=8\n",
      "212847 note_off channel=0 note=73 velocity=0 time=9\n",
      "212998 note_on channel=0 note=74 velocity=59 time=151\n",
      "213001 note_on channel=0 note=81 velocity=74 time=3\n",
      "213002 note_on channel=0 note=78 velocity=56 time=1\n",
      "213014 note_off channel=0 note=81 velocity=0 time=12\n",
      "213036 note_off channel=0 note=74 velocity=0 time=22\n",
      "213043 note_off channel=0 note=78 velocity=0 time=7\n",
      "213090 note_on channel=0 note=83 velocity=72 time=47\n",
      "213094 note_off channel=0 note=83 velocity=0 time=4\n",
      "213150 note_on channel=0 note=85 velocity=71 time=56\n",
      "213195 note_off channel=0 note=85 velocity=0 time=45\n",
      "213240 note_on channel=0 note=86 velocity=76 time=45\n",
      "213271 note_off channel=0 note=86 velocity=0 time=31\n",
      "213348 note_on channel=0 note=78 velocity=81 time=77\n",
      "213363 note_off channel=0 note=78 velocity=0 time=15\n",
      "213532 note_on channel=0 note=76 velocity=53 time=169\n",
      "213548 note_on channel=0 note=78 velocity=76 time=16\n",
      "213552 note_on channel=0 note=70 velocity=59 time=4\n",
      "213561 note_off channel=0 note=78 velocity=0 time=9\n",
      "213577 note_off channel=0 note=70 velocity=0 time=16\n",
      "213577 note_off channel=0 note=76 velocity=0 time=0\n",
      "213714 note_on channel=0 note=78 velocity=85 time=137\n",
      "213727 note_on channel=0 note=71 velocity=49 time=13\n",
      "213734 note_on channel=0 note=74 velocity=59 time=7\n",
      "213751 note_off channel=0 note=78 velocity=0 time=17\n",
      "213767 note_off channel=0 note=74 velocity=0 time=16\n",
      "213776 note_off channel=0 note=71 velocity=0 time=9\n",
      "213859 note_on channel=0 note=78 velocity=62 time=83\n",
      "213898 note_on channel=0 note=76 velocity=52 time=39\n",
      "213913 note_on channel=0 note=70 velocity=58 time=15\n",
      "213918 note_off channel=0 note=78 velocity=0 time=5\n",
      "213920 note_off channel=0 note=76 velocity=0 time=2\n",
      "213937 note_off channel=0 note=70 velocity=0 time=17\n",
      "213953 note_on channel=0 note=71 velocity=49 time=16\n",
      "214088 note_on channel=0 note=74 velocity=54 time=135\n",
      "214092 note_on channel=0 note=78 velocity=70 time=4\n",
      "214100 note_off channel=0 note=71 velocity=0 time=8\n",
      "214116 note_off channel=0 note=74 velocity=0 time=16\n",
      "214121 note_off channel=0 note=78 velocity=0 time=5\n",
      "214121 note_on channel=0 note=80 velocity=49 time=0\n",
      "214192 note_off channel=0 note=80 velocity=0 time=71\n",
      "214216 note_on channel=0 note=82 velocity=71 time=24\n",
      "214254 note_off channel=0 note=82 velocity=0 time=38\n",
      "214280 note_on channel=0 note=83 velocity=68 time=26\n",
      "214347 note_off channel=0 note=83 velocity=0 time=67\n",
      "214374 note_on channel=0 note=74 velocity=70 time=27\n",
      "214447 note_on channel=0 note=69 velocity=56 time=73\n",
      "214654 note_on channel=0 note=66 velocity=49 time=207\n",
      "214657 note_off channel=0 note=69 velocity=0 time=3\n",
      "214681 note_off channel=0 note=66 velocity=0 time=24\n",
      "214683 note_off channel=0 note=74 velocity=0 time=2\n",
      "214694 note_on channel=0 note=78 velocity=82 time=11\n",
      "214745 note_off channel=0 note=78 velocity=0 time=51\n",
      "214773 note_on channel=0 note=76 velocity=67 time=28\n",
      "214846 note_on channel=0 note=67 velocity=57 time=73\n",
      "215047 note_on channel=0 note=71 velocity=46 time=201\n",
      "215048 note_off channel=0 note=71 velocity=0 time=1\n",
      "215070 note_off channel=0 note=76 velocity=0 time=22\n",
      "215074 note_off channel=0 note=67 velocity=0 time=4\n",
      "215078 note_on channel=0 note=79 velocity=62 time=4\n",
      "215140 note_off channel=0 note=79 velocity=0 time=62\n",
      "215167 note_on channel=0 note=73 velocity=60 time=27\n",
      "215237 note_on channel=0 note=57 velocity=40 time=70\n",
      "215451 note_on channel=0 note=67 velocity=37 time=214\n",
      "215452 note_off channel=0 note=57 velocity=0 time=1\n",
      "215484 note_off channel=0 note=67 velocity=0 time=32\n",
      "215489 note_off channel=0 note=73 velocity=0 time=5\n",
      "215530 note_on channel=0 note=76 velocity=53 time=41\n",
      "215549 note_off channel=0 note=76 velocity=0 time=19\n",
      "215655 note_on channel=0 note=74 velocity=59 time=106\n",
      "215664 note_on channel=0 note=42 velocity=72 time=9\n",
      "215867 note_on channel=0 note=54 velocity=65 time=203\n",
      "215868 note_off channel=0 note=54 velocity=0 time=1\n",
      "215894 note_off channel=0 note=42 velocity=0 time=26\n",
      "215895 note_on channel=0 note=43 velocity=52 time=1\n",
      "216131 note_on channel=0 note=55 velocity=57 time=236\n",
      "216132 note_off channel=0 note=55 velocity=0 time=1\n",
      "216157 note_off channel=0 note=43 velocity=0 time=25\n",
      "216160 note_off channel=0 note=74 velocity=0 time=3\n",
      "216377 note_on channel=0 note=45 velocity=63 time=217\n",
      "216380 note_off channel=0 note=45 velocity=0 time=3\n",
      "216410 note_on channel=0 note=50 velocity=36 time=30\n",
      "216740 note_on channel=0 note=38 velocity=38 time=330\n",
      "216977 note_off channel=0 note=38 velocity=0 time=237\n",
      "217011 note_off channel=0 note=50 velocity=0 time=34\n",
      "218248 note_on channel=0 note=81 velocity=61 time=1237\n",
      "218468 note_off channel=0 note=81 velocity=0 time=220\n",
      "218757 note_on channel=0 note=81 velocity=57 time=289\n",
      "218803 note_on channel=0 note=62 velocity=32 time=46\n",
      "218823 note_on channel=0 note=65 velocity=24 time=20\n",
      "218826 note_on channel=0 note=69 velocity=23 time=3\n",
      "218849 note_off channel=0 note=81 velocity=0 time=23\n",
      "218970 note_off channel=0 note=69 velocity=0 time=121\n",
      "218976 note_off channel=0 note=65 velocity=0 time=6\n",
      "218985 note_off channel=0 note=62 velocity=0 time=9\n",
      "219296 note_on channel=0 note=62 velocity=31 time=311\n",
      "219317 note_on channel=0 note=69 velocity=32 time=21\n",
      "219318 note_on channel=0 note=65 velocity=26 time=1\n",
      "219321 note_on channel=0 note=86 velocity=73 time=3\n",
      "219435 note_off channel=0 note=69 velocity=0 time=114\n",
      "219441 note_off channel=0 note=65 velocity=0 time=6\n",
      "219443 note_off channel=0 note=62 velocity=0 time=2\n",
      "219493 note_off channel=0 note=86 velocity=0 time=50\n",
      "219706 note_on channel=0 note=77 velocity=69 time=213\n",
      "220018 note_off channel=0 note=77 velocity=0 time=312\n",
      "220154 note_on channel=0 note=77 velocity=50 time=136\n",
      "220207 note_on channel=0 note=65 velocity=29 time=53\n",
      "220221 note_on channel=0 note=69 velocity=34 time=14\n",
      "220226 note_on channel=0 note=62 velocity=32 time=5\n",
      "220275 note_off channel=0 note=62 velocity=0 time=49\n",
      "220352 note_off channel=0 note=69 velocity=0 time=77\n",
      "220368 note_off channel=0 note=65 velocity=0 time=16\n",
      "220694 note_on channel=0 note=69 velocity=41 time=326\n",
      "220717 note_on channel=0 note=65 velocity=23 time=23\n",
      "220738 note_on channel=0 note=62 velocity=32 time=21\n",
      "220739 note_off channel=0 note=77 velocity=0 time=1\n",
      "220746 note_off channel=0 note=65 velocity=0 time=7\n",
      "220797 note_off channel=0 note=62 velocity=0 time=51\n",
      "220799 note_off channel=0 note=69 velocity=0 time=2\n",
      "220817 note_on channel=0 note=81 velocity=66 time=18\n",
      "221135 note_off channel=0 note=81 velocity=0 time=318\n",
      "221150 note_on channel=0 note=74 velocity=62 time=15\n",
      "221181 note_on channel=0 note=57 velocity=35 time=31\n",
      "221181 note_on channel=0 note=65 velocity=28 time=0\n",
      "221333 note_off channel=0 note=74 velocity=0 time=152\n",
      "221393 note_on channel=0 note=76 velocity=51 time=60\n",
      "221447 note_off channel=0 note=76 velocity=0 time=54\n",
      "221462 note_on channel=0 note=74 velocity=57 time=15\n",
      "221493 note_off channel=0 note=74 velocity=0 time=31\n",
      "221508 note_on channel=0 note=73 velocity=65 time=15\n",
      "221538 note_off channel=0 note=73 velocity=0 time=30\n",
      "221553 note_on channel=0 note=74 velocity=67 time=15\n",
      "221614 note_on channel=0 note=77 velocity=68 time=61\n",
      "221664 note_off channel=0 note=74 velocity=0 time=50\n",
      "221691 note_on channel=0 note=69 velocity=37 time=27\n",
      "221700 note_off channel=0 note=65 velocity=0 time=9\n",
      "221902 note_off channel=0 note=69 velocity=0 time=202\n",
      "222198 note_off channel=0 note=77 velocity=0 time=296\n",
      "222200 note_on channel=0 note=67 velocity=43 time=2\n",
      "222291 note_off channel=0 note=57 velocity=0 time=91\n",
      "222327 note_on channel=0 note=76 velocity=58 time=36\n",
      "222441 note_off channel=0 note=67 velocity=0 time=114\n",
      "222639 note_off channel=0 note=76 velocity=0 time=198\n",
      "222655 note_on channel=0 note=74 velocity=52 time=16\n",
      "222657 note_on channel=0 note=65 velocity=27 time=2\n",
      "222662 note_on channel=0 note=62 velocity=28 time=5\n",
      "222792 note_off channel=0 note=74 velocity=0 time=130\n",
      "222913 note_on channel=0 note=73 velocity=58 time=121\n",
      "222996 note_off channel=0 note=73 velocity=0 time=83\n",
      "223012 note_off channel=0 note=62 velocity=0 time=16\n",
      "223016 note_off channel=0 note=65 velocity=0 time=4\n",
      "223118 note_on channel=0 note=74 velocity=67 time=102\n",
      "223194 note_off channel=0 note=74 velocity=0 time=76\n",
      "223316 note_on channel=0 note=76 velocity=64 time=122\n",
      "223438 note_off channel=0 note=76 velocity=0 time=122\n",
      "223498 note_on channel=0 note=77 velocity=72 time=60\n",
      "223575 note_off channel=0 note=77 velocity=0 time=77\n",
      "223696 note_on channel=0 note=79 velocity=77 time=121\n",
      "223825 note_off channel=0 note=79 velocity=0 time=129\n",
      "223932 note_on channel=0 note=81 velocity=61 time=107\n",
      "223947 note_on channel=0 note=62 velocity=37 time=15\n",
      "224039 note_off channel=0 note=81 velocity=0 time=92\n",
      "224146 note_on channel=0 note=83 velocity=59 time=107\n",
      "224177 note_off channel=0 note=83 velocity=0 time=31\n",
      "224192 note_on channel=0 note=81 velocity=64 time=15\n",
      "224222 note_off channel=0 note=81 velocity=0 time=30\n",
      "224253 note_on channel=0 note=80 velocity=51 time=31\n",
      "224283 note_off channel=0 note=80 velocity=0 time=30\n",
      "224298 note_on channel=0 note=81 velocity=69 time=15\n",
      "224329 note_on channel=0 note=69 velocity=45 time=31\n",
      "224359 note_off channel=0 note=81 velocity=0 time=30\n",
      "224364 note_on channel=0 note=83 velocity=75 time=5\n",
      "224368 note_on channel=0 note=65 velocity=35 time=4\n",
      "224518 note_off channel=0 note=83 velocity=0 time=150\n",
      "224534 note_off channel=0 note=69 velocity=0 time=16\n",
      "224539 note_off channel=0 note=65 velocity=0 time=5\n",
      "224563 note_on channel=0 note=85 velocity=83 time=24\n",
      "224610 note_off channel=0 note=85 velocity=0 time=47\n",
      "224653 note_on channel=0 note=86 velocity=78 time=43\n",
      "224760 note_on channel=0 note=69 velocity=45 time=107\n",
      "224761 note_on channel=0 note=65 velocity=28 time=1\n",
      "224837 note_off channel=0 note=86 velocity=0 time=76\n",
      "224855 note_off channel=0 note=62 velocity=0 time=18\n",
      "224857 note_on channel=0 note=88 velocity=87 time=2\n",
      "224931 note_off channel=0 note=65 velocity=0 time=74\n",
      "224935 note_off channel=0 note=69 velocity=0 time=4\n",
      "225112 note_off channel=0 note=88 velocity=0 time=177\n",
      "225128 note_on channel=0 note=89 velocity=76 time=16\n",
      "225157 note_on channel=0 note=62 velocity=31 time=29\n",
      "225287 note_off channel=0 note=89 velocity=0 time=130\n",
      "225347 note_on channel=0 note=85 velocity=74 time=60\n",
      "225514 note_off channel=0 note=85 velocity=0 time=167\n",
      "225559 note_on channel=0 note=86 velocity=62 time=45\n",
      "225575 note_on channel=0 note=69 velocity=39 time=16\n",
      "225590 note_on channel=0 note=65 velocity=28 time=15\n",
      "225594 note_off channel=0 note=86 velocity=0 time=4\n",
      "225743 note_off channel=0 note=69 velocity=0 time=149\n",
      "225757 note_off channel=0 note=65 velocity=0 time=14\n",
      "225773 note_on channel=0 note=80 velocity=66 time=16\n",
      "225850 note_off channel=0 note=80 velocity=0 time=77\n",
      "225925 note_on channel=0 note=81 velocity=63 time=75\n",
      "225981 note_on channel=0 note=69 velocity=42 time=56\n",
      "226001 note_on channel=0 note=65 velocity=29 time=20\n",
      "226084 note_off channel=0 note=62 velocity=0 time=83\n",
      "226115 note_off channel=0 note=69 velocity=0 time=31\n",
      "226120 note_off channel=0 note=65 velocity=0 time=5\n",
      "226146 note_off channel=0 note=81 velocity=0 time=26\n",
      "226167 note_on channel=0 note=76 velocity=62 time=21\n",
      "226464 note_off channel=0 note=76 velocity=0 time=297\n",
      "226468 note_on channel=0 note=77 velocity=57 time=4\n",
      "226479 note_on channel=0 note=57 velocity=25 time=11\n",
      "226617 note_off channel=0 note=77 velocity=0 time=138\n",
      "226678 note_on channel=0 note=79 velocity=50 time=61\n",
      "226694 note_off channel=0 note=79 velocity=0 time=16\n",
      "226740 note_on channel=0 note=77 velocity=41 time=46\n",
      "226770 note_off channel=0 note=77 velocity=0 time=30\n",
      "226772 note_on channel=0 note=76 velocity=54 time=2\n",
      "226808 note_off channel=0 note=76 velocity=0 time=36\n",
      "226854 note_on channel=0 note=77 velocity=58 time=46\n",
      "226899 note_off channel=0 note=77 velocity=0 time=45\n",
      "226955 note_on channel=0 note=81 velocity=56 time=56\n",
      "226959 note_on channel=0 note=65 velocity=33 time=4\n",
      "226972 note_on channel=0 note=69 velocity=36 time=13\n",
      "227128 note_off channel=0 note=65 velocity=0 time=156\n",
      "227142 note_off channel=0 note=81 velocity=0 time=14\n",
      "227149 note_off channel=0 note=69 velocity=0 time=7\n",
      "227477 note_on channel=0 note=67 velocity=41 time=328\n",
      "227508 note_on channel=0 note=64 velocity=41 time=31\n",
      "227622 note_on channel=0 note=73 velocity=71 time=114\n",
      "227674 note_off channel=0 note=67 velocity=0 time=52\n",
      "227705 note_off channel=0 note=64 velocity=0 time=31\n",
      "227744 note_off channel=0 note=57 velocity=0 time=39\n",
      "227955 note_on channel=0 note=76 velocity=57 time=211\n",
      "227986 note_off channel=0 note=73 velocity=0 time=31\n",
      "227990 note_on channel=0 note=67 velocity=39 time=4\n",
      "228153 note_off channel=0 note=67 velocity=0 time=163\n",
      "228276 note_off channel=0 note=76 velocity=0 time=123\n",
      "228481 note_on channel=0 note=74 velocity=46 time=205\n",
      "228489 note_on channel=0 note=65 velocity=34 time=8\n",
      "228496 note_on channel=0 note=62 velocity=34 time=7\n",
      "228693 note_off channel=0 note=62 velocity=0 time=197\n",
      "228921 note_off channel=0 note=74 velocity=0 time=228\n",
      "228924 note_off channel=0 note=65 velocity=0 time=3\n",
      "229074 note_on channel=0 note=50 velocity=36 time=150\n",
      "229264 note_off channel=0 note=50 velocity=0 time=190\n",
      "229910 note_on channel=0 note=81 velocity=62 time=646\n",
      "230306 note_off channel=0 note=81 velocity=0 time=396\n",
      "230563 note_on channel=0 note=81 velocity=60 time=257\n",
      "230610 note_on channel=0 note=69 velocity=31 time=47\n",
      "230630 note_on channel=0 note=65 velocity=27 time=20\n",
      "230644 note_on channel=0 note=62 velocity=32 time=14\n",
      "230785 note_off channel=0 note=69 velocity=0 time=141\n",
      "230788 note_off channel=0 note=62 velocity=0 time=3\n",
      "230800 note_off channel=0 note=65 velocity=0 time=12\n",
      "231119 note_on channel=0 note=69 velocity=33 time=319\n",
      "231120 note_on channel=0 note=65 velocity=30 time=1\n",
      "231135 note_on channel=0 note=62 velocity=32 time=15\n",
      "231285 note_off channel=0 note=81 velocity=0 time=150\n",
      "231301 note_on channel=0 note=86 velocity=77 time=16\n",
      "231310 note_off channel=0 note=69 velocity=0 time=9\n",
      "231363 note_off channel=0 note=62 velocity=0 time=53\n",
      "231364 note_off channel=0 note=65 velocity=0 time=1\n",
      "231430 note_off channel=0 note=86 velocity=0 time=66\n",
      "231598 note_on channel=0 note=77 velocity=60 time=168\n",
      "231888 note_off channel=0 note=77 velocity=0 time=290\n",
      "232054 note_on channel=0 note=77 velocity=56 time=166\n",
      "232084 note_on channel=0 note=69 velocity=29 time=30\n",
      "232090 note_on channel=0 note=62 velocity=25 time=6\n",
      "232099 note_on channel=0 note=65 velocity=27 time=9\n",
      "232274 note_off channel=0 note=62 velocity=0 time=175\n",
      "232306 note_off channel=0 note=65 velocity=0 time=32\n",
      "232329 note_off channel=0 note=69 velocity=0 time=23\n",
      "232367 note_off channel=0 note=77 velocity=0 time=38\n",
      "232440 note_on channel=0 note=69 velocity=31 time=73\n",
      "232577 note_on channel=0 note=65 velocity=21 time=137\n",
      "232582 note_on channel=0 note=62 velocity=25 time=5\n",
      "232701 note_off channel=0 note=69 velocity=0 time=119\n",
      "232732 note_off channel=0 note=65 velocity=0 time=31\n",
      "232768 note_on channel=0 note=81 velocity=72 time=36\n",
      "232783 note_off channel=0 note=62 velocity=0 time=15\n",
      "232868 note_off channel=0 note=81 velocity=0 time=85\n",
      "233150 note_on channel=0 note=74 velocity=67 time=282\n",
      "233211 note_on channel=0 note=65 velocity=25 time=61\n",
      "233212 note_on channel=0 note=57 velocity=39 time=1\n",
      "233347 note_off channel=0 note=74 velocity=0 time=135\n",
      "233408 note_on channel=0 note=76 velocity=49 time=61\n",
      "233454 note_off channel=0 note=76 velocity=0 time=46\n",
      "233469 note_on channel=0 note=74 velocity=60 time=15\n",
      "233499 note_off channel=0 note=74 velocity=0 time=30\n",
      "233514 note_on channel=0 note=73 velocity=69 time=15\n",
      "233545 note_off channel=0 note=73 velocity=0 time=31\n",
      "233559 note_on channel=0 note=74 velocity=75 time=14\n",
      "233652 note_on channel=0 note=77 velocity=70 time=93\n",
      "233666 note_off channel=0 note=74 velocity=0 time=14\n",
      "233685 note_on channel=0 note=69 velocity=45 time=19\n",
      "233887 note_off channel=0 note=69 velocity=0 time=202\n",
      "233948 note_off channel=0 note=65 velocity=0 time=61\n",
      "234145 note_on channel=0 note=67 velocity=59 time=197\n",
      "234281 note_off channel=0 note=57 velocity=0 time=136\n",
      "234312 note_off channel=0 note=77 velocity=0 time=31\n",
      "234327 note_on channel=0 note=76 velocity=66 time=15\n",
      "234449 note_off channel=0 note=67 velocity=0 time=122\n",
      "234624 note_on channel=0 note=74 velocity=57 time=175\n",
      "234629 note_off channel=0 note=76 velocity=0 time=5\n",
      "234639 note_on channel=0 note=62 velocity=30 time=10\n",
      "234649 note_on channel=0 note=65 velocity=31 time=10\n",
      "234777 note_off channel=0 note=74 velocity=0 time=128\n",
      "234944 note_on channel=0 note=73 velocity=59 time=167\n",
      "234989 note_off channel=0 note=73 velocity=0 time=45\n",
      "235004 note_off channel=0 note=65 velocity=0 time=15\n",
      "235030 note_off channel=0 note=62 velocity=0 time=26\n",
      "235156 note_on channel=0 note=74 velocity=63 time=126\n",
      "235171 note_off channel=0 note=74 velocity=0 time=15\n",
      "235198 note_on channel=0 note=76 velocity=60 time=27\n",
      "235351 note_off channel=0 note=76 velocity=0 time=153\n",
      "235379 note_on channel=0 note=77 velocity=66 time=28\n",
      "235559 note_off channel=0 note=77 velocity=0 time=180\n",
      "235712 note_on channel=0 note=79 velocity=69 time=153\n",
      "235742 note_off channel=0 note=79 velocity=0 time=30\n",
      "235909 note_on channel=0 note=81 velocity=65 time=167\n",
      "235914 note_on channel=0 note=62 velocity=35 time=5\n",
      "236023 note_off channel=0 note=81 velocity=0 time=109\n",
      "236114 note_on channel=0 note=83 velocity=58 time=91\n",
      "236159 note_off channel=0 note=83 velocity=0 time=45\n",
      "236161 note_on channel=0 note=81 velocity=64 time=2\n",
      "236190 note_off channel=0 note=81 velocity=0 time=29\n",
      "236235 note_on channel=0 note=80 velocity=38 time=45\n",
      "236266 note_on channel=0 note=81 velocity=68 time=31\n",
      "236270 note_off channel=0 note=80 velocity=0 time=4\n",
      "236272 note_on channel=0 note=65 velocity=44 time=2\n",
      "236319 note_on channel=0 note=69 velocity=44 time=47\n",
      "236320 note_off channel=0 note=81 velocity=0 time=1\n",
      "236342 note_on channel=0 note=83 velocity=77 time=22\n",
      "236479 note_off channel=0 note=83 velocity=0 time=137\n",
      "236485 note_off channel=0 note=65 velocity=0 time=6\n",
      "236491 note_off channel=0 note=69 velocity=0 time=6\n",
      "236510 note_on channel=0 note=85 velocity=82 time=19\n",
      "236572 note_off channel=0 note=85 velocity=0 time=62\n",
      "236693 note_on channel=0 note=86 velocity=83 time=121\n",
      "236707 note_on channel=0 note=69 velocity=50 time=14\n",
      "236712 note_on channel=0 note=65 velocity=42 time=5\n",
      "236822 note_off channel=0 note=86 velocity=0 time=110\n",
      "236837 note_off channel=0 note=62 velocity=0 time=15\n",
      "236852 note_off channel=0 note=65 velocity=0 time=15\n",
      "236893 note_on channel=0 note=88 velocity=88 time=41\n",
      "236894 note_off channel=0 note=69 velocity=0 time=1\n",
      "236946 note_off channel=0 note=88 velocity=0 time=52\n",
      "237079 note_on channel=0 note=62 velocity=43 time=133\n",
      "237091 note_on channel=0 note=89 velocity=77 time=12\n",
      "237248 note_off channel=0 note=89 velocity=0 time=157\n",
      "237277 note_on channel=0 note=85 velocity=77 time=29\n",
      "237506 note_on channel=0 note=86 velocity=67 time=229\n",
      "237534 note_off channel=0 note=85 velocity=0 time=28\n",
      "237535 note_on channel=0 note=69 velocity=42 time=1\n",
      "237559 note_on channel=0 note=65 velocity=39 time=24\n",
      "237604 note_off channel=0 note=86 velocity=0 time=45\n",
      "237635 note_off channel=0 note=69 velocity=0 time=31\n",
      "237728 note_off channel=0 note=65 velocity=0 time=93\n",
      "237734 note_on channel=0 note=80 velocity=76 time=6\n",
      "237750 note_off channel=0 note=80 velocity=0 time=16\n",
      "237849 note_on channel=0 note=81 velocity=74 time=99\n",
      "237944 note_on channel=0 note=69 velocity=49 time=95\n",
      "237956 note_on channel=0 note=65 velocity=38 time=12\n",
      "237961 note_off channel=0 note=62 velocity=0 time=5\n",
      "238016 note_off channel=0 note=65 velocity=0 time=55\n",
      "238067 note_off channel=0 note=69 velocity=0 time=51\n",
      "238069 note_on channel=0 note=76 velocity=75 time=2\n",
      "238133 note_off channel=0 note=81 velocity=0 time=64\n",
      "238418 note_on channel=0 note=77 velocity=72 time=285\n",
      "238433 note_off channel=0 note=76 velocity=0 time=15\n",
      "238436 note_on channel=0 note=57 velocity=34 time=3\n",
      "238601 note_off channel=0 note=77 velocity=0 time=165\n",
      "238752 note_on channel=0 note=77 velocity=53 time=151\n",
      "238768 note_off channel=0 note=77 velocity=0 time=16\n",
      "238797 note_on channel=0 note=79 velocity=55 time=29\n",
      "238813 note_off channel=0 note=79 velocity=0 time=16\n",
      "238844 note_on channel=0 note=77 velocity=65 time=31\n",
      "238860 note_off channel=0 note=77 velocity=0 time=16\n",
      "238890 note_on channel=0 note=76 velocity=61 time=30\n",
      "238920 note_off channel=0 note=76 velocity=0 time=30\n",
      "238936 note_on channel=0 note=77 velocity=61 time=16\n",
      "238981 note_on channel=0 note=69 velocity=30 time=45\n",
      "239042 note_on channel=0 note=65 velocity=26 time=61\n",
      "239044 note_on channel=0 note=81 velocity=62 time=2\n",
      "239054 note_off channel=0 note=77 velocity=0 time=10\n",
      "239217 note_off channel=0 note=65 velocity=0 time=163\n",
      "239219 note_off channel=0 note=69 velocity=0 time=2\n",
      "239247 note_off channel=0 note=81 velocity=0 time=28\n",
      "239612 note_on channel=0 note=67 velocity=40 time=365\n",
      "239614 note_on channel=0 note=64 velocity=36 time=2\n",
      "239689 note_on channel=0 note=73 velocity=58 time=75\n",
      "239781 note_off channel=0 note=73 velocity=0 time=92\n",
      "239862 note_on channel=0 note=74 velocity=61 time=81\n",
      "239889 note_off channel=0 note=74 velocity=0 time=27\n",
      "239935 note_off channel=0 note=67 velocity=0 time=46\n",
      "239948 note_on channel=0 note=73 velocity=56 time=13\n",
      "239962 note_off channel=0 note=73 velocity=0 time=14\n",
      "239995 note_on channel=0 note=71 velocity=68 time=33\n",
      "240016 note_off channel=0 note=64 velocity=0 time=21\n",
      "240057 note_off channel=0 note=57 velocity=0 time=41\n",
      "240061 note_off channel=0 note=71 velocity=0 time=4\n",
      "240064 note_on channel=0 note=73 velocity=56 time=3\n",
      "240182 note_off channel=0 note=73 velocity=0 time=118\n",
      "240259 note_on channel=0 note=67 velocity=44 time=77\n",
      "240259 note_on channel=0 note=76 velocity=55 time=0\n",
      "240289 note_off channel=0 note=67 velocity=0 time=30\n",
      "240631 note_off channel=0 note=76 velocity=0 time=342\n",
      "240798 note_on channel=0 note=74 velocity=47 time=167\n",
      "240814 note_on channel=0 note=65 velocity=34 time=16\n",
      "240818 note_on channel=0 note=62 velocity=30 time=4\n",
      "240859 note_off channel=0 note=62 velocity=0 time=41\n",
      "241537 note_on channel=0 note=50 velocity=28 time=678\n",
      "241613 note_off channel=0 note=65 velocity=0 time=76\n",
      "241628 note_off channel=0 note=74 velocity=0 time=15\n",
      "241734 note_off channel=0 note=50 velocity=0 time=106\n",
      "242098 note_on channel=0 note=76 velocity=46 time=364\n",
      "242578 note_off channel=0 note=76 velocity=0 time=480\n",
      "242638 note_on channel=0 note=61 velocity=29 time=60\n",
      "242654 note_on channel=0 note=57 velocity=31 time=16\n",
      "242836 note_off channel=0 note=61 velocity=0 time=182\n",
      "242851 note_on channel=0 note=76 velocity=58 time=15\n",
      "242853 note_off channel=0 note=57 velocity=0 time=2\n",
      "242936 note_off channel=0 note=76 velocity=0 time=83\n",
      "243027 note_on channel=0 note=76 velocity=65 time=91\n",
      "243088 note_on channel=0 note=57 velocity=38 time=61\n",
      "243088 note_on channel=0 note=61 velocity=40 time=0\n",
      "243178 note_off channel=0 note=76 velocity=0 time=90\n",
      "243255 note_on channel=0 note=76 velocity=70 time=77\n",
      "243360 note_off channel=0 note=76 velocity=0 time=105\n",
      "243467 note_off channel=0 note=61 velocity=0 time=107\n",
      "243482 note_off channel=0 note=57 velocity=0 time=15\n",
      "243498 note_on channel=0 note=77 velocity=66 time=16\n",
      "243528 note_off channel=0 note=77 velocity=0 time=30\n",
      "243558 note_on channel=0 note=76 velocity=66 time=30\n",
      "243573 note_off channel=0 note=76 velocity=0 time=15\n",
      "243603 note_on channel=0 note=75 velocity=68 time=30\n",
      "243619 note_off channel=0 note=75 velocity=0 time=16\n",
      "243643 note_on channel=0 note=76 velocity=65 time=24\n",
      "243947 note_off channel=0 note=76 velocity=0 time=304\n",
      "243977 note_on channel=0 note=81 velocity=73 time=30\n",
      "243992 note_off channel=0 note=81 velocity=0 time=15\n",
      "244129 note_on channel=0 note=81 velocity=72 time=137\n",
      "244159 note_on channel=0 note=73 velocity=36 time=30\n",
      "244175 note_on channel=0 note=69 velocity=33 time=16\n",
      "244357 note_off channel=0 note=73 velocity=0 time=182\n",
      "244375 note_off channel=0 note=69 velocity=0 time=18\n",
      "244655 note_on channel=0 note=73 velocity=35 time=280\n",
      "244702 note_on channel=0 note=69 velocity=37 time=47\n",
      "244716 note_off channel=0 note=69 velocity=0 time=14\n",
      "244791 note_off channel=0 note=73 velocity=0 time=75\n",
      "244818 note_on channel=0 note=76 velocity=63 time=27\n",
      "245080 note_off channel=0 note=76 velocity=0 time=262\n",
      "245084 note_on channel=0 note=79 velocity=53 time=4\n",
      "245156 note_off channel=0 note=81 velocity=0 time=72\n",
      "245186 note_off channel=0 note=79 velocity=0 time=30\n",
      "245404 note_on channel=0 note=77 velocity=37 time=218\n",
      "245405 note_on channel=0 note=69 velocity=28 time=1\n",
      "245652 note_on channel=0 note=62 velocity=27 time=247\n",
      "245742 note_off channel=0 note=77 velocity=0 time=90\n",
      "245832 note_off channel=0 note=69 velocity=0 time=90\n",
      "245852 note_off channel=0 note=62 velocity=0 time=20\n",
      "245857 note_on channel=0 note=77 velocity=69 time=5\n",
      "245923 note_off channel=0 note=77 velocity=0 time=66\n",
      "246053 note_on channel=0 note=77 velocity=68 time=130\n",
      "246068 note_on channel=0 note=69 velocity=45 time=15\n",
      "246075 note_on channel=0 note=62 velocity=38 time=7\n",
      "246159 note_off channel=0 note=77 velocity=0 time=84\n",
      "246221 note_on channel=0 note=77 velocity=72 time=62\n",
      "246297 note_off channel=0 note=77 velocity=0 time=76\n",
      "246402 note_on channel=0 note=77 velocity=69 time=105\n",
      "246413 note_off channel=0 note=62 velocity=0 time=11\n",
      "246432 note_off channel=0 note=69 velocity=0 time=19\n",
      "246438 note_off channel=0 note=77 velocity=0 time=6\n",
      "246448 note_on channel=0 note=79 velocity=61 time=10\n",
      "246462 note_off channel=0 note=79 velocity=0 time=14\n",
      "246477 note_on channel=0 note=77 velocity=67 time=15\n",
      "246523 note_off channel=0 note=77 velocity=0 time=46\n",
      "246539 note_on channel=0 note=76 velocity=71 time=16\n",
      "246584 note_off channel=0 note=76 velocity=0 time=45\n",
      "246599 note_on channel=0 note=77 velocity=74 time=15\n",
      "246661 note_off channel=0 note=77 velocity=0 time=62\n",
      "246673 note_on channel=0 note=79 velocity=79 time=12\n",
      "246688 note_off channel=0 note=79 velocity=0 time=15\n",
      "246914 note_on channel=0 note=81 velocity=70 time=226\n",
      "246920 note_on channel=0 note=74 velocity=39 time=6\n",
      "246968 note_on channel=0 note=77 velocity=32 time=48\n",
      "247155 note_off channel=0 note=74 velocity=0 time=187\n",
      "247165 note_off channel=0 note=77 velocity=0 time=10\n",
      "247321 note_on channel=0 note=77 velocity=47 time=156\n",
      "247330 note_on channel=0 note=74 velocity=51 time=9\n",
      "247368 note_off channel=0 note=74 velocity=0 time=38\n",
      "247387 note_off channel=0 note=77 velocity=0 time=19\n",
      "247396 note_on channel=0 note=86 velocity=84 time=9\n",
      "247573 note_off channel=0 note=81 velocity=0 time=177\n",
      "247771 note_on channel=0 note=84 velocity=78 time=198\n",
      "247800 note_on channel=0 note=79 velocity=55 time=29\n",
      "247804 note_on channel=0 note=73 velocity=54 time=4\n",
      "247816 note_off channel=0 note=86 velocity=0 time=12\n",
      "248015 note_on channel=0 note=82 velocity=78 time=199\n",
      "248045 note_off channel=0 note=84 velocity=0 time=30\n",
      "248288 note_off channel=0 note=73 velocity=0 time=243\n",
      "248290 note_off channel=0 note=79 velocity=0 time=2\n",
      "248357 note_on channel=0 note=81 velocity=57 time=67\n",
      "248372 note_on channel=0 note=77 velocity=38 time=15\n",
      "248385 note_off channel=0 note=82 velocity=0 time=13\n",
      "248387 note_on channel=0 note=74 velocity=40 time=2\n",
      "248554 note_on channel=0 note=89 velocity=72 time=167\n",
      "248644 note_off channel=0 note=77 velocity=0 time=90\n",
      "248691 note_on channel=0 note=88 velocity=79 time=47\n",
      "248706 note_off channel=0 note=74 velocity=0 time=15\n",
      "248752 note_off channel=0 note=89 velocity=0 time=46\n",
      "248797 note_on channel=0 note=86 velocity=81 time=45\n",
      "248828 note_off channel=0 note=88 velocity=0 time=31\n",
      "248859 note_on channel=0 note=85 velocity=82 time=31\n",
      "248908 note_off channel=0 note=86 velocity=0 time=49\n",
      "248934 note_off channel=0 note=81 velocity=0 time=26\n",
      "248987 note_on channel=0 note=86 velocity=84 time=53\n",
      "249006 note_off channel=0 note=85 velocity=0 time=19\n",
      "249056 note_on channel=0 note=88 velocity=84 time=50\n",
      "249096 note_off channel=0 note=86 velocity=0 time=40\n",
      "249139 note_on channel=0 note=86 velocity=80 time=43\n",
      "249199 note_off channel=0 note=88 velocity=0 time=60\n",
      "249321 note_on channel=0 note=84 velocity=76 time=122\n",
      "249336 note_off channel=0 note=86 velocity=0 time=15\n",
      "249337 note_on channel=0 note=79 velocity=42 time=1\n",
      "249351 note_on channel=0 note=73 velocity=40 time=14\n",
      "249519 note_off channel=0 note=84 velocity=0 time=168\n",
      "249565 note_on channel=0 note=82 velocity=68 time=46\n",
      "249717 note_off channel=0 note=79 velocity=0 time=152\n",
      "249778 note_off channel=0 note=73 velocity=0 time=61\n",
      "249846 note_off channel=0 note=82 velocity=0 time=68\n",
      "249862 note_on channel=0 note=81 velocity=57 time=16\n",
      "249864 note_on channel=0 note=74 velocity=44 time=2\n",
      "249877 note_on channel=0 note=77 velocity=40 time=13\n",
      "250044 note_on channel=0 note=82 velocity=67 time=167\n",
      "250059 note_off channel=0 note=81 velocity=0 time=15\n",
      "250150 note_off channel=0 note=82 velocity=0 time=91\n",
      "250180 note_on channel=0 note=83 velocity=70 time=30\n",
      "250286 note_off channel=0 note=83 velocity=0 time=106\n",
      "250303 note_on channel=0 note=84 velocity=69 time=17\n",
      "250333 note_off channel=0 note=77 velocity=0 time=30\n",
      "250363 note_off channel=0 note=74 velocity=0 time=30\n",
      "250394 note_off channel=0 note=84 velocity=0 time=31\n",
      "250397 note_on channel=0 note=85 velocity=67 time=3\n",
      "250409 note_off channel=0 note=85 velocity=0 time=12\n",
      "250475 note_on channel=0 note=86 velocity=75 time=66\n",
      "250501 note_off channel=0 note=86 velocity=0 time=26\n",
      "250576 note_on channel=0 note=88 velocity=74 time=75\n",
      "250675 note_on channel=0 note=89 velocity=81 time=99\n",
      "250690 note_off channel=0 note=88 velocity=0 time=15\n",
      "250700 note_off channel=0 note=89 velocity=0 time=10\n",
      "250827 note_on channel=0 note=71 velocity=40 time=127\n",
      "250827 note_on channel=0 note=89 velocity=62 time=0\n",
      "251040 note_on channel=0 note=80 velocity=68 time=213\n",
      "251050 note_off channel=0 note=89 velocity=0 time=10\n",
      "251101 note_off channel=0 note=80 velocity=0 time=51\n",
      "251239 note_on channel=0 note=73 velocity=52 time=138\n",
      "251254 note_on channel=0 note=79 velocity=61 time=15\n",
      "251269 note_off channel=0 note=71 velocity=0 time=15\n",
      "251303 note_off channel=0 note=79 velocity=0 time=34\n",
      "251439 note_on channel=0 note=88 velocity=59 time=136\n",
      "251686 note_on channel=0 note=77 velocity=50 time=247\n",
      "251686 note_off channel=0 note=88 velocity=0 time=0\n",
      "251702 note_off channel=0 note=73 velocity=0 time=16\n",
      "251713 note_on channel=0 note=74 velocity=37 time=11\n",
      "251930 note_on channel=0 note=86 velocity=58 time=217\n",
      "251947 note_on channel=0 note=68 velocity=39 time=17\n",
      "251977 note_off channel=0 note=86 velocity=0 time=30\n",
      "251992 note_off channel=0 note=68 velocity=0 time=15\n",
      "252022 note_off channel=0 note=74 velocity=0 time=30\n",
      "252303 note_on channel=0 note=81 velocity=51 time=281\n",
      "252310 note_off channel=0 note=77 velocity=0 time=7\n",
      "252318 note_on channel=0 note=74 velocity=38 time=8\n",
      "252334 note_on channel=0 note=69 velocity=22 time=16\n",
      "252880 note_off channel=0 note=81 velocity=0 time=546\n",
      "252964 note_on channel=0 note=79 velocity=48 time=84\n",
      "253056 note_off channel=0 note=79 velocity=0 time=92\n",
      "253085 note_on channel=0 note=77 velocity=44 time=29\n",
      "253101 note_off channel=0 note=74 velocity=0 time=16\n",
      "253114 note_off channel=0 note=77 velocity=0 time=13\n",
      "253206 note_on channel=0 note=76 velocity=51 time=92\n",
      "253222 note_off channel=0 note=76 velocity=0 time=16\n",
      "253313 note_on channel=0 note=77 velocity=48 time=91\n",
      "253525 note_off channel=0 note=77 velocity=0 time=212\n",
      "253541 note_on channel=0 note=76 velocity=35 time=16\n",
      "253556 note_on channel=0 note=73 velocity=26 time=15\n",
      "253824 note_off channel=0 note=69 velocity=0 time=268\n",
      "253854 note_off channel=0 note=76 velocity=0 time=30\n",
      "253879 note_off channel=0 note=73 velocity=0 time=25\n",
      "254790 note_on channel=0 note=81 velocity=62 time=911\n",
      "255269 note_off channel=0 note=81 velocity=0 time=479\n",
      "255542 note_on channel=0 note=81 velocity=59 time=273\n",
      "255588 note_on channel=0 note=62 velocity=33 time=46\n",
      "255588 note_on channel=0 note=69 velocity=29 time=0\n",
      "255592 note_on channel=0 note=65 velocity=30 time=4\n",
      "255801 note_off channel=0 note=62 velocity=0 time=209\n",
      "255809 note_off channel=0 note=69 velocity=0 time=8\n",
      "255831 note_off channel=0 note=65 velocity=0 time=22\n",
      "255876 note_off channel=0 note=81 velocity=0 time=45\n",
      "256036 note_on channel=0 note=82 velocity=64 time=160\n",
      "256098 note_off channel=0 note=82 velocity=0 time=62\n",
      "256113 note_on channel=0 note=81 velocity=54 time=15\n",
      "256144 note_off channel=0 note=81 velocity=0 time=31\n",
      "256159 note_on channel=0 note=80 velocity=68 time=15\n",
      "256189 note_off channel=0 note=80 velocity=0 time=30\n",
      "256220 note_on channel=0 note=81 velocity=68 time=31\n",
      "256235 note_on channel=0 note=69 velocity=36 time=15\n",
      "256244 note_on channel=0 note=65 velocity=36 time=9\n",
      "256250 note_on channel=0 note=62 velocity=33 time=6\n",
      "256448 note_on channel=0 note=86 velocity=81 time=198\n",
      "256493 note_off channel=0 note=81 velocity=0 time=45\n",
      "256520 note_off channel=0 note=69 velocity=0 time=27\n",
      "256525 note_off channel=0 note=62 velocity=0 time=5\n",
      "256541 note_off channel=0 note=65 velocity=0 time=16\n",
      "256559 note_off channel=0 note=86 velocity=0 time=18\n",
      "256675 note_on channel=0 note=86 velocity=76 time=116\n",
      "256942 note_on channel=0 note=77 velocity=66 time=267\n",
      "257129 note_off channel=0 note=86 velocity=0 time=187\n",
      "257141 note_off channel=0 note=77 velocity=0 time=12\n",
      "257275 note_on channel=0 note=77 velocity=65 time=134\n",
      "257291 note_on channel=0 note=69 velocity=36 time=16\n",
      "257300 note_on channel=0 note=65 velocity=32 time=9\n",
      "257306 note_on channel=0 note=62 velocity=32 time=6\n",
      "257472 note_off channel=0 note=77 velocity=0 time=166\n",
      "257572 note_off channel=0 note=62 velocity=0 time=100\n",
      "257584 note_off channel=0 note=65 velocity=0 time=12\n",
      "257601 note_off channel=0 note=69 velocity=0 time=17\n",
      "257602 note_on channel=0 note=79 velocity=53 time=1\n",
      "257632 note_off channel=0 note=79 velocity=0 time=30\n",
      "257648 note_on channel=0 note=77 velocity=57 time=16\n",
      "257695 note_off channel=0 note=77 velocity=0 time=47\n",
      "257709 note_on channel=0 note=76 velocity=62 time=14\n",
      "257755 note_off channel=0 note=76 velocity=0 time=46\n",
      "257785 note_on channel=0 note=77 velocity=63 time=30\n",
      "257800 note_on channel=0 note=65 velocity=28 time=15\n",
      "257816 note_on channel=0 note=62 velocity=32 time=16\n",
      "257824 note_on channel=0 note=69 velocity=30 time=8\n",
      "258014 note_off channel=0 note=62 velocity=0 time=190\n",
      "258029 note_on channel=0 note=81 velocity=74 time=15\n",
      "258056 note_off channel=0 note=77 velocity=0 time=27\n",
      "258074 note_off channel=0 note=65 velocity=0 time=18\n",
      "258090 note_off channel=0 note=69 velocity=0 time=16\n",
      "258135 note_off channel=0 note=81 velocity=0 time=45\n",
      "258400 note_on channel=0 note=81 velocity=60 time=265\n",
      "258462 note_on channel=0 note=57 velocity=31 time=62\n",
      "258474 note_on channel=0 note=65 velocity=15 time=12\n",
      "258660 note_on channel=0 note=74 velocity=71 time=186\n",
      "258769 note_off channel=0 note=81 velocity=0 time=109\n",
      "259010 note_on channel=0 note=69 velocity=62 time=241\n",
      "259229 note_on channel=0 note=77 velocity=82 time=219\n",
      "259275 note_off channel=0 note=69 velocity=0 time=46\n",
      "259290 note_off channel=0 note=74 velocity=0 time=15\n",
      "259291 note_off channel=0 note=65 velocity=0 time=1\n",
      "259488 note_on channel=0 note=67 velocity=64 time=197\n",
      "259624 note_off channel=0 note=57 velocity=0 time=136\n",
      "259655 note_on channel=0 note=76 velocity=77 time=31\n",
      "259698 note_off channel=0 note=77 velocity=0 time=43\n",
      "259806 note_off channel=0 note=67 velocity=0 time=108\n",
      "259996 note_on channel=0 note=74 velocity=66 time=190\n",
      "260012 note_on channel=0 note=65 velocity=35 time=16\n",
      "260021 note_off channel=0 note=76 velocity=0 time=9\n",
      "260029 note_on channel=0 note=62 velocity=32 time=8\n",
      "260149 note_off channel=0 note=74 velocity=0 time=120\n",
      "260240 note_on channel=0 note=76 velocity=52 time=91\n",
      "260286 note_off channel=0 note=76 velocity=0 time=46\n",
      "260302 note_on channel=0 note=74 velocity=68 time=16\n",
      "260332 note_off channel=0 note=74 velocity=0 time=30\n",
      "260361 note_on channel=0 note=73 velocity=52 time=29\n",
      "260377 note_off channel=0 note=73 velocity=0 time=16\n",
      "260453 note_on channel=0 note=74 velocity=70 time=76\n",
      "260485 note_off channel=0 note=74 velocity=0 time=32\n",
      "260512 note_off channel=0 note=62 velocity=0 time=27\n",
      "260528 note_off channel=0 note=65 velocity=0 time=16\n",
      "260529 note_on channel=0 note=76 velocity=68 time=1\n",
      "260612 note_off channel=0 note=76 velocity=0 time=83\n",
      "260640 note_on channel=0 note=77 velocity=70 time=28\n",
      "260718 note_off channel=0 note=77 velocity=0 time=78\n",
      "260745 note_on channel=0 note=79 velocity=76 time=27\n",
      "260819 note_off channel=0 note=79 velocity=0 time=74\n",
      "260853 note_on channel=0 note=81 velocity=69 time=34\n",
      "260913 note_off channel=0 note=81 velocity=0 time=60\n",
      "260942 note_on channel=0 note=83 velocity=69 time=29\n",
      "261012 note_off channel=0 note=83 velocity=0 time=70\n",
      "261042 note_on channel=0 note=85 velocity=70 time=30\n",
      "261106 note_off channel=0 note=85 velocity=0 time=64\n",
      "261133 note_on channel=0 note=86 velocity=74 time=27\n",
      "261208 note_off channel=0 note=86 velocity=0 time=75\n",
      "261233 note_on channel=0 note=88 velocity=77 time=25\n",
      "261296 note_off channel=0 note=88 velocity=0 time=63\n",
      "261318 note_on channel=0 note=88 velocity=6 time=22\n",
      "261403 note_off channel=0 note=88 velocity=0 time=85\n",
      "261413 note_on channel=0 note=89 velocity=72 time=10\n",
      "261480 note_on channel=0 note=62 velocity=22 time=67\n",
      "261638 note_off channel=0 note=89 velocity=0 time=158\n",
      "261731 note_on channel=0 note=85 velocity=78 time=93\n",
      "261813 note_on channel=0 note=86 velocity=73 time=82\n",
      "262070 note_on channel=0 note=69 velocity=48 time=257\n",
      "262082 note_on channel=0 note=65 velocity=41 time=12\n",
      "262089 note_off channel=0 note=85 velocity=0 time=7\n",
      "262112 note_off channel=0 note=86 velocity=0 time=23\n",
      "262286 note_on channel=0 note=80 velocity=74 time=174\n",
      "262316 note_off channel=0 note=69 velocity=0 time=30\n",
      "262321 note_off channel=0 note=65 velocity=0 time=5\n",
      "262362 note_off channel=0 note=80 velocity=0 time=41\n",
      "262365 note_on channel=0 note=81 velocity=68 time=3\n",
      "262529 note_on channel=0 note=65 velocity=35 time=164\n",
      "262559 note_on channel=0 note=69 velocity=39 time=30\n",
      "262652 note_off channel=0 note=69 velocity=0 time=93\n",
      "262654 note_off channel=0 note=62 velocity=0 time=2\n",
      "262656 note_off channel=0 note=65 velocity=0 time=2\n",
      "262684 note_off channel=0 note=81 velocity=0 time=28\n",
      "262788 note_on channel=0 note=77 velocity=70 time=104\n",
      "262853 note_off channel=0 note=77 velocity=0 time=65\n",
      "263434 note_on channel=0 note=75 velocity=72 time=581\n",
      "263464 note_on channel=0 note=63 velocity=52 time=30\n",
      "263470 note_on channel=0 note=55 velocity=47 time=6\n",
      "263479 note_on channel=0 note=58 velocity=48 time=9\n",
      "263958 note_off channel=0 note=75 velocity=0 time=479\n",
      "264003 note_on channel=0 note=77 velocity=61 time=45\n",
      "264050 note_off channel=0 note=77 velocity=0 time=47\n",
      "264065 note_on channel=0 note=75 velocity=63 time=15\n",
      "264095 note_off channel=0 note=75 velocity=0 time=30\n",
      "264110 note_on channel=0 note=74 velocity=65 time=15\n",
      "264171 note_on channel=0 note=75 velocity=79 time=61\n",
      "264173 note_off channel=0 note=74 velocity=0 time=2\n",
      "264278 note_off channel=0 note=75 velocity=0 time=105\n",
      "264308 note_on channel=0 note=77 velocity=78 time=30\n",
      "264370 note_off channel=0 note=77 velocity=0 time=62\n",
      "264513 note_on channel=0 note=79 velocity=71 time=143\n",
      "264620 note_off channel=0 note=79 velocity=0 time=107\n",
      "264711 note_on channel=0 note=81 velocity=61 time=91\n",
      "264773 note_off channel=0 note=81 velocity=0 time=62\n",
      "264783 note_on channel=0 note=79 velocity=66 time=10\n",
      "264818 note_off channel=0 note=79 velocity=0 time=35\n",
      "264833 note_on channel=0 note=78 velocity=71 time=15\n",
      "264895 note_off channel=0 note=78 velocity=0 time=62\n",
      "264924 note_on channel=0 note=79 velocity=64 time=29\n",
      "265093 note_off channel=0 note=79 velocity=0 time=169\n",
      "265139 note_on channel=0 note=81 velocity=58 time=46\n",
      "265169 note_off channel=0 note=81 velocity=0 time=30\n",
      "265616 note_on channel=0 note=82 velocity=56 time=447\n",
      "265921 note_off channel=0 note=55 velocity=0 time=305\n",
      "265921 note_off channel=0 note=82 velocity=0 time=0\n",
      "266060 note_off channel=0 note=58 velocity=0 time=139\n",
      "266077 note_off channel=0 note=63 velocity=0 time=17\n",
      "267304 note_on channel=0 note=74 velocity=53 time=1227\n",
      "267361 note_on channel=0 note=65 velocity=26 time=57\n",
      "267395 note_on channel=0 note=57 velocity=26 time=34\n",
      "267799 note_off channel=0 note=74 velocity=0 time=404\n",
      "267935 note_on channel=0 note=76 velocity=20 time=136\n",
      "267950 note_on channel=0 note=74 velocity=55 time=15\n",
      "267965 note_off channel=0 note=76 velocity=0 time=15\n",
      "268011 note_off channel=0 note=74 velocity=0 time=46\n",
      "268026 note_on channel=0 note=73 velocity=61 time=15\n",
      "268041 note_off channel=0 note=65 velocity=0 time=15\n",
      "268071 note_off channel=0 note=73 velocity=0 time=30\n",
      "268086 note_on channel=0 note=74 velocity=61 time=15\n",
      "268239 note_off channel=0 note=74 velocity=0 time=153\n",
      "268255 note_on channel=0 note=77 velocity=51 time=16\n",
      "268257 note_on channel=0 note=69 velocity=50 time=2\n",
      "268292 note_off channel=0 note=57 velocity=0 time=35\n",
      "268962 note_on channel=0 note=45 velocity=38 time=670\n",
      "268992 note_off channel=0 note=69 velocity=0 time=30\n",
      "268997 note_off channel=0 note=77 velocity=0 time=5\n",
      "269023 note_off channel=0 note=45 velocity=0 time=26\n",
      "269062 note_on channel=0 note=76 velocity=57 time=39\n",
      "269199 note_on channel=0 note=67 velocity=52 time=137\n",
      "269215 note_off channel=0 note=76 velocity=0 time=16\n",
      "269241 note_off channel=0 note=67 velocity=0 time=26\n",
      "269472 note_on channel=0 note=74 velocity=50 time=231\n",
      "269487 note_on channel=0 note=65 velocity=38 time=15\n",
      "269502 note_on channel=0 note=50 velocity=46 time=15\n",
      "269517 note_off channel=0 note=50 velocity=0 time=15\n",
      "269545 note_on channel=0 note=45 velocity=44 time=28\n",
      "270043 note_off channel=0 note=45 velocity=0 time=498\n",
      "270544 note_off channel=0 note=74 velocity=0 time=501\n",
      "270761 note_off channel=0 note=65 velocity=0 time=217\n",
      "270901 note_on channel=0 note=38 velocity=31 time=140\n",
      "270977 note_off channel=0 note=38 velocity=0 time=76\n",
      "273388 note_on channel=0 note=69 velocity=69 time=2411\n",
      "273393 note_on channel=0 note=62 velocity=55 time=5\n",
      "273400 note_on channel=0 note=66 velocity=55 time=7\n",
      "273419 note_off channel=0 note=69 velocity=0 time=19\n",
      "273433 note_on channel=0 note=81 velocity=6 time=14\n",
      "273493 note_off channel=0 note=81 velocity=0 time=60\n",
      "273522 note_off channel=0 note=66 velocity=0 time=29\n",
      "273565 note_on channel=0 note=68 velocity=69 time=43\n",
      "273575 note_on channel=0 note=65 velocity=55 time=10\n",
      "273576 note_off channel=0 note=68 velocity=0 time=1\n",
      "273599 note_off channel=0 note=65 velocity=0 time=23\n",
      "273624 note_on channel=0 note=80 velocity=45 time=25\n",
      "273683 note_off channel=0 note=80 velocity=0 time=59\n",
      "273712 note_on channel=0 note=66 velocity=40 time=29\n",
      "273775 note_off channel=0 note=66 velocity=0 time=63\n",
      "273824 note_on channel=0 note=81 velocity=47 time=49\n",
      "273835 note_off channel=0 note=81 velocity=0 time=11\n",
      "273862 note_on channel=0 note=68 velocity=71 time=27\n",
      "273891 note_on channel=0 note=65 velocity=45 time=29\n",
      "273899 note_off channel=0 note=68 velocity=0 time=8\n",
      "273916 note_on channel=0 note=80 velocity=64 time=17\n",
      "273959 note_off channel=0 note=80 velocity=0 time=43\n",
      "274000 note_off channel=0 note=65 velocity=0 time=41\n",
      "274030 note_on channel=0 note=66 velocity=45 time=30\n",
      "274064 note_on channel=0 note=81 velocity=70 time=34\n",
      "274106 note_off channel=0 note=81 velocity=0 time=42\n",
      "274131 note_off channel=0 note=66 velocity=0 time=25\n",
      "274152 note_off channel=0 note=62 velocity=0 time=21\n",
      "274170 note_on channel=0 note=74 velocity=73 time=18\n",
      "274185 note_off channel=0 note=74 velocity=0 time=15\n",
      "274213 note_on channel=0 note=86 velocity=79 time=28\n",
      "274240 note_off channel=0 note=86 velocity=0 time=27\n",
      "274383 note_on channel=0 note=57 velocity=57 time=143\n",
      "274387 note_on channel=0 note=66 velocity=79 time=4\n",
      "274398 note_on channel=0 note=50 velocity=48 time=11\n",
      "274409 note_off channel=0 note=66 velocity=0 time=11\n",
      "274421 note_on channel=0 note=78 velocity=66 time=12\n",
      "274476 note_off channel=0 note=57 velocity=0 time=55\n",
      "274500 note_off channel=0 note=78 velocity=0 time=24\n",
      "274502 note_on channel=0 note=56 velocity=57 time=2\n",
      "274547 note_on channel=0 note=65 velocity=65 time=45\n",
      "274555 note_off channel=0 note=65 velocity=0 time=8\n",
      "274581 note_on channel=0 note=77 velocity=73 time=26\n",
      "274615 note_off channel=0 note=77 velocity=0 time=34\n",
      "274644 note_off channel=0 note=56 velocity=0 time=29\n",
      "274666 note_on channel=0 note=57 velocity=59 time=22\n",
      "274708 note_on channel=0 note=66 velocity=69 time=42\n",
      "274709 note_off channel=0 note=66 velocity=0 time=1\n",
      "274739 note_on channel=0 note=78 velocity=55 time=30\n",
      "274776 note_off channel=0 note=78 velocity=0 time=37\n",
      "274816 note_off channel=0 note=57 velocity=0 time=40\n",
      "274818 note_on channel=0 note=56 velocity=59 time=2\n",
      "274852 note_on channel=0 note=65 velocity=70 time=34\n",
      "274855 note_off channel=0 note=65 velocity=0 time=3\n",
      "274880 note_on channel=0 note=77 velocity=69 time=25\n",
      "274919 note_off channel=0 note=77 velocity=0 time=39\n",
      "274946 note_on channel=0 note=66 velocity=77 time=27\n",
      "274994 note_on channel=0 note=57 velocity=60 time=48\n",
      "275006 note_off channel=0 note=56 velocity=0 time=12\n",
      "275029 note_off channel=0 note=66 velocity=0 time=23\n",
      "275032 note_off channel=0 note=57 velocity=0 time=3\n",
      "275050 note_off channel=0 note=50 velocity=0 time=18\n",
      "275051 note_on channel=0 note=78 velocity=68 time=1\n",
      "275057 note_off channel=0 note=78 velocity=0 time=6\n",
      "275089 note_on channel=0 note=69 velocity=79 time=32\n",
      "275133 note_off channel=0 note=69 velocity=0 time=44\n",
      "275166 note_on channel=0 note=81 velocity=69 time=33\n",
      "275218 note_off channel=0 note=81 velocity=0 time=52\n",
      "275234 note_on channel=0 note=47 velocity=57 time=16\n",
      "275307 note_on channel=0 note=59 velocity=48 time=73\n",
      "275311 note_on channel=0 note=62 velocity=76 time=4\n",
      "275320 note_off channel=0 note=47 velocity=0 time=9\n",
      "275332 note_off channel=0 note=59 velocity=0 time=12\n",
      "275341 note_off channel=0 note=62 velocity=0 time=9\n",
      "275342 note_on channel=0 note=74 velocity=59 time=1\n",
      "275385 note_off channel=0 note=74 velocity=0 time=43\n",
      "275407 note_on channel=0 note=66 velocity=69 time=22\n",
      "275476 note_off channel=0 note=66 velocity=0 time=69\n",
      "275503 note_on channel=0 note=78 velocity=77 time=27\n",
      "275532 note_off channel=0 note=78 velocity=0 time=29\n",
      "275557 note_on channel=0 note=43 velocity=54 time=25\n",
      "275621 note_on channel=0 note=64 velocity=76 time=64\n",
      "275630 note_on channel=0 note=55 velocity=43 time=9\n",
      "275632 note_off channel=0 note=43 velocity=0 time=2\n",
      "275647 note_off channel=0 note=64 velocity=0 time=15\n",
      "275655 note_off channel=0 note=55 velocity=0 time=8\n",
      "275666 note_on channel=0 note=76 velocity=73 time=11\n",
      "275693 note_off channel=0 note=76 velocity=0 time=27\n",
      "275719 note_on channel=0 note=67 velocity=77 time=26\n",
      "275781 note_off channel=0 note=67 velocity=0 time=62\n",
      "275803 note_on channel=0 note=79 velocity=76 time=22\n",
      "275831 note_off channel=0 note=79 velocity=0 time=28\n",
      "275855 note_on channel=0 note=45 velocity=52 time=24\n",
      "275930 note_on channel=0 note=61 velocity=70 time=75\n",
      "275944 note_off channel=0 note=45 velocity=0 time=14\n",
      "275964 note_off channel=0 note=61 velocity=0 time=20\n",
      "275975 note_on channel=0 note=73 velocity=43 time=11\n",
      "276032 note_off channel=0 note=73 velocity=0 time=57\n",
      "276063 note_on channel=0 note=64 velocity=74 time=31\n",
      "276094 note_off channel=0 note=64 velocity=0 time=31\n",
      "276118 note_on channel=0 note=76 velocity=66 time=24\n",
      "276173 note_off channel=0 note=76 velocity=0 time=55\n",
      "276200 note_on channel=0 note=50 velocity=70 time=27\n",
      "276246 note_on channel=0 note=38 velocity=66 time=46\n",
      "276247 note_on channel=0 note=62 velocity=72 time=1\n",
      "276252 note_off channel=0 note=62 velocity=0 time=5\n",
      "276277 note_on channel=0 note=74 velocity=65 time=25\n",
      "276325 note_off channel=0 note=74 velocity=0 time=48\n",
      "276348 note_on channel=0 note=61 velocity=71 time=23\n",
      "276403 note_off channel=0 note=61 velocity=0 time=55\n",
      "276437 note_on channel=0 note=73 velocity=71 time=34\n",
      "276472 note_off channel=0 note=73 velocity=0 time=35\n",
      "276515 note_on channel=0 note=62 velocity=78 time=43\n",
      "276553 note_off channel=0 note=62 velocity=0 time=38\n",
      "276592 note_off channel=0 note=38 velocity=0 time=39\n",
      "276619 note_on channel=0 note=74 velocity=85 time=27\n",
      "276628 note_off channel=0 note=74 velocity=0 time=9\n",
      "276662 note_off channel=0 note=50 velocity=0 time=34\n",
      "276666 note_on channel=0 note=64 velocity=83 time=4\n",
      "276696 note_off channel=0 note=64 velocity=0 time=30\n",
      "276736 note_on channel=0 note=76 velocity=79 time=40\n",
      "276760 note_off channel=0 note=76 velocity=0 time=24\n",
      "276784 note_on channel=0 note=66 velocity=80 time=24\n",
      "276851 note_off channel=0 note=66 velocity=0 time=67\n",
      "276876 note_on channel=0 note=78 velocity=86 time=25\n",
      "276904 note_off channel=0 note=78 velocity=0 time=28\n",
      "276948 note_on channel=0 note=67 velocity=81 time=44\n",
      "276985 note_off channel=0 note=67 velocity=0 time=37\n",
      "277017 note_on channel=0 note=79 velocity=80 time=32\n",
      "277044 note_off channel=0 note=79 velocity=0 time=27\n",
      "277067 note_on channel=0 note=50 velocity=71 time=23\n",
      "277147 note_on channel=0 note=81 velocity=85 time=80\n",
      "277151 note_on channel=0 note=78 velocity=86 time=4\n",
      "277152 note_on channel=0 note=69 velocity=80 time=1\n",
      "277154 note_off channel=0 note=50 velocity=0 time=2\n",
      "277182 note_on channel=0 note=62 velocity=71 time=28\n",
      "277209 note_off channel=0 note=62 velocity=0 time=27\n",
      "277240 note_on channel=0 note=54 velocity=80 time=31\n",
      "277304 note_off channel=0 note=54 velocity=0 time=64\n",
      "277335 note_on channel=0 note=66 velocity=80 time=31\n",
      "277375 note_off channel=0 note=66 velocity=0 time=40\n",
      "277399 note_off channel=0 note=69 velocity=0 time=24\n",
      "277434 note_on channel=0 note=52 velocity=76 time=35\n",
      "277458 note_off channel=0 note=52 velocity=0 time=24\n",
      "277458 note_off channel=0 note=81 velocity=0 time=0\n",
      "277500 note_on channel=0 note=64 velocity=77 time=42\n",
      "277534 note_off channel=0 note=78 velocity=0 time=34\n",
      "277544 note_off channel=0 note=64 velocity=0 time=10\n",
      "277562 note_on channel=0 note=50 velocity=86 time=18\n",
      "277600 note_off channel=0 note=50 velocity=0 time=38\n",
      "277628 note_on channel=0 note=62 velocity=73 time=28\n",
      "277668 note_off channel=0 note=62 velocity=0 time=40\n",
      "277693 note_on channel=0 note=49 velocity=75 time=25\n",
      "277753 note_on channel=0 note=78 velocity=90 time=60\n",
      "277757 note_on channel=0 note=74 velocity=83 time=4\n",
      "277757 note_on channel=0 note=86 velocity=87 time=0\n",
      "277758 note_off channel=0 note=78 velocity=0 time=1\n",
      "277777 note_off channel=0 note=74 velocity=0 time=19\n",
      "277777 note_off channel=0 note=86 velocity=0 time=0\n",
      "277781 note_off channel=0 note=49 velocity=0 time=4\n",
      "277784 note_on channel=0 note=61 velocity=62 time=3\n",
      "277824 note_off channel=0 note=61 velocity=0 time=40\n",
      "277849 note_on channel=0 note=47 velocity=80 time=25\n",
      "277889 note_off channel=0 note=47 velocity=0 time=40\n",
      "277919 note_on channel=0 note=75 velocity=40 time=30\n",
      "277952 note_on channel=0 note=59 velocity=72 time=33\n",
      "277958 note_off channel=0 note=75 velocity=0 time=6\n",
      "277983 note_off channel=0 note=59 velocity=0 time=25\n",
      "277987 note_on channel=0 note=66 velocity=81 time=4\n",
      "278041 note_on channel=0 note=78 velocity=88 time=54\n",
      "278042 note_on channel=0 note=74 velocity=85 time=1\n",
      "278043 note_on channel=0 note=45 velocity=82 time=1\n",
      "278047 note_off channel=0 note=45 velocity=0 time=4\n",
      "278081 note_on channel=0 note=57 velocity=76 time=34\n",
      "278123 note_off channel=0 note=57 velocity=0 time=42\n",
      "278156 note_off channel=0 note=66 velocity=0 time=33\n",
      "278176 note_on channel=0 note=43 velocity=81 time=20\n",
      "278200 note_off channel=0 note=43 velocity=0 time=24\n",
      "278233 note_on channel=0 note=55 velocity=77 time=33\n",
      "278280 note_off channel=0 note=55 velocity=0 time=47\n",
      "278307 note_on channel=0 note=42 velocity=88 time=27\n",
      "278357 note_off channel=0 note=74 velocity=0 time=50\n",
      "278372 note_off channel=0 note=78 velocity=0 time=15\n",
      "278373 note_off channel=0 note=42 velocity=0 time=1\n",
      "278390 note_on channel=0 note=54 velocity=74 time=17\n",
      "278428 note_off channel=0 note=54 velocity=0 time=38\n",
      "278452 note_on channel=0 note=40 velocity=82 time=24\n",
      "278494 note_off channel=0 note=40 velocity=0 time=42\n",
      "278534 note_on channel=0 note=52 velocity=67 time=40\n",
      "278578 note_off channel=0 note=52 velocity=0 time=44\n",
      "278611 note_on channel=0 note=81 velocity=84 time=33\n",
      "278648 note_on channel=0 note=78 velocity=75 time=37\n",
      "278653 note_on channel=0 note=38 velocity=73 time=5\n",
      "278657 note_on channel=0 note=69 velocity=67 time=4\n",
      "278661 note_off channel=0 note=38 velocity=0 time=4\n",
      "278691 note_on channel=0 note=40 velocity=33 time=30\n",
      "278694 note_off channel=0 note=40 velocity=0 time=3\n",
      "278695 note_on channel=0 note=50 velocity=76 time=1\n",
      "278711 note_off channel=0 note=81 velocity=0 time=16\n",
      "278730 note_off channel=0 note=50 velocity=0 time=19\n",
      "278739 note_off channel=0 note=69 velocity=0 time=9\n",
      "278780 note_off channel=0 note=78 velocity=0 time=41\n",
      "278790 note_on channel=0 note=37 velocity=81 time=10\n",
      "278798 note_off channel=0 note=37 velocity=0 time=8\n",
      "278832 note_on channel=0 note=49 velocity=73 time=34\n",
      "278852 note_off channel=0 note=49 velocity=0 time=20\n",
      "278898 note_on channel=0 note=35 velocity=79 time=46\n",
      "278935 note_on channel=0 note=47 velocity=74 time=37\n",
      "278945 note_off channel=0 note=35 velocity=0 time=10\n",
      "278966 note_off channel=0 note=47 velocity=0 time=21\n",
      "278971 note_on channel=0 note=67 velocity=79 time=5\n",
      "279006 note_off channel=0 note=67 velocity=0 time=35\n",
      "279053 note_on channel=0 note=74 velocity=76 time=47\n",
      "279089 note_off channel=0 note=74 velocity=0 time=36\n",
      "279144 note_on channel=0 note=79 velocity=72 time=55\n",
      "279150 note_off channel=0 note=79 velocity=0 time=6\n",
      "279175 note_on channel=0 note=33 velocity=69 time=25\n",
      "279225 note_on channel=0 note=45 velocity=59 time=50\n",
      "279236 note_off channel=0 note=33 velocity=0 time=11\n",
      "279255 note_off channel=0 note=45 velocity=0 time=19\n",
      "279258 note_on channel=0 note=66 velocity=75 time=3\n",
      "279299 note_off channel=0 note=66 velocity=0 time=41\n",
      "279371 note_on channel=0 note=74 velocity=69 time=72\n",
      "279374 note_on channel=0 note=78 velocity=69 time=3\n",
      "279431 note_off channel=0 note=74 velocity=0 time=57\n",
      "279435 note_off channel=0 note=78 velocity=0 time=4\n",
      "279462 note_on channel=0 note=33 velocity=71 time=27\n",
      "279507 note_on channel=0 note=45 velocity=68 time=45\n",
      "279516 note_off channel=0 note=33 velocity=0 time=9\n",
      "279534 note_off channel=0 note=45 velocity=0 time=18\n",
      "279545 note_on channel=0 note=64 velocity=74 time=11\n",
      "279582 note_off channel=0 note=64 velocity=0 time=37\n",
      "279643 note_on channel=0 note=73 velocity=73 time=61\n",
      "279665 note_on channel=0 note=76 velocity=75 time=22\n",
      "279716 note_off channel=0 note=73 velocity=0 time=51\n",
      "279717 note_off channel=0 note=76 velocity=0 time=1\n",
      "279741 note_on channel=0 note=74 velocity=84 time=24\n",
      "279847 note_on channel=0 note=62 velocity=71 time=106\n",
      "279856 note_on channel=0 note=50 velocity=57 time=9\n",
      "279894 note_off channel=0 note=50 velocity=0 time=38\n",
      "279967 note_on channel=0 note=54 velocity=64 time=73\n",
      "279986 note_off channel=0 note=54 velocity=0 time=19\n",
      "280012 note_on channel=0 note=50 velocity=61 time=26\n",
      "280074 note_off channel=0 note=50 velocity=0 time=62\n",
      "280105 note_on channel=0 note=45 velocity=66 time=31\n",
      "280141 note_off channel=0 note=45 velocity=0 time=36\n",
      "280192 note_on channel=0 note=50 velocity=65 time=51\n",
      "280217 note_off channel=0 note=50 velocity=0 time=25\n",
      "280252 note_on channel=0 note=42 velocity=69 time=35\n",
      "280288 note_off channel=0 note=42 velocity=0 time=36\n",
      "280344 note_on channel=0 note=45 velocity=65 time=56\n",
      "280367 note_off channel=0 note=45 velocity=0 time=23\n",
      "280468 note_off channel=0 note=62 velocity=0 time=101\n",
      "280486 note_on channel=0 note=38 velocity=68 time=18\n",
      "280498 note_off channel=0 note=74 velocity=0 time=12\n",
      "280613 note_off channel=0 note=38 velocity=0 time=115\n",
      "280978 note_on channel=0 note=69 velocity=71 time=365\n",
      "280991 note_on channel=0 note=62 velocity=45 time=13\n",
      "280996 note_on channel=0 note=66 velocity=53 time=5\n",
      "280996 note_off channel=0 note=69 velocity=0 time=0\n",
      "281017 note_on channel=0 note=81 velocity=57 time=21\n",
      "281073 note_off channel=0 note=81 velocity=0 time=56\n",
      "281094 note_off channel=0 note=66 velocity=0 time=21\n",
      "281111 note_on channel=0 note=65 velocity=51 time=17\n",
      "281154 note_on channel=0 note=68 velocity=69 time=43\n",
      "281160 note_off channel=0 note=68 velocity=0 time=6\n",
      "281187 note_on channel=0 note=80 velocity=67 time=27\n",
      "281232 note_off channel=0 note=65 velocity=0 time=45\n",
      "281240 note_off channel=0 note=80 velocity=0 time=8\n",
      "281280 note_on channel=0 note=69 velocity=70 time=40\n",
      "281313 note_on channel=0 note=66 velocity=51 time=33\n",
      "281317 note_off channel=0 note=69 velocity=0 time=4\n",
      "281343 note_off channel=0 note=66 velocity=0 time=26\n",
      "281405 note_on channel=0 note=81 velocity=54 time=62\n",
      "281409 note_off channel=0 note=81 velocity=0 time=4\n",
      "281430 note_on channel=0 note=65 velocity=54 time=21\n",
      "281461 note_on channel=0 note=68 velocity=76 time=31\n",
      "281468 note_off channel=0 note=68 velocity=0 time=7\n",
      "281499 note_on channel=0 note=80 velocity=76 time=31\n",
      "281540 note_off channel=0 note=80 velocity=0 time=41\n",
      "281579 note_on channel=0 note=69 velocity=77 time=39\n",
      "281615 note_on channel=0 note=66 velocity=57 time=36\n",
      "281618 note_off channel=0 note=65 velocity=0 time=3\n",
      "281638 note_off channel=0 note=69 velocity=0 time=20\n",
      "281647 note_on channel=0 note=81 velocity=73 time=9\n",
      "281683 note_off channel=0 note=66 velocity=0 time=36\n",
      "281690 note_off channel=0 note=62 velocity=0 time=7\n",
      "281692 note_off channel=0 note=81 velocity=0 time=2\n",
      "281708 note_on channel=0 note=74 velocity=80 time=16\n",
      "281757 note_off channel=0 note=74 velocity=0 time=49\n",
      "281780 note_on channel=0 note=86 velocity=74 time=23\n",
      "281820 note_off channel=0 note=86 velocity=0 time=40\n",
      "281836 note_on channel=0 note=57 velocity=60 time=16\n",
      "281916 note_on channel=0 note=66 velocity=83 time=80\n",
      "281919 note_on channel=0 note=50 velocity=59 time=3\n",
      "281922 note_off channel=0 note=66 velocity=0 time=3\n",
      "281951 note_on channel=0 note=78 velocity=71 time=29\n",
      "281988 note_off channel=0 note=78 velocity=0 time=37\n",
      "282014 note_off channel=0 note=57 velocity=0 time=26\n",
      "282019 note_on channel=0 note=56 velocity=70 time=5\n",
      "282103 note_on channel=0 note=77 velocity=71 time=84\n",
      "282150 note_off channel=0 note=77 velocity=0 time=47\n",
      "282178 note_off channel=0 note=56 velocity=0 time=28\n",
      "282184 note_on channel=0 note=66 velocity=75 time=6\n",
      "282228 note_on channel=0 note=57 velocity=65 time=44\n",
      "282231 note_off channel=0 note=66 velocity=0 time=3\n",
      "282267 note_on channel=0 note=78 velocity=76 time=36\n",
      "282304 note_off channel=0 note=57 velocity=0 time=37\n",
      "282341 note_off channel=0 note=78 velocity=0 time=37\n",
      "282348 note_on channel=0 note=56 velocity=60 time=7\n",
      "282367 note_on channel=0 note=65 velocity=76 time=19\n",
      "282383 note_off channel=0 note=65 velocity=0 time=16\n",
      "282409 note_on channel=0 note=77 velocity=73 time=26\n",
      "282460 note_off channel=0 note=77 velocity=0 time=51\n",
      "282483 note_on channel=0 note=57 velocity=63 time=23\n",
      "282514 note_off channel=0 note=56 velocity=0 time=31\n",
      "282527 note_on channel=0 note=66 velocity=74 time=13\n",
      "282530 note_off channel=0 note=50 velocity=0 time=3\n",
      "282531 note_off channel=0 note=57 velocity=0 time=1\n",
      "282548 note_off channel=0 note=66 velocity=0 time=17\n",
      "282561 note_on channel=0 note=78 velocity=75 time=13\n",
      "282593 note_off channel=0 note=78 velocity=0 time=32\n",
      "282622 note_on channel=0 note=69 velocity=77 time=29\n",
      "282668 note_off channel=0 note=69 velocity=0 time=46\n",
      "282693 note_on channel=0 note=81 velocity=73 time=25\n",
      "282740 note_off channel=0 note=81 velocity=0 time=47\n",
      "282764 note_on channel=0 note=47 velocity=54 time=24\n",
      "282826 note_on channel=0 note=59 velocity=40 time=62\n",
      "282834 note_on channel=0 note=62 velocity=77 time=8\n",
      "282840 note_off channel=0 note=47 velocity=0 time=6\n",
      "282854 note_off channel=0 note=62 velocity=0 time=14\n",
      "282871 note_off channel=0 note=59 velocity=0 time=17\n",
      "282873 note_on channel=0 note=74 velocity=69 time=2\n",
      "282910 note_off channel=0 note=74 velocity=0 time=37\n",
      "282929 note_on channel=0 note=66 velocity=74 time=19\n",
      "282999 note_off channel=0 note=66 velocity=0 time=70\n",
      "283023 note_on channel=0 note=78 velocity=70 time=24\n",
      "283067 note_off channel=0 note=78 velocity=0 time=44\n",
      "283092 note_on channel=0 note=43 velocity=55 time=25\n",
      "283147 note_on channel=0 note=64 velocity=73 time=55\n",
      "283152 note_on channel=0 note=55 velocity=40 time=5\n",
      "283159 note_off channel=0 note=43 velocity=0 time=7\n",
      "283174 note_off channel=0 note=64 velocity=0 time=15\n",
      "283178 note_off channel=0 note=55 velocity=0 time=4\n",
      "283192 note_on channel=0 note=76 velocity=73 time=14\n",
      "283218 note_off channel=0 note=76 velocity=0 time=26\n",
      "283241 note_on channel=0 note=67 velocity=74 time=23\n",
      "283297 note_off channel=0 note=67 velocity=0 time=56\n",
      "283320 note_on channel=0 note=79 velocity=62 time=23\n",
      "283355 note_off channel=0 note=79 velocity=0 time=35\n",
      "283376 note_on channel=0 note=45 velocity=62 time=21\n",
      "283443 note_on channel=0 note=61 velocity=70 time=67\n",
      "283451 note_on channel=0 note=57 velocity=45 time=8\n",
      "283454 note_off channel=0 note=57 velocity=0 time=3\n",
      "283468 note_off channel=0 note=45 velocity=0 time=14\n",
      "283474 note_off channel=0 note=61 velocity=0 time=6\n",
      "283475 note_on channel=0 note=73 velocity=56 time=1\n",
      "283529 note_off channel=0 note=73 velocity=0 time=54\n",
      "283550 note_on channel=0 note=64 velocity=66 time=21\n",
      "283599 note_off channel=0 note=64 velocity=0 time=49\n",
      "283635 note_on channel=0 note=76 velocity=67 time=36\n",
      "283677 note_off channel=0 note=76 velocity=0 time=42\n",
      "283701 note_on channel=0 note=62 velocity=70 time=24\n",
      "283755 note_on channel=0 note=50 velocity=69 time=54\n",
      "283763 note_on channel=0 note=38 velocity=66 time=8\n",
      "283764 note_off channel=0 note=62 velocity=0 time=1\n",
      "283782 note_on channel=0 note=74 velocity=62 time=18\n",
      "283832 note_off channel=0 note=74 velocity=0 time=50\n",
      "283853 note_on channel=0 note=61 velocity=69 time=21\n",
      "283903 note_off channel=0 note=61 velocity=0 time=50\n",
      "283931 note_on channel=0 note=73 velocity=73 time=28\n",
      "283962 note_off channel=0 note=73 velocity=0 time=31\n",
      "284023 note_on channel=0 note=62 velocity=78 time=61\n",
      "284049 note_off channel=0 note=62 velocity=0 time=26\n",
      "284089 note_off channel=0 note=38 velocity=0 time=40\n",
      "284091 note_on channel=0 note=74 velocity=86 time=2\n",
      "284122 note_off channel=0 note=50 velocity=0 time=31\n",
      "284138 note_off channel=0 note=74 velocity=0 time=16\n",
      "284155 note_on channel=0 note=64 velocity=82 time=17\n",
      "284193 note_off channel=0 note=64 velocity=0 time=38\n",
      "284229 note_on channel=0 note=76 velocity=79 time=36\n",
      "284252 note_off channel=0 note=76 velocity=0 time=23\n",
      "284273 note_on channel=0 note=66 velocity=81 time=21\n",
      "284336 note_off channel=0 note=66 velocity=0 time=63\n",
      "284365 note_on channel=0 note=78 velocity=82 time=29\n",
      "284403 note_off channel=0 note=78 velocity=0 time=38\n",
      "284434 note_on channel=0 note=67 velocity=74 time=31\n",
      "284480 note_off channel=0 note=67 velocity=0 time=46\n",
      "284506 note_on channel=0 note=79 velocity=84 time=26\n",
      "284526 note_off channel=0 note=79 velocity=0 time=20\n",
      "284557 note_on channel=0 note=50 velocity=67 time=31\n",
      "284626 note_on channel=0 note=69 velocity=80 time=69\n",
      "284644 note_on channel=0 note=78 velocity=86 time=18\n",
      "284646 note_off channel=0 note=50 velocity=0 time=2\n",
      "284646 note_on channel=0 note=81 velocity=79 time=0\n",
      "284666 note_on channel=0 note=62 velocity=74 time=20\n",
      "284690 note_off channel=0 note=62 velocity=0 time=24\n",
      "284714 note_on channel=0 note=54 velocity=82 time=24\n",
      "284783 note_off channel=0 note=54 velocity=0 time=69\n",
      "284810 note_on channel=0 note=66 velocity=81 time=27\n",
      "284852 note_off channel=0 note=66 velocity=0 time=42\n",
      "284874 note_on channel=0 note=52 velocity=84 time=22\n",
      "284935 note_off channel=0 note=69 velocity=0 time=61\n",
      "284941 note_off channel=0 note=81 velocity=0 time=6\n",
      "284954 note_off channel=0 note=52 velocity=0 time=13\n",
      "284973 note_on channel=0 note=64 velocity=83 time=19\n",
      "285001 note_off channel=0 note=78 velocity=0 time=28\n",
      "285023 note_off channel=0 note=64 velocity=0 time=22\n",
      "285038 note_on channel=0 note=50 velocity=86 time=15\n",
      "285077 note_off channel=0 note=50 velocity=0 time=39\n",
      "285110 note_on channel=0 note=62 velocity=77 time=33\n",
      "285136 note_off channel=0 note=62 velocity=0 time=26\n",
      "285161 note_on channel=0 note=49 velocity=81 time=25\n",
      "285229 note_on channel=0 note=86 velocity=91 time=68\n",
      "285241 note_on channel=0 note=78 velocity=89 time=12\n",
      "285244 note_on channel=0 note=74 velocity=70 time=3\n",
      "285249 note_off channel=0 note=49 velocity=0 time=5\n",
      "285260 note_off channel=0 note=86 velocity=0 time=11\n",
      "285263 note_off channel=0 note=74 velocity=0 time=3\n",
      "285276 note_off channel=0 note=78 velocity=0 time=13\n",
      "285280 note_on channel=0 note=61 velocity=65 time=4\n",
      "285299 note_off channel=0 note=61 velocity=0 time=19\n",
      "285323 note_on channel=0 note=47 velocity=81 time=24\n",
      "285371 note_off channel=0 note=47 velocity=0 time=48\n",
      "285416 note_on channel=0 note=59 velocity=75 time=45\n",
      "285443 note_off channel=0 note=59 velocity=0 time=27\n",
      "285476 note_on channel=0 note=78 velocity=85 time=33\n",
      "285531 note_on channel=0 note=45 velocity=84 time=55\n",
      "285532 note_off channel=0 note=45 velocity=0 time=1\n",
      "285532 note_on channel=0 note=66 velocity=79 time=0\n",
      "285532 note_on channel=0 note=74 velocity=81 time=0\n",
      "285569 note_on channel=0 note=57 velocity=76 time=37\n",
      "285611 note_off channel=0 note=57 velocity=0 time=42\n",
      "285646 note_on channel=0 note=43 velocity=83 time=35\n",
      "285686 note_off channel=0 note=43 velocity=0 time=40\n",
      "285721 note_on channel=0 note=55 velocity=77 time=35\n",
      "285756 note_off channel=0 note=66 velocity=0 time=35\n",
      "285775 note_off channel=0 note=55 velocity=0 time=19\n",
      "285783 note_on channel=0 note=42 velocity=92 time=8\n",
      "285827 note_off channel=0 note=78 velocity=0 time=44\n",
      "285838 note_off channel=0 note=74 velocity=0 time=11\n",
      "285854 note_off channel=0 note=42 velocity=0 time=16\n",
      "285881 note_on channel=0 note=54 velocity=77 time=27\n",
      "285905 note_off channel=0 note=54 velocity=0 time=24\n",
      "285929 note_on channel=0 note=40 velocity=71 time=24\n",
      "285989 note_on channel=0 note=38 velocity=49 time=60\n",
      "286002 note_off channel=0 note=40 velocity=0 time=13\n",
      "286021 note_off channel=0 note=38 velocity=0 time=19\n",
      "286038 note_on channel=0 note=52 velocity=73 time=17\n",
      "286058 note_off channel=0 note=52 velocity=0 time=20\n",
      "286084 note_on channel=0 note=81 velocity=83 time=26\n",
      "286125 note_on channel=0 note=38 velocity=80 time=41\n",
      "286126 note_on channel=0 note=78 velocity=80 time=1\n",
      "286127 note_on channel=0 note=69 velocity=72 time=1\n",
      "286130 note_off channel=0 note=38 velocity=0 time=3\n",
      "286165 note_on channel=0 note=50 velocity=73 time=35\n",
      "286198 note_off channel=0 note=81 velocity=0 time=33\n",
      "286204 note_off channel=0 note=50 velocity=0 time=6\n",
      "286226 note_off channel=0 note=69 velocity=0 time=22\n",
      "286260 note_off channel=0 note=78 velocity=0 time=34\n",
      "286263 note_on channel=0 note=37 velocity=81 time=3\n",
      "286279 note_on channel=0 note=49 velocity=80 time=16\n",
      "286319 note_off channel=0 note=37 velocity=0 time=40\n",
      "286336 note_off channel=0 note=49 velocity=0 time=17\n",
      "286372 note_on channel=0 note=35 velocity=80 time=36\n",
      "286418 note_on channel=0 note=47 velocity=56 time=46\n",
      "286438 note_off channel=0 note=35 velocity=0 time=20\n",
      "286444 note_off channel=0 note=47 velocity=0 time=6\n",
      "286465 note_on channel=0 note=67 velocity=76 time=21\n",
      "286482 note_off channel=0 note=67 velocity=0 time=17\n",
      "286508 note_on channel=0 note=74 velocity=63 time=26\n",
      "286564 note_off channel=0 note=74 velocity=0 time=56\n",
      "286614 note_on channel=0 note=79 velocity=66 time=50\n",
      "286629 note_off channel=0 note=79 velocity=0 time=15\n",
      "286657 note_on channel=0 note=45 velocity=73 time=28\n",
      "286713 note_on channel=0 note=33 velocity=61 time=56\n",
      "286718 note_off channel=0 note=45 velocity=0 time=5\n",
      "286738 note_off channel=0 note=33 velocity=0 time=20\n",
      "286754 note_on channel=0 note=66 velocity=72 time=16\n",
      "286785 note_off channel=0 note=66 velocity=0 time=31\n",
      "286847 note_on channel=0 note=74 velocity=70 time=62\n",
      "286863 note_off channel=0 note=74 velocity=0 time=16\n",
      "286921 note_on channel=0 note=78 velocity=70 time=58\n",
      "286923 note_off channel=0 note=78 velocity=0 time=2\n",
      "286953 note_on channel=0 note=33 velocity=72 time=30\n",
      "286995 note_on channel=0 note=45 velocity=71 time=42\n",
      "286998 note_off channel=0 note=45 velocity=0 time=3\n",
      "287026 note_off channel=0 note=33 velocity=0 time=28\n",
      "287028 note_on channel=0 note=64 velocity=71 time=2\n",
      "287071 note_off channel=0 note=64 velocity=0 time=43\n",
      "287125 note_on channel=0 note=73 velocity=70 time=54\n",
      "287152 note_off channel=0 note=73 velocity=0 time=27\n",
      "287200 note_on channel=0 note=76 velocity=68 time=48\n",
      "287216 note_off channel=0 note=76 velocity=0 time=16\n",
      "287242 note_on channel=0 note=74 velocity=63 time=26\n",
      "287362 note_on channel=0 note=62 velocity=23 time=120\n",
      "287384 note_on channel=0 note=50 velocity=45 time=22\n",
      "287452 note_off channel=0 note=50 velocity=0 time=68\n",
      "287505 note_on channel=0 note=54 velocity=28 time=53\n",
      "287547 note_off channel=0 note=54 velocity=0 time=42\n",
      "287583 note_on channel=0 note=50 velocity=73 time=36\n",
      "287601 note_off channel=0 note=50 velocity=0 time=18\n",
      "287632 note_on channel=0 note=45 velocity=47 time=31\n",
      "287699 note_off channel=0 note=45 velocity=0 time=67\n",
      "287733 note_on channel=0 note=50 velocity=59 time=34\n",
      "287758 note_off channel=0 note=50 velocity=0 time=25\n",
      "287788 note_on channel=0 note=42 velocity=61 time=30\n",
      "287826 note_off channel=0 note=42 velocity=0 time=38\n",
      "287876 note_on channel=0 note=45 velocity=45 time=50\n",
      "287920 note_off channel=0 note=45 velocity=0 time=44\n",
      "288023 note_off channel=0 note=74 velocity=0 time=103\n",
      "288042 note_off channel=0 note=62 velocity=0 time=19\n",
      "288045 note_on channel=0 note=38 velocity=56 time=3\n",
      "288224 note_off channel=0 note=38 velocity=0 time=179\n",
      "288612 note_on channel=0 note=61 velocity=39 time=388\n",
      "288632 note_on channel=0 note=64 velocity=71 time=20\n",
      "288639 note_on channel=0 note=57 velocity=32 time=7\n",
      "288655 note_off channel=0 note=64 velocity=0 time=16\n",
      "288666 note_on channel=0 note=76 velocity=48 time=11\n",
      "288738 note_off channel=0 note=76 velocity=0 time=72\n",
      "288763 note_off channel=0 note=61 velocity=0 time=25\n",
      "288784 note_on channel=0 note=60 velocity=53 time=21\n",
      "288819 note_on channel=0 note=63 velocity=68 time=35\n",
      "288820 note_off channel=0 note=63 velocity=0 time=1\n",
      "288848 note_on channel=0 note=75 velocity=57 time=28\n",
      "288903 note_off channel=0 note=60 velocity=0 time=55\n",
      "288923 note_off channel=0 note=75 velocity=0 time=20\n",
      "288946 note_on channel=0 note=61 velocity=51 time=23\n",
      "288957 note_on channel=0 note=64 velocity=71 time=11\n",
      "288976 note_off channel=0 note=64 velocity=0 time=19\n",
      "289002 note_on channel=0 note=76 velocity=61 time=26\n",
      "289061 note_off channel=0 note=61 velocity=0 time=59\n",
      "289082 note_off channel=0 note=76 velocity=0 time=21\n",
      "289091 note_on channel=0 note=63 velocity=74 time=9\n",
      "289132 note_on channel=0 note=60 velocity=38 time=41\n",
      "289142 note_off channel=0 note=63 velocity=0 time=10\n",
      "289160 note_on channel=0 note=75 velocity=65 time=18\n",
      "289210 note_off channel=0 note=75 velocity=0 time=50\n",
      "289259 note_off channel=0 note=60 velocity=0 time=49\n",
      "289277 note_on channel=0 note=61 velocity=49 time=18\n",
      "289315 note_on channel=0 note=76 velocity=60 time=38\n",
      "289355 note_off channel=0 note=76 velocity=0 time=40\n",
      "289375 note_off channel=0 note=61 velocity=0 time=20\n",
      "289425 note_on channel=0 note=63 velocity=58 time=50\n",
      "289449 note_on channel=0 note=66 velocity=70 time=24\n",
      "289450 note_off channel=0 note=66 velocity=0 time=1\n",
      "289477 note_on channel=0 note=78 velocity=64 time=27\n",
      "289523 note_off channel=0 note=78 velocity=0 time=46\n",
      "289553 note_off channel=0 note=63 velocity=0 time=30\n",
      "289582 note_on channel=0 note=64 velocity=57 time=29\n",
      "289607 note_on channel=0 note=67 velocity=62 time=25\n",
      "289611 note_off channel=0 note=67 velocity=0 time=4\n",
      "289636 note_on channel=0 note=79 velocity=44 time=25\n",
      "289702 note_off channel=0 note=79 velocity=0 time=66\n",
      "289730 note_off channel=0 note=64 velocity=0 time=28\n",
      "289744 note_on channel=0 note=66 velocity=58 time=14\n",
      "289786 note_on channel=0 note=63 velocity=51 time=42\n",
      "289790 note_off channel=0 note=66 velocity=0 time=4\n",
      "289816 note_on channel=0 note=78 velocity=55 time=26\n",
      "289865 note_off channel=0 note=78 velocity=0 time=49\n",
      "289896 note_off channel=0 note=63 velocity=0 time=31\n",
      "289914 note_on channel=0 note=67 velocity=64 time=18\n",
      "289938 note_on channel=0 note=64 velocity=48 time=24\n",
      "289951 note_off channel=0 note=67 velocity=0 time=13\n",
      "289965 note_on channel=0 note=79 velocity=47 time=14\n",
      "290023 note_off channel=0 note=79 velocity=0 time=58\n",
      "290050 note_off channel=0 note=64 velocity=0 time=27\n",
      "290055 note_on channel=0 note=63 velocity=50 time=5\n",
      "290085 note_on channel=0 note=66 velocity=69 time=30\n",
      "290091 note_off channel=0 note=66 velocity=0 time=6\n",
      "290123 note_on channel=0 note=78 velocity=64 time=32\n",
      "290166 note_off channel=0 note=78 velocity=0 time=43\n",
      "290228 note_on channel=0 note=64 velocity=54 time=62\n",
      "290231 note_off channel=0 note=63 velocity=0 time=3\n",
      "290234 note_on channel=0 note=67 velocity=77 time=3\n",
      "290239 note_off channel=0 note=67 velocity=0 time=5\n",
      "290268 note_on channel=0 note=79 velocity=67 time=29\n",
      "290320 note_off channel=0 note=64 velocity=0 time=52\n",
      "290335 note_off channel=0 note=79 velocity=0 time=15\n",
      "290338 note_on channel=0 note=61 velocity=59 time=3\n",
      "290373 note_off channel=0 note=57 velocity=0 time=35\n",
      "290389 note_off channel=0 note=61 velocity=0 time=16\n",
      "290398 note_on channel=0 note=64 velocity=67 time=9\n",
      "290400 note_off channel=0 note=64 velocity=0 time=2\n",
      "290426 note_on channel=0 note=76 velocity=67 time=26\n",
      "290461 note_off channel=0 note=76 velocity=0 time=35\n",
      "290485 note_on channel=0 note=66 velocity=79 time=24\n",
      "290559 note_on channel=0 note=62 velocity=59 time=74\n",
      "290561 note_on channel=0 note=50 velocity=67 time=2\n",
      "290569 note_off channel=0 note=66 velocity=0 time=8\n",
      "290593 note_off channel=0 note=62 velocity=0 time=24\n",
      "290601 note_on channel=0 note=78 velocity=69 time=8\n",
      "290638 note_off channel=0 note=78 velocity=0 time=37\n",
      "290663 note_on channel=0 note=65 velocity=67 time=25\n",
      "290711 note_on channel=0 note=61 velocity=49 time=48\n",
      "290729 note_off channel=0 note=65 velocity=0 time=18\n",
      "290738 note_on channel=0 note=77 velocity=69 time=9\n",
      "290780 note_off channel=0 note=77 velocity=0 time=42\n",
      "290811 note_off channel=0 note=61 velocity=0 time=31\n",
      "290823 note_on channel=0 note=66 velocity=77 time=12\n",
      "290861 note_on channel=0 note=62 velocity=63 time=38\n",
      "290863 note_off channel=0 note=66 velocity=0 time=2\n",
      "290908 note_off channel=0 note=62 velocity=0 time=45\n",
      "290921 note_on channel=0 note=78 velocity=83 time=13\n",
      "290934 note_off channel=0 note=78 velocity=0 time=13\n",
      "290988 note_on channel=0 note=61 velocity=50 time=54\n",
      "291001 note_on channel=0 note=65 velocity=75 time=13\n",
      "291017 note_off channel=0 note=65 velocity=0 time=16\n",
      "291043 note_on channel=0 note=77 velocity=74 time=26\n",
      "291080 note_off channel=0 note=77 velocity=0 time=37\n",
      "291114 note_off channel=0 note=50 velocity=0 time=34\n",
      "291141 note_on channel=0 note=66 velocity=77 time=27\n",
      "291157 note_on channel=0 note=62 velocity=70 time=16\n",
      "291161 note_off channel=0 note=61 velocity=0 time=4\n",
      "291179 note_off channel=0 note=66 velocity=0 time=18\n",
      "291197 note_on channel=0 note=78 velocity=80 time=18\n",
      "291221 note_off channel=0 note=62 velocity=0 time=24\n",
      "291240 note_off channel=0 note=78 velocity=0 time=19\n",
      "291271 note_on channel=0 note=64 velocity=72 time=31\n",
      "291285 note_on channel=0 note=67 velocity=83 time=14\n",
      "291299 note_off channel=0 note=64 velocity=0 time=14\n",
      "291319 note_off channel=0 note=67 velocity=0 time=20\n",
      "291338 note_on channel=0 note=79 velocity=81 time=19\n",
      "291375 note_off channel=0 note=79 velocity=0 time=37\n",
      "291403 note_on channel=0 note=69 velocity=78 time=28\n",
      "291463 note_on channel=0 note=62 velocity=48 time=60\n",
      "291472 note_on channel=0 note=66 velocity=58 time=9\n",
      "291475 note_off channel=0 note=69 velocity=0 time=3\n",
      "291484 note_on channel=0 note=81 velocity=67 time=9\n",
      "291532 note_off channel=0 note=81 velocity=0 time=48\n",
      "291557 note_off channel=0 note=66 velocity=0 time=25\n",
      "291577 note_on channel=0 note=68 velocity=76 time=20\n",
      "291613 note_on channel=0 note=65 velocity=60 time=36\n",
      "291616 note_off channel=0 note=68 velocity=0 time=3\n",
      "291635 note_on channel=0 note=80 velocity=75 time=19\n",
      "291675 note_off channel=0 note=65 velocity=0 time=40\n",
      "291698 note_off channel=0 note=80 velocity=0 time=23\n",
      "291731 note_on channel=0 note=69 velocity=79 time=33\n",
      "291756 note_on channel=0 note=66 velocity=61 time=25\n",
      "291761 note_off channel=0 note=69 velocity=0 time=5\n",
      "291783 note_on channel=0 note=81 velocity=77 time=22\n",
      "291833 note_off channel=0 note=66 velocity=0 time=50\n",
      "291845 note_off channel=0 note=81 velocity=0 time=12\n",
      "291858 note_on channel=0 note=65 velocity=64 time=13\n",
      "291891 note_on channel=0 note=68 velocity=83 time=33\n",
      "291895 note_off channel=0 note=68 velocity=0 time=4\n",
      "291941 note_on channel=0 note=80 velocity=82 time=46\n",
      "291961 note_off channel=0 note=80 velocity=0 time=20\n",
      "292022 note_on channel=0 note=66 velocity=71 time=61\n",
      "292041 note_on channel=0 note=69 velocity=84 time=19\n",
      "292045 note_off channel=0 note=65 velocity=0 time=4\n",
      "292066 note_off channel=0 note=69 velocity=0 time=21\n",
      "292102 note_off channel=0 note=66 velocity=0 time=36\n",
      "292104 note_off channel=0 note=62 velocity=0 time=2\n",
      "292126 note_on channel=0 note=81 velocity=82 time=22\n",
      "292146 note_off channel=0 note=81 velocity=0 time=20\n",
      "292151 note_on channel=0 note=74 velocity=88 time=5\n",
      "292210 note_off channel=0 note=74 velocity=0 time=59\n",
      "292240 note_on channel=0 note=86 velocity=90 time=30\n",
      "292298 note_off channel=0 note=86 velocity=0 time=58\n",
      "292313 note_on channel=0 note=31 velocity=78 time=15\n",
      "292367 note_on channel=0 note=81 velocity=85 time=54\n",
      "292375 note_on channel=0 note=85 velocity=85 time=8\n",
      "292377 note_on channel=0 note=73 velocity=84 time=2\n",
      "292380 note_off channel=0 note=31 velocity=0 time=3\n",
      "292414 note_on channel=0 note=43 velocity=75 time=34\n",
      "292450 note_off channel=0 note=43 velocity=0 time=36\n",
      "292484 note_off channel=0 note=81 velocity=0 time=34\n",
      "292499 note_off channel=0 note=85 velocity=0 time=15\n",
      "292502 note_on channel=0 note=33 velocity=87 time=3\n",
      "292541 note_off channel=0 note=73 velocity=0 time=39\n",
      "292545 note_off channel=0 note=33 velocity=0 time=4\n",
      "292576 note_on channel=0 note=45 velocity=82 time=31\n",
      "292606 note_off channel=0 note=45 velocity=0 time=30\n",
      "292641 note_on channel=0 note=35 velocity=80 time=35\n",
      "292698 note_on channel=0 note=83 velocity=86 time=57\n",
      "292706 note_on channel=0 note=71 velocity=83 time=8\n",
      "292707 note_on channel=0 note=79 velocity=74 time=1\n",
      "292711 note_off channel=0 note=35 velocity=0 time=4\n",
      "292732 note_on channel=0 note=47 velocity=72 time=21\n",
      "292762 note_off channel=0 note=71 velocity=0 time=30\n",
      "292784 note_off channel=0 note=47 velocity=0 time=22\n",
      "292788 note_off channel=0 note=83 velocity=0 time=4\n",
      "292817 note_on channel=0 note=37 velocity=90 time=29\n",
      "292829 note_off channel=0 note=37 velocity=0 time=12\n",
      "292881 note_off channel=0 note=79 velocity=0 time=52\n",
      "292894 note_on channel=0 note=49 velocity=77 time=13\n",
      "292905 note_off channel=0 note=49 velocity=0 time=11\n",
      "292937 note_on channel=0 note=38 velocity=88 time=32\n",
      "292988 note_on channel=0 note=81 velocity=83 time=51\n",
      "292990 note_on channel=0 note=78 velocity=91 time=2\n",
      "292993 note_off channel=0 note=38 velocity=0 time=3\n",
      "293021 note_off channel=0 note=78 velocity=0 time=28\n",
      "293023 note_off channel=0 note=81 velocity=0 time=2\n",
      "293038 note_on channel=0 note=50 velocity=80 time=15\n",
      "293048 note_off channel=0 note=50 velocity=0 time=10\n",
      "293077 note_on channel=0 note=42 velocity=88 time=29\n",
      "293126 note_on channel=0 note=81 velocity=83 time=49\n",
      "293131 note_on channel=0 note=86 velocity=74 time=5\n",
      "293137 note_on channel=0 note=74 velocity=78 time=6\n",
      "293141 note_off channel=0 note=42 velocity=0 time=4\n",
      "293157 note_off channel=0 note=86 velocity=0 time=16\n",
      "293172 note_off channel=0 note=74 velocity=0 time=15\n",
      "293187 note_off channel=0 note=81 velocity=0 time=15\n",
      "293197 note_on channel=0 note=54 velocity=78 time=10\n",
      "293218 note_off channel=0 note=54 velocity=0 time=21\n",
      "293278 note_on channel=0 note=43 velocity=83 time=60\n",
      "293282 note_on channel=0 note=81 velocity=90 time=4\n",
      "293283 note_on channel=0 note=73 velocity=79 time=1\n",
      "293283 note_on channel=0 note=85 velocity=86 time=0\n",
      "293309 note_off channel=0 note=43 velocity=0 time=26\n",
      "293340 note_on channel=0 note=55 velocity=79 time=31\n",
      "293370 note_off channel=0 note=81 velocity=0 time=30\n",
      "293375 note_off channel=0 note=55 velocity=0 time=5\n",
      "293387 note_off channel=0 note=85 velocity=0 time=12\n",
      "293390 note_off channel=0 note=73 velocity=0 time=3\n",
      "293416 note_on channel=0 note=45 velocity=87 time=26\n",
      "293445 note_off channel=0 note=45 velocity=0 time=29\n",
      "293465 note_on channel=0 note=78 velocity=56 time=20\n",
      "293468 note_off channel=0 note=78 velocity=0 time=3\n",
      "293493 note_on channel=0 note=57 velocity=79 time=25\n",
      "293521 note_off channel=0 note=57 velocity=0 time=28\n",
      "293566 note_on channel=0 note=47 velocity=86 time=45\n",
      "293576 note_on channel=0 note=83 velocity=86 time=10\n",
      "293578 note_on channel=0 note=71 velocity=76 time=2\n",
      "293583 note_on channel=0 note=79 velocity=72 time=5\n",
      "293597 note_off channel=0 note=47 velocity=0 time=14\n",
      "293621 note_off channel=0 note=71 velocity=0 time=24\n",
      "293651 note_on channel=0 note=59 velocity=71 time=30\n",
      "293681 note_off channel=0 note=59 velocity=0 time=30\n",
      "293711 note_on channel=0 note=49 velocity=83 time=30\n",
      "293743 note_off channel=0 note=49 velocity=0 time=32\n",
      "293755 note_off channel=0 note=83 velocity=0 time=12\n",
      "293774 note_off channel=0 note=79 velocity=0 time=19\n",
      "293789 note_on channel=0 note=61 velocity=73 time=15\n",
      "293819 note_off channel=0 note=61 velocity=0 time=30\n",
      "293865 note_on channel=0 note=81 velocity=75 time=46\n",
      "293866 note_on channel=0 note=78 velocity=77 time=1\n",
      "293869 note_on channel=0 note=50 velocity=90 time=3\n",
      "293879 note_off channel=0 note=81 velocity=0 time=10\n",
      "293888 note_off channel=0 note=78 velocity=0 time=9\n",
      "293895 note_off channel=0 note=50 velocity=0 time=7\n",
      "293924 note_on channel=0 note=62 velocity=75 time=29\n",
      "293955 note_off channel=0 note=62 velocity=0 time=31\n",
      "294016 note_on channel=0 note=49 velocity=80 time=61\n",
      "294019 note_on channel=0 note=81 velocity=87 time=3\n",
      "294031 note_on channel=0 note=76 velocity=69 time=12\n",
      "294034 note_off channel=0 note=81 velocity=0 time=3\n",
      "294047 note_off channel=0 note=49 velocity=0 time=13\n",
      "294050 note_off channel=0 note=76 velocity=0 time=3\n",
      "294062 note_on channel=0 note=61 velocity=64 time=12\n",
      "294088 note_off channel=0 note=61 velocity=0 time=26\n",
      "294113 note_on channel=0 note=47 velocity=84 time=25\n",
      "294163 note_on channel=0 note=74 velocity=77 time=50\n",
      "294180 note_on channel=0 note=79 velocity=66 time=17\n",
      "294184 note_off channel=0 note=47 velocity=0 time=4\n",
      "294200 note_off channel=0 note=74 velocity=0 time=16\n",
      "294220 note_on channel=0 note=59 velocity=77 time=20\n",
      "294232 note_off channel=0 note=59 velocity=0 time=12\n",
      "294266 note_off channel=0 note=79 velocity=0 time=34\n",
      "294291 note_on channel=0 note=45 velocity=85 time=25\n",
      "294318 note_on channel=0 note=73 velocity=80 time=27\n",
      "294318 note_on channel=0 note=78 velocity=81 time=0\n",
      "294321 note_off channel=0 note=73 velocity=0 time=3\n",
      "294343 note_off channel=0 note=45 velocity=0 time=22\n",
      "294352 note_off channel=0 note=78 velocity=0 time=9\n",
      "294376 note_on channel=0 note=57 velocity=74 time=24\n",
      "294394 note_off channel=0 note=57 velocity=0 time=18\n",
      "294428 note_on channel=0 note=71 velocity=74 time=34\n",
      "294475 note_on channel=0 note=43 velocity=83 time=47\n",
      "294508 note_off channel=0 note=71 velocity=0 time=33\n",
      "294510 note_off channel=0 note=43 velocity=0 time=2\n",
      "294511 note_on channel=0 note=55 velocity=78 time=1\n",
      "294546 note_off channel=0 note=55 velocity=0 time=35\n",
      "294578 note_on channel=0 note=74 velocity=90 time=32\n",
      "294621 note_on channel=0 note=69 velocity=75 time=43\n",
      "294624 note_on channel=0 note=42 velocity=84 time=3\n",
      "294627 note_off channel=0 note=69 velocity=0 time=3\n",
      "294651 note_off channel=0 note=74 velocity=0 time=24\n",
      "294667 note_off channel=0 note=42 velocity=0 time=16\n",
      "294669 note_on channel=0 note=54 velocity=73 time=2\n",
      "294702 note_off channel=0 note=54 velocity=0 time=33\n",
      "294728 note_on channel=0 note=40 velocity=77 time=26\n",
      "294777 note_on channel=0 note=73 velocity=86 time=49\n",
      "294778 note_on channel=0 note=67 velocity=71 time=1\n",
      "294787 note_off channel=0 note=40 velocity=0 time=9\n",
      "294814 note_off channel=0 note=67 velocity=0 time=27\n",
      "294817 note_on channel=0 note=52 velocity=75 time=3\n",
      "294847 note_off channel=0 note=73 velocity=0 time=30\n",
      "294860 note_off channel=0 note=52 velocity=0 time=13\n",
      "294879 note_on channel=0 note=74 velocity=82 time=19\n",
      "294920 note_on channel=0 note=38 velocity=84 time=41\n",
      "294922 note_on channel=0 note=66 velocity=70 time=2\n",
      "294926 note_off channel=0 note=38 velocity=0 time=4\n",
      "294955 note_off channel=0 note=66 velocity=0 time=29\n",
      "294967 note_off channel=0 note=74 velocity=0 time=12\n",
      "295038 note_on channel=0 note=73 velocity=71 time=71\n",
      "295108 note_on channel=0 note=76 velocity=72 time=70\n",
      "295112 note_on channel=0 note=45 velocity=75 time=4\n",
      "295122 note_on channel=0 note=33 velocity=71 time=10\n",
      "295125 note_off channel=0 note=76 velocity=0 time=3\n",
      "295187 note_off channel=0 note=73 velocity=0 time=62\n",
      "295294 note_on channel=0 note=61 velocity=72 time=107\n",
      "295339 note_off channel=0 note=61 velocity=0 time=45\n",
      "295370 note_on channel=0 note=73 velocity=75 time=31\n",
      "295400 note_off channel=0 note=33 velocity=0 time=30\n",
      "295416 note_off channel=0 note=73 velocity=0 time=16\n",
      "295419 note_on channel=0 note=62 velocity=80 time=3\n",
      "295459 note_off channel=0 note=45 velocity=0 time=40\n",
      "295465 note_off channel=0 note=62 velocity=0 time=6\n",
      "295496 note_on channel=0 note=74 velocity=84 time=31\n",
      "295539 note_off channel=0 note=74 velocity=0 time=43\n",
      "295575 note_on channel=0 note=64 velocity=83 time=36\n",
      "295608 note_off channel=0 note=64 velocity=0 time=33\n",
      "295644 note_on channel=0 note=76 velocity=72 time=36\n",
      "295675 note_off channel=0 note=76 velocity=0 time=31\n",
      "295699 note_on channel=0 note=66 velocity=77 time=24\n",
      "295760 note_off channel=0 note=66 velocity=0 time=61\n",
      "295788 note_on channel=0 note=78 velocity=77 time=28\n",
      "295827 note_off channel=0 note=78 velocity=0 time=39\n",
      "295868 note_on channel=0 note=67 velocity=76 time=41\n",
      "295906 note_off channel=0 note=67 velocity=0 time=38\n",
      "295939 note_on channel=0 note=79 velocity=71 time=33\n",
      "295988 note_off channel=0 note=79 velocity=0 time=49\n",
      "296015 note_on channel=0 note=69 velocity=73 time=27\n",
      "296070 note_on channel=0 note=66 velocity=68 time=55\n",
      "296080 note_on channel=0 note=62 velocity=61 time=10\n",
      "296085 note_off channel=0 note=69 velocity=0 time=5\n",
      "296095 note_on channel=0 note=81 velocity=45 time=10\n",
      "296164 note_off channel=0 note=81 velocity=0 time=69\n",
      "296193 note_on channel=0 note=68 velocity=71 time=29\n",
      "296237 note_off channel=0 note=66 velocity=0 time=44\n",
      "296251 note_on channel=0 note=65 velocity=62 time=14\n",
      "296261 note_off channel=0 note=68 velocity=0 time=10\n",
      "296262 note_on channel=0 note=80 velocity=64 time=1\n",
      "296306 note_off channel=0 note=65 velocity=0 time=44\n",
      "296312 note_off channel=0 note=80 velocity=0 time=6\n",
      "296366 note_on channel=0 note=69 velocity=67 time=54\n",
      "296394 note_on channel=0 note=66 velocity=59 time=28\n",
      "296411 note_off channel=0 note=69 velocity=0 time=17\n",
      "296421 note_on channel=0 note=81 velocity=59 time=10\n",
      "296477 note_off channel=0 note=81 velocity=0 time=56\n",
      "296498 note_off channel=0 note=66 velocity=0 time=21\n",
      "296509 note_on channel=0 note=68 velocity=75 time=11\n",
      "296543 note_on channel=0 note=65 velocity=52 time=34\n",
      "296550 note_off channel=0 note=68 velocity=0 time=7\n",
      "296575 note_on channel=0 note=80 velocity=56 time=25\n",
      "296620 note_off channel=0 note=80 velocity=0 time=45\n",
      "296664 note_off channel=0 note=65 velocity=0 time=44\n",
      "296666 note_on channel=0 note=66 velocity=49 time=2\n",
      "296703 note_on channel=0 note=69 velocity=73 time=37\n",
      "296704 note_off channel=0 note=69 velocity=0 time=1\n",
      "296736 note_on channel=0 note=81 velocity=72 time=32\n",
      "296779 note_off channel=0 note=66 velocity=0 time=43\n",
      "296780 note_off channel=0 note=62 velocity=0 time=1\n",
      "296794 note_off channel=0 note=81 velocity=0 time=14\n",
      "296802 note_on channel=0 note=74 velocity=73 time=8\n",
      "296854 note_off channel=0 note=74 velocity=0 time=52\n",
      "296880 note_on channel=0 note=86 velocity=77 time=26\n",
      "296913 note_off channel=0 note=86 velocity=0 time=33\n",
      "296939 note_on channel=0 note=57 velocity=67 time=26\n",
      "297015 note_on channel=0 note=50 velocity=56 time=76\n",
      "297026 note_on channel=0 note=66 velocity=70 time=11\n",
      "297032 note_off channel=0 note=66 velocity=0 time=6\n",
      "297058 note_on channel=0 note=78 velocity=71 time=26\n",
      "297093 note_off channel=0 note=57 velocity=0 time=35\n",
      "297095 note_off channel=0 note=78 velocity=0 time=2\n",
      "297121 note_on channel=0 note=56 velocity=66 time=26\n",
      "297177 note_on channel=0 note=65 velocity=69 time=56\n",
      "297182 note_off channel=0 note=65 velocity=0 time=5\n",
      "297207 note_on channel=0 note=77 velocity=69 time=25\n",
      "297251 note_off channel=0 note=77 velocity=0 time=44\n",
      "297283 note_off channel=0 note=56 velocity=0 time=32\n",
      "297298 note_on channel=0 note=57 velocity=62 time=15\n",
      "297335 note_on channel=0 note=66 velocity=68 time=37\n",
      "297336 note_off channel=0 note=66 velocity=0 time=1\n",
      "297365 note_on channel=0 note=78 velocity=66 time=29\n",
      "297404 note_off channel=0 note=57 velocity=0 time=39\n",
      "297444 note_off channel=0 note=78 velocity=0 time=40\n",
      "297461 note_on channel=0 note=56 velocity=56 time=17\n",
      "297482 note_on channel=0 note=65 velocity=71 time=21\n",
      "297493 note_off channel=0 note=65 velocity=0 time=11\n",
      "297516 note_on channel=0 note=77 velocity=66 time=23\n",
      "297566 note_off channel=0 note=77 velocity=0 time=50\n",
      "297594 note_on channel=0 note=66 velocity=71 time=28\n",
      "297641 note_on channel=0 note=57 velocity=59 time=47\n",
      "297642 note_off channel=0 note=50 velocity=0 time=1\n",
      "297644 note_off channel=0 note=56 velocity=0 time=2\n",
      "297644 note_off channel=0 note=66 velocity=0 time=0\n",
      "297669 note_off channel=0 note=57 velocity=0 time=25\n",
      "297671 note_on channel=0 note=78 velocity=69 time=2\n",
      "297706 note_off channel=0 note=78 velocity=0 time=35\n",
      "297737 note_on channel=0 note=69 velocity=70 time=31\n",
      "297785 note_off channel=0 note=69 velocity=0 time=48\n",
      "297813 note_on channel=0 note=81 velocity=74 time=28\n",
      "297855 note_off channel=0 note=81 velocity=0 time=42\n",
      "297880 note_on channel=0 note=47 velocity=63 time=25\n",
      "297939 note_on channel=0 note=59 velocity=41 time=59\n",
      "297950 note_on channel=0 note=62 velocity=70 time=11\n",
      "297962 note_off channel=0 note=47 velocity=0 time=12\n",
      "297968 note_off channel=0 note=59 velocity=0 time=6\n",
      "297984 note_off channel=0 note=62 velocity=0 time=16\n",
      "297989 note_on channel=0 note=74 velocity=62 time=5\n",
      "298020 note_off channel=0 note=74 velocity=0 time=31\n",
      "298040 note_on channel=0 note=66 velocity=74 time=20\n",
      "298109 note_off channel=0 note=66 velocity=0 time=69\n",
      "298135 note_on channel=0 note=78 velocity=72 time=26\n",
      "298176 note_off channel=0 note=78 velocity=0 time=41\n",
      "298200 note_on channel=0 note=64 velocity=72 time=24\n",
      "298274 note_on channel=0 note=43 velocity=55 time=74\n",
      "298277 note_on channel=0 note=55 velocity=43 time=3\n",
      "298286 note_off channel=0 note=64 velocity=0 time=9\n",
      "298302 note_off channel=0 note=43 velocity=0 time=16\n",
      "298304 note_off channel=0 note=55 velocity=0 time=2\n",
      "298320 note_on channel=0 note=76 velocity=69 time=16\n",
      "298345 note_off channel=0 note=76 velocity=0 time=25\n",
      "298368 note_on channel=0 note=67 velocity=74 time=23\n",
      "298424 note_off channel=0 note=67 velocity=0 time=56\n",
      "298447 note_on channel=0 note=79 velocity=58 time=23\n",
      "298485 note_off channel=0 note=79 velocity=0 time=38\n",
      "298503 note_on channel=0 note=45 velocity=58 time=18\n",
      "298580 note_off channel=0 note=45 velocity=0 time=77\n",
      "298580 note_on channel=0 note=61 velocity=63 time=0\n",
      "298604 note_off channel=0 note=61 velocity=0 time=24\n",
      "298607 note_on channel=0 note=73 velocity=65 time=3\n",
      "298646 note_off channel=0 note=73 velocity=0 time=39\n",
      "298672 note_on channel=0 note=64 velocity=72 time=26\n",
      "298724 note_off channel=0 note=64 velocity=0 time=52\n",
      "298750 note_on channel=0 note=76 velocity=71 time=26\n",
      "298794 note_off channel=0 note=76 velocity=0 time=44\n",
      "298822 note_on channel=0 note=62 velocity=70 time=28\n",
      "298885 note_on channel=0 note=50 velocity=65 time=63\n",
      "298890 note_on channel=0 note=38 velocity=59 time=5\n",
      "298895 note_off channel=0 note=62 velocity=0 time=5\n",
      "298912 note_on channel=0 note=74 velocity=62 time=17\n",
      "298963 note_off channel=0 note=74 velocity=0 time=51\n",
      "298984 note_on channel=0 note=61 velocity=70 time=21\n",
      "299043 note_off channel=0 note=61 velocity=0 time=59\n",
      "299077 note_on channel=0 note=73 velocity=71 time=34\n",
      "299106 note_off channel=0 note=73 velocity=0 time=29\n",
      "299158 note_on channel=0 note=62 velocity=79 time=52\n",
      "299194 note_off channel=0 note=38 velocity=0 time=36\n",
      "299225 note_off channel=0 note=62 velocity=0 time=31\n",
      "299229 note_off channel=0 note=50 velocity=0 time=4\n",
      "299307 note_on channel=0 note=64 velocity=81 time=78\n",
      "299345 note_off channel=0 note=64 velocity=0 time=38\n",
      "299375 note_on channel=0 note=76 velocity=79 time=30\n",
      "299410 note_off channel=0 note=76 velocity=0 time=35\n",
      "299432 note_on channel=0 note=66 velocity=82 time=22\n",
      "299491 note_off channel=0 note=66 velocity=0 time=59\n",
      "299527 note_on channel=0 note=78 velocity=85 time=36\n",
      "299553 note_off channel=0 note=78 velocity=0 time=26\n",
      "299589 note_on channel=0 note=67 velocity=86 time=36\n",
      "299628 note_off channel=0 note=67 velocity=0 time=39\n",
      "299672 note_on channel=0 note=79 velocity=72 time=44\n",
      "299680 note_off channel=0 note=79 velocity=0 time=8\n",
      "299705 note_on channel=0 note=50 velocity=71 time=25\n",
      "299780 note_on channel=0 note=81 velocity=86 time=75\n",
      "299798 note_on channel=0 note=78 velocity=87 time=18\n",
      "299800 note_on channel=0 note=69 velocity=78 time=2\n",
      "299802 note_off channel=0 note=50 velocity=0 time=2\n",
      "299822 note_on channel=0 note=62 velocity=69 time=20\n",
      "299852 note_off channel=0 note=62 velocity=0 time=30\n",
      "299877 note_on channel=0 note=54 velocity=82 time=25\n",
      "299939 note_off channel=0 note=54 velocity=0 time=62\n",
      "299968 note_on channel=0 note=66 velocity=80 time=29\n",
      "300011 note_off channel=0 note=66 velocity=0 time=43\n",
      "300033 note_off channel=0 note=69 velocity=0 time=22\n",
      "300064 note_off channel=0 note=81 velocity=0 time=31\n",
      "300081 note_on channel=0 note=52 velocity=82 time=17\n",
      "300091 note_off channel=0 note=52 velocity=0 time=10\n",
      "300121 note_off channel=0 note=78 velocity=0 time=30\n",
      "300127 note_on channel=0 note=64 velocity=83 time=6\n",
      "300155 note_off channel=0 note=64 velocity=0 time=28\n",
      "300188 note_on channel=0 note=50 velocity=87 time=33\n",
      "300228 note_off channel=0 note=50 velocity=0 time=40\n",
      "300261 note_on channel=0 note=62 velocity=76 time=33\n",
      "300295 note_off channel=0 note=62 velocity=0 time=34\n",
      "300318 note_on channel=0 note=49 velocity=80 time=23\n",
      "300382 note_on channel=0 note=86 velocity=94 time=64\n",
      "300391 note_on channel=0 note=78 velocity=91 time=9\n",
      "300392 note_on channel=0 note=74 velocity=63 time=1\n",
      "300402 note_off channel=0 note=86 velocity=0 time=10\n",
      "300408 note_off channel=0 note=49 velocity=0 time=6\n",
      "300411 note_off channel=0 note=78 velocity=0 time=3\n",
      "300412 note_off channel=0 note=74 velocity=0 time=1\n",
      "300422 note_on channel=0 note=61 velocity=62 time=10\n",
      "300455 note_off channel=0 note=61 velocity=0 time=33\n",
      "300480 note_on channel=0 note=47 velocity=81 time=25\n",
      "300524 note_off channel=0 note=47 velocity=0 time=44\n",
      "300567 note_on channel=0 note=59 velocity=76 time=43\n",
      "300600 note_off channel=0 note=59 velocity=0 time=33\n",
      "300635 note_on channel=0 note=45 velocity=83 time=35\n",
      "300690 note_on channel=0 note=74 velocity=83 time=55\n",
      "300692 note_on channel=0 note=78 velocity=87 time=2\n",
      "300693 note_on channel=0 note=66 velocity=78 time=1\n",
      "300695 note_off channel=0 note=45 velocity=0 time=2\n",
      "300725 note_on channel=0 note=57 velocity=71 time=30\n",
      "300768 note_off channel=0 note=57 velocity=0 time=43\n",
      "300798 note_on channel=0 note=43 velocity=82 time=30\n",
      "300839 note_off channel=0 note=43 velocity=0 time=41\n",
      "300872 note_off channel=0 note=66 velocity=0 time=33\n",
      "300882 note_on channel=0 note=55 velocity=71 time=10\n",
      "300916 note_off channel=0 note=55 velocity=0 time=34\n",
      "300944 note_off channel=0 note=78 velocity=0 time=28\n",
      "300971 note_on channel=0 note=42 velocity=89 time=27\n",
      "300983 note_off channel=0 note=74 velocity=0 time=12\n",
      "300991 note_off channel=0 note=42 velocity=0 time=8\n",
      "301023 note_on channel=0 note=54 velocity=65 time=32\n",
      "301064 note_off channel=0 note=54 velocity=0 time=41\n",
      "301091 note_on channel=0 note=40 velocity=81 time=27\n",
      "301124 note_off channel=0 note=40 velocity=0 time=33\n",
      "301160 note_on channel=0 note=52 velocity=62 time=36\n",
      "301203 note_off channel=0 note=52 velocity=0 time=43\n",
      "301235 note_on channel=0 note=38 velocity=82 time=32\n",
      "301277 note_on channel=0 note=81 velocity=83 time=42\n",
      "301283 note_on channel=0 note=78 velocity=78 time=6\n",
      "301284 note_on channel=0 note=69 velocity=63 time=1\n",
      "301303 note_off channel=0 note=38 velocity=0 time=19\n",
      "301313 note_off channel=0 note=81 velocity=0 time=10\n",
      "301386 note_on channel=0 note=37 velocity=82 time=73\n",
      "301420 note_off channel=0 note=69 velocity=0 time=34\n",
      "301426 note_off channel=0 note=78 velocity=0 time=6\n",
      "301448 note_off channel=0 note=37 velocity=0 time=22\n",
      "301471 note_on channel=0 note=49 velocity=51 time=23\n",
      "301502 note_off channel=0 note=49 velocity=0 time=31\n",
      "301530 note_on channel=0 note=35 velocity=68 time=28\n",
      "301563 note_on channel=0 note=33 velocity=76 time=33\n",
      "301572 note_off channel=0 note=35 velocity=0 time=9\n",
      "301589 note_off channel=0 note=33 velocity=0 time=17\n",
      "301599 note_on channel=0 note=67 velocity=74 time=10\n",
      "301653 note_off channel=0 note=67 velocity=0 time=54\n",
      "301680 note_on channel=0 note=74 velocity=69 time=27\n",
      "301717 note_off channel=0 note=74 velocity=0 time=37\n",
      "301788 note_on channel=0 note=79 velocity=72 time=71\n",
      "301793 note_off channel=0 note=79 velocity=0 time=5\n",
      "301820 note_on channel=0 note=33 velocity=66 time=27\n",
      "301874 note_on channel=0 note=45 velocity=69 time=54\n",
      "301878 note_off channel=0 note=33 velocity=0 time=4\n",
      "301904 note_off channel=0 note=45 velocity=0 time=26\n",
      "301904 note_on channel=0 note=66 velocity=71 time=0\n",
      "301960 note_off channel=0 note=66 velocity=0 time=56\n",
      "302020 note_on channel=0 note=74 velocity=69 time=60\n",
      "302032 note_off channel=0 note=74 velocity=0 time=12\n",
      "302106 note_on channel=0 note=78 velocity=72 time=74\n",
      "302111 note_off channel=0 note=78 velocity=0 time=5\n",
      "302136 note_on channel=0 note=33 velocity=70 time=25\n",
      "302158 note_on channel=0 note=45 velocity=67 time=22\n",
      "302170 note_off channel=0 note=33 velocity=0 time=12\n",
      "302188 note_off channel=0 note=45 velocity=0 time=18\n",
      "302196 note_on channel=0 note=64 velocity=69 time=8\n",
      "302248 note_off channel=0 note=64 velocity=0 time=52\n",
      "302295 note_on channel=0 note=73 velocity=63 time=47\n",
      "302332 note_off channel=0 note=73 velocity=0 time=37\n",
      "302368 note_on channel=0 note=76 velocity=73 time=36\n",
      "302377 note_off channel=0 note=76 velocity=0 time=9\n",
      "302402 note_on channel=0 note=74 velocity=55 time=25\n",
      "302537 note_on channel=0 note=62 velocity=23 time=135\n",
      "302567 note_on channel=0 note=50 velocity=55 time=30\n",
      "302604 note_off channel=0 note=50 velocity=0 time=37\n",
      "302667 note_on channel=0 note=54 velocity=44 time=63\n",
      "302704 note_off channel=0 note=54 velocity=0 time=37\n",
      "302735 note_on channel=0 note=50 velocity=70 time=31\n",
      "302771 note_off channel=0 note=50 velocity=0 time=36\n",
      "302802 note_on channel=0 note=45 velocity=62 time=31\n",
      "302861 note_off channel=0 note=45 velocity=0 time=59\n",
      "302901 note_on channel=0 note=50 velocity=56 time=40\n",
      "302939 note_off channel=0 note=50 velocity=0 time=38\n",
      "302971 note_on channel=0 note=42 velocity=65 time=32\n",
      "303004 note_off channel=0 note=42 velocity=0 time=33\n",
      "303056 note_on channel=0 note=45 velocity=52 time=52\n",
      "303099 note_off channel=0 note=74 velocity=0 time=43\n",
      "303212 note_off channel=0 note=62 velocity=0 time=113\n",
      "303276 note_off channel=0 note=45 velocity=0 time=64\n",
      "303331 note_on channel=0 note=38 velocity=49 time=55\n",
      "303605 note_off channel=0 note=38 velocity=0 time=274\n",
      "306121 note_on channel=0 note=81 velocity=68 time=2516\n",
      "306217 note_on channel=0 note=62 velocity=32 time=96\n",
      "306257 note_on channel=0 note=66 velocity=40 time=40\n",
      "307391 note_off channel=0 note=62 velocity=0 time=1134\n",
      "307406 note_off channel=0 note=81 velocity=0 time=15\n",
      "307565 note_on channel=0 note=83 velocity=63 time=159\n",
      "307703 note_on channel=0 note=81 velocity=67 time=138\n",
      "307703 note_off channel=0 note=83 velocity=0 time=0\n",
      "307763 note_off channel=0 note=66 velocity=0 time=60\n",
      "307797 note_on channel=0 note=80 velocity=72 time=34\n",
      "307814 note_off channel=0 note=81 velocity=0 time=17\n",
      "307854 note_off channel=0 note=80 velocity=0 time=40\n",
      "307901 note_on channel=0 note=81 velocity=67 time=47\n",
      "307978 note_on channel=0 note=86 velocity=70 time=77\n",
      "307993 note_off channel=0 note=81 velocity=0 time=15\n",
      "308038 note_off channel=0 note=86 velocity=0 time=45\n",
      "308063 note_on channel=0 note=85 velocity=67 time=25\n",
      "308114 note_off channel=0 note=85 velocity=0 time=51\n",
      "308145 note_on channel=0 note=88 velocity=65 time=31\n",
      "308176 note_off channel=0 note=88 velocity=0 time=31\n",
      "308304 note_on channel=0 note=86 velocity=49 time=128\n",
      "308518 note_off channel=0 note=86 velocity=0 time=214\n",
      "309530 note_on channel=0 note=78 velocity=58 time=1012\n",
      "309560 note_on channel=0 note=69 velocity=31 time=30\n",
      "309576 note_on channel=0 note=62 velocity=30 time=16\n",
      "310518 note_off channel=0 note=78 velocity=0 time=942\n",
      "310715 note_on channel=0 note=79 velocity=55 time=197\n",
      "310852 note_on channel=0 note=78 velocity=64 time=137\n",
      "310852 note_off channel=0 note=79 velocity=0 time=0\n",
      "310861 note_off channel=0 note=78 velocity=0 time=9\n",
      "310925 note_on channel=0 note=76 velocity=61 time=64\n",
      "311035 note_on channel=0 note=78 velocity=63 time=110\n",
      "311046 note_off channel=0 note=76 velocity=0 time=11\n",
      "311111 note_off channel=0 note=78 velocity=0 time=65\n",
      "311127 note_on channel=0 note=81 velocity=62 time=16\n",
      "311141 note_off channel=0 note=69 velocity=0 time=14\n",
      "311172 note_off channel=0 note=62 velocity=0 time=31\n",
      "311201 note_off channel=0 note=81 velocity=0 time=29\n",
      "311217 note_on channel=0 note=79 velocity=60 time=16\n",
      "311286 note_off channel=0 note=79 velocity=0 time=69\n",
      "311301 note_on channel=0 note=83 velocity=64 time=15\n",
      "311437 note_off channel=0 note=83 velocity=0 time=136\n",
      "311441 note_on channel=0 note=81 velocity=58 time=4\n",
      "311634 note_off channel=0 note=81 velocity=0 time=193\n",
      "312478 note_on channel=0 note=74 velocity=68 time=844\n",
      "312508 note_on channel=0 note=66 velocity=39 time=30\n",
      "312524 note_on channel=0 note=57 velocity=43 time=16\n",
      "312525 note_off channel=0 note=74 velocity=0 time=1\n",
      "312738 note_off channel=0 note=57 velocity=0 time=213\n",
      "312741 note_off channel=0 note=66 velocity=0 time=3\n",
      "313308 note_on channel=0 note=74 velocity=69 time=567\n",
      "313312 note_on channel=0 note=57 velocity=37 time=4\n",
      "313347 note_on channel=0 note=66 velocity=39 time=35\n",
      "313447 note_off channel=0 note=57 velocity=0 time=100\n",
      "313523 note_off channel=0 note=66 velocity=0 time=76\n",
      "313606 note_off channel=0 note=74 velocity=0 time=83\n",
      "313712 note_on channel=0 note=74 velocity=80 time=106\n",
      "313729 note_on channel=0 note=66 velocity=46 time=17\n",
      "313753 note_on channel=0 note=57 velocity=26 time=24\n",
      "313788 note_off channel=0 note=66 velocity=0 time=35\n",
      "313849 note_off channel=0 note=57 velocity=0 time=61\n",
      "314031 note_off channel=0 note=74 velocity=0 time=182\n",
      "314046 note_on channel=0 note=78 velocity=62 time=15\n",
      "314062 note_on channel=0 note=76 velocity=64 time=16\n",
      "314076 note_off channel=0 note=78 velocity=0 time=14\n",
      "314092 note_on channel=0 note=57 velocity=40 time=16\n",
      "314098 note_on channel=0 note=67 velocity=44 time=6\n",
      "314336 note_off channel=0 note=57 velocity=0 time=238\n",
      "314343 note_off channel=0 note=67 velocity=0 time=7\n",
      "314405 note_off channel=0 note=76 velocity=0 time=62\n",
      "314419 note_on channel=0 note=74 velocity=66 time=14\n",
      "314496 note_off channel=0 note=74 velocity=0 time=77\n",
      "314510 note_on channel=0 note=76 velocity=57 time=14\n",
      "314523 note_on channel=0 note=67 velocity=38 time=13\n",
      "314526 note_on channel=0 note=57 velocity=38 time=3\n",
      "314676 note_off channel=0 note=57 velocity=0 time=150\n",
      "314692 note_off channel=0 note=76 velocity=0 time=16\n",
      "314814 note_on channel=0 note=78 velocity=65 time=122\n",
      "314835 note_off channel=0 note=67 velocity=0 time=21\n",
      "314845 note_off channel=0 note=78 velocity=0 time=10\n",
      "315058 note_on channel=0 note=74 velocity=51 time=213\n",
      "315072 note_on channel=0 note=62 velocity=28 time=14\n",
      "315077 note_on channel=0 note=66 velocity=33 time=5\n",
      "315217 note_off channel=0 note=74 velocity=0 time=140\n",
      "315263 note_off channel=0 note=66 velocity=0 time=46\n",
      "315429 note_off channel=0 note=62 velocity=0 time=166\n",
      "315581 note_on channel=0 note=62 velocity=45 time=152\n",
      "315703 note_off channel=0 note=62 velocity=0 time=122\n",
      "315734 note_on channel=0 note=66 velocity=52 time=31\n",
      "315794 note_off channel=0 note=66 velocity=0 time=60\n",
      "315826 note_on channel=0 note=64 velocity=57 time=32\n",
      "315939 note_off channel=0 note=64 velocity=0 time=113\n",
      "315949 note_on channel=0 note=67 velocity=57 time=10\n",
      "315970 note_off channel=0 note=67 velocity=0 time=21\n",
      "316039 note_on channel=0 note=66 velocity=70 time=69\n",
      "316041 note_off channel=0 note=66 velocity=0 time=2\n",
      "316104 note_on channel=0 note=69 velocity=67 time=63\n",
      "316152 note_off channel=0 note=69 velocity=0 time=48\n",
      "316214 note_on channel=0 note=67 velocity=75 time=62\n",
      "316274 note_off channel=0 note=67 velocity=0 time=60\n",
      "316305 note_on channel=0 note=71 velocity=66 time=31\n",
      "316335 note_off channel=0 note=71 velocity=0 time=30\n",
      "316396 note_on channel=0 note=69 velocity=72 time=61\n",
      "316426 note_off channel=0 note=69 velocity=0 time=30\n",
      "316457 note_on channel=0 note=73 velocity=72 time=31\n",
      "316517 note_off channel=0 note=73 velocity=0 time=60\n",
      "316534 note_on channel=0 note=71 velocity=68 time=17\n",
      "316556 note_off channel=0 note=71 velocity=0 time=22\n",
      "316624 note_on channel=0 note=74 velocity=70 time=68\n",
      "316693 note_off channel=0 note=74 velocity=0 time=69\n",
      "316700 note_on channel=0 note=73 velocity=78 time=7\n",
      "316715 note_off channel=0 note=73 velocity=0 time=15\n",
      "316777 note_on channel=0 note=76 velocity=70 time=62\n",
      "316800 note_off channel=0 note=76 velocity=0 time=23\n",
      "316840 note_on channel=0 note=74 velocity=76 time=40\n",
      "316887 note_off channel=0 note=74 velocity=0 time=47\n",
      "316938 note_on channel=0 note=78 velocity=77 time=51\n",
      "316969 note_off channel=0 note=78 velocity=0 time=31\n",
      "317042 note_on channel=0 note=76 velocity=70 time=73\n",
      "317089 note_off channel=0 note=76 velocity=0 time=47\n",
      "317118 note_on channel=0 note=79 velocity=67 time=29\n",
      "317165 note_off channel=0 note=79 velocity=0 time=47\n",
      "317183 note_on channel=0 note=78 velocity=72 time=18\n",
      "317210 note_off channel=0 note=78 velocity=0 time=27\n",
      "317245 note_on channel=0 note=81 velocity=64 time=35\n",
      "317280 note_off channel=0 note=81 velocity=0 time=35\n",
      "317344 note_on channel=0 note=79 velocity=62 time=64\n",
      "317445 note_off channel=0 note=79 velocity=0 time=101\n",
      "317475 note_on channel=0 note=83 velocity=61 time=30\n",
      "317568 note_off channel=0 note=83 velocity=0 time=93\n",
      "317734 note_on channel=0 note=81 velocity=74 time=166\n",
      "318228 note_on channel=0 note=62 velocity=31 time=494\n",
      "318244 note_on channel=0 note=66 velocity=32 time=16\n",
      "318412 note_off channel=0 note=66 velocity=0 time=168\n",
      "318427 note_off channel=0 note=62 velocity=0 time=15\n",
      "318715 note_on channel=0 note=62 velocity=31 time=288\n",
      "318731 note_on channel=0 note=66 velocity=32 time=16\n",
      "318913 note_on channel=0 note=83 velocity=63 time=182\n",
      "318966 note_off channel=0 note=81 velocity=0 time=53\n",
      "319012 note_off channel=0 note=62 velocity=0 time=46\n",
      "319088 note_off channel=0 note=66 velocity=0 time=76\n",
      "319105 note_on channel=0 note=85 velocity=77 time=17\n",
      "319149 note_off channel=0 note=83 velocity=0 time=44\n",
      "319300 note_on channel=0 note=86 velocity=82 time=151\n",
      "319315 note_off channel=0 note=85 velocity=0 time=15\n",
      "319498 note_off channel=0 note=86 velocity=0 time=183\n",
      "319498 note_on channel=0 note=88 velocity=73 time=0\n",
      "319605 note_on channel=0 note=86 velocity=67 time=107\n",
      "319685 note_off channel=0 note=88 velocity=0 time=80\n",
      "319694 note_off channel=0 note=86 velocity=0 time=9\n",
      "319863 note_on channel=0 note=85 velocity=55 time=169\n",
      "320038 note_on channel=0 note=86 velocity=58 time=175\n",
      "320075 note_off channel=0 note=85 velocity=0 time=37\n",
      "320220 note_off channel=0 note=86 velocity=0 time=145\n",
      "320402 note_on channel=0 note=78 velocity=55 time=182\n",
      "320501 note_on channel=0 note=69 velocity=33 time=99\n",
      "320961 note_on channel=0 note=62 velocity=26 time=460\n",
      "321109 note_off channel=0 note=69 velocity=0 time=148\n",
      "321185 note_off channel=0 note=62 velocity=0 time=76\n",
      "321406 note_on channel=0 note=69 velocity=38 time=221\n",
      "321421 note_on channel=0 note=62 velocity=35 time=15\n",
      "321497 note_on channel=0 note=79 velocity=57 time=76\n",
      "321619 note_off channel=0 note=78 velocity=0 time=122\n",
      "321622 note_off channel=0 note=62 velocity=0 time=3\n",
      "321645 note_off channel=0 note=69 velocity=0 time=23\n",
      "321801 note_off channel=0 note=79 velocity=0 time=156\n",
      "321816 note_on channel=0 note=80 velocity=68 time=15\n",
      "321983 note_off channel=0 note=80 velocity=0 time=167\n",
      "321992 note_on channel=0 note=81 velocity=64 time=9\n",
      "322188 note_off channel=0 note=81 velocity=0 time=196\n",
      "322200 note_on channel=0 note=83 velocity=62 time=12\n",
      "322234 note_off channel=0 note=83 velocity=0 time=34\n",
      "322385 note_on channel=0 note=81 velocity=53 time=151\n",
      "322398 note_off channel=0 note=81 velocity=0 time=13\n",
      "322602 note_on channel=0 note=80 velocity=56 time=204\n",
      "322820 note_off channel=0 note=80 velocity=0 time=218\n",
      "322835 note_on channel=0 note=81 velocity=55 time=15\n",
      "323048 note_off channel=0 note=81 velocity=0 time=213\n",
      "323231 note_on channel=0 note=81 velocity=44 time=183\n",
      "323277 note_on channel=0 note=66 velocity=16 time=46\n",
      "323282 note_on channel=0 note=57 velocity=27 time=5\n",
      "323831 note_off channel=0 note=81 velocity=0 time=549\n",
      "323968 note_off channel=0 note=66 velocity=0 time=137\n",
      "323974 note_off channel=0 note=57 velocity=0 time=6\n",
      "324046 note_on channel=0 note=78 velocity=48 time=72\n",
      "324121 note_off channel=0 note=78 velocity=0 time=75\n",
      "324167 note_on channel=0 note=74 velocity=51 time=46\n",
      "324182 note_on channel=0 note=57 velocity=31 time=15\n",
      "324197 note_on channel=0 note=66 velocity=29 time=15\n",
      "324387 note_off channel=0 note=66 velocity=0 time=190\n",
      "324401 note_off channel=0 note=74 velocity=0 time=14\n",
      "324417 note_on channel=0 note=74 velocity=69 time=16\n",
      "324626 note_on channel=0 note=66 velocity=44 time=209\n",
      "324641 note_off channel=0 note=66 velocity=0 time=15\n",
      "324703 note_off channel=0 note=57 velocity=0 time=62\n",
      "324935 note_off channel=0 note=74 velocity=0 time=232\n",
      "324966 note_on channel=0 note=78 velocity=61 time=31\n",
      "325011 note_on channel=0 note=76 velocity=54 time=45\n",
      "325040 note_on channel=0 note=67 velocity=37 time=29\n",
      "325040 note_off channel=0 note=78 velocity=0 time=0\n",
      "325051 note_on channel=0 note=57 velocity=30 time=11\n",
      "325261 note_off channel=0 note=67 velocity=0 time=210\n",
      "325335 note_off channel=0 note=57 velocity=0 time=74\n",
      "325368 note_off channel=0 note=76 velocity=0 time=33\n",
      "325398 note_on channel=0 note=74 velocity=56 time=30\n",
      "325458 note_off channel=0 note=74 velocity=0 time=60\n",
      "325489 note_on channel=0 note=76 velocity=55 time=31\n",
      "325504 note_on channel=0 note=57 velocity=29 time=15\n",
      "325518 note_on channel=0 note=67 velocity=28 time=14\n",
      "325702 note_off channel=0 note=57 velocity=0 time=184\n",
      "325710 note_off channel=0 note=67 velocity=0 time=8\n",
      "325830 note_off channel=0 note=76 velocity=0 time=120\n",
      "325831 note_on channel=0 note=78 velocity=49 time=1\n",
      "326028 note_off channel=0 note=78 velocity=0 time=197\n",
      "326030 note_on channel=0 note=76 velocity=45 time=2\n",
      "326074 note_on channel=0 note=67 velocity=26 time=44\n",
      "326080 note_on channel=0 note=62 velocity=25 time=6\n",
      "326675 note_off channel=0 note=67 velocity=0 time=595\n",
      "326918 note_off channel=0 note=76 velocity=0 time=243\n",
      "327223 note_on channel=0 note=74 velocity=34 time=305\n",
      "327268 note_on channel=0 note=66 velocity=26 time=45\n",
      "327429 note_off channel=0 note=66 velocity=0 time=161\n",
      "327474 note_off channel=0 note=62 velocity=0 time=45\n",
      "327733 note_off channel=0 note=74 velocity=0 time=259\n",
      "327824 note_on channel=0 note=56 velocity=50 time=91\n",
      "328097 note_on channel=0 note=57 velocity=46 time=273\n",
      "328129 note_off channel=0 note=56 velocity=0 time=32\n",
      "328182 note_off channel=0 note=57 velocity=0 time=53\n",
      "328318 note_on channel=0 note=53 velocity=54 time=136\n",
      "328486 note_off channel=0 note=53 velocity=0 time=168\n",
      "328526 note_on channel=0 note=54 velocity=54 time=40\n",
      "328532 note_off channel=0 note=54 velocity=0 time=6\n",
      "328774 note_on channel=0 note=49 velocity=44 time=242\n",
      "329011 note_off channel=0 note=49 velocity=0 time=237\n",
      "329041 note_on channel=0 note=50 velocity=45 time=30\n",
      "329314 note_off channel=0 note=50 velocity=0 time=273\n",
      "329497 note_on channel=0 note=76 velocity=65 time=183\n",
      "329557 note_on channel=0 note=45 velocity=39 time=60\n",
      "329886 note_off channel=0 note=45 velocity=0 time=329\n",
      "330386 note_on channel=0 note=57 velocity=27 time=500\n",
      "330410 note_on channel=0 note=61 velocity=29 time=24\n",
      "330654 note_off channel=0 note=61 velocity=0 time=244\n",
      "330684 note_off channel=0 note=57 velocity=0 time=30\n",
      "330927 note_on channel=0 note=61 velocity=34 time=243\n",
      "330941 note_on channel=0 note=57 velocity=38 time=14\n",
      "330972 note_off channel=0 note=76 velocity=0 time=31\n",
      "331033 note_on channel=0 note=78 velocity=57 time=61\n",
      "331063 note_off channel=0 note=61 velocity=0 time=30\n",
      "331078 note_off channel=0 note=57 velocity=0 time=15\n",
      "331103 note_on channel=0 note=76 velocity=67 time=25\n",
      "331111 note_off channel=0 note=78 velocity=0 time=8\n",
      "331154 note_off channel=0 note=76 velocity=0 time=43\n",
      "331170 note_on channel=0 note=75 velocity=79 time=16\n",
      "331215 note_off channel=0 note=75 velocity=0 time=45\n",
      "331246 note_on channel=0 note=76 velocity=74 time=31\n",
      "331390 note_on channel=0 note=79 velocity=74 time=144\n",
      "331394 note_off channel=0 note=76 velocity=0 time=4\n",
      "331421 note_on channel=0 note=57 velocity=34 time=27\n",
      "331421 note_on channel=0 note=61 velocity=32 time=0\n",
      "331649 note_off channel=0 note=57 velocity=0 time=228\n",
      "331664 note_off channel=0 note=61 velocity=0 time=15\n",
      "331725 note_on channel=0 note=78 velocity=79 time=61\n",
      "331755 note_off channel=0 note=79 velocity=0 time=30\n",
      "331785 note_off channel=0 note=78 velocity=0 time=30\n",
      "331953 note_on channel=0 note=78 velocity=64 time=168\n",
      "331968 note_on channel=0 note=62 velocity=31 time=15\n",
      "331983 note_on channel=0 note=57 velocity=31 time=15\n",
      "332143 note_off channel=0 note=78 velocity=0 time=160\n",
      "332234 note_off channel=0 note=57 velocity=0 time=91\n",
      "332296 note_on channel=0 note=78 velocity=52 time=62\n",
      "332325 note_off channel=0 note=78 velocity=0 time=29\n",
      "332340 note_on channel=0 note=79 velocity=58 time=15\n",
      "332385 note_off channel=0 note=79 velocity=0 time=45\n",
      "332386 note_on channel=0 note=78 velocity=76 time=1\n",
      "332399 note_off channel=0 note=62 velocity=0 time=13\n",
      "332430 note_off channel=0 note=78 velocity=0 time=31\n",
      "332461 note_on channel=0 note=76 velocity=66 time=31\n",
      "332506 note_off channel=0 note=76 velocity=0 time=45\n",
      "332521 note_on channel=0 note=78 velocity=69 time=15\n",
      "332644 note_on channel=0 note=81 velocity=56 time=123\n",
      "332659 note_off channel=0 note=78 velocity=0 time=15\n",
      "332663 note_on channel=0 note=63 velocity=31 time=4\n",
      "332674 note_on channel=0 note=57 velocity=35 time=11\n",
      "333000 note_off channel=0 note=57 velocity=0 time=326\n",
      "333063 note_off channel=0 note=63 velocity=0 time=63\n",
      "333154 note_off channel=0 note=81 velocity=0 time=91\n",
      "333172 note_on channel=0 note=79 velocity=55 time=18\n",
      "333229 note_off channel=0 note=79 velocity=0 time=57\n",
      "333427 note_on channel=0 note=79 velocity=39 time=198\n",
      "333488 note_on channel=0 note=64 velocity=35 time=61\n",
      "333494 note_on channel=0 note=57 velocity=21 time=6\n",
      "333753 note_off channel=0 note=79 velocity=0 time=259\n",
      "333769 note_off channel=0 note=64 velocity=0 time=16\n",
      "334211 note_off channel=0 note=57 velocity=0 time=442\n",
      "334568 note_on channel=0 note=57 velocity=55 time=357\n",
      "334781 note_off channel=0 note=57 velocity=0 time=213\n",
      "334788 note_on channel=0 note=59 velocity=60 time=7\n",
      "334872 note_off channel=0 note=59 velocity=0 time=84\n",
      "334906 note_on channel=0 note=61 velocity=58 time=34\n",
      "334926 note_off channel=0 note=61 velocity=0 time=20\n",
      "335010 note_on channel=0 note=62 velocity=66 time=84\n",
      "335055 note_off channel=0 note=62 velocity=0 time=45\n",
      "335077 note_on channel=0 note=64 velocity=61 time=22\n",
      "335104 note_off channel=0 note=64 velocity=0 time=27\n",
      "335157 note_on channel=0 note=66 velocity=67 time=53\n",
      "335184 note_off channel=0 note=66 velocity=0 time=27\n",
      "335219 note_on channel=0 note=68 velocity=67 time=35\n",
      "335230 note_off channel=0 note=68 velocity=0 time=11\n",
      "335255 note_on channel=0 note=69 velocity=66 time=25\n",
      "335336 note_off channel=0 note=69 velocity=0 time=81\n",
      "335341 note_on channel=0 note=71 velocity=62 time=5\n",
      "335356 note_off channel=0 note=71 velocity=0 time=15\n",
      "335393 note_on channel=0 note=73 velocity=70 time=37\n",
      "335408 note_off channel=0 note=73 velocity=0 time=15\n",
      "335431 note_on channel=0 note=74 velocity=75 time=23\n",
      "335471 note_off channel=0 note=74 velocity=0 time=40\n",
      "335508 note_on channel=0 note=76 velocity=65 time=37\n",
      "335527 note_on channel=0 note=78 velocity=77 time=19\n",
      "335556 note_off channel=0 note=76 velocity=0 time=29\n",
      "335571 note_off channel=0 note=78 velocity=0 time=15\n",
      "335611 note_on channel=0 note=80 velocity=63 time=40\n",
      "335612 note_off channel=0 note=80 velocity=0 time=1\n",
      "335637 note_on channel=0 note=81 velocity=79 time=25\n",
      "335671 note_off channel=0 note=81 velocity=0 time=34\n",
      "335701 note_on channel=0 note=83 velocity=43 time=30\n",
      "335735 note_on channel=0 note=84 velocity=47 time=34\n",
      "335744 note_off channel=0 note=83 velocity=0 time=9\n",
      "335762 note_off channel=0 note=84 velocity=0 time=18\n",
      "335762 note_on channel=0 note=85 velocity=72 time=0\n",
      "335808 note_off channel=0 note=85 velocity=0 time=46\n",
      "335818 note_on channel=0 note=86 velocity=74 time=10\n",
      "335875 note_on channel=0 note=88 velocity=77 time=57\n",
      "335894 note_off channel=0 note=86 velocity=0 time=19\n",
      "335903 note_off channel=0 note=88 velocity=0 time=9\n",
      "335968 note_on channel=0 note=86 velocity=68 time=65\n",
      "336048 note_off channel=0 note=86 velocity=0 time=80\n",
      "336074 note_on channel=0 note=85 velocity=69 time=26\n",
      "336179 note_off channel=0 note=85 velocity=0 time=105\n",
      "336206 note_on channel=0 note=83 velocity=61 time=27\n",
      "336302 note_off channel=0 note=83 velocity=0 time=96\n",
      "336392 note_on channel=0 note=81 velocity=52 time=90\n",
      "336454 note_off channel=0 note=81 velocity=0 time=62\n",
      "336606 note_on channel=0 note=79 velocity=51 time=152\n",
      "336659 note_off channel=0 note=79 velocity=0 time=53\n",
      "336886 note_on channel=0 note=78 velocity=50 time=227\n",
      "337024 note_on channel=0 note=50 velocity=20 time=138\n",
      "337442 note_off channel=0 note=50 velocity=0 time=418\n",
      "337564 note_on channel=0 note=62 velocity=46 time=122\n",
      "337584 note_off channel=0 note=62 velocity=0 time=20\n",
      "338006 note_on channel=0 note=66 velocity=37 time=422\n",
      "338027 note_on channel=0 note=62 velocity=30 time=21\n",
      "338157 note_off channel=0 note=66 velocity=0 time=130\n",
      "338159 note_off channel=0 note=62 velocity=0 time=2\n",
      "338180 note_on channel=0 note=74 velocity=61 time=21\n",
      "338195 note_off channel=0 note=78 velocity=0 time=15\n",
      "338302 note_off channel=0 note=74 velocity=0 time=107\n",
      "338332 note_on channel=0 note=76 velocity=65 time=30\n",
      "338408 note_on channel=0 note=62 velocity=36 time=76\n",
      "338423 note_on channel=0 note=66 velocity=45 time=15\n",
      "338427 note_off channel=0 note=76 velocity=0 time=4\n",
      "338453 note_on channel=0 note=78 velocity=79 time=26\n",
      "338560 note_off channel=0 note=78 velocity=0 time=107\n",
      "338561 note_on channel=0 note=79 velocity=76 time=1\n",
      "338606 note_off channel=0 note=66 velocity=0 time=45\n",
      "338621 note_off channel=0 note=62 velocity=0 time=15\n",
      "338666 note_on channel=0 note=81 velocity=74 time=45\n",
      "338681 note_off channel=0 note=79 velocity=0 time=15\n",
      "338834 note_on channel=0 note=67 velocity=42 time=153\n",
      "338837 note_on channel=0 note=64 velocity=42 time=3\n",
      "338838 note_on channel=0 note=79 velocity=68 time=1\n",
      "338850 note_on channel=0 note=62 velocity=33 time=12\n",
      "338865 note_off channel=0 note=81 velocity=0 time=15\n",
      "338964 note_off channel=0 note=79 velocity=0 time=99\n",
      "338972 note_on channel=0 note=76 velocity=73 time=8\n",
      "339009 note_off channel=0 note=62 velocity=0 time=37\n",
      "339048 note_off channel=0 note=67 velocity=0 time=39\n",
      "339051 note_off channel=0 note=64 velocity=0 time=3\n",
      "339088 note_on channel=0 note=78 velocity=81 time=37\n",
      "339094 note_off channel=0 note=76 velocity=0 time=6\n",
      "339160 note_off channel=0 note=78 velocity=0 time=66\n",
      "339221 note_on channel=0 note=79 velocity=75 time=61\n",
      "339228 note_on channel=0 note=64 velocity=44 time=7\n",
      "339236 note_on channel=0 note=67 velocity=49 time=8\n",
      "339252 note_on channel=0 note=62 velocity=28 time=16\n",
      "339343 note_on channel=0 note=81 velocity=79 time=91\n",
      "339345 note_off channel=0 note=79 velocity=0 time=2\n",
      "339404 note_off channel=0 note=64 velocity=0 time=59\n",
      "339410 note_off channel=0 note=67 velocity=0 time=6\n",
      "339434 note_off channel=0 note=62 velocity=0 time=24\n",
      "339450 note_on channel=0 note=83 velocity=79 time=16\n",
      "339465 note_off channel=0 note=81 velocity=0 time=15\n",
      "339648 note_on channel=0 note=81 velocity=72 time=183\n",
      "339663 note_off channel=0 note=83 velocity=0 time=15\n",
      "339678 note_on channel=0 note=62 velocity=34 time=15\n",
      "339682 note_on channel=0 note=69 velocity=37 time=4\n",
      "339694 note_on channel=0 note=66 velocity=32 time=12\n",
      "339854 note_off channel=0 note=81 velocity=0 time=160\n",
      "339860 note_off channel=0 note=69 velocity=0 time=6\n",
      "339914 note_off channel=0 note=66 velocity=0 time=54\n",
      "340111 note_off channel=0 note=62 velocity=0 time=197\n",
      "340172 note_on channel=0 note=62 velocity=80 time=61\n",
      "340545 note_off channel=0 note=62 velocity=0 time=373\n",
      "340728 note_on channel=0 note=62 velocity=76 time=183\n",
      "340758 note_on channel=0 note=50 velocity=59 time=30\n",
      "341046 note_off channel=0 note=62 velocity=0 time=288\n",
      "341419 note_on channel=0 note=64 velocity=71 time=373\n",
      "341572 note_on channel=0 note=62 velocity=75 time=153\n",
      "341574 note_off channel=0 note=64 velocity=0 time=2\n",
      "341663 note_on channel=0 note=61 velocity=64 time=89\n",
      "341667 note_off channel=0 note=62 velocity=0 time=4\n",
      "341708 note_off channel=0 note=61 velocity=0 time=41\n",
      "341753 note_on channel=0 note=62 velocity=73 time=45\n",
      "341784 note_off channel=0 note=62 velocity=0 time=31\n",
      "341831 note_on channel=0 note=64 velocity=75 time=47\n",
      "341845 note_off channel=0 note=64 velocity=0 time=14\n",
      "341880 note_on channel=0 note=66 velocity=78 time=35\n",
      "341920 note_off channel=0 note=66 velocity=0 time=40\n",
      "341932 note_on channel=0 note=67 velocity=82 time=12\n",
      "341981 note_off channel=0 note=67 velocity=0 time=49\n",
      "342036 note_on channel=0 note=69 velocity=68 time=55\n",
      "342046 note_on channel=0 note=71 velocity=69 time=10\n",
      "342096 note_off channel=0 note=69 velocity=0 time=50\n",
      "342121 note_off channel=0 note=71 velocity=0 time=25\n",
      "342143 note_on channel=0 note=73 velocity=70 time=22\n",
      "342153 note_off channel=0 note=73 velocity=0 time=10\n",
      "342176 note_on channel=0 note=74 velocity=78 time=23\n",
      "342215 note_off channel=0 note=74 velocity=0 time=39\n",
      "342276 note_on channel=0 note=76 velocity=70 time=61\n",
      "342277 note_off channel=0 note=76 velocity=0 time=1\n",
      "342323 note_on channel=0 note=78 velocity=82 time=46\n",
      "342330 note_off channel=0 note=78 velocity=0 time=7\n",
      "342351 note_on channel=0 note=79 velocity=79 time=21\n",
      "342394 note_off channel=0 note=79 velocity=0 time=43\n",
      "342443 note_on channel=0 note=81 velocity=77 time=49\n",
      "342447 note_on channel=0 note=83 velocity=76 time=4\n",
      "342498 note_off channel=0 note=81 velocity=0 time=51\n",
      "342552 note_on channel=0 note=85 velocity=80 time=54\n",
      "342568 note_off channel=0 note=83 velocity=0 time=16\n",
      "342628 note_on channel=0 note=86 velocity=80 time=60\n",
      "342660 note_off channel=0 note=85 velocity=0 time=32\n",
      "342688 note_off channel=0 note=50 velocity=0 time=28\n",
      "342690 note_off channel=0 note=86 velocity=0 time=2\n",
      "342760 note_on channel=0 note=85 velocity=70 time=70\n",
      "342765 note_off channel=0 note=85 velocity=0 time=5\n",
      "342828 note_on channel=0 note=83 velocity=73 time=63\n",
      "342855 note_off channel=0 note=83 velocity=0 time=27\n",
      "342908 note_on channel=0 note=88 velocity=67 time=53\n",
      "342963 note_off channel=0 note=88 velocity=0 time=55\n",
      "343001 note_on channel=0 note=86 velocity=66 time=38\n",
      "343069 note_off channel=0 note=86 velocity=0 time=68\n",
      "343122 note_on channel=0 note=85 velocity=65 time=53\n",
      "343183 note_off channel=0 note=85 velocity=0 time=61\n",
      "343259 note_on channel=0 note=83 velocity=51 time=76\n",
      "343571 note_off channel=0 note=83 velocity=0 time=312\n",
      "343580 note_on channel=0 note=81 velocity=65 time=9\n",
      "343631 note_on channel=0 note=62 velocity=22 time=51\n",
      "344119 note_on channel=0 note=69 velocity=33 time=488\n",
      "344250 note_on channel=0 note=66 velocity=27 time=131\n",
      "344265 note_off channel=0 note=69 velocity=0 time=15\n",
      "344378 note_off channel=0 note=66 velocity=0 time=113\n",
      "344734 note_on channel=0 note=69 velocity=32 time=356\n",
      "344779 note_on channel=0 note=66 velocity=29 time=45\n",
      "344825 note_off channel=0 note=66 velocity=0 time=46\n",
      "344860 note_off channel=0 note=69 velocity=0 time=35\n",
      "344866 note_off channel=0 note=81 velocity=0 time=6\n",
      "344901 note_on channel=0 note=74 velocity=47 time=35\n",
      "345121 note_off channel=0 note=74 velocity=0 time=220\n",
      "345161 note_on channel=0 note=78 velocity=59 time=40\n",
      "345167 note_on channel=0 note=69 velocity=31 time=6\n",
      "345182 note_on channel=0 note=66 velocity=31 time=15\n",
      "345190 note_off channel=0 note=78 velocity=0 time=8\n",
      "345288 note_off channel=0 note=69 velocity=0 time=98\n",
      "345306 note_off channel=0 note=66 velocity=0 time=18\n",
      "345336 note_on channel=0 note=81 velocity=67 time=30\n",
      "345502 note_off channel=0 note=81 velocity=0 time=166\n",
      "345533 note_on channel=0 note=83 velocity=66 time=31\n",
      "345578 note_on channel=0 note=71 velocity=25 time=45\n",
      "345580 note_on channel=0 note=67 velocity=27 time=2\n",
      "345714 note_off channel=0 note=83 velocity=0 time=134\n",
      "345717 note_off channel=0 note=71 velocity=0 time=3\n",
      "345720 note_on channel=0 note=79 velocity=55 time=3\n",
      "345730 note_off channel=0 note=67 velocity=0 time=10\n",
      "345950 note_on channel=0 note=86 velocity=54 time=220\n",
      "345965 note_on channel=0 note=71 velocity=24 time=15\n",
      "345980 note_on channel=0 note=67 velocity=26 time=15\n",
      "345984 note_off channel=0 note=79 velocity=0 time=4\n",
      "346041 note_off channel=0 note=86 velocity=0 time=57\n",
      "346094 note_off channel=0 note=62 velocity=0 time=53\n",
      "346132 note_on channel=0 note=83 velocity=64 time=38\n",
      "346163 note_off channel=0 note=67 velocity=0 time=31\n",
      "346210 note_off channel=0 note=71 velocity=0 time=47\n",
      "346391 note_on channel=0 note=80 velocity=52 time=181\n",
      "346407 note_on channel=0 note=62 velocity=30 time=16\n",
      "346422 note_off channel=0 note=83 velocity=0 time=15\n",
      "346915 note_on channel=0 note=81 velocity=37 time=493\n",
      "346931 note_on channel=0 note=69 velocity=18 time=16\n",
      "346946 note_on channel=0 note=66 velocity=24 time=15\n",
      "346958 note_off channel=0 note=80 velocity=0 time=12\n",
      "347130 note_off channel=0 note=69 velocity=0 time=172\n",
      "347144 note_off channel=0 note=66 velocity=0 time=14\n",
      "347411 note_on channel=0 note=69 velocity=32 time=267\n",
      "347437 note_on channel=0 note=66 velocity=28 time=26\n",
      "347456 note_on channel=0 note=74 velocity=56 time=19\n",
      "347549 note_off channel=0 note=66 velocity=0 time=93\n",
      "347593 note_off channel=0 note=69 velocity=0 time=44\n",
      "347593 note_off channel=0 note=74 velocity=0 time=0\n",
      "347594 note_on channel=0 note=75 velocity=52 time=1\n",
      "347653 note_off channel=0 note=75 velocity=0 time=59\n",
      "347699 note_on channel=0 note=76 velocity=53 time=46\n",
      "347737 note_off channel=0 note=76 velocity=0 time=38\n",
      "347790 note_on channel=0 note=77 velocity=57 time=53\n",
      "347836 note_off channel=0 note=77 velocity=0 time=46\n",
      "347881 note_on channel=0 note=78 velocity=66 time=45\n",
      "347885 note_on channel=0 note=69 velocity=39 time=4\n",
      "347897 note_on channel=0 note=66 velocity=37 time=12\n",
      "347928 note_off channel=0 note=78 velocity=0 time=31\n",
      "347958 note_on channel=0 note=79 velocity=69 time=30\n",
      "347963 note_off channel=0 note=81 velocity=0 time=5\n",
      "348003 note_off channel=0 note=79 velocity=0 time=40\n",
      "348014 note_on channel=0 note=80 velocity=72 time=11\n",
      "348050 note_off channel=0 note=69 velocity=0 time=36\n",
      "348066 note_off channel=0 note=80 velocity=0 time=16\n",
      "348086 note_off channel=0 note=66 velocity=0 time=20\n",
      "348110 note_on channel=0 note=81 velocity=73 time=24\n",
      "348113 note_off channel=0 note=81 velocity=0 time=3\n",
      "348174 note_on channel=0 note=82 velocity=68 time=61\n",
      "348239 note_off channel=0 note=82 velocity=0 time=65\n",
      "348270 note_on channel=0 note=67 velocity=48 time=31\n",
      "348274 note_on channel=0 note=71 velocity=46 time=4\n",
      "348279 note_on channel=0 note=83 velocity=73 time=5\n",
      "348315 note_off channel=0 note=83 velocity=0 time=36\n",
      "348345 note_on channel=0 note=84 velocity=77 time=30\n",
      "348406 note_off channel=0 note=84 velocity=0 time=61\n",
      "348436 note_on channel=0 note=85 velocity=82 time=30\n",
      "348452 note_off channel=0 note=71 velocity=0 time=16\n",
      "348464 note_off channel=0 note=67 velocity=0 time=12\n",
      "348467 note_off channel=0 note=85 velocity=0 time=3\n",
      "348496 note_on channel=0 note=86 velocity=80 time=29\n",
      "348512 note_off channel=0 note=86 velocity=0 time=16\n",
      "348587 note_on channel=0 note=85 velocity=83 time=75\n",
      "348710 note_on channel=0 note=71 velocity=32 time=123\n",
      "348713 note_on channel=0 note=67 velocity=37 time=3\n",
      "348715 note_on channel=0 note=88 velocity=76 time=2\n",
      "348716 note_off channel=0 note=85 velocity=0 time=1\n",
      "348830 note_on channel=0 note=86 velocity=81 time=114\n",
      "348861 note_off channel=0 note=62 velocity=0 time=31\n",
      "348870 note_off channel=0 note=71 velocity=0 time=9\n",
      "348876 note_off channel=0 note=88 velocity=0 time=6\n",
      "348892 note_off channel=0 note=67 velocity=0 time=16\n",
      "348900 note_on channel=0 note=85 velocity=79 time=8\n",
      "348941 note_off channel=0 note=86 velocity=0 time=41\n",
      "348956 note_off channel=0 note=85 velocity=0 time=15\n",
      "349021 note_on channel=0 note=83 velocity=76 time=65\n",
      "349030 note_off channel=0 note=83 velocity=0 time=9\n",
      "349157 note_on channel=0 note=83 velocity=64 time=127\n",
      "349160 note_on channel=0 note=66 velocity=34 time=3\n",
      "349166 note_on channel=0 note=69 velocity=39 time=6\n",
      "349172 note_on channel=0 note=62 velocity=35 time=6\n",
      "349202 note_off channel=0 note=83 velocity=0 time=30\n",
      "349249 note_on channel=0 note=81 velocity=69 time=47\n",
      "349271 note_off channel=0 note=81 velocity=0 time=22\n",
      "349308 note_on channel=0 note=86 velocity=71 time=37\n",
      "349373 note_off channel=0 note=86 velocity=0 time=65\n",
      "349400 note_on channel=0 note=85 velocity=73 time=27\n",
      "349466 note_off channel=0 note=62 velocity=0 time=66\n",
      "349490 note_off channel=0 note=85 velocity=0 time=24\n",
      "349492 note_off channel=0 note=69 velocity=0 time=2\n",
      "349497 note_off channel=0 note=66 velocity=0 time=5\n",
      "349526 note_on channel=0 note=86 velocity=73 time=29\n",
      "349580 note_off channel=0 note=86 velocity=0 time=54\n",
      "349604 note_on channel=0 note=85 velocity=67 time=24\n",
      "349680 note_off channel=0 note=85 velocity=0 time=76\n",
      "349707 note_on channel=0 note=83 velocity=64 time=27\n",
      "349818 note_off channel=0 note=83 velocity=0 time=111\n",
      "349879 note_on channel=0 note=81 velocity=66 time=61\n",
      "349880 note_off channel=0 note=81 velocity=0 time=1\n",
      "349925 note_on channel=0 note=81 velocity=46 time=45\n",
      "350016 note_on channel=0 note=61 velocity=31 time=91\n",
      "350038 note_on channel=0 note=69 velocity=39 time=22\n",
      "350092 note_off channel=0 note=81 velocity=0 time=54\n",
      "350137 note_on channel=0 note=80 velocity=65 time=45\n",
      "350160 note_off channel=0 note=80 velocity=0 time=23\n",
      "350275 note_on channel=0 note=88 velocity=72 time=115\n",
      "350279 note_off channel=0 note=88 velocity=0 time=4\n",
      "350320 note_off channel=0 note=61 velocity=0 time=41\n",
      "350332 note_off channel=0 note=69 velocity=0 time=12\n",
      "350335 note_on channel=0 note=86 velocity=65 time=3\n",
      "350390 note_off channel=0 note=86 velocity=0 time=55\n",
      "350417 note_on channel=0 note=85 velocity=67 time=27\n",
      "350486 note_off channel=0 note=85 velocity=0 time=69\n",
      "350512 note_on channel=0 note=83 velocity=70 time=26\n",
      "350584 note_off channel=0 note=83 velocity=0 time=72\n",
      "350614 note_on channel=0 note=81 velocity=68 time=30\n",
      "350683 note_off channel=0 note=81 velocity=0 time=69\n",
      "350711 note_on channel=0 note=79 velocity=72 time=28\n",
      "350776 note_off channel=0 note=79 velocity=0 time=65\n",
      "350892 note_on channel=0 note=79 velocity=44 time=116\n",
      "350921 note_on channel=0 note=69 velocity=38 time=29\n",
      "350937 note_on channel=0 note=62 velocity=29 time=16\n",
      "350938 note_on channel=0 note=66 velocity=35 time=1\n",
      "350967 note_off channel=0 note=79 velocity=0 time=29\n",
      "350997 note_on channel=0 note=78 velocity=46 time=30\n",
      "351026 note_off channel=0 note=78 velocity=0 time=29\n",
      "351071 note_on channel=0 note=86 velocity=65 time=45\n",
      "351142 note_off channel=0 note=86 velocity=0 time=71\n",
      "351167 note_off channel=0 note=69 velocity=0 time=25\n",
      "351176 note_off channel=0 note=62 velocity=0 time=9\n",
      "351197 note_off channel=0 note=66 velocity=0 time=21\n",
      "351203 note_on channel=0 note=85 velocity=64 time=6\n",
      "351256 note_off channel=0 note=85 velocity=0 time=53\n",
      "351282 note_on channel=0 note=83 velocity=59 time=26\n",
      "351363 note_off channel=0 note=83 velocity=0 time=81\n",
      "351395 note_on channel=0 note=81 velocity=62 time=32\n",
      "351472 note_off channel=0 note=81 velocity=0 time=77\n",
      "351500 note_on channel=0 note=79 velocity=49 time=28\n",
      "351596 note_off channel=0 note=79 velocity=0 time=96\n",
      "351719 note_on channel=0 note=78 velocity=61 time=123\n",
      "351750 note_off channel=0 note=78 velocity=0 time=31\n",
      "352046 note_on channel=0 note=81 velocity=61 time=296\n",
      "352126 note_on channel=0 note=66 velocity=17 time=80\n",
      "352141 note_on channel=0 note=57 velocity=14 time=15\n",
      "353212 note_off channel=0 note=66 velocity=0 time=1071\n",
      "353410 note_on channel=0 note=66 velocity=35 time=198\n",
      "353455 note_off channel=0 note=81 velocity=0 time=45\n",
      "353783 note_on channel=0 note=80 velocity=53 time=328\n",
      "353828 note_off channel=0 note=80 velocity=0 time=45\n",
      "353966 note_on channel=0 note=81 velocity=62 time=138\n",
      "354041 note_off channel=0 note=81 velocity=0 time=75\n",
      "354056 note_on channel=0 note=83 velocity=64 time=15\n",
      "354117 note_off channel=0 note=83 velocity=0 time=61\n",
      "354162 note_on channel=0 note=81 velocity=51 time=45\n",
      "354224 note_off channel=0 note=81 velocity=0 time=62\n",
      "354238 note_on channel=0 note=79 velocity=65 time=14\n",
      "354240 note_off channel=0 note=66 velocity=0 time=2\n",
      "354243 note_on channel=0 note=62 velocity=50 time=3\n",
      "354307 note_off channel=0 note=79 velocity=0 time=64\n",
      "354338 note_on channel=0 note=78 velocity=70 time=31\n",
      "354475 note_on channel=0 note=76 velocity=51 time=137\n",
      "354478 note_off channel=0 note=62 velocity=0 time=3\n",
      "354480 note_off channel=0 note=78 velocity=0 time=2\n",
      "354482 note_on channel=0 note=61 velocity=41 time=2\n",
      "354627 note_off channel=0 note=76 velocity=0 time=145\n",
      "354734 note_off channel=0 note=57 velocity=0 time=107\n",
      "354763 note_on channel=0 note=78 velocity=68 time=29\n",
      "354794 note_off channel=0 note=61 velocity=0 time=31\n",
      "354840 note_off channel=0 note=78 velocity=0 time=46\n",
      "354901 note_on channel=0 note=79 velocity=53 time=61\n",
      "355121 note_off channel=0 note=79 velocity=0 time=220\n",
      "355365 note_on channel=0 note=80 velocity=48 time=244\n",
      "355470 note_off channel=0 note=80 velocity=0 time=105\n",
      "356133 note_on channel=0 note=81 velocity=49 time=663\n",
      "356641 note_on channel=0 note=62 velocity=27 time=508\n",
      "356771 note_on channel=0 note=66 velocity=40 time=130\n",
      "356776 note_off channel=0 note=66 velocity=0 time=5\n",
      "356948 note_off channel=0 note=62 velocity=0 time=172\n",
      "357326 note_on channel=0 note=62 velocity=35 time=378\n",
      "357355 note_on channel=0 note=66 velocity=37 time=29\n",
      "357469 note_off channel=0 note=81 velocity=0 time=114\n",
      "357494 note_on channel=0 note=82 velocity=64 time=25\n",
      "357590 note_off channel=0 note=82 velocity=0 time=96\n",
      "357622 note_off channel=0 note=62 velocity=0 time=32\n",
      "357624 note_on channel=0 note=83 velocity=76 time=2\n",
      "357698 note_off channel=0 note=66 velocity=0 time=74\n",
      "357759 note_on channel=0 note=84 velocity=77 time=61\n",
      "357774 note_off channel=0 note=83 velocity=0 time=15\n",
      "357865 note_on channel=0 note=85 velocity=81 time=91\n",
      "357880 note_off channel=0 note=84 velocity=0 time=15\n",
      "357956 note_off channel=0 note=85 velocity=0 time=76\n",
      "357972 note_on channel=0 note=86 velocity=80 time=16\n",
      "358108 note_off channel=0 note=86 velocity=0 time=136\n",
      "358123 note_on channel=0 note=88 velocity=78 time=15\n",
      "358176 note_on channel=0 note=86 velocity=80 time=53\n",
      "358338 note_off channel=0 note=88 velocity=0 time=162\n",
      "358377 note_on channel=0 note=85 velocity=77 time=39\n",
      "358528 note_off channel=0 note=86 velocity=0 time=151\n",
      "358725 note_on channel=0 note=86 velocity=71 time=197\n",
      "358730 note_off channel=0 note=85 velocity=0 time=5\n",
      "358815 note_off channel=0 note=86 velocity=0 time=85\n",
      "359020 note_on channel=0 note=86 velocity=51 time=205\n",
      "359203 note_off channel=0 note=86 velocity=0 time=183\n",
      "359233 note_on channel=0 note=78 velocity=56 time=30\n",
      "359569 note_on channel=0 note=62 velocity=31 time=336\n",
      "359573 note_on channel=0 note=69 velocity=27 time=4\n",
      "359728 note_off channel=0 note=69 velocity=0 time=155\n",
      "359743 note_off channel=0 note=62 velocity=0 time=15\n",
      "359774 note_off channel=0 note=78 velocity=0 time=31\n",
      "360093 note_on channel=0 note=62 velocity=35 time=319\n",
      "360108 note_on channel=0 note=69 velocity=37 time=15\n",
      "360246 note_on channel=0 note=78 velocity=58 time=138\n",
      "360321 note_off channel=0 note=62 velocity=0 time=75\n",
      "360351 note_off channel=0 note=78 velocity=0 time=30\n",
      "360367 note_off channel=0 note=69 velocity=0 time=16\n",
      "360368 note_on channel=0 note=79 velocity=68 time=1\n",
      "360466 note_off channel=0 note=79 velocity=0 time=98\n",
      "360481 note_on channel=0 note=80 velocity=68 time=15\n",
      "360511 note_off channel=0 note=80 velocity=0 time=30\n",
      "360592 note_on channel=0 note=81 velocity=70 time=81\n",
      "360622 note_off channel=0 note=81 velocity=0 time=30\n",
      "360738 note_on channel=0 note=82 velocity=66 time=116\n",
      "360743 note_off channel=0 note=82 velocity=0 time=5\n",
      "360868 note_on channel=0 note=83 velocity=61 time=125\n",
      "360881 note_on channel=0 note=81 velocity=61 time=13\n",
      "361041 note_off channel=0 note=83 velocity=0 time=160\n",
      "361219 note_on channel=0 note=80 velocity=71 time=178\n",
      "361221 note_off channel=0 note=81 velocity=0 time=2\n",
      "361355 note_off channel=0 note=80 velocity=0 time=134\n",
      "361384 note_on channel=0 note=81 velocity=70 time=29\n",
      "361417 note_off channel=0 note=81 velocity=0 time=33\n",
      "361690 note_on channel=0 note=81 velocity=58 time=273\n",
      "361752 note_on channel=0 note=57 velocity=23 time=62\n",
      "361762 note_on channel=0 note=66 velocity=27 time=10\n",
      "362078 note_off channel=0 note=81 velocity=0 time=316\n",
      "362192 note_off channel=0 note=66 velocity=0 time=114\n",
      "362640 note_on channel=0 note=78 velocity=52 time=448\n",
      "362686 note_off channel=0 note=78 velocity=0 time=46\n",
      "362716 note_on channel=0 note=81 velocity=55 time=30\n",
      "362785 note_off channel=0 note=81 velocity=0 time=69\n",
      "362800 note_on channel=0 note=78 velocity=57 time=15\n",
      "362906 note_off channel=0 note=78 velocity=0 time=106\n",
      "362907 note_on channel=0 note=74 velocity=60 time=1\n",
      "362921 note_on channel=0 note=66 velocity=33 time=14\n",
      "363104 note_off channel=0 note=74 velocity=0 time=183\n",
      "363180 note_off channel=0 note=66 velocity=0 time=76\n",
      "363301 note_on channel=0 note=74 velocity=64 time=121\n",
      "363378 note_on channel=0 note=66 velocity=39 time=77\n",
      "363384 note_off channel=0 note=74 velocity=0 time=6\n",
      "363454 note_off channel=0 note=66 velocity=0 time=70\n",
      "363469 note_off channel=0 note=57 velocity=0 time=15\n",
      "363735 note_on channel=0 note=78 velocity=61 time=266\n",
      "363781 note_off channel=0 note=78 velocity=0 time=46\n",
      "363795 note_on channel=0 note=76 velocity=60 time=14\n",
      "363811 note_on channel=0 note=67 velocity=33 time=16\n",
      "363826 note_on channel=0 note=57 velocity=24 time=15\n",
      "364039 note_off channel=0 note=76 velocity=0 time=213\n",
      "364067 note_off channel=0 note=67 velocity=0 time=28\n",
      "364114 note_off channel=0 note=57 velocity=0 time=47\n",
      "364145 note_on channel=0 note=75 velocity=61 time=31\n",
      "364222 note_off channel=0 note=75 velocity=0 time=77\n",
      "364253 note_on channel=0 note=76 velocity=58 time=31\n",
      "364306 note_on channel=0 note=67 velocity=35 time=53\n",
      "364313 note_on channel=0 note=57 velocity=19 time=7\n",
      "364442 note_off channel=0 note=67 velocity=0 time=129\n",
      "364457 note_off channel=0 note=57 velocity=0 time=15\n",
      "364732 note_off channel=0 note=76 velocity=0 time=275\n",
      "364823 note_on channel=0 note=78 velocity=62 time=91\n",
      "365074 note_on channel=0 note=74 velocity=57 time=251\n",
      "365120 note_off channel=0 note=78 velocity=0 time=46\n",
      "365272 note_on channel=0 note=38 velocity=55 time=152\n",
      "365363 note_on channel=0 note=40 velocity=66 time=91\n",
      "365440 note_off channel=0 note=38 velocity=0 time=77\n",
      "365503 note_on channel=0 note=42 velocity=72 time=63\n",
      "365573 note_off channel=0 note=40 velocity=0 time=70\n",
      "365623 note_on channel=0 note=43 velocity=71 time=50\n",
      "365697 note_off channel=0 note=42 velocity=0 time=74\n",
      "365712 note_off channel=0 note=43 velocity=0 time=15\n",
      "365807 note_on channel=0 note=45 velocity=68 time=95\n",
      "365819 note_on channel=0 note=47 velocity=73 time=12\n",
      "365931 note_off channel=0 note=45 velocity=0 time=112\n",
      "365933 note_on channel=0 note=49 velocity=67 time=2\n",
      "366051 note_off channel=0 note=47 velocity=0 time=118\n",
      "366058 note_off channel=0 note=49 velocity=0 time=7\n",
      "366146 note_on channel=0 note=50 velocity=75 time=88\n",
      "366151 note_on channel=0 note=52 velocity=71 time=5\n",
      "366258 note_off channel=0 note=50 velocity=0 time=107\n",
      "366286 note_on channel=0 note=54 velocity=65 time=28\n",
      "366376 note_off channel=0 note=52 velocity=0 time=90\n",
      "366415 note_on channel=0 note=55 velocity=76 time=39\n",
      "366464 note_off channel=0 note=54 velocity=0 time=49\n",
      "366482 note_off channel=0 note=55 velocity=0 time=18\n",
      "366572 note_on channel=0 note=57 velocity=74 time=90\n",
      "366587 note_off channel=0 note=74 velocity=0 time=15\n",
      "366626 note_off channel=0 note=57 velocity=0 time=39\n",
      "366682 note_on channel=0 note=59 velocity=74 time=56\n",
      "366685 note_off channel=0 note=59 velocity=0 time=3\n",
      "366781 note_on channel=0 note=61 velocity=70 time=96\n",
      "366782 note_off channel=0 note=61 velocity=0 time=1\n",
      "366874 note_on channel=0 note=62 velocity=70 time=92\n",
      "366875 note_on channel=0 note=64 velocity=65 time=1\n",
      "366994 note_off channel=0 note=64 velocity=0 time=119\n",
      "367065 note_on channel=0 note=66 velocity=70 time=71\n",
      "367127 note_off channel=0 note=66 velocity=0 time=62\n",
      "367156 note_on channel=0 note=67 velocity=75 time=29\n",
      "367179 note_off channel=0 note=62 velocity=0 time=23\n",
      "367213 note_off channel=0 note=67 velocity=0 time=34\n",
      "367247 note_on channel=0 note=69 velocity=69 time=34\n",
      "367256 note_on channel=0 note=71 velocity=65 time=9\n",
      "367333 note_off channel=0 note=69 velocity=0 time=77\n",
      "367360 note_off channel=0 note=71 velocity=0 time=27\n",
      "367412 note_on channel=0 note=73 velocity=76 time=52\n",
      "367413 note_off channel=0 note=73 velocity=0 time=1\n",
      "367459 note_on channel=0 note=74 velocity=81 time=46\n",
      "367491 note_on channel=0 note=76 velocity=74 time=32\n",
      "367552 note_off channel=0 note=74 velocity=0 time=61\n",
      "367569 note_on channel=0 note=78 velocity=75 time=17\n",
      "367623 note_off channel=0 note=76 velocity=0 time=54\n",
      "367626 note_on channel=0 note=79 velocity=80 time=3\n",
      "367692 note_off channel=0 note=78 velocity=0 time=66\n",
      "367834 note_on channel=0 note=81 velocity=69 time=142\n",
      "367865 note_on channel=0 note=78 velocity=77 time=31\n",
      "367865 note_off channel=0 note=79 velocity=0 time=0\n",
      "367895 note_on channel=0 note=50 velocity=58 time=30\n",
      "368040 note_on channel=0 note=52 velocity=60 time=145\n",
      "368174 note_off channel=0 note=50 velocity=0 time=134\n",
      "368211 note_on channel=0 note=54 velocity=67 time=37\n",
      "368284 note_off channel=0 note=52 velocity=0 time=73\n",
      "368317 note_off channel=0 note=54 velocity=0 time=33\n",
      "368393 note_on channel=0 note=55 velocity=68 time=76\n",
      "368400 note_off channel=0 note=55 velocity=0 time=7\n",
      "368489 note_on channel=0 note=57 velocity=65 time=89\n",
      "368499 note_off channel=0 note=57 velocity=0 time=10\n",
      "368584 note_on channel=0 note=59 velocity=66 time=85\n",
      "368601 note_off channel=0 note=59 velocity=0 time=17\n",
      "368696 note_on channel=0 note=61 velocity=60 time=95\n",
      "368701 note_off channel=0 note=61 velocity=0 time=5\n",
      "368788 note_on channel=0 note=62 velocity=59 time=87\n",
      "368802 note_off channel=0 note=62 velocity=0 time=14\n",
      "368904 note_on channel=0 note=64 velocity=66 time=102\n",
      "368913 note_on channel=0 note=66 velocity=57 time=9\n",
      "369023 note_off channel=0 note=64 velocity=0 time=110\n",
      "369036 note_off channel=0 note=66 velocity=0 time=13\n",
      "369103 note_on channel=0 note=67 velocity=62 time=67\n",
      "369108 note_off channel=0 note=67 velocity=0 time=5\n",
      "369189 note_on channel=0 note=69 velocity=58 time=81\n",
      "369263 note_off channel=0 note=69 velocity=0 time=74\n",
      "369276 note_on channel=0 note=71 velocity=62 time=13\n",
      "369384 note_off channel=0 note=71 velocity=0 time=108\n",
      "369399 note_on channel=0 note=73 velocity=56 time=15\n",
      "369491 note_off channel=0 note=73 velocity=0 time=92\n",
      "369506 note_on channel=0 note=74 velocity=59 time=15\n",
      "369537 note_off channel=0 note=81 velocity=0 time=31\n",
      "369551 note_off channel=0 note=78 velocity=0 time=14\n",
      "369711 note_on channel=0 note=62 velocity=50 time=160\n",
      "369787 note_off channel=0 note=74 velocity=0 time=76\n",
      "369815 note_on channel=0 note=79 velocity=61 time=28\n",
      "369957 note_off channel=0 note=79 velocity=0 time=142\n",
      "369998 note_on channel=0 note=83 velocity=66 time=41\n",
      "370152 note_on channel=0 note=76 velocity=59 time=154\n",
      "370156 note_off channel=0 note=83 velocity=0 time=4\n",
      "370246 note_on channel=0 note=85 velocity=75 time=90\n",
      "370276 note_off channel=0 note=76 velocity=0 time=30\n",
      "370282 note_on channel=0 note=78 velocity=77 time=6\n",
      "370337 note_off channel=0 note=62 velocity=0 time=55\n",
      "370345 note_off channel=0 note=85 velocity=0 time=8\n",
      "370352 note_off channel=0 note=78 velocity=0 time=7\n",
      "370400 note_on channel=0 note=86 velocity=65 time=48\n",
      "370603 note_on channel=0 note=78 velocity=69 time=203\n",
      "370618 note_on channel=0 note=74 velocity=41 time=15\n",
      "370633 note_off channel=0 note=86 velocity=0 time=15\n",
      "370843 note_on channel=0 note=40 velocity=48 time=210\n",
      "370852 note_on channel=0 note=42 velocity=53 time=9\n",
      "370949 note_off channel=0 note=40 velocity=0 time=97\n",
      "370960 note_off channel=0 note=42 velocity=0 time=11\n",
      "371030 note_on channel=0 note=43 velocity=59 time=70\n",
      "371046 note_off channel=0 note=43 velocity=0 time=16\n",
      "371136 note_on channel=0 note=45 velocity=58 time=90\n",
      "371147 note_off channel=0 note=45 velocity=0 time=11\n",
      "371214 note_on channel=0 note=47 velocity=59 time=67\n",
      "371256 note_off channel=0 note=47 velocity=0 time=42\n",
      "371348 note_on channel=0 note=49 velocity=51 time=92\n",
      "371357 note_off channel=0 note=49 velocity=0 time=9\n",
      "371420 note_on channel=0 note=50 velocity=56 time=63\n",
      "371444 note_off channel=0 note=50 velocity=0 time=24\n",
      "371491 note_on channel=0 note=52 velocity=51 time=47\n",
      "371550 note_off channel=0 note=52 velocity=0 time=59\n",
      "371650 note_on channel=0 note=54 velocity=49 time=100\n",
      "371651 note_off channel=0 note=54 velocity=0 time=1\n",
      "371714 note_on channel=0 note=55 velocity=56 time=63\n",
      "371740 note_off channel=0 note=55 velocity=0 time=26\n",
      "371797 note_on channel=0 note=57 velocity=52 time=57\n",
      "371827 note_off channel=0 note=57 velocity=0 time=30\n",
      "371865 note_on channel=0 note=59 velocity=55 time=38\n",
      "371924 note_off channel=0 note=59 velocity=0 time=59\n",
      "371990 note_on channel=0 note=61 velocity=50 time=66\n",
      "372096 note_off channel=0 note=61 velocity=0 time=106\n",
      "372127 note_on channel=0 note=62 velocity=47 time=31\n",
      "372157 note_off channel=0 note=74 velocity=0 time=30\n",
      "372263 note_on channel=0 note=50 velocity=55 time=106\n",
      "372339 note_off channel=0 note=62 velocity=0 time=76\n",
      "372429 note_off channel=0 note=78 velocity=0 time=90\n",
      "372521 note_on channel=0 note=76 velocity=66 time=92\n",
      "372559 note_on channel=0 note=79 velocity=65 time=38\n",
      "372680 note_off channel=0 note=76 velocity=0 time=121\n",
      "372687 note_on channel=0 note=77 velocity=74 time=7\n",
      "372787 note_off channel=0 note=79 velocity=0 time=100\n",
      "372791 note_off channel=0 note=50 velocity=0 time=4\n",
      "372812 note_off channel=0 note=77 velocity=0 time=21\n",
      "372874 note_on channel=0 note=80 velocity=81 time=62\n",
      "372920 note_on channel=0 note=78 velocity=81 time=46\n",
      "372974 note_off channel=0 note=80 velocity=0 time=54\n",
      "372996 note_off channel=0 note=78 velocity=0 time=22\n",
      "373062 note_on channel=0 note=81 velocity=79 time=66\n",
      "373194 note_on channel=0 note=69 velocity=73 time=132\n",
      "373239 note_on channel=0 note=57 velocity=47 time=45\n",
      "373286 note_off channel=0 note=81 velocity=0 time=47\n",
      "373301 note_off channel=0 note=69 velocity=0 time=15\n",
      "373483 note_on channel=0 note=86 velocity=84 time=182\n",
      "373627 note_off channel=0 note=86 velocity=0 time=144\n",
      "373673 note_on channel=0 note=85 velocity=88 time=46\n",
      "373703 note_off channel=0 note=85 velocity=0 time=30\n",
      "373779 note_on channel=0 note=84 velocity=86 time=76\n",
      "373886 note_off channel=0 note=84 velocity=0 time=107\n",
      "373931 note_on channel=0 note=83 velocity=80 time=45\n",
      "374038 note_on channel=0 note=82 velocity=80 time=107\n",
      "374053 note_off channel=0 note=83 velocity=0 time=15\n",
      "374190 note_on channel=0 note=81 velocity=71 time=137\n",
      "374190 note_off channel=0 note=82 velocity=0 time=0\n",
      "374191 note_on channel=0 note=62 velocity=47 time=1\n",
      "374206 note_on channel=0 note=66 velocity=47 time=15\n",
      "374304 note_off channel=0 note=81 velocity=0 time=98\n",
      "374319 note_on channel=0 note=80 velocity=77 time=15\n",
      "374395 note_off channel=0 note=80 velocity=0 time=76\n",
      "374426 note_on channel=0 note=79 velocity=76 time=31\n",
      "374487 note_off channel=0 note=79 velocity=0 time=61\n",
      "374533 note_on channel=0 note=78 velocity=83 time=46\n",
      "374593 note_off channel=0 note=78 velocity=0 time=60\n",
      "374639 note_on channel=0 note=77 velocity=72 time=46\n",
      "374731 note_off channel=0 note=77 velocity=0 time=92\n",
      "374776 note_off channel=0 note=62 velocity=0 time=45\n",
      "374791 note_on channel=0 note=76 velocity=67 time=15\n",
      "374883 note_off channel=0 note=66 velocity=0 time=92\n",
      "374884 note_off channel=0 note=76 velocity=0 time=1\n",
      "374929 note_on channel=0 note=75 velocity=70 time=45\n",
      "374989 note_off channel=0 note=75 velocity=0 time=60\n",
      "375210 note_on channel=0 note=74 velocity=65 time=221\n",
      "375239 note_on channel=0 note=67 velocity=39 time=29\n",
      "375243 note_on channel=0 note=64 velocity=39 time=4\n",
      "375270 note_off channel=0 note=74 velocity=0 time=27\n",
      "375499 note_on channel=0 note=73 velocity=75 time=229\n",
      "375589 note_off channel=0 note=73 velocity=0 time=90\n",
      "375978 note_on channel=0 note=79 velocity=66 time=389\n",
      "376251 note_off channel=0 note=57 velocity=0 time=273\n",
      "376328 note_off channel=0 note=67 velocity=0 time=77\n",
      "376334 note_off channel=0 note=79 velocity=0 time=6\n",
      "376347 note_off channel=0 note=64 velocity=0 time=13\n",
      "377171 note_on channel=0 note=73 velocity=70 time=824\n",
      "377529 note_on channel=0 note=76 velocity=65 time=358\n",
      "377544 note_on channel=0 note=67 velocity=45 time=15\n",
      "377552 note_off channel=0 note=73 velocity=0 time=8\n",
      "377574 note_on channel=0 note=50 velocity=37 time=22\n",
      "377577 note_on channel=0 note=38 velocity=37 time=3\n",
      "378159 note_off channel=0 note=76 velocity=0 time=582\n",
      "378571 note_on channel=0 note=78 velocity=43 time=412\n",
      "378631 note_off channel=0 note=67 velocity=0 time=60\n",
      "378647 note_off channel=0 note=78 velocity=0 time=16\n",
      "378661 note_on channel=0 note=76 velocity=49 time=14\n",
      "378737 note_off channel=0 note=76 velocity=0 time=76\n",
      "378768 note_on channel=0 note=74 velocity=53 time=31\n",
      "378810 note_off channel=0 note=74 velocity=0 time=42\n",
      "378879 note_on channel=0 note=76 velocity=44 time=69\n",
      "379139 note_on channel=0 note=74 velocity=45 time=260\n",
      "379149 note_off channel=0 note=76 velocity=0 time=10\n",
      "379154 note_on channel=0 note=66 velocity=37 time=5\n",
      "379594 note_off channel=0 note=74 velocity=0 time=440\n",
      "379625 note_off channel=0 note=66 velocity=0 time=31\n",
      "379637 note_off channel=0 note=50 velocity=0 time=12\n",
      "379770 note_off channel=0 note=38 velocity=0 time=133\n",
      "382825 note_on channel=0 note=81 velocity=54 time=3055\n",
      "382830 note_on channel=0 note=62 velocity=48 time=5\n",
      "382840 note_on channel=0 note=66 velocity=38 time=10\n",
      "382843 note_off channel=0 note=81 velocity=0 time=3\n",
      "382856 note_off channel=0 note=62 velocity=0 time=13\n",
      "382871 note_off channel=0 note=66 velocity=0 time=15\n",
      "383039 note_on channel=0 note=81 velocity=71 time=168\n",
      "383082 note_on channel=0 note=66 velocity=37 time=43\n",
      "383100 note_off channel=0 note=81 velocity=0 time=18\n",
      "383222 note_off channel=0 note=66 velocity=0 time=122\n",
      "383237 note_on channel=0 note=67 velocity=50 time=15\n",
      "383269 note_on channel=0 note=83 velocity=71 time=32\n",
      "383314 note_off channel=0 note=83 velocity=0 time=45\n",
      "383416 note_on channel=0 note=64 velocity=46 time=102\n",
      "383441 note_off channel=0 note=67 velocity=0 time=25\n",
      "383451 note_off channel=0 note=64 velocity=0 time=10\n",
      "383451 note_on channel=0 note=79 velocity=61 time=0\n",
      "383518 note_off channel=0 note=79 velocity=0 time=67\n",
      "383610 note_on channel=0 note=78 velocity=80 time=92\n",
      "383614 note_on channel=0 note=62 velocity=49 time=4\n",
      "383620 note_on channel=0 note=69 velocity=47 time=6\n",
      "383631 note_off channel=0 note=78 velocity=0 time=11\n",
      "383641 note_off channel=0 note=62 velocity=0 time=10\n",
      "383656 note_off channel=0 note=69 velocity=0 time=15\n",
      "383687 note_on channel=0 note=78 velocity=65 time=31\n",
      "383814 note_on channel=0 note=69 velocity=57 time=127\n",
      "383815 note_off channel=0 note=69 velocity=0 time=1\n",
      "383935 note_off channel=0 note=78 velocity=0 time=120\n",
      "383944 note_on channel=0 note=79 velocity=64 time=9\n",
      "383985 note_on channel=0 note=71 velocity=48 time=41\n",
      "383986 note_off channel=0 note=71 velocity=0 time=1\n",
      "384099 note_on channel=0 note=67 velocity=48 time=113\n",
      "384155 note_on channel=0 note=76 velocity=68 time=56\n",
      "384173 note_off channel=0 note=67 velocity=0 time=18\n",
      "384184 note_off channel=0 note=79 velocity=0 time=11\n",
      "384316 note_off channel=0 note=76 velocity=0 time=132\n",
      "384329 note_on channel=0 note=74 velocity=69 time=13\n",
      "384338 note_on channel=0 note=62 velocity=50 time=9\n",
      "384341 note_on channel=0 note=66 velocity=49 time=3\n",
      "384349 note_off channel=0 note=74 velocity=0 time=8\n",
      "384366 note_off channel=0 note=62 velocity=0 time=17\n",
      "384372 note_off channel=0 note=66 velocity=0 time=6\n",
      "384375 note_on channel=0 note=74 velocity=78 time=3\n",
      "384514 note_on channel=0 note=62 velocity=58 time=139\n",
      "384515 note_on channel=0 note=66 velocity=35 time=1\n",
      "384537 note_off channel=0 note=74 velocity=0 time=22\n",
      "384539 note_off channel=0 note=62 velocity=0 time=2\n",
      "384548 note_off channel=0 note=66 velocity=0 time=9\n",
      "384567 note_on channel=0 note=61 velocity=54 time=19\n",
      "384687 note_on channel=0 note=57 velocity=46 time=120\n",
      "384687 note_on channel=0 note=76 velocity=75 time=0\n",
      "384704 note_off channel=0 note=76 velocity=0 time=17\n",
      "384707 note_off channel=0 note=61 velocity=0 time=3\n",
      "384716 note_off channel=0 note=57 velocity=0 time=9\n",
      "384759 note_on channel=0 note=61 velocity=53 time=43\n",
      "384854 note_on channel=0 note=57 velocity=52 time=95\n",
      "384856 note_on channel=0 note=76 velocity=70 time=2\n",
      "384860 note_off channel=0 note=76 velocity=0 time=4\n",
      "384877 note_off channel=0 note=57 velocity=0 time=17\n",
      "384882 note_off channel=0 note=61 velocity=0 time=5\n",
      "384883 note_on channel=0 note=62 velocity=47 time=1\n",
      "385040 note_on channel=0 note=77 velocity=73 time=157\n",
      "385046 note_on channel=0 note=66 velocity=48 time=6\n",
      "385132 note_off channel=0 note=77 velocity=0 time=86\n",
      "385191 note_on channel=0 note=78 velocity=63 time=59\n",
      "385216 note_off channel=0 note=78 velocity=0 time=25\n",
      "385243 note_off channel=0 note=66 velocity=0 time=27\n",
      "385248 note_off channel=0 note=62 velocity=0 time=5\n",
      "385314 note_on channel=0 note=74 velocity=66 time=66\n",
      "385404 note_off channel=0 note=74 velocity=0 time=90\n",
      "385528 note_on channel=0 note=69 velocity=72 time=124\n",
      "385542 note_off channel=0 note=69 velocity=0 time=14\n",
      "385567 note_on channel=0 note=81 velocity=89 time=25\n",
      "385714 note_on channel=0 note=50 velocity=69 time=147\n",
      "385716 note_off channel=0 note=81 velocity=0 time=2\n",
      "385733 note_off channel=0 note=50 velocity=0 time=17\n",
      "385753 note_on channel=0 note=62 velocity=67 time=20\n",
      "385812 note_off channel=0 note=62 velocity=0 time=59\n",
      "385844 note_on channel=0 note=86 velocity=97 time=32\n",
      "385891 note_on channel=0 note=54 velocity=76 time=47\n",
      "385896 note_off channel=0 note=54 velocity=0 time=5\n",
      "385921 note_on channel=0 note=62 velocity=56 time=25\n",
      "385971 note_off channel=0 note=62 velocity=0 time=50\n",
      "386004 note_on channel=0 note=57 velocity=72 time=33\n",
      "386049 note_off channel=0 note=57 velocity=0 time=45\n",
      "386090 note_on channel=0 note=62 velocity=60 time=41\n",
      "386127 note_off channel=0 note=62 velocity=0 time=37\n",
      "386178 note_off channel=0 note=86 velocity=0 time=51\n",
      "386190 note_on channel=0 note=78 velocity=92 time=12\n",
      "386200 note_on channel=0 note=61 velocity=68 time=10\n",
      "386203 note_off channel=0 note=78 velocity=0 time=3\n",
      "386224 note_off channel=0 note=61 velocity=0 time=21\n",
      "386229 note_on channel=0 note=62 velocity=66 time=5\n",
      "386275 note_off channel=0 note=62 velocity=0 time=46\n",
      "386306 note_on channel=0 note=78 velocity=95 time=31\n",
      "386367 note_on channel=0 note=50 velocity=80 time=61\n",
      "386371 note_off channel=0 note=78 velocity=0 time=4\n",
      "386385 note_off channel=0 note=50 velocity=0 time=14\n",
      "386400 note_on channel=0 note=62 velocity=69 time=15\n",
      "386454 note_off channel=0 note=62 velocity=0 time=54\n",
      "386491 note_on channel=0 note=54 velocity=74 time=37\n",
      "386528 note_on channel=0 note=81 velocity=91 time=37\n",
      "386535 note_off channel=0 note=54 velocity=0 time=7\n",
      "386562 note_on channel=0 note=62 velocity=72 time=27\n",
      "386603 note_off channel=0 note=62 velocity=0 time=41\n",
      "386646 note_on channel=0 note=57 velocity=63 time=43\n",
      "386687 note_off channel=0 note=57 velocity=0 time=41\n",
      "386720 note_on channel=0 note=62 velocity=71 time=33\n",
      "386757 note_off channel=0 note=81 velocity=0 time=37\n",
      "386792 note_off channel=0 note=62 velocity=0 time=35\n",
      "386797 note_on channel=0 note=74 velocity=86 time=5\n",
      "386821 note_on channel=0 note=61 velocity=68 time=24\n",
      "386829 note_off channel=0 note=61 velocity=0 time=8\n",
      "386859 note_on channel=0 note=62 velocity=69 time=30\n",
      "386897 note_off channel=0 note=62 velocity=0 time=38\n",
      "386928 note_off channel=0 note=74 velocity=0 time=31\n",
      "386945 note_on channel=0 note=78 velocity=88 time=17\n",
      "386982 note_on channel=0 note=57 velocity=67 time=37\n",
      "386995 note_off channel=0 note=78 velocity=0 time=13\n",
      "387017 note_off channel=0 note=57 velocity=0 time=22\n",
      "387048 note_on channel=0 note=66 velocity=73 time=31\n",
      "387109 note_off channel=0 note=66 velocity=0 time=61\n",
      "387140 note_on channel=0 note=78 velocity=85 time=31\n",
      "387145 note_on channel=0 note=62 velocity=69 time=5\n",
      "387155 note_off channel=0 note=78 velocity=0 time=10\n",
      "387185 note_off channel=0 note=62 velocity=0 time=30\n",
      "387231 note_on channel=0 note=66 velocity=59 time=46\n",
      "387247 note_off channel=0 note=66 velocity=0 time=16\n",
      "387261 note_on channel=0 note=78 velocity=75 time=14\n",
      "387276 note_on channel=0 note=57 velocity=73 time=15\n",
      "387292 note_off channel=0 note=78 velocity=0 time=16\n",
      "387299 note_on channel=0 note=76 velocity=74 time=7\n",
      "387330 note_off channel=0 note=57 velocity=0 time=31\n",
      "387345 note_off channel=0 note=76 velocity=0 time=15\n",
      "387355 note_on channel=0 note=74 velocity=82 time=10\n",
      "387360 note_on channel=0 note=67 velocity=67 time=5\n",
      "387391 note_off channel=0 note=74 velocity=0 time=31\n",
      "387398 note_off channel=0 note=67 velocity=0 time=7\n",
      "387406 note_on channel=0 note=61 velocity=59 time=8\n",
      "387416 note_on channel=0 note=76 velocity=79 time=10\n",
      "387425 note_off channel=0 note=61 velocity=0 time=9\n",
      "387450 note_off channel=0 note=76 velocity=0 time=25\n",
      "387484 note_on channel=0 note=67 velocity=71 time=34\n",
      "387484 note_on channel=0 note=78 velocity=85 time=0\n",
      "387490 note_off channel=0 note=67 velocity=0 time=6\n",
      "387517 note_off channel=0 note=78 velocity=0 time=27\n",
      "387577 note_on channel=0 note=62 velocity=69 time=60\n",
      "387587 note_on channel=0 note=74 velocity=86 time=10\n",
      "387593 note_on channel=0 note=66 velocity=58 time=6\n",
      "387596 note_off channel=0 note=62 velocity=0 time=3\n",
      "387611 note_off channel=0 note=66 velocity=0 time=15\n",
      "387618 note_on channel=0 note=57 velocity=71 time=7\n",
      "387774 note_off channel=0 note=57 velocity=0 time=156\n",
      "387793 note_on channel=0 note=50 velocity=83 time=19\n",
      "387975 note_off channel=0 note=74 velocity=0 time=182\n",
      "387998 note_off channel=0 note=50 velocity=0 time=23\n",
      "388294 note_on channel=0 note=81 velocity=61 time=296\n",
      "388459 note_on channel=0 note=62 velocity=50 time=165\n",
      "388467 note_on channel=0 note=66 velocity=41 time=8\n",
      "388472 note_off channel=0 note=81 velocity=0 time=5\n",
      "388478 note_off channel=0 note=62 velocity=0 time=6\n",
      "388499 note_off channel=0 note=66 velocity=0 time=21\n",
      "388502 note_on channel=0 note=81 velocity=61 time=3\n",
      "388677 note_on channel=0 note=66 velocity=41 time=175\n",
      "388682 note_off channel=0 note=66 velocity=0 time=5\n",
      "388857 note_off channel=0 note=81 velocity=0 time=175\n",
      "388861 note_on channel=0 note=83 velocity=55 time=4\n",
      "388878 note_on channel=0 note=67 velocity=52 time=17\n",
      "388880 note_off channel=0 note=83 velocity=0 time=2\n",
      "388997 note_on channel=0 note=64 velocity=48 time=117\n",
      "389030 note_off channel=0 note=67 velocity=0 time=33\n",
      "389044 note_off channel=0 note=64 velocity=0 time=14\n",
      "389044 note_on channel=0 note=79 velocity=58 time=0\n",
      "389107 note_on channel=0 note=62 velocity=63 time=63\n",
      "389204 note_off channel=0 note=79 velocity=0 time=97\n",
      "389208 note_on channel=0 note=69 velocity=63 time=4\n",
      "389214 note_on channel=0 note=78 velocity=68 time=6\n",
      "389216 note_off channel=0 note=62 velocity=0 time=2\n",
      "389232 note_off channel=0 note=78 velocity=0 time=16\n",
      "389240 note_off channel=0 note=69 velocity=0 time=8\n",
      "389242 note_on channel=0 note=69 velocity=61 time=2\n",
      "389387 note_on channel=0 note=78 velocity=62 time=145\n",
      "389388 note_off channel=0 note=69 velocity=0 time=1\n",
      "389483 note_off channel=0 note=78 velocity=0 time=95\n",
      "389510 note_on channel=0 note=71 velocity=51 time=27\n",
      "389564 note_on channel=0 note=79 velocity=49 time=54\n",
      "389569 note_off channel=0 note=71 velocity=0 time=5\n",
      "389688 note_on channel=0 note=76 velocity=56 time=119\n",
      "389743 note_on channel=0 note=67 velocity=54 time=55\n",
      "389752 note_off channel=0 note=67 velocity=0 time=9\n",
      "389777 note_off channel=0 note=79 velocity=0 time=25\n",
      "389883 note_on channel=0 note=74 velocity=62 time=106\n",
      "389905 note_off channel=0 note=76 velocity=0 time=22\n",
      "389906 note_on channel=0 note=62 velocity=46 time=1\n",
      "389915 note_on channel=0 note=66 velocity=55 time=9\n",
      "389916 note_off channel=0 note=74 velocity=0 time=1\n",
      "389925 note_off channel=0 note=62 velocity=0 time=9\n",
      "389942 note_off channel=0 note=66 velocity=0 time=17\n",
      "389945 note_on channel=0 note=74 velocity=66 time=3\n",
      "390088 note_on channel=0 note=62 velocity=52 time=143\n",
      "390091 note_on channel=0 note=66 velocity=41 time=3\n",
      "390098 note_off channel=0 note=74 velocity=0 time=7\n",
      "390107 note_off channel=0 note=62 velocity=0 time=9\n",
      "390119 note_off channel=0 note=66 velocity=0 time=12\n",
      "390128 note_on channel=0 note=76 velocity=68 time=9\n",
      "390251 note_on channel=0 note=61 velocity=54 time=123\n",
      "390254 note_off channel=0 note=76 velocity=0 time=3\n",
      "390268 note_on channel=0 note=57 velocity=28 time=14\n",
      "390278 note_off channel=0 note=61 velocity=0 time=10\n",
      "390281 note_off channel=0 note=57 velocity=0 time=3\n",
      "390316 note_on channel=0 note=57 velocity=57 time=35\n",
      "390420 note_on channel=0 note=76 velocity=66 time=104\n",
      "390422 note_on channel=0 note=61 velocity=41 time=2\n",
      "390425 note_off channel=0 note=57 velocity=0 time=3\n",
      "390448 note_off channel=0 note=61 velocity=0 time=23\n",
      "390448 note_off channel=0 note=76 velocity=0 time=0\n",
      "390451 note_on channel=0 note=62 velocity=46 time=3\n",
      "390609 note_on channel=0 note=66 velocity=47 time=158\n",
      "390609 note_on channel=0 note=77 velocity=72 time=0\n",
      "390623 note_off channel=0 note=77 velocity=0 time=14\n",
      "390744 note_on channel=0 note=78 velocity=72 time=121\n",
      "390768 note_off channel=0 note=78 velocity=0 time=24\n",
      "390797 note_off channel=0 note=66 velocity=0 time=29\n",
      "390809 note_off channel=0 note=62 velocity=0 time=12\n",
      "390816 note_on channel=0 note=74 velocity=66 time=7\n",
      "390939 note_off channel=0 note=74 velocity=0 time=123\n",
      "390963 note_on channel=0 note=69 velocity=56 time=24\n",
      "391101 note_off channel=0 note=69 velocity=0 time=138\n",
      "391274 note_on channel=0 note=50 velocity=62 time=173\n",
      "391274 note_on channel=0 note=81 velocity=95 time=0\n",
      "391289 note_off channel=0 note=81 velocity=0 time=15\n",
      "391305 note_off channel=0 note=50 velocity=0 time=16\n",
      "391350 note_on channel=0 note=62 velocity=63 time=45\n",
      "391395 note_off channel=0 note=62 velocity=0 time=45\n",
      "391441 note_on channel=0 note=54 velocity=68 time=46\n",
      "391457 note_on channel=0 note=86 velocity=97 time=16\n",
      "391471 note_off channel=0 note=54 velocity=0 time=14\n",
      "391486 note_on channel=0 note=62 velocity=68 time=15\n",
      "391533 note_off channel=0 note=62 velocity=0 time=47\n",
      "391593 note_on channel=0 note=57 velocity=77 time=60\n",
      "391639 note_off channel=0 note=57 velocity=0 time=46\n",
      "391684 note_on channel=0 note=62 velocity=67 time=45\n",
      "391730 note_off channel=0 note=62 velocity=0 time=46\n",
      "391731 note_off channel=0 note=86 velocity=0 time=1\n",
      "391746 note_on channel=0 note=61 velocity=66 time=15\n",
      "391780 note_off channel=0 note=61 velocity=0 time=34\n",
      "391821 note_on channel=0 note=62 velocity=71 time=41\n",
      "391828 note_off channel=0 note=62 velocity=0 time=7\n",
      "391912 note_on channel=0 note=78 velocity=93 time=84\n",
      "391928 note_on channel=0 note=50 velocity=79 time=16\n",
      "391950 note_off channel=0 note=78 velocity=0 time=22\n",
      "391952 note_off channel=0 note=50 velocity=0 time=2\n",
      "392010 note_on channel=0 note=62 velocity=70 time=58\n",
      "392042 note_off channel=0 note=62 velocity=0 time=32\n",
      "392088 note_on channel=0 note=54 velocity=72 time=46\n",
      "392094 note_on channel=0 note=81 velocity=94 time=6\n",
      "392118 note_off channel=0 note=54 velocity=0 time=24\n",
      "392149 note_on channel=0 note=62 velocity=74 time=31\n",
      "392160 note_off channel=0 note=62 velocity=0 time=11\n",
      "392203 note_on channel=0 note=57 velocity=68 time=43\n",
      "392270 note_off channel=0 note=57 velocity=0 time=67\n",
      "392285 note_on channel=0 note=62 velocity=71 time=15\n",
      "392314 note_off channel=0 note=81 velocity=0 time=29\n",
      "392349 note_off channel=0 note=62 velocity=0 time=35\n",
      "392356 note_on channel=0 note=61 velocity=66 time=7\n",
      "392386 note_on channel=0 note=74 velocity=85 time=30\n",
      "392422 note_off channel=0 note=61 velocity=0 time=36\n",
      "392453 note_on channel=0 note=62 velocity=67 time=31\n",
      "392468 note_off channel=0 note=62 velocity=0 time=15\n",
      "392499 note_off channel=0 note=74 velocity=0 time=31\n",
      "392528 note_on channel=0 note=78 velocity=92 time=29\n",
      "392544 note_on channel=0 note=57 velocity=72 time=16\n",
      "392558 note_off channel=0 note=78 velocity=0 time=14\n",
      "392574 note_off channel=0 note=57 velocity=0 time=16\n",
      "392620 note_on channel=0 note=66 velocity=70 time=46\n",
      "392649 note_off channel=0 note=66 velocity=0 time=29\n",
      "392703 note_on channel=0 note=62 velocity=70 time=54\n",
      "392703 note_on channel=0 note=78 velocity=89 time=0\n",
      "392718 note_off channel=0 note=78 velocity=0 time=15\n",
      "392749 note_off channel=0 note=62 velocity=0 time=31\n",
      "392779 note_on channel=0 note=66 velocity=61 time=30\n",
      "392809 note_off channel=0 note=66 velocity=0 time=30\n",
      "392817 note_on channel=0 note=78 velocity=80 time=8\n",
      "392841 note_on channel=0 note=57 velocity=73 time=24\n",
      "392850 note_on channel=0 note=76 velocity=75 time=9\n",
      "392857 note_off channel=0 note=78 velocity=0 time=7\n",
      "392864 note_off channel=0 note=57 velocity=0 time=7\n",
      "392891 note_on channel=0 note=74 velocity=88 time=27\n",
      "392905 note_on channel=0 note=67 velocity=70 time=14\n",
      "392928 note_off channel=0 note=76 velocity=0 time=23\n",
      "392942 note_off channel=0 note=74 velocity=0 time=14\n",
      "392946 note_off channel=0 note=67 velocity=0 time=4\n",
      "392962 note_on channel=0 note=76 velocity=63 time=16\n",
      "392975 note_on channel=0 note=61 velocity=43 time=13\n",
      "392979 note_off channel=0 note=61 velocity=0 time=4\n",
      "393006 note_on channel=0 note=78 velocity=82 time=27\n",
      "393034 note_on channel=0 note=67 velocity=75 time=28\n",
      "393040 note_off channel=0 note=76 velocity=0 time=6\n",
      "393042 note_off channel=0 note=67 velocity=0 time=2\n",
      "393064 note_off channel=0 note=78 velocity=0 time=22\n",
      "393140 note_on channel=0 note=62 velocity=62 time=76\n",
      "393150 note_on channel=0 note=74 velocity=85 time=10\n",
      "393154 note_on channel=0 note=66 velocity=59 time=4\n",
      "393156 note_off channel=0 note=66 velocity=0 time=2\n",
      "393179 note_off channel=0 note=62 velocity=0 time=23\n",
      "393180 note_on channel=0 note=57 velocity=56 time=1\n",
      "393352 note_off channel=0 note=57 velocity=0 time=172\n",
      "393379 note_on channel=0 note=50 velocity=71 time=27\n",
      "393593 note_off channel=0 note=74 velocity=0 time=214\n",
      "393594 note_off channel=0 note=50 velocity=0 time=1\n",
      "393806 note_on channel=0 note=69 velocity=82 time=212\n",
      "393929 note_on channel=0 note=76 velocity=89 time=123\n",
      "393933 note_on channel=0 note=43 velocity=70 time=4\n",
      "393936 note_on channel=0 note=55 velocity=74 time=3\n",
      "393936 note_on channel=0 note=73 velocity=85 time=0\n",
      "393937 note_off channel=0 note=69 velocity=0 time=1\n",
      "393950 note_off channel=0 note=73 velocity=0 time=13\n",
      "393955 note_off channel=0 note=55 velocity=0 time=5\n",
      "393961 note_off channel=0 note=43 velocity=0 time=6\n",
      "393962 note_off channel=0 note=76 velocity=0 time=1\n",
      "394079 note_on channel=0 note=69 velocity=78 time=117\n",
      "394274 note_on channel=0 note=74 velocity=89 time=195\n",
      "394280 note_on channel=0 note=42 velocity=85 time=6\n",
      "394280 note_on channel=0 note=78 velocity=90 time=0\n",
      "394288 note_on channel=0 note=54 velocity=63 time=8\n",
      "394290 note_off channel=0 note=69 velocity=0 time=2\n",
      "394296 note_off channel=0 note=74 velocity=0 time=6\n",
      "394302 note_off channel=0 note=42 velocity=0 time=6\n",
      "394317 note_off channel=0 note=54 velocity=0 time=15\n",
      "394319 note_off channel=0 note=78 velocity=0 time=2\n",
      "394424 note_on channel=0 note=69 velocity=66 time=105\n",
      "394637 note_on channel=0 note=79 velocity=88 time=213\n",
      "394639 note_on channel=0 note=76 velocity=79 time=2\n",
      "394640 note_on channel=0 note=49 velocity=75 time=1\n",
      "394642 note_on channel=0 note=37 velocity=86 time=2\n",
      "394666 note_off channel=0 note=49 velocity=0 time=24\n",
      "394669 note_off channel=0 note=37 velocity=0 time=3\n",
      "394757 note_off channel=0 note=69 velocity=0 time=88\n",
      "394773 note_off channel=0 note=79 velocity=0 time=16\n",
      "394787 note_off channel=0 note=76 velocity=0 time=14\n",
      "395235 note_on channel=0 note=76 velocity=59 time=448\n",
      "395298 note_on channel=0 note=66 velocity=65 time=63\n",
      "395298 note_off channel=0 note=76 velocity=0 time=0\n",
      "395313 note_on channel=0 note=78 velocity=76 time=15\n",
      "395329 note_on channel=0 note=62 velocity=33 time=16\n",
      "395330 note_off channel=0 note=66 velocity=0 time=1\n",
      "395359 note_off channel=0 note=62 velocity=0 time=29\n",
      "395375 note_off channel=0 note=78 velocity=0 time=16\n",
      "395390 note_on channel=0 note=73 velocity=83 time=15\n",
      "395435 note_off channel=0 note=73 velocity=0 time=45\n",
      "395443 note_on channel=0 note=66 velocity=52 time=8\n",
      "395451 note_on channel=0 note=62 velocity=40 time=8\n",
      "395465 note_on channel=0 note=74 velocity=84 time=14\n",
      "395496 note_off channel=0 note=62 velocity=0 time=31\n",
      "395496 note_off channel=0 note=66 velocity=0 time=0\n",
      "395527 note_off channel=0 note=74 velocity=0 time=31\n",
      "395529 note_on channel=0 note=78 velocity=80 time=2\n",
      "395539 note_off channel=0 note=78 velocity=0 time=10\n",
      "395600 note_on channel=0 note=79 velocity=78 time=61\n",
      "395607 note_on channel=0 note=64 velocity=50 time=7\n",
      "395613 note_on channel=0 note=67 velocity=55 time=6\n",
      "395614 note_off channel=0 note=67 velocity=0 time=1\n",
      "395653 note_off channel=0 note=64 velocity=0 time=39\n",
      "395665 note_on channel=0 note=75 velocity=83 time=12\n",
      "395680 note_off channel=0 note=79 velocity=0 time=15\n",
      "395693 note_on channel=0 note=64 velocity=46 time=13\n",
      "395723 note_on channel=0 note=67 velocity=74 time=30\n",
      "395723 note_off channel=0 note=75 velocity=0 time=0\n",
      "395724 note_off channel=0 note=67 velocity=0 time=1\n",
      "395750 note_on channel=0 note=76 velocity=75 time=26\n",
      "395751 note_off channel=0 note=64 velocity=0 time=1\n",
      "395767 note_off channel=0 note=76 velocity=0 time=16\n",
      "395913 note_on channel=0 note=81 velocity=70 time=146\n",
      "395928 note_on channel=0 note=66 velocity=50 time=15\n",
      "395936 note_on channel=0 note=69 velocity=52 time=8\n",
      "396080 note_off channel=0 note=81 velocity=0 time=144\n",
      "396279 note_off channel=0 note=69 velocity=0 time=199\n",
      "396280 note_off channel=0 note=66 velocity=0 time=1\n",
      "396385 note_on channel=0 note=86 velocity=59 time=105\n",
      "396431 note_off channel=0 note=86 velocity=0 time=46\n",
      "396461 note_on channel=0 note=85 velocity=76 time=30\n",
      "396492 note_off channel=0 note=85 velocity=0 time=31\n",
      "396521 note_on channel=0 note=85 velocity=77 time=29\n",
      "396563 note_off channel=0 note=85 velocity=0 time=42\n",
      "396590 note_on channel=0 note=83 velocity=75 time=27\n",
      "396636 note_off channel=0 note=83 velocity=0 time=46\n",
      "396661 note_on channel=0 note=83 velocity=75 time=25\n",
      "396718 note_off channel=0 note=83 velocity=0 time=57\n",
      "396748 note_on channel=0 note=81 velocity=71 time=30\n",
      "396787 note_off channel=0 note=81 velocity=0 time=39\n",
      "396815 note_on channel=0 note=81 velocity=73 time=28\n",
      "396875 note_off channel=0 note=81 velocity=0 time=60\n",
      "396901 note_on channel=0 note=79 velocity=72 time=26\n",
      "396940 note_off channel=0 note=79 velocity=0 time=39\n",
      "396969 note_on channel=0 note=79 velocity=57 time=29\n",
      "397033 note_off channel=0 note=79 velocity=0 time=64\n",
      "397055 note_on channel=0 note=78 velocity=61 time=22\n",
      "397105 note_off channel=0 note=78 velocity=0 time=50\n",
      "397193 note_on channel=0 note=83 velocity=45 time=88\n",
      "397229 note_on channel=0 note=67 velocity=37 time=36\n",
      "397244 note_on channel=0 note=73 velocity=40 time=15\n",
      "397434 note_off channel=0 note=73 velocity=0 time=190\n",
      "397450 note_off channel=0 note=67 velocity=0 time=16\n",
      "397586 note_off channel=0 note=83 velocity=0 time=136\n",
      "397647 note_on channel=0 note=83 velocity=17 time=61\n",
      "397692 note_off channel=0 note=83 velocity=0 time=45\n",
      "397738 note_on channel=0 note=81 velocity=66 time=46\n",
      "397753 note_on channel=0 note=66 velocity=46 time=15\n",
      "397754 note_on channel=0 note=74 velocity=51 time=1\n",
      "397784 note_off channel=0 note=74 velocity=0 time=30\n",
      "397799 note_off channel=0 note=66 velocity=0 time=15\n",
      "397921 note_on channel=0 note=64 velocity=39 time=122\n",
      "397925 note_on channel=0 note=80 velocity=65 time=4\n",
      "397928 note_on channel=0 note=74 velocity=44 time=3\n",
      "397937 note_off channel=0 note=81 velocity=0 time=9\n",
      "397952 note_off channel=0 note=80 velocity=0 time=15\n",
      "397953 note_off channel=0 note=64 velocity=0 time=1\n",
      "397957 note_off channel=0 note=74 velocity=0 time=4\n",
      "398096 note_on channel=0 note=70 velocity=53 time=139\n",
      "398110 note_on channel=0 note=79 velocity=62 time=14\n",
      "398111 note_on channel=0 note=73 velocity=49 time=1\n",
      "398114 note_off channel=0 note=73 velocity=0 time=3\n",
      "398208 note_off channel=0 note=70 velocity=0 time=94\n",
      "398239 note_on channel=0 note=78 velocity=67 time=31\n",
      "398279 note_on channel=0 note=71 velocity=48 time=40\n",
      "398283 note_on channel=0 note=74 velocity=58 time=4\n",
      "398283 note_off channel=0 note=79 velocity=0 time=0\n",
      "398285 note_off channel=0 note=74 velocity=0 time=2\n",
      "398334 note_off channel=0 note=71 velocity=0 time=49\n",
      "398391 note_off channel=0 note=78 velocity=0 time=57\n",
      "398408 note_on channel=0 note=77 velocity=59 time=17\n",
      "398429 note_on channel=0 note=68 velocity=52 time=21\n",
      "398438 note_off channel=0 note=68 velocity=0 time=9\n",
      "398614 note_off channel=0 note=77 velocity=0 time=176\n",
      "398661 note_on channel=0 note=76 velocity=40 time=47\n",
      "398667 note_on channel=0 note=69 velocity=32 time=6\n",
      "398669 note_on channel=0 note=73 velocity=40 time=2\n",
      "398826 note_off channel=0 note=76 velocity=0 time=157\n",
      "398827 note_off channel=0 note=69 velocity=0 time=1\n",
      "398849 note_off channel=0 note=73 velocity=0 time=22\n",
      "398852 note_on channel=0 note=78 velocity=60 time=3\n",
      "399031 note_off channel=0 note=78 velocity=0 time=179\n",
      "399059 note_on channel=0 note=79 velocity=58 time=28\n",
      "399077 note_off channel=0 note=79 velocity=0 time=18\n",
      "399215 note_on channel=0 note=80 velocity=59 time=138\n",
      "399412 note_off channel=0 note=80 velocity=0 time=197\n",
      "399427 note_on channel=0 note=81 velocity=70 time=15\n",
      "399437 note_on channel=0 note=62 velocity=47 time=10\n",
      "399442 note_on channel=0 note=66 velocity=38 time=5\n",
      "399453 note_off channel=0 note=81 velocity=0 time=11\n",
      "399464 note_off channel=0 note=62 velocity=0 time=11\n",
      "399471 note_off channel=0 note=66 velocity=0 time=7\n",
      "399483 note_on channel=0 note=81 velocity=53 time=12\n",
      "399633 note_on channel=0 note=66 velocity=49 time=150\n",
      "399645 note_off channel=0 note=66 velocity=0 time=12\n",
      "399810 note_on channel=0 note=67 velocity=51 time=165\n",
      "399819 note_on channel=0 note=83 velocity=60 time=9\n",
      "399822 note_off channel=0 note=81 velocity=0 time=3\n",
      "399840 note_off channel=0 note=83 velocity=0 time=18\n",
      "399964 note_off channel=0 note=67 velocity=0 time=124\n",
      "399968 note_on channel=0 note=64 velocity=52 time=4\n",
      "399979 note_on channel=0 note=79 velocity=56 time=11\n",
      "399994 note_off channel=0 note=64 velocity=0 time=15\n",
      "400031 note_on channel=0 note=78 velocity=80 time=37\n",
      "400157 note_off channel=0 note=79 velocity=0 time=126\n",
      "400162 note_on channel=0 note=69 velocity=57 time=5\n",
      "400163 note_on channel=0 note=62 velocity=45 time=1\n",
      "400165 note_off channel=0 note=78 velocity=0 time=2\n",
      "400181 note_off channel=0 note=62 velocity=0 time=16\n",
      "400193 note_off channel=0 note=69 velocity=0 time=12\n",
      "400193 note_on channel=0 note=78 velocity=48 time=0\n",
      "400333 note_on channel=0 note=69 velocity=53 time=140\n",
      "400355 note_off channel=0 note=78 velocity=0 time=22\n",
      "400480 note_off channel=0 note=69 velocity=0 time=125\n",
      "400483 note_on channel=0 note=79 velocity=56 time=3\n",
      "400517 note_on channel=0 note=71 velocity=45 time=34\n",
      "400522 note_off channel=0 note=71 velocity=0 time=5\n",
      "400604 note_on channel=0 note=67 velocity=56 time=82\n",
      "400666 note_on channel=0 note=76 velocity=60 time=62\n",
      "400676 note_off channel=0 note=67 velocity=0 time=10\n",
      "400692 note_off channel=0 note=79 velocity=0 time=16\n",
      "400829 note_off channel=0 note=76 velocity=0 time=137\n",
      "400841 note_on channel=0 note=74 velocity=66 time=12\n",
      "400849 note_on channel=0 note=62 velocity=49 time=8\n",
      "400851 note_on channel=0 note=66 velocity=53 time=2\n",
      "400856 note_off channel=0 note=74 velocity=0 time=5\n",
      "400876 note_off channel=0 note=66 velocity=0 time=20\n",
      "400880 note_off channel=0 note=62 velocity=0 time=4\n",
      "400881 note_on channel=0 note=74 velocity=68 time=1\n",
      "401019 note_on channel=0 note=62 velocity=52 time=138\n",
      "401021 note_on channel=0 note=66 velocity=36 time=2\n",
      "401033 note_off channel=0 note=74 velocity=0 time=12\n",
      "401044 note_off channel=0 note=62 velocity=0 time=11\n",
      "401052 note_off channel=0 note=66 velocity=0 time=8\n",
      "401064 note_on channel=0 note=76 velocity=77 time=12\n",
      "401184 note_on channel=0 note=61 velocity=54 time=120\n",
      "401195 note_off channel=0 note=76 velocity=0 time=11\n",
      "401209 note_on channel=0 note=57 velocity=43 time=14\n",
      "401211 note_off channel=0 note=61 velocity=0 time=2\n",
      "401222 note_off channel=0 note=57 velocity=0 time=11\n",
      "401241 note_on channel=0 note=76 velocity=65 time=19\n",
      "401347 note_on channel=0 note=61 velocity=49 time=106\n",
      "401349 note_on channel=0 note=57 velocity=51 time=2\n",
      "401360 note_off channel=0 note=76 velocity=0 time=11\n",
      "401372 note_off channel=0 note=61 velocity=0 time=12\n",
      "401379 note_off channel=0 note=57 velocity=0 time=7\n",
      "401386 note_on channel=0 note=77 velocity=72 time=7\n",
      "401528 note_on channel=0 note=66 velocity=54 time=142\n",
      "401540 note_on channel=0 note=62 velocity=45 time=12\n",
      "401541 note_off channel=0 note=77 velocity=0 time=1\n",
      "401666 note_on channel=0 note=78 velocity=61 time=125\n",
      "401697 note_off channel=0 note=78 velocity=0 time=31\n",
      "401723 note_off channel=0 note=66 velocity=0 time=26\n",
      "401739 note_off channel=0 note=62 velocity=0 time=16\n",
      "401743 note_on channel=0 note=74 velocity=63 time=4\n",
      "401868 note_off channel=0 note=74 velocity=0 time=125\n",
      "401895 note_on channel=0 note=69 velocity=59 time=27\n",
      "402031 note_off channel=0 note=69 velocity=0 time=136\n",
      "402052 note_on channel=0 note=81 velocity=90 time=21\n",
      "402189 note_on channel=0 note=50 velocity=65 time=137\n",
      "402193 note_off channel=0 note=81 velocity=0 time=4\n",
      "402207 note_off channel=0 note=50 velocity=0 time=14\n",
      "402284 note_on channel=0 note=62 velocity=57 time=77\n",
      "402315 note_off channel=0 note=62 velocity=0 time=31\n",
      "402345 note_on channel=0 note=86 velocity=96 time=30\n",
      "402368 note_on channel=0 note=54 velocity=69 time=23\n",
      "402390 note_off channel=0 note=54 velocity=0 time=22\n",
      "402421 note_on channel=0 note=62 velocity=63 time=31\n",
      "402439 note_off channel=0 note=62 velocity=0 time=18\n",
      "402527 note_on channel=0 note=57 velocity=62 time=88\n",
      "402542 note_off channel=0 note=57 velocity=0 time=15\n",
      "402572 note_on channel=0 note=62 velocity=64 time=30\n",
      "402633 note_off channel=0 note=62 velocity=0 time=61\n",
      "402664 note_off channel=0 note=86 velocity=0 time=31\n",
      "402675 note_on channel=0 note=61 velocity=65 time=11\n",
      "402685 note_on channel=0 note=78 velocity=94 time=10\n",
      "402703 note_off channel=0 note=61 velocity=0 time=18\n",
      "402718 note_off channel=0 note=78 velocity=0 time=15\n",
      "402734 note_on channel=0 note=62 velocity=66 time=16\n",
      "402759 note_off channel=0 note=62 velocity=0 time=25\n",
      "402801 note_on channel=0 note=78 velocity=95 time=42\n",
      "402851 note_on channel=0 note=50 velocity=73 time=50\n",
      "402860 note_off channel=0 note=78 velocity=0 time=9\n",
      "402885 note_off channel=0 note=50 velocity=0 time=25\n",
      "402915 note_on channel=0 note=62 velocity=68 time=30\n",
      "402936 note_off channel=0 note=62 velocity=0 time=21\n",
      "402977 note_on channel=0 note=54 velocity=74 time=41\n",
      "403014 note_on channel=0 note=81 velocity=94 time=37\n",
      "403036 note_off channel=0 note=54 velocity=0 time=22\n",
      "403082 note_on channel=0 note=62 velocity=71 time=46\n",
      "403098 note_off channel=0 note=62 velocity=0 time=16\n",
      "403127 note_on channel=0 note=57 velocity=72 time=29\n",
      "403188 note_off channel=0 note=57 velocity=0 time=61\n",
      "403219 note_on channel=0 note=62 velocity=73 time=31\n",
      "403233 note_off channel=0 note=62 velocity=0 time=14\n",
      "403272 note_off channel=0 note=81 velocity=0 time=39\n",
      "403297 note_on channel=0 note=61 velocity=64 time=25\n",
      "403324 note_on channel=0 note=74 velocity=84 time=27\n",
      "403327 note_off channel=0 note=61 velocity=0 time=3\n",
      "403370 note_on channel=0 note=62 velocity=74 time=43\n",
      "403386 note_off channel=0 note=62 velocity=0 time=16\n",
      "403431 note_off channel=0 note=74 velocity=0 time=45\n",
      "403469 note_on channel=0 note=57 velocity=70 time=38\n",
      "403480 note_on channel=0 note=78 velocity=89 time=11\n",
      "403501 note_off channel=0 note=78 velocity=0 time=21\n",
      "403516 note_off channel=0 note=57 velocity=0 time=15\n",
      "403546 note_on channel=0 note=66 velocity=73 time=30\n",
      "403592 note_off channel=0 note=66 velocity=0 time=46\n",
      "403637 note_on channel=0 note=78 velocity=91 time=45\n",
      "403639 note_on channel=0 note=62 velocity=75 time=2\n",
      "403652 note_off channel=0 note=78 velocity=0 time=13\n",
      "403671 note_off channel=0 note=62 velocity=0 time=19\n",
      "403676 note_on channel=0 note=66 velocity=24 time=5\n",
      "403749 note_on channel=0 note=78 velocity=83 time=73\n",
      "403758 note_on channel=0 note=57 velocity=70 time=9\n",
      "403774 note_off channel=0 note=66 velocity=0 time=16\n",
      "403781 note_on channel=0 note=76 velocity=79 time=7\n",
      "403790 note_off channel=0 note=78 velocity=0 time=9\n",
      "403797 note_off channel=0 note=57 velocity=0 time=7\n",
      "403810 note_off channel=0 note=76 velocity=0 time=13\n",
      "403844 note_on channel=0 note=74 velocity=83 time=34\n",
      "403849 note_on channel=0 note=67 velocity=80 time=5\n",
      "403850 note_off channel=0 note=67 velocity=0 time=1\n",
      "403883 note_off channel=0 note=74 velocity=0 time=33\n",
      "403887 note_on channel=0 note=76 velocity=74 time=4\n",
      "403906 note_on channel=0 note=62 velocity=40 time=19\n",
      "403944 note_on channel=0 note=78 velocity=80 time=38\n",
      "403958 note_off channel=0 note=76 velocity=0 time=14\n",
      "403962 note_off channel=0 note=62 velocity=0 time=4\n",
      "403976 note_on channel=0 note=67 velocity=77 time=14\n",
      "403986 note_off channel=0 note=67 velocity=0 time=10\n",
      "404009 note_off channel=0 note=78 velocity=0 time=23\n",
      "404095 note_on channel=0 note=74 velocity=82 time=86\n",
      "404116 note_on channel=0 note=62 velocity=55 time=21\n",
      "404117 note_on channel=0 note=66 velocity=36 time=1\n",
      "404140 note_off channel=0 note=62 velocity=0 time=23\n",
      "404153 note_off channel=0 note=66 velocity=0 time=13\n",
      "404171 note_on channel=0 note=57 velocity=59 time=18\n",
      "404350 note_off channel=0 note=57 velocity=0 time=179\n",
      "404648 note_on channel=0 note=50 velocity=45 time=298\n",
      "404664 note_off channel=0 note=74 velocity=0 time=16\n",
      "404679 note_off channel=0 note=50 velocity=0 time=15\n",
      "405144 note_on channel=0 note=72 velocity=57 time=465\n",
      "405357 note_on channel=0 note=62 velocity=42 time=213\n",
      "405371 note_on channel=0 note=54 velocity=41 time=14\n",
      "405376 note_off channel=0 note=72 velocity=0 time=5\n",
      "405382 note_off channel=0 note=62 velocity=0 time=6\n",
      "405401 note_off channel=0 note=54 velocity=0 time=19\n",
      "405407 note_on channel=0 note=72 velocity=60 time=6\n",
      "405574 note_on channel=0 note=62 velocity=47 time=167\n",
      "405592 note_on channel=0 note=54 velocity=53 time=18\n",
      "405593 note_off channel=0 note=72 velocity=0 time=1\n",
      "405595 note_off channel=0 note=62 velocity=0 time=2\n",
      "405620 note_off channel=0 note=54 velocity=0 time=25\n",
      "405621 note_on channel=0 note=72 velocity=55 time=1\n",
      "405694 note_off channel=0 note=72 velocity=0 time=73\n",
      "405734 note_on channel=0 note=74 velocity=68 time=40\n",
      "405758 note_on channel=0 note=54 velocity=55 time=24\n",
      "405774 note_on channel=0 note=62 velocity=32 time=16\n",
      "405782 note_off channel=0 note=74 velocity=0 time=8\n",
      "405785 note_off channel=0 note=54 velocity=0 time=3\n",
      "405802 note_on channel=0 note=72 velocity=69 time=17\n",
      "405806 note_off channel=0 note=62 velocity=0 time=4\n",
      "405816 note_off channel=0 note=72 velocity=0 time=10\n",
      "405841 note_on channel=0 note=71 velocity=70 time=25\n",
      "405864 note_off channel=0 note=71 velocity=0 time=23\n",
      "405889 note_on channel=0 note=54 velocity=52 time=25\n",
      "405909 note_on channel=0 note=62 velocity=57 time=20\n",
      "405909 note_on channel=0 note=72 velocity=64 time=0\n",
      "405922 note_off channel=0 note=54 velocity=0 time=13\n",
      "405945 note_off channel=0 note=62 velocity=0 time=23\n",
      "405946 note_off channel=0 note=72 velocity=0 time=1\n",
      "405957 note_on channel=0 note=74 velocity=63 time=11\n",
      "405976 note_off channel=0 note=74 velocity=0 time=19\n",
      "406005 note_on channel=0 note=71 velocity=56 time=29\n",
      "406076 note_on channel=0 note=62 velocity=34 time=71\n",
      "406091 note_on channel=0 note=55 velocity=48 time=15\n",
      "406262 note_off channel=0 note=71 velocity=0 time=171\n",
      "406291 note_off channel=0 note=55 velocity=0 time=29\n",
      "406313 note_off channel=0 note=62 velocity=0 time=22\n",
      "406740 note_on channel=0 note=69 velocity=68 time=427\n",
      "406805 note_on channel=0 note=62 velocity=51 time=65\n",
      "406811 note_on channel=0 note=57 velocity=50 time=6\n",
      "406816 note_off channel=0 note=69 velocity=0 time=5\n",
      "406831 note_off channel=0 note=62 velocity=0 time=15\n",
      "406834 note_off channel=0 note=57 velocity=0 time=3\n",
      "406844 note_on channel=0 note=69 velocity=69 time=10\n",
      "406994 note_on channel=0 note=62 velocity=54 time=150\n",
      "407003 note_on channel=0 note=57 velocity=52 time=9\n",
      "407004 note_off channel=0 note=69 velocity=0 time=1\n",
      "407020 note_off channel=0 note=62 velocity=0 time=16\n",
      "407025 note_off channel=0 note=57 velocity=0 time=5\n",
      "407029 note_on channel=0 note=69 velocity=63 time=4\n",
      "407106 note_off channel=0 note=69 velocity=0 time=77\n",
      "407148 note_on channel=0 note=71 velocity=64 time=42\n",
      "407160 note_on channel=0 note=57 velocity=58 time=12\n",
      "407183 note_on channel=0 note=62 velocity=57 time=23\n",
      "407183 note_off channel=0 note=71 velocity=0 time=0\n",
      "407191 note_on channel=0 note=69 velocity=48 time=8\n",
      "407205 note_off channel=0 note=62 velocity=0 time=14\n",
      "407212 note_off channel=0 note=57 velocity=0 time=7\n",
      "407213 note_off channel=0 note=69 velocity=0 time=1\n",
      "407238 note_on channel=0 note=68 velocity=88 time=25\n",
      "407240 note_off channel=0 note=68 velocity=0 time=2\n",
      "407288 note_on channel=0 note=69 velocity=64 time=48\n",
      "407321 note_on channel=0 note=62 velocity=56 time=33\n",
      "407344 note_on channel=0 note=57 velocity=56 time=23\n",
      "407350 note_on channel=0 note=71 velocity=70 time=6\n",
      "407372 note_off channel=0 note=69 velocity=0 time=22\n",
      "407375 note_off channel=0 note=62 velocity=0 time=3\n",
      "407379 note_off channel=0 note=57 velocity=0 time=4\n",
      "407385 note_off channel=0 note=71 velocity=0 time=6\n",
      "407515 note_on channel=0 note=68 velocity=67 time=130\n",
      "407617 note_on channel=0 note=62 velocity=31 time=102\n",
      "407641 note_on channel=0 note=59 velocity=34 time=24\n",
      "407874 note_off channel=0 note=62 velocity=0 time=233\n",
      "407874 note_off channel=0 note=68 velocity=0 time=0\n",
      "407881 note_off channel=0 note=59 velocity=0 time=7\n",
      "408185 note_on channel=0 note=79 velocity=88 time=304\n",
      "408336 note_on channel=0 note=67 velocity=63 time=151\n",
      "408344 note_on channel=0 note=58 velocity=64 time=8\n",
      "408346 note_on channel=0 note=62 velocity=59 time=2\n",
      "408348 note_off channel=0 note=79 velocity=0 time=2\n",
      "408354 note_off channel=0 note=58 velocity=0 time=6\n",
      "408372 note_off channel=0 note=67 velocity=0 time=18\n",
      "408374 note_off channel=0 note=62 velocity=0 time=2\n",
      "408375 note_on channel=0 note=79 velocity=84 time=1\n",
      "408528 note_on channel=0 note=67 velocity=69 time=153\n",
      "408544 note_on channel=0 note=62 velocity=60 time=16\n",
      "408545 note_on channel=0 note=58 velocity=58 time=1\n",
      "408546 note_off channel=0 note=79 velocity=0 time=1\n",
      "408557 note_off channel=0 note=67 velocity=0 time=11\n",
      "408572 note_off channel=0 note=58 velocity=0 time=15\n",
      "408573 note_off channel=0 note=62 velocity=0 time=1\n",
      "408576 note_on channel=0 note=79 velocity=77 time=3\n",
      "408657 note_off channel=0 note=79 velocity=0 time=81\n",
      "408685 note_on channel=0 note=81 velocity=78 time=28\n",
      "408698 note_on channel=0 note=62 velocity=59 time=13\n",
      "408708 note_on channel=0 note=67 velocity=68 time=10\n",
      "408709 note_on channel=0 note=58 velocity=65 time=1\n",
      "408710 note_off channel=0 note=58 velocity=0 time=1\n",
      "408742 note_off channel=0 note=81 velocity=0 time=32\n",
      "408746 note_on channel=0 note=79 velocity=80 time=4\n",
      "408749 note_off channel=0 note=62 velocity=0 time=3\n",
      "408752 note_off channel=0 note=67 velocity=0 time=3\n",
      "408793 note_off channel=0 note=79 velocity=0 time=41\n",
      "408809 note_on channel=0 note=78 velocity=93 time=16\n",
      "408863 note_off channel=0 note=78 velocity=0 time=54\n",
      "408877 note_on channel=0 note=79 velocity=82 time=14\n",
      "408888 note_on channel=0 note=67 velocity=69 time=11\n",
      "408893 note_on channel=0 note=58 velocity=69 time=5\n",
      "408897 note_on channel=0 note=62 velocity=57 time=4\n",
      "408923 note_off channel=0 note=58 velocity=0 time=26\n",
      "408928 note_off channel=0 note=62 velocity=0 time=5\n",
      "408928 note_off channel=0 note=67 velocity=0 time=0\n",
      "408935 note_off channel=0 note=79 velocity=0 time=7\n",
      "408942 note_on channel=0 note=81 velocity=80 time=7\n",
      "408943 note_on channel=0 note=79 velocity=84 time=1\n",
      "409026 note_off channel=0 note=81 velocity=0 time=83\n",
      "409029 note_on channel=0 note=61 velocity=72 time=3\n",
      "409055 note_on channel=0 note=67 velocity=80 time=26\n",
      "409056 note_on channel=0 note=57 velocity=72 time=1\n",
      "409063 note_off channel=0 note=79 velocity=0 time=7\n",
      "409080 note_on channel=0 note=76 velocity=78 time=17\n",
      "409104 note_off channel=0 note=76 velocity=0 time=24\n",
      "409152 note_on channel=0 note=79 velocity=86 time=48\n",
      "409182 note_on channel=0 note=85 velocity=85 time=30\n",
      "409255 note_off channel=0 note=79 velocity=0 time=73\n",
      "409263 note_off channel=0 note=67 velocity=0 time=8\n",
      "409281 note_off channel=0 note=61 velocity=0 time=18\n",
      "409319 note_off channel=0 note=57 velocity=0 time=38\n",
      "409322 note_on channel=0 note=88 velocity=89 time=3\n",
      "409346 note_off channel=0 note=85 velocity=0 time=24\n",
      "409348 note_off channel=0 note=88 velocity=0 time=2\n",
      "409395 note_on channel=0 note=79 velocity=83 time=47\n",
      "409422 note_off channel=0 note=79 velocity=0 time=27\n",
      "409482 note_on channel=0 note=86 velocity=93 time=60\n",
      "409497 note_on channel=0 note=46 velocity=63 time=15\n",
      "409504 note_on channel=0 note=58 velocity=48 time=7\n",
      "409509 note_off channel=0 note=46 velocity=0 time=5\n",
      "409533 note_off channel=0 note=58 velocity=0 time=24\n",
      "409538 note_on channel=0 note=79 velocity=78 time=5\n",
      "409579 note_off channel=0 note=86 velocity=0 time=41\n",
      "409617 note_off channel=0 note=79 velocity=0 time=38\n",
      "409629 note_on channel=0 note=85 velocity=79 time=12\n",
      "409656 note_on channel=0 note=57 velocity=77 time=27\n",
      "409665 note_on channel=0 note=45 velocity=75 time=9\n",
      "409673 note_on channel=0 note=78 velocity=82 time=8\n",
      "409721 note_off channel=0 note=78 velocity=0 time=48\n",
      "409745 note_on channel=0 note=79 velocity=72 time=24\n",
      "409747 note_off channel=0 note=85 velocity=0 time=2\n",
      "409755 note_off channel=0 note=79 velocity=0 time=8\n",
      "409785 note_on channel=0 note=76 velocity=75 time=30\n",
      "409808 note_off channel=0 note=76 velocity=0 time=23\n",
      "409845 note_on channel=0 note=79 velocity=81 time=37\n",
      "409883 note_off channel=0 note=57 velocity=0 time=38\n",
      "409935 note_off channel=0 note=79 velocity=0 time=52\n",
      "409937 note_off channel=0 note=45 velocity=0 time=2\n",
      "409951 note_on channel=0 note=88 velocity=84 time=14\n",
      "409965 note_off channel=0 note=88 velocity=0 time=14\n",
      "410009 note_on channel=0 note=79 velocity=85 time=44\n",
      "410034 note_off channel=0 note=79 velocity=0 time=25\n",
      "410092 note_on channel=0 note=46 velocity=64 time=58\n",
      "410107 note_on channel=0 note=86 velocity=88 time=15\n",
      "410109 note_on channel=0 note=58 velocity=56 time=2\n",
      "410113 note_off channel=0 note=58 velocity=0 time=4\n",
      "410141 note_off channel=0 note=46 velocity=0 time=28\n",
      "410146 note_on channel=0 note=79 velocity=79 time=5\n",
      "410184 note_off channel=0 note=86 velocity=0 time=38\n",
      "410217 note_off channel=0 note=79 velocity=0 time=33\n",
      "410236 note_on channel=0 note=57 velocity=78 time=19\n",
      "410267 note_on channel=0 note=85 velocity=79 time=31\n",
      "410268 note_on channel=0 note=45 velocity=72 time=1\n",
      "410272 note_on channel=0 note=79 velocity=79 time=4\n",
      "410339 note_off channel=0 note=85 velocity=0 time=67\n",
      "410377 note_off channel=0 note=79 velocity=0 time=38\n",
      "410401 note_on channel=0 note=76 velocity=72 time=24\n",
      "410418 note_off channel=0 note=76 velocity=0 time=17\n",
      "410463 note_on channel=0 note=79 velocity=78 time=45\n",
      "410496 note_off channel=0 note=57 velocity=0 time=33\n",
      "410509 note_off channel=0 note=45 velocity=0 time=13\n",
      "410513 note_off channel=0 note=79 velocity=0 time=4\n",
      "410545 note_on channel=0 note=88 velocity=82 time=32\n",
      "410575 note_off channel=0 note=88 velocity=0 time=30\n",
      "410610 note_on channel=0 note=79 velocity=71 time=35\n",
      "410653 note_off channel=0 note=79 velocity=0 time=43\n",
      "410698 note_on channel=0 note=58 velocity=45 time=45\n",
      "410704 note_on channel=0 note=46 velocity=25 time=6\n",
      "410710 note_on channel=0 note=86 velocity=84 time=6\n",
      "410717 note_off channel=0 note=58 velocity=0 time=7\n",
      "410735 note_off channel=0 note=46 velocity=0 time=18\n",
      "410756 note_off channel=0 note=86 velocity=0 time=21\n",
      "410799 note_on channel=0 note=79 velocity=70 time=43\n",
      "410802 note_off channel=0 note=79 velocity=0 time=3\n",
      "410845 note_on channel=0 note=45 velocity=62 time=43\n",
      "410852 note_on channel=0 note=57 velocity=61 time=7\n",
      "410855 note_on channel=0 note=85 velocity=78 time=3\n",
      "410874 note_off channel=0 note=57 velocity=0 time=19\n",
      "410879 note_off channel=0 note=45 velocity=0 time=5\n",
      "410883 note_off channel=0 note=85 velocity=0 time=4\n",
      "410930 note_on channel=0 note=79 velocity=76 time=47\n",
      "410949 note_off channel=0 note=79 velocity=0 time=19\n",
      "410992 note_on channel=0 note=46 velocity=59 time=43\n",
      "411019 note_on channel=0 note=86 velocity=82 time=27\n",
      "411047 note_off channel=0 note=46 velocity=0 time=28\n",
      "411052 note_on channel=0 note=79 velocity=77 time=5\n",
      "411096 note_off channel=0 note=86 velocity=0 time=44\n",
      "411112 note_off channel=0 note=79 velocity=0 time=16\n",
      "411154 note_on channel=0 note=45 velocity=62 time=42\n",
      "411172 note_on channel=0 note=57 velocity=59 time=18\n",
      "411175 note_on channel=0 note=85 velocity=82 time=3\n",
      "411187 note_off channel=0 note=45 velocity=0 time=12\n",
      "411202 note_off channel=0 note=57 velocity=0 time=15\n",
      "411204 note_off channel=0 note=85 velocity=0 time=2\n",
      "411242 note_on channel=0 note=79 velocity=80 time=38\n",
      "411255 note_off channel=0 note=79 velocity=0 time=13\n",
      "411299 note_on channel=0 note=46 velocity=75 time=44\n",
      "411319 note_on channel=0 note=86 velocity=86 time=20\n",
      "411320 note_on channel=0 note=58 velocity=72 time=1\n",
      "411321 note_off channel=0 note=46 velocity=0 time=1\n",
      "411348 note_off channel=0 note=58 velocity=0 time=27\n",
      "411349 note_on channel=0 note=79 velocity=83 time=1\n",
      "411391 note_off channel=0 note=79 velocity=0 time=42\n",
      "411442 note_off channel=0 note=86 velocity=0 time=51\n",
      "411458 note_on channel=0 note=85 velocity=74 time=16\n",
      "411477 note_on channel=0 note=57 velocity=86 time=19\n",
      "411478 note_on channel=0 note=81 velocity=78 time=1\n",
      "411546 note_off channel=0 note=85 velocity=0 time=68\n",
      "411548 note_off channel=0 note=81 velocity=0 time=2\n",
      "411595 note_on channel=0 note=88 velocity=89 time=47\n",
      "411628 note_off channel=0 note=88 velocity=0 time=33\n",
      "411679 note_on channel=0 note=79 velocity=77 time=51\n",
      "411713 note_off channel=0 note=79 velocity=0 time=34\n",
      "411764 note_on channel=0 note=78 velocity=88 time=51\n",
      "411789 note_off channel=0 note=78 velocity=0 time=25\n",
      "411834 note_on channel=0 note=81 velocity=74 time=45\n",
      "411876 note_off channel=0 note=81 velocity=0 time=42\n",
      "411909 note_on channel=0 note=88 velocity=77 time=33\n",
      "411932 note_on channel=0 note=86 velocity=79 time=23\n",
      "412016 note_off channel=0 note=88 velocity=0 time=84\n",
      "412033 note_off channel=0 note=86 velocity=0 time=17\n",
      "412066 note_on channel=0 note=76 velocity=78 time=33\n",
      "412085 note_off channel=0 note=76 velocity=0 time=19\n",
      "412155 note_on channel=0 note=79 velocity=74 time=70\n",
      "412163 note_off channel=0 note=79 velocity=0 time=8\n",
      "412208 note_on channel=0 note=86 velocity=68 time=45\n",
      "412226 note_off channel=0 note=86 velocity=0 time=18\n",
      "412301 note_on channel=0 note=85 velocity=78 time=75\n",
      "412307 note_off channel=0 note=85 velocity=0 time=6\n",
      "412362 note_on channel=0 note=74 velocity=79 time=55\n",
      "412377 note_on channel=0 note=78 velocity=79 time=15\n",
      "412460 note_off channel=0 note=74 velocity=0 time=83\n",
      "412462 note_off channel=0 note=78 velocity=0 time=2\n",
      "412493 note_on channel=0 note=85 velocity=43 time=31\n",
      "412525 note_off channel=0 note=85 velocity=0 time=32\n",
      "412583 note_on channel=0 note=84 velocity=29 time=58\n",
      "412601 note_on channel=0 note=83 velocity=42 time=18\n",
      "412615 note_off channel=0 note=84 velocity=0 time=14\n",
      "412638 note_off channel=0 note=83 velocity=0 time=23\n",
      "412644 note_on channel=0 note=73 velocity=72 time=6\n",
      "412673 note_on channel=0 note=45 velocity=63 time=29\n",
      "412677 note_off channel=0 note=73 velocity=0 time=4\n",
      "412706 note_on channel=0 note=76 velocity=65 time=29\n",
      "412741 note_off channel=0 note=76 velocity=0 time=35\n",
      "412801 note_on channel=0 note=83 velocity=68 time=60\n",
      "412810 note_on channel=0 note=81 velocity=74 time=9\n",
      "412887 note_off channel=0 note=83 velocity=0 time=77\n",
      "412896 note_off channel=0 note=81 velocity=0 time=9\n",
      "412947 note_on channel=0 note=71 velocity=72 time=51\n",
      "412963 note_off channel=0 note=71 velocity=0 time=16\n",
      "413003 note_on channel=0 note=74 velocity=78 time=40\n",
      "413037 note_off channel=0 note=74 velocity=0 time=34\n",
      "413078 note_on channel=0 note=81 velocity=70 time=41\n",
      "413100 note_off channel=0 note=57 velocity=0 time=22\n",
      "413133 note_on channel=0 note=79 velocity=78 time=33\n",
      "413176 note_off channel=0 note=81 velocity=0 time=43\n",
      "413201 note_off channel=0 note=79 velocity=0 time=25\n",
      "413228 note_on channel=0 note=69 velocity=73 time=27\n",
      "413248 note_on channel=0 note=73 velocity=80 time=20\n",
      "413322 note_off channel=0 note=69 velocity=0 time=74\n",
      "413328 note_off channel=0 note=73 velocity=0 time=6\n",
      "413369 note_on channel=0 note=79 velocity=66 time=41\n",
      "413391 note_on channel=0 note=78 velocity=82 time=22\n",
      "413473 note_off channel=0 note=79 velocity=0 time=82\n",
      "413487 note_off channel=0 note=78 velocity=0 time=14\n",
      "413533 note_on channel=0 note=67 velocity=71 time=46\n",
      "413557 note_off channel=0 note=67 velocity=0 time=24\n",
      "413673 note_on channel=0 note=78 velocity=56 time=116\n",
      "413691 note_on channel=0 note=76 velocity=57 time=18\n",
      "413749 note_off channel=0 note=78 velocity=0 time=58\n",
      "413758 note_off channel=0 note=76 velocity=0 time=9\n",
      "413811 note_on channel=0 note=66 velocity=69 time=53\n",
      "413837 note_off channel=0 note=66 velocity=0 time=26\n",
      "413863 note_on channel=0 note=69 velocity=69 time=26\n",
      "413907 note_off channel=0 note=69 velocity=0 time=44\n",
      "413946 note_on channel=0 note=76 velocity=57 time=39\n",
      "413979 note_on channel=0 note=74 velocity=77 time=33\n",
      "414041 note_off channel=0 note=76 velocity=0 time=62\n",
      "414070 note_off channel=0 note=74 velocity=0 time=29\n",
      "414097 note_on channel=0 note=64 velocity=76 time=27\n",
      "414121 note_off channel=0 note=64 velocity=0 time=24\n",
      "414153 note_on channel=0 note=67 velocity=74 time=32\n",
      "414198 note_off channel=0 note=67 velocity=0 time=45\n",
      "414241 note_on channel=0 note=74 velocity=58 time=43\n",
      "414279 note_off channel=0 note=74 velocity=0 time=38\n",
      "414340 note_on channel=0 note=73 velocity=70 time=61\n",
      "414351 note_off channel=0 note=73 velocity=0 time=11\n",
      "414389 note_on channel=0 note=62 velocity=60 time=38\n",
      "414426 note_off channel=0 note=62 velocity=0 time=37\n",
      "414489 note_on channel=0 note=66 velocity=67 time=63\n",
      "414495 note_off channel=0 note=66 velocity=0 time=6\n",
      "414532 note_on channel=0 note=73 velocity=50 time=37\n",
      "414550 note_on channel=0 note=71 velocity=60 time=18\n",
      "414604 note_off channel=0 note=73 velocity=0 time=54\n",
      "414618 note_off channel=0 note=71 velocity=0 time=14\n",
      "414675 note_on channel=0 note=61 velocity=59 time=57\n",
      "414703 note_off channel=0 note=61 velocity=0 time=28\n",
      "414732 note_on channel=0 note=64 velocity=63 time=29\n",
      "414773 note_off channel=0 note=64 velocity=0 time=41\n",
      "414804 note_on channel=0 note=71 velocity=58 time=31\n",
      "414837 note_off channel=0 note=45 velocity=0 time=33\n",
      "414893 note_on channel=0 note=69 velocity=66 time=56\n",
      "414903 note_off channel=0 note=71 velocity=0 time=10\n",
      "414911 note_off channel=0 note=69 velocity=0 time=8\n",
      "414933 note_on channel=0 note=59 velocity=61 time=22\n",
      "414992 note_off channel=0 note=59 velocity=0 time=59\n",
      "415021 note_on channel=0 note=62 velocity=61 time=29\n",
      "415058 note_off channel=0 note=62 velocity=0 time=37\n",
      "415090 note_on channel=0 note=65 velocity=63 time=32\n",
      "415136 note_on channel=0 note=74 velocity=83 time=46\n",
      "415177 note_off channel=0 note=65 velocity=0 time=41\n",
      "415204 note_on channel=0 note=68 velocity=66 time=27\n",
      "415214 note_off channel=0 note=68 velocity=0 time=10\n",
      "415312 note_on channel=0 note=64 velocity=69 time=98\n",
      "415322 note_on channel=0 note=76 velocity=75 time=10\n",
      "415346 note_off channel=0 note=74 velocity=0 time=24\n",
      "415348 note_off channel=0 note=64 velocity=0 time=2\n",
      "415356 note_on channel=0 note=68 velocity=72 time=8\n",
      "415400 note_off channel=0 note=68 velocity=0 time=44\n",
      "415458 note_off channel=0 note=76 velocity=0 time=58\n",
      "415480 note_on channel=0 note=62 velocity=69 time=22\n",
      "415485 note_on channel=0 note=77 velocity=75 time=5\n",
      "415487 note_off channel=0 note=62 velocity=0 time=2\n",
      "415520 note_off channel=0 note=77 velocity=0 time=33\n",
      "415538 note_on channel=0 note=68 velocity=74 time=18\n",
      "415562 note_off channel=0 note=68 velocity=0 time=24\n",
      "415601 note_on channel=0 note=59 velocity=77 time=39\n",
      "415630 note_off channel=0 note=59 velocity=0 time=29\n",
      "415654 note_on channel=0 note=62 velocity=64 time=24\n",
      "415700 note_off channel=0 note=62 velocity=0 time=46\n",
      "415740 note_on channel=0 note=65 velocity=70 time=40\n",
      "415773 note_on channel=0 note=74 velocity=89 time=33\n",
      "415782 note_off channel=0 note=65 velocity=0 time=9\n",
      "415833 note_on channel=0 note=68 velocity=72 time=51\n",
      "415850 note_off channel=0 note=68 velocity=0 time=17\n",
      "415935 note_on channel=0 note=64 velocity=75 time=85\n",
      "415947 note_on channel=0 note=76 velocity=86 time=12\n",
      "415956 note_off channel=0 note=64 velocity=0 time=9\n",
      "415987 note_on channel=0 note=68 velocity=79 time=31\n",
      "415987 note_off channel=0 note=74 velocity=0 time=0\n",
      "416030 note_off channel=0 note=68 velocity=0 time=43\n",
      "416091 note_on channel=0 note=77 velocity=75 time=61\n",
      "416094 note_on channel=0 note=62 velocity=74 time=3\n",
      "416109 note_off channel=0 note=76 velocity=0 time=15\n",
      "416115 note_off channel=0 note=77 velocity=0 time=6\n",
      "416140 note_off channel=0 note=62 velocity=0 time=25\n",
      "416144 note_on channel=0 note=68 velocity=70 time=4\n",
      "416180 note_off channel=0 note=68 velocity=0 time=36\n",
      "416242 note_on channel=0 note=59 velocity=71 time=62\n",
      "416258 note_off channel=0 note=59 velocity=0 time=16\n",
      "416283 note_on channel=0 note=62 velocity=60 time=25\n",
      "416321 note_off channel=0 note=62 velocity=0 time=38\n",
      "416358 note_on channel=0 note=65 velocity=56 time=37\n",
      "416389 note_on channel=0 note=74 velocity=69 time=31\n",
      "416394 note_off channel=0 note=65 velocity=0 time=5\n",
      "416431 note_on channel=0 note=68 velocity=58 time=37\n",
      "416453 note_off channel=0 note=68 velocity=0 time=22\n",
      "416535 note_on channel=0 note=64 velocity=62 time=82\n",
      "416550 note_on channel=0 note=76 velocity=66 time=15\n",
      "416563 note_off channel=0 note=74 velocity=0 time=13\n",
      "416583 note_off channel=0 note=64 velocity=0 time=20\n",
      "416587 note_on channel=0 note=68 velocity=68 time=4\n",
      "416624 note_off channel=0 note=68 velocity=0 time=37\n",
      "416684 note_on channel=0 note=77 velocity=75 time=60\n",
      "416697 note_on channel=0 note=62 velocity=72 time=13\n",
      "416701 note_off channel=0 note=76 velocity=0 time=4\n",
      "416716 note_off channel=0 note=62 velocity=0 time=15\n",
      "416751 note_off channel=0 note=77 velocity=0 time=35\n",
      "416769 note_on channel=0 note=68 velocity=74 time=18\n",
      "416782 note_off channel=0 note=68 velocity=0 time=13\n",
      "416832 note_on channel=0 note=62 velocity=69 time=50\n",
      "416859 note_on channel=0 note=77 velocity=82 time=27\n",
      "416861 note_off channel=0 note=62 velocity=0 time=2\n",
      "416909 note_off channel=0 note=77 velocity=0 time=48\n",
      "416921 note_on channel=0 note=68 velocity=68 time=12\n",
      "416941 note_off channel=0 note=68 velocity=0 time=20\n",
      "416990 note_on channel=0 note=64 velocity=68 time=49\n",
      "417018 note_on channel=0 note=76 velocity=64 time=28\n",
      "417023 note_off channel=0 note=64 velocity=0 time=5\n",
      "417060 note_off channel=0 note=76 velocity=0 time=37\n",
      "417062 note_on channel=0 note=68 velocity=60 time=2\n",
      "417098 note_off channel=0 note=68 velocity=0 time=36\n",
      "417140 note_on channel=0 note=64 velocity=64 time=42\n",
      "417173 note_on channel=0 note=76 velocity=64 time=33\n",
      "417197 note_off channel=0 note=64 velocity=0 time=24\n",
      "417203 note_off channel=0 note=76 velocity=0 time=6\n",
      "417242 note_on channel=0 note=68 velocity=55 time=39\n",
      "417311 note_off channel=0 note=68 velocity=0 time=69\n",
      "417311 note_on channel=0 note=74 velocity=68 time=0\n",
      "417327 note_on channel=0 note=65 velocity=61 time=16\n",
      "417342 note_off channel=0 note=74 velocity=0 time=15\n",
      "417356 note_off channel=0 note=65 velocity=0 time=14\n",
      "417389 note_on channel=0 note=68 velocity=65 time=33\n",
      "417416 note_off channel=0 note=68 velocity=0 time=27\n",
      "417458 note_on channel=0 note=61 velocity=68 time=42\n",
      "417540 note_off channel=0 note=61 velocity=0 time=82\n",
      "417561 note_on channel=0 note=64 velocity=59 time=21\n",
      "417630 note_off channel=0 note=64 velocity=0 time=69\n",
      "417632 note_on channel=0 note=67 velocity=68 time=2\n",
      "417645 note_on channel=0 note=40 velocity=74 time=13\n",
      "417649 note_on channel=0 note=70 velocity=76 time=4\n",
      "417703 note_off channel=0 note=67 velocity=0 time=54\n",
      "417706 note_off channel=0 note=70 velocity=0 time=3\n",
      "417779 note_on channel=0 note=65 velocity=68 time=73\n",
      "417785 note_on channel=0 note=38 velocity=82 time=6\n",
      "417801 note_off channel=0 note=40 velocity=0 time=16\n",
      "417802 note_off channel=0 note=65 velocity=0 time=1\n",
      "417857 note_on channel=0 note=70 velocity=77 time=55\n",
      "417869 note_off channel=0 note=70 velocity=0 time=12\n",
      "417935 note_on channel=0 note=37 velocity=88 time=66\n",
      "417941 note_on channel=0 note=64 velocity=76 time=6\n",
      "417942 note_off channel=0 note=38 velocity=0 time=1\n",
      "417962 note_off channel=0 note=64 velocity=0 time=20\n",
      "417980 note_off channel=0 note=37 velocity=0 time=18\n",
      "417991 note_on channel=0 note=70 velocity=70 time=11\n",
      "418008 note_on channel=0 note=61 velocity=68 time=17\n",
      "418107 note_off channel=0 note=70 velocity=0 time=99\n",
      "418140 note_on channel=0 note=64 velocity=70 time=33\n",
      "418161 note_off channel=0 note=61 velocity=0 time=21\n",
      "418230 note_on channel=0 note=67 velocity=75 time=69\n",
      "418247 note_off channel=0 note=64 velocity=0 time=17\n",
      "418248 note_on channel=0 note=40 velocity=86 time=1\n",
      "418292 note_on channel=0 note=70 velocity=77 time=44\n",
      "418322 note_off channel=0 note=67 velocity=0 time=30\n",
      "418383 note_on channel=0 note=65 velocity=71 time=61\n",
      "418390 note_on channel=0 note=38 velocity=87 time=7\n",
      "418390 note_off channel=0 note=70 velocity=0 time=0\n",
      "418414 note_off channel=0 note=40 velocity=0 time=24\n",
      "418474 note_off channel=0 note=65 velocity=0 time=60\n",
      "418474 note_on channel=0 note=70 velocity=77 time=0\n",
      "418535 note_on channel=0 note=37 velocity=86 time=61\n",
      "418546 note_off channel=0 note=70 velocity=0 time=11\n",
      "418547 note_on channel=0 note=64 velocity=77 time=1\n",
      "418551 note_off channel=0 note=38 velocity=0 time=4\n",
      "418567 note_off channel=0 note=37 velocity=0 time=16\n",
      "418597 note_off channel=0 note=64 velocity=0 time=30\n",
      "418611 note_on channel=0 note=70 velocity=76 time=14\n",
      "418717 note_on channel=0 note=61 velocity=75 time=106\n",
      "418778 note_off channel=0 note=70 velocity=0 time=61\n",
      "418787 note_on channel=0 note=64 velocity=71 time=9\n",
      "418793 note_off channel=0 note=61 velocity=0 time=6\n",
      "418861 note_off channel=0 note=64 velocity=0 time=68\n",
      "418864 note_on channel=0 note=40 velocity=76 time=3\n",
      "418869 note_on channel=0 note=67 velocity=69 time=5\n",
      "418922 note_on channel=0 note=70 velocity=68 time=53\n",
      "418938 note_off channel=0 note=67 velocity=0 time=16\n",
      "419014 note_on channel=0 note=65 velocity=66 time=76\n",
      "419017 note_off channel=0 note=40 velocity=0 time=3\n",
      "419019 note_off channel=0 note=70 velocity=0 time=2\n",
      "419029 note_on channel=0 note=38 velocity=77 time=10\n",
      "419060 note_off channel=0 note=65 velocity=0 time=31\n",
      "419078 note_on channel=0 note=70 velocity=76 time=18\n",
      "419091 note_off channel=0 note=70 velocity=0 time=13\n",
      "419164 note_on channel=0 note=37 velocity=82 time=73\n",
      "419170 note_on channel=0 note=64 velocity=79 time=6\n",
      "419174 note_off channel=0 note=38 velocity=0 time=4\n",
      "419180 note_off channel=0 note=64 velocity=0 time=6\n",
      "419219 note_off channel=0 note=37 velocity=0 time=39\n",
      "419224 note_on channel=0 note=70 velocity=84 time=5\n",
      "419234 note_off channel=0 note=70 velocity=0 time=10\n",
      "419312 note_on channel=0 note=64 velocity=86 time=78\n",
      "419325 note_on channel=0 note=37 velocity=82 time=13\n",
      "419326 note_off channel=0 note=64 velocity=0 time=1\n",
      "419365 note_off channel=0 note=37 velocity=0 time=39\n",
      "419377 note_on channel=0 note=70 velocity=78 time=12\n",
      "419382 note_off channel=0 note=70 velocity=0 time=5\n",
      "419456 note_on channel=0 note=62 velocity=79 time=74\n",
      "419465 note_on channel=0 note=38 velocity=80 time=9\n",
      "419470 note_off channel=0 note=38 velocity=0 time=5\n",
      "419508 note_off channel=0 note=62 velocity=0 time=38\n",
      "419512 note_on channel=0 note=70 velocity=87 time=4\n",
      "419542 note_on channel=0 note=62 velocity=85 time=30\n",
      "419616 note_off channel=0 note=70 velocity=0 time=74\n",
      "419618 note_on channel=0 note=38 velocity=81 time=2\n",
      "419624 note_off channel=0 note=38 velocity=0 time=6\n",
      "419658 note_off channel=0 note=62 velocity=0 time=34\n",
      "419660 note_on channel=0 note=70 velocity=87 time=2\n",
      "419702 note_off channel=0 note=70 velocity=0 time=42\n",
      "419761 note_on channel=0 note=61 velocity=87 time=59\n",
      "419778 note_on channel=0 note=40 velocity=70 time=17\n",
      "419781 note_off channel=0 note=40 velocity=0 time=3\n",
      "419810 note_off channel=0 note=61 velocity=0 time=29\n",
      "419819 note_on channel=0 note=70 velocity=90 time=9\n",
      "419850 note_off channel=0 note=70 velocity=0 time=31\n",
      "419947 note_on channel=0 note=61 velocity=86 time=97\n",
      "419954 note_on channel=0 note=40 velocity=72 time=7\n",
      "420075 note_on channel=0 note=38 velocity=84 time=121\n",
      "420322 note_off channel=0 note=40 velocity=0 time=247\n",
      "420367 note_off channel=0 note=61 velocity=0 time=45\n",
      "420427 note_on channel=0 note=37 velocity=83 time=60\n",
      "420702 note_off channel=0 note=38 velocity=0 time=275\n",
      "420726 note_on channel=0 note=34 velocity=78 time=24\n",
      "421150 note_off channel=0 note=37 velocity=0 time=424\n",
      "421545 note_off channel=0 note=34 velocity=0 time=395\n",
      "421745 note_on channel=0 note=33 velocity=68 time=200\n",
      "421778 note_on channel=0 note=37 velocity=64 time=33\n",
      "421808 note_on channel=0 note=40 velocity=60 time=30\n",
      "421853 note_on channel=0 note=43 velocity=64 time=45\n",
      "421892 note_on channel=0 note=45 velocity=83 time=39\n",
      "422576 note_off channel=0 note=45 velocity=0 time=684\n",
      "422902 note_on channel=0 note=47 velocity=64 time=326\n",
      "422979 note_on channel=0 note=45 velocity=75 time=77\n",
      "423080 note_off channel=0 note=47 velocity=0 time=101\n",
      "423191 note_on channel=0 note=44 velocity=75 time=111\n",
      "423206 note_off channel=0 note=45 velocity=0 time=15\n",
      "423265 note_off channel=0 note=44 velocity=0 time=59\n",
      "423295 note_on channel=0 note=45 velocity=75 time=30\n",
      "423355 note_off channel=0 note=45 velocity=0 time=60\n",
      "423386 note_on channel=0 note=49 velocity=73 time=31\n",
      "423455 note_off channel=0 note=49 velocity=0 time=69\n",
      "423470 note_on channel=0 note=47 velocity=73 time=15\n",
      "423477 note_off channel=0 note=47 velocity=0 time=7\n",
      "423539 note_on channel=0 note=50 velocity=76 time=62\n",
      "423545 note_off channel=0 note=50 velocity=0 time=6\n",
      "423602 note_on channel=0 note=49 velocity=70 time=57\n",
      "423621 note_off channel=0 note=49 velocity=0 time=19\n",
      "423669 note_on channel=0 note=52 velocity=63 time=48\n",
      "423686 note_off channel=0 note=52 velocity=0 time=17\n",
      "423723 note_on channel=0 note=50 velocity=74 time=37\n",
      "423756 note_off channel=0 note=50 velocity=0 time=33\n",
      "423789 note_on channel=0 note=54 velocity=69 time=33\n",
      "423823 note_off channel=0 note=54 velocity=0 time=34\n",
      "423862 note_on channel=0 note=52 velocity=70 time=39\n",
      "423897 note_off channel=0 note=52 velocity=0 time=35\n",
      "423952 note_on channel=0 note=55 velocity=64 time=55\n",
      "423954 note_off channel=0 note=55 velocity=0 time=2\n",
      "423994 note_on channel=0 note=54 velocity=72 time=40\n",
      "424002 note_off channel=0 note=54 velocity=0 time=8\n",
      "424045 note_on channel=0 note=57 velocity=65 time=43\n",
      "424071 note_off channel=0 note=57 velocity=0 time=26\n",
      "424103 note_on channel=0 note=55 velocity=65 time=32\n",
      "424140 note_off channel=0 note=55 velocity=0 time=37\n",
      "424185 note_on channel=0 note=59 velocity=58 time=45\n",
      "424208 note_off channel=0 note=59 velocity=0 time=23\n",
      "424235 note_on channel=0 note=57 velocity=74 time=27\n",
      "424273 note_off channel=0 note=57 velocity=0 time=38\n",
      "424308 note_on channel=0 note=61 velocity=65 time=35\n",
      "424331 note_off channel=0 note=61 velocity=0 time=23\n",
      "424361 note_on channel=0 note=59 velocity=78 time=30\n",
      "424395 note_off channel=0 note=59 velocity=0 time=34\n",
      "424439 note_on channel=0 note=62 velocity=61 time=44\n",
      "424442 note_off channel=0 note=62 velocity=0 time=3\n",
      "424475 note_on channel=0 note=61 velocity=65 time=33\n",
      "424484 note_off channel=0 note=61 velocity=0 time=9\n",
      "424523 note_on channel=0 note=64 velocity=69 time=39\n",
      "424538 note_off channel=0 note=64 velocity=0 time=15\n",
      "424565 note_on channel=0 note=62 velocity=70 time=27\n",
      "424605 note_off channel=0 note=62 velocity=0 time=40\n",
      "424642 note_on channel=0 note=66 velocity=71 time=37\n",
      "424664 note_off channel=0 note=66 velocity=0 time=22\n",
      "424691 note_on channel=0 note=64 velocity=71 time=27\n",
      "424735 note_on channel=0 note=67 velocity=75 time=44\n",
      "424774 note_off channel=0 note=64 velocity=0 time=39\n",
      "424777 note_off channel=0 note=67 velocity=0 time=3\n",
      "424811 note_on channel=0 note=66 velocity=69 time=34\n",
      "424831 note_off channel=0 note=66 velocity=0 time=20\n",
      "424868 note_on channel=0 note=69 velocity=63 time=37\n",
      "424886 note_off channel=0 note=69 velocity=0 time=18\n",
      "424911 note_on channel=0 note=67 velocity=74 time=25\n",
      "424958 note_off channel=0 note=67 velocity=0 time=47\n",
      "424992 note_on channel=0 note=71 velocity=69 time=34\n",
      "425006 note_off channel=0 note=71 velocity=0 time=14\n",
      "425030 note_on channel=0 note=69 velocity=66 time=24\n",
      "425111 note_off channel=0 note=69 velocity=0 time=81\n",
      "425126 note_on channel=0 note=73 velocity=66 time=15\n",
      "425137 note_off channel=0 note=73 velocity=0 time=11\n",
      "425161 note_on channel=0 note=71 velocity=67 time=24\n",
      "425198 note_off channel=0 note=71 velocity=0 time=37\n",
      "425278 note_on channel=0 note=73 velocity=65 time=80\n",
      "425285 note_off channel=0 note=33 velocity=0 time=7\n",
      "425326 note_off channel=0 note=37 velocity=0 time=41\n",
      "425336 note_off channel=0 note=73 velocity=0 time=10\n",
      "425337 note_on channel=0 note=76 velocity=63 time=1\n",
      "425348 note_off channel=0 note=40 velocity=0 time=11\n",
      "425349 note_off channel=0 note=76 velocity=0 time=1\n",
      "425376 note_off channel=0 note=43 velocity=0 time=27\n",
      "425402 note_on channel=0 note=74 velocity=80 time=26\n",
      "425413 note_off channel=0 note=74 velocity=0 time=11\n",
      "425452 note_on channel=0 note=78 velocity=74 time=39\n",
      "425468 note_off channel=0 note=78 velocity=0 time=16\n",
      "425499 note_on channel=0 note=76 velocity=73 time=31\n",
      "425541 note_off channel=0 note=76 velocity=0 time=42\n",
      "425580 note_on channel=0 note=79 velocity=70 time=39\n",
      "425581 note_off channel=0 note=79 velocity=0 time=1\n",
      "425618 note_on channel=0 note=78 velocity=80 time=37\n",
      "425633 note_off channel=0 note=78 velocity=0 time=15\n",
      "425679 note_on channel=0 note=81 velocity=57 time=46\n",
      "425715 note_on channel=0 note=79 velocity=36 time=36\n",
      "425738 note_off channel=0 note=79 velocity=0 time=23\n",
      "425768 note_off channel=0 note=81 velocity=0 time=30\n",
      "425773 note_on channel=0 note=79 velocity=66 time=5\n",
      "425786 note_off channel=0 note=79 velocity=0 time=13\n",
      "425917 note_on channel=0 note=81 velocity=74 time=131\n",
      "426017 note_off channel=0 note=81 velocity=0 time=100\n",
      "426048 note_on channel=0 note=79 velocity=66 time=31\n",
      "426093 note_off channel=0 note=79 velocity=0 time=45\n",
      "426122 note_on channel=0 note=81 velocity=53 time=29\n",
      "426138 note_off channel=0 note=81 velocity=0 time=16\n",
      "426169 note_on channel=0 note=79 velocity=59 time=31\n",
      "426198 note_off channel=0 note=79 velocity=0 time=29\n",
      "426214 note_on channel=0 note=81 velocity=66 time=16\n",
      "426244 note_off channel=0 note=81 velocity=0 time=30\n",
      "426260 note_on channel=0 note=79 velocity=70 time=16\n",
      "426274 note_off channel=0 note=79 velocity=0 time=14\n",
      "426321 note_on channel=0 note=81 velocity=66 time=47\n",
      "426336 note_off channel=0 note=81 velocity=0 time=15\n",
      "426382 note_on channel=0 note=79 velocity=58 time=46\n",
      "426412 note_off channel=0 note=79 velocity=0 time=30\n",
      "426413 note_on channel=0 note=81 velocity=70 time=1\n",
      "426443 note_off channel=0 note=81 velocity=0 time=30\n",
      "426474 note_on channel=0 note=79 velocity=73 time=31\n",
      "426512 note_off channel=0 note=79 velocity=0 time=38\n",
      "426515 note_on channel=0 note=81 velocity=72 time=3\n",
      "426542 note_off channel=0 note=81 velocity=0 time=27\n",
      "426573 note_on channel=0 note=79 velocity=75 time=31\n",
      "426618 note_off channel=0 note=79 velocity=0 time=45\n",
      "426619 note_on channel=0 note=81 velocity=70 time=1\n",
      "426648 note_off channel=0 note=81 velocity=0 time=29\n",
      "426678 note_on channel=0 note=79 velocity=66 time=30\n",
      "426694 note_off channel=0 note=79 velocity=0 time=16\n",
      "426709 note_on channel=0 note=81 velocity=72 time=15\n",
      "426724 note_off channel=0 note=81 velocity=0 time=15\n",
      "426749 note_on channel=0 note=79 velocity=63 time=25\n",
      "426783 note_off channel=0 note=79 velocity=0 time=34\n",
      "426810 note_on channel=0 note=81 velocity=74 time=27\n",
      "426817 note_off channel=0 note=81 velocity=0 time=7\n",
      "426843 note_on channel=0 note=79 velocity=75 time=26\n",
      "426869 note_off channel=0 note=79 velocity=0 time=26\n",
      "426910 note_on channel=0 note=81 velocity=68 time=41\n",
      "426914 note_off channel=0 note=81 velocity=0 time=4\n",
      "426946 note_on channel=0 note=79 velocity=64 time=32\n",
      "426972 note_off channel=0 note=79 velocity=0 time=26\n",
      "427008 note_on channel=0 note=81 velocity=66 time=36\n",
      "427015 note_off channel=0 note=81 velocity=0 time=7\n",
      "427042 note_on channel=0 note=79 velocity=64 time=27\n",
      "427104 note_off channel=0 note=79 velocity=0 time=62\n",
      "427104 note_on channel=0 note=81 velocity=76 time=0\n",
      "427149 note_off channel=0 note=81 velocity=0 time=45\n",
      "427151 note_on channel=0 note=79 velocity=71 time=2\n",
      "427195 note_off channel=0 note=79 velocity=0 time=44\n",
      "427222 note_on channel=0 note=81 velocity=73 time=27\n",
      "427265 note_off channel=0 note=81 velocity=0 time=43\n",
      "427277 note_on channel=0 note=79 velocity=77 time=12\n",
      "427341 note_off channel=0 note=79 velocity=0 time=64\n",
      "427341 note_on channel=0 note=81 velocity=75 time=0\n",
      "427401 note_on channel=0 note=80 velocity=92 time=60\n",
      "427410 note_off channel=0 note=81 velocity=0 time=9\n",
      "427492 note_off channel=0 note=80 velocity=0 time=82\n",
      "427553 note_on channel=0 note=81 velocity=60 time=61\n",
      "427599 note_off channel=0 note=81 velocity=0 time=46\n",
      "427629 note_on channel=0 note=80 velocity=68 time=30\n",
      "427660 note_off channel=0 note=80 velocity=0 time=31\n",
      "427751 note_on channel=0 note=80 velocity=69 time=91\n",
      "427781 note_off channel=0 note=80 velocity=0 time=30\n",
      "427787 note_on channel=0 note=81 velocity=63 time=6\n",
      "427811 note_off channel=0 note=81 velocity=0 time=24\n",
      "427841 note_on channel=0 note=80 velocity=60 time=30\n",
      "427865 note_off channel=0 note=80 velocity=0 time=24\n",
      "427896 note_on channel=0 note=81 velocity=68 time=31\n",
      "427908 note_off channel=0 note=81 velocity=0 time=12\n",
      "427941 note_on channel=0 note=80 velocity=70 time=33\n",
      "427975 note_off channel=0 note=80 velocity=0 time=34\n",
      "428005 note_on channel=0 note=81 velocity=62 time=30\n",
      "428039 note_off channel=0 note=81 velocity=0 time=34\n",
      "428067 note_on channel=0 note=80 velocity=67 time=28\n",
      "428097 note_off channel=0 note=80 velocity=0 time=30\n",
      "428131 note_on channel=0 note=81 velocity=65 time=34\n",
      "428134 note_off channel=0 note=81 velocity=0 time=3\n",
      "428200 note_on channel=0 note=80 velocity=66 time=66\n",
      "428204 note_off channel=0 note=80 velocity=0 time=4\n",
      "428235 note_on channel=0 note=81 velocity=58 time=31\n",
      "428275 note_off channel=0 note=81 velocity=0 time=40\n",
      "428294 note_on channel=0 note=80 velocity=59 time=19\n",
      "428336 note_off channel=0 note=80 velocity=0 time=42\n",
      "428355 note_on channel=0 note=81 velocity=61 time=19\n",
      "428370 note_off channel=0 note=81 velocity=0 time=15\n",
      "428427 note_on channel=0 note=80 velocity=54 time=57\n",
      "428439 note_off channel=0 note=80 velocity=0 time=12\n",
      "428470 note_on channel=0 note=81 velocity=50 time=31\n",
      "428498 note_off channel=0 note=81 velocity=0 time=28\n",
      "428525 note_on channel=0 note=80 velocity=66 time=27\n",
      "428552 note_off channel=0 note=80 velocity=0 time=27\n",
      "428590 note_on channel=0 note=81 velocity=55 time=38\n",
      "428612 note_off channel=0 note=81 velocity=0 time=22\n",
      "428649 note_on channel=0 note=80 velocity=58 time=37\n",
      "428695 note_off channel=0 note=80 velocity=0 time=46\n",
      "428715 note_on channel=0 note=81 velocity=50 time=20\n",
      "428742 note_off channel=0 note=81 velocity=0 time=27\n",
      "428778 note_on channel=0 note=80 velocity=60 time=36\n",
      "428813 note_off channel=0 note=80 velocity=0 time=35\n",
      "428851 note_on channel=0 note=81 velocity=52 time=38\n",
      "428879 note_off channel=0 note=81 velocity=0 time=28\n",
      "428935 note_on channel=0 note=80 velocity=62 time=56\n",
      "429058 note_off channel=0 note=80 velocity=0 time=123\n",
      "429089 note_on channel=0 note=81 velocity=57 time=31\n",
      "429362 note_on channel=0 note=83 velocity=60 time=273\n",
      "429366 note_off channel=0 note=81 velocity=0 time=4\n",
      "430039 note_off channel=0 note=83 velocity=0 time=673\n",
      "430055 note_on channel=0 note=81 velocity=53 time=16\n",
      "430161 note_off channel=0 note=81 velocity=0 time=106\n",
      "430396 note_on channel=0 note=81 velocity=53 time=235\n",
      "430458 note_on channel=0 note=62 velocity=29 time=62\n",
      "430470 note_on channel=0 note=66 velocity=16 time=12\n",
      "430732 note_on channel=0 note=69 velocity=28 time=262\n",
      "430826 note_off channel=0 note=66 velocity=0 time=94\n",
      "430857 note_off channel=0 note=69 velocity=0 time=31\n",
      "431017 note_on channel=0 note=66 velocity=18 time=160\n",
      "431064 note_off channel=0 note=81 velocity=0 time=47\n",
      "431256 note_on channel=0 note=83 velocity=55 time=192\n",
      "431285 note_off channel=0 note=66 velocity=0 time=29\n",
      "431290 note_on channel=0 note=69 velocity=33 time=5\n",
      "431316 note_on channel=0 note=81 velocity=55 time=26\n",
      "431329 note_off channel=0 note=83 velocity=0 time=13\n",
      "431362 note_off channel=0 note=81 velocity=0 time=33\n",
      "431378 note_on channel=0 note=80 velocity=59 time=16\n",
      "431408 note_off channel=0 note=80 velocity=0 time=30\n",
      "431437 note_on channel=0 note=81 velocity=63 time=29\n",
      "431453 note_off channel=0 note=69 velocity=0 time=16\n",
      "431483 note_on channel=0 note=66 velocity=37 time=30\n",
      "431512 note_off channel=0 note=81 velocity=0 time=29\n",
      "431531 note_on channel=0 note=86 velocity=64 time=19\n",
      "431665 note_off channel=0 note=86 velocity=0 time=134\n",
      "431697 note_off channel=0 note=66 velocity=0 time=32\n",
      "431777 note_off channel=0 note=62 velocity=0 time=80\n",
      "431777 note_on channel=0 note=69 velocity=29 time=0\n",
      "431808 note_on channel=0 note=81 velocity=55 time=31\n",
      "431901 note_off channel=0 note=69 velocity=0 time=93\n",
      "431961 note_on channel=0 note=78 velocity=56 time=60\n",
      "431961 note_off channel=0 note=81 velocity=0 time=0\n",
      "432008 note_on channel=0 note=62 velocity=21 time=47\n",
      "432011 note_on channel=0 note=66 velocity=31 time=3\n",
      "432191 note_on channel=0 note=69 velocity=40 time=180\n",
      "432200 note_off channel=0 note=66 velocity=0 time=9\n",
      "432201 note_off channel=0 note=69 velocity=0 time=1\n",
      "432347 note_on channel=0 note=66 velocity=42 time=146\n",
      "432509 note_off channel=0 note=78 velocity=0 time=162\n",
      "432585 note_on channel=0 note=79 velocity=60 time=76\n",
      "432589 note_off channel=0 note=66 velocity=0 time=4\n",
      "432616 note_off channel=0 note=79 velocity=0 time=27\n",
      "432638 note_on channel=0 note=69 velocity=33 time=22\n",
      "432642 note_on channel=0 note=78 velocity=60 time=4\n",
      "432669 note_off channel=0 note=78 velocity=0 time=27\n",
      "432683 note_on channel=0 note=76 velocity=61 time=14\n",
      "432729 note_off channel=0 note=76 velocity=0 time=46\n",
      "432744 note_on channel=0 note=78 velocity=76 time=15\n",
      "432759 note_off channel=0 note=69 velocity=0 time=15\n",
      "432786 note_on channel=0 note=66 velocity=39 time=27\n",
      "432827 note_on channel=0 note=81 velocity=67 time=41\n",
      "432881 note_off channel=0 note=78 velocity=0 time=54\n",
      "432943 note_off channel=0 note=81 velocity=0 time=62\n",
      "432974 note_off channel=0 note=62 velocity=0 time=31\n",
      "433044 note_off channel=0 note=66 velocity=0 time=70\n",
      "433044 note_on channel=0 note=69 velocity=43 time=0\n",
      "433065 note_off channel=0 note=69 velocity=0 time=21\n",
      "433157 note_on channel=0 note=78 velocity=66 time=92\n",
      "433202 note_off channel=0 note=78 velocity=0 time=45\n",
      "433248 note_on channel=0 note=74 velocity=67 time=46\n",
      "433270 note_on channel=0 note=57 velocity=29 time=22\n",
      "433298 note_on channel=0 note=66 velocity=43 time=28\n",
      "433298 note_off channel=0 note=74 velocity=0 time=0\n",
      "433369 note_off channel=0 note=66 velocity=0 time=71\n",
      "433470 note_on channel=0 note=69 velocity=46 time=101\n",
      "433500 note_off channel=0 note=69 velocity=0 time=30\n",
      "433560 note_on channel=0 note=74 velocity=69 time=60\n",
      "433665 note_off channel=0 note=74 velocity=0 time=105\n",
      "433690 note_on channel=0 note=66 velocity=45 time=25\n",
      "433695 note_off channel=0 note=57 velocity=0 time=5\n",
      "433786 note_off channel=0 note=66 velocity=0 time=91\n",
      "433838 note_on channel=0 note=69 velocity=49 time=52\n",
      "433955 note_off channel=0 note=69 velocity=0 time=117\n",
      "434031 note_on channel=0 note=76 velocity=68 time=76\n",
      "434046 note_on channel=0 note=61 velocity=41 time=15\n",
      "434062 note_on channel=0 note=67 velocity=38 time=16\n",
      "434062 note_off channel=0 note=76 velocity=0 time=0\n",
      "434077 note_on channel=0 note=78 velocity=66 time=15\n",
      "434107 note_off channel=0 note=78 velocity=0 time=30\n",
      "434122 note_on channel=0 note=76 velocity=64 time=15\n",
      "434137 note_off channel=0 note=76 velocity=0 time=15\n",
      "434164 note_on channel=0 note=78 velocity=80 time=27\n",
      "434190 note_off channel=0 note=67 velocity=0 time=26\n",
      "434196 note_off channel=0 note=78 velocity=0 time=6\n",
      "434203 note_off channel=0 note=61 velocity=0 time=7\n",
      "434221 note_on channel=0 note=76 velocity=73 time=18\n",
      "434224 note_on channel=0 note=69 velocity=46 time=3\n",
      "434252 note_on channel=0 note=74 velocity=74 time=28\n",
      "434252 note_off channel=0 note=76 velocity=0 time=0\n",
      "434267 note_off channel=0 note=74 velocity=0 time=15\n",
      "434312 note_on channel=0 note=76 velocity=73 time=45\n",
      "434328 note_off channel=0 note=69 velocity=0 time=16\n",
      "434417 note_on channel=0 note=77 velocity=66 time=89\n",
      "434420 note_off channel=0 note=76 velocity=0 time=3\n",
      "434423 note_on channel=0 note=62 velocity=41 time=3\n",
      "434433 note_on channel=0 note=66 velocity=43 time=10\n",
      "434600 note_off channel=0 note=77 velocity=0 time=167\n",
      "434615 note_on channel=0 note=78 velocity=64 time=15\n",
      "434619 note_off channel=0 note=78 velocity=0 time=4\n",
      "434653 note_off channel=0 note=62 velocity=0 time=34\n",
      "434712 note_off channel=0 note=66 velocity=0 time=59\n",
      "434844 note_on channel=0 note=73 velocity=54 time=132\n",
      "435019 note_off channel=0 note=73 velocity=0 time=175\n",
      "435050 note_on channel=0 note=74 velocity=48 time=31\n",
      "435051 note_off channel=0 note=74 velocity=0 time=1\n",
      "435292 note_on channel=0 note=68 velocity=41 time=241\n",
      "435475 note_off channel=0 note=68 velocity=0 time=183\n",
      "435505 note_on channel=0 note=69 velocity=35 time=30\n",
      "435537 note_off channel=0 note=69 velocity=0 time=32\n",
      "435894 note_on channel=0 note=81 velocity=64 time=357\n",
      "435923 note_off channel=0 note=81 velocity=0 time=29\n",
      "435932 note_on channel=0 note=62 velocity=32 time=9\n",
      "435939 note_on channel=0 note=66 velocity=38 time=7\n",
      "435969 note_on channel=0 note=82 velocity=81 time=30\n",
      "436115 note_off channel=0 note=62 velocity=0 time=146\n",
      "436123 note_off channel=0 note=82 velocity=0 time=8\n",
      "436138 note_off channel=0 note=66 velocity=0 time=15\n",
      "436154 note_on channel=0 note=83 velocity=79 time=16\n",
      "436306 note_off channel=0 note=83 velocity=0 time=152\n",
      "436328 note_on channel=0 note=85 velocity=81 time=22\n",
      "436496 note_off channel=0 note=85 velocity=0 time=168\n",
      "436516 note_on channel=0 note=88 velocity=64 time=20\n",
      "436936 note_off channel=0 note=88 velocity=0 time=420\n",
      "436951 note_on channel=0 note=86 velocity=48 time=15\n",
      "436981 note_off channel=0 note=86 velocity=0 time=30\n",
      "437225 note_on channel=0 note=77 velocity=61 time=244\n",
      "437248 note_on channel=0 note=69 velocity=37 time=23\n",
      "437260 note_on channel=0 note=62 velocity=33 time=12\n",
      "437263 note_off channel=0 note=77 velocity=0 time=3\n",
      "437278 note_off channel=0 note=62 velocity=0 time=15\n",
      "437431 note_on channel=0 note=78 velocity=67 time=153\n",
      "437437 note_off channel=0 note=69 velocity=0 time=6\n",
      "437459 note_off channel=0 note=78 velocity=0 time=22\n",
      "437462 note_on channel=0 note=79 velocity=65 time=3\n",
      "437616 note_off channel=0 note=79 velocity=0 time=154\n",
      "437641 note_on channel=0 note=80 velocity=62 time=25\n",
      "437792 note_off channel=0 note=80 velocity=0 time=151\n",
      "437813 note_on channel=0 note=83 velocity=44 time=21\n",
      "438243 note_off channel=0 note=83 velocity=0 time=430\n",
      "438289 note_on channel=0 note=81 velocity=46 time=46\n",
      "438335 note_off channel=0 note=81 velocity=0 time=46\n",
      "438714 note_on channel=0 note=81 velocity=66 time=379\n",
      "438731 note_on channel=0 note=57 velocity=33 time=17\n",
      "438777 note_on channel=0 note=66 velocity=25 time=46\n",
      "439042 note_off channel=0 note=66 velocity=0 time=265\n",
      "439043 note_on channel=0 note=69 velocity=47 time=1\n",
      "439052 note_off channel=0 note=81 velocity=0 time=9\n",
      "439110 note_off channel=0 note=69 velocity=0 time=58\n",
      "439132 note_on channel=0 note=74 velocity=63 time=22\n",
      "439147 note_off channel=0 note=74 velocity=0 time=15\n",
      "439208 note_on channel=0 note=66 velocity=46 time=61\n",
      "439214 note_on channel=0 note=74 velocity=74 time=6\n",
      "439330 note_off channel=0 note=57 velocity=0 time=116\n",
      "439351 note_off channel=0 note=66 velocity=0 time=21\n",
      "439381 note_on channel=0 note=69 velocity=47 time=30\n",
      "439381 note_off channel=0 note=74 velocity=0 time=0\n",
      "439481 note_off channel=0 note=69 velocity=0 time=100\n",
      "439481 note_on channel=0 note=76 velocity=62 time=0\n",
      "439497 note_off channel=0 note=76 velocity=0 time=16\n",
      "439512 note_on channel=0 note=78 velocity=76 time=15\n",
      "439528 note_off channel=0 note=78 velocity=0 time=16\n",
      "439562 note_on channel=0 note=76 velocity=71 time=34\n",
      "439574 note_on channel=0 note=67 velocity=45 time=12\n",
      "439579 note_on channel=0 note=61 velocity=41 time=5\n",
      "439588 note_off channel=0 note=76 velocity=0 time=9\n",
      "439629 note_on channel=0 note=74 velocity=74 time=41\n",
      "439648 note_off channel=0 note=74 velocity=0 time=19\n",
      "439681 note_off channel=0 note=61 velocity=0 time=33\n",
      "439704 note_off channel=0 note=67 velocity=0 time=23\n",
      "439711 note_on channel=0 note=76 velocity=62 time=7\n",
      "439732 note_on channel=0 note=69 velocity=37 time=21\n",
      "439748 note_off channel=0 note=76 velocity=0 time=16\n",
      "439781 note_off channel=0 note=69 velocity=0 time=33\n",
      "439794 note_on channel=0 note=78 velocity=69 time=13\n",
      "439795 note_off channel=0 note=78 velocity=0 time=1\n",
      "439833 note_on channel=0 note=74 velocity=57 time=38\n",
      "439931 note_on channel=0 note=62 velocity=27 time=98\n",
      "439950 note_on channel=0 note=66 velocity=36 time=19\n",
      "440053 note_off channel=0 note=74 velocity=0 time=103\n",
      "440349 note_off channel=0 note=62 velocity=0 time=296\n",
      "440396 note_off channel=0 note=66 velocity=0 time=47\n",
      "440502 note_on channel=0 note=86 velocity=66 time=106\n",
      "440533 note_off channel=0 note=86 velocity=0 time=31\n",
      "440562 note_on channel=0 note=85 velocity=67 time=29\n",
      "440608 note_off channel=0 note=85 velocity=0 time=46\n",
      "440634 note_on channel=0 note=83 velocity=68 time=26\n",
      "440694 note_off channel=0 note=83 velocity=0 time=60\n",
      "440723 note_on channel=0 note=81 velocity=68 time=29\n",
      "440779 note_off channel=0 note=81 velocity=0 time=56\n",
      "440804 note_on channel=0 note=79 velocity=65 time=25\n",
      "440863 note_off channel=0 note=79 velocity=0 time=59\n",
      "440895 note_on channel=0 note=78 velocity=65 time=32\n",
      "440946 note_off channel=0 note=78 velocity=0 time=51\n",
      "440975 note_on channel=0 note=76 velocity=64 time=29\n",
      "441020 note_off channel=0 note=76 velocity=0 time=45\n",
      "441064 note_on channel=0 note=74 velocity=63 time=44\n",
      "441149 note_off channel=0 note=74 velocity=0 time=85\n",
      "441180 note_on channel=0 note=66 velocity=31 time=31\n",
      "441186 note_on channel=0 note=57 velocity=17 time=6\n",
      "441361 note_off channel=0 note=66 velocity=0 time=175\n",
      "441375 note_on channel=0 note=69 velocity=45 time=14\n",
      "441395 note_off channel=0 note=69 velocity=0 time=20\n",
      "441543 note_on channel=0 note=74 velocity=52 time=148\n",
      "441558 note_on channel=0 note=66 velocity=45 time=15\n",
      "441563 note_off channel=0 note=74 velocity=0 time=5\n",
      "441574 note_off channel=0 note=57 velocity=0 time=11\n",
      "441586 note_off channel=0 note=66 velocity=0 time=12\n",
      "441686 note_on channel=0 note=69 velocity=50 time=100\n",
      "441787 note_on channel=0 note=76 velocity=51 time=101\n",
      "441817 note_off channel=0 note=76 velocity=0 time=30\n",
      "441819 note_off channel=0 note=69 velocity=0 time=2\n",
      "441832 note_on channel=0 note=78 velocity=65 time=13\n",
      "441855 note_off channel=0 note=78 velocity=0 time=23\n",
      "441872 note_on channel=0 note=76 velocity=57 time=17\n",
      "441900 note_on channel=0 note=61 velocity=39 time=28\n",
      "441907 note_on channel=0 note=67 velocity=31 time=7\n",
      "441910 note_off channel=0 note=76 velocity=0 time=3\n",
      "441931 note_on channel=0 note=74 velocity=68 time=21\n",
      "441953 note_off channel=0 note=74 velocity=0 time=22\n",
      "441986 note_off channel=0 note=67 velocity=0 time=33\n",
      "442015 note_off channel=0 note=61 velocity=0 time=29\n",
      "442026 note_on channel=0 note=69 velocity=29 time=11\n",
      "442026 note_on channel=0 note=76 velocity=53 time=0\n",
      "442064 note_off channel=0 note=76 velocity=0 time=38\n",
      "442082 note_on channel=0 note=78 velocity=69 time=18\n",
      "442088 note_off channel=0 note=78 velocity=0 time=6\n",
      "442118 note_off channel=0 note=69 velocity=0 time=30\n",
      "442137 note_on channel=0 note=74 velocity=62 time=19\n",
      "442245 note_on channel=0 note=66 velocity=39 time=108\n",
      "442255 note_on channel=0 note=62 velocity=28 time=10\n",
      "442262 note_off channel=0 note=74 velocity=0 time=7\n",
      "442554 note_off channel=0 note=62 velocity=0 time=292\n",
      "442564 note_off channel=0 note=66 velocity=0 time=10\n",
      "442836 note_on channel=0 note=86 velocity=87 time=272\n",
      "443079 note_on channel=0 note=85 velocity=80 time=243\n",
      "443090 note_off channel=0 note=86 velocity=0 time=11\n",
      "443102 note_off channel=0 note=85 velocity=0 time=12\n",
      "443148 note_on channel=0 note=83 velocity=81 time=46\n",
      "443154 note_off channel=0 note=83 velocity=0 time=6\n",
      "443192 note_on channel=0 note=81 velocity=72 time=38\n",
      "443231 note_off channel=0 note=81 velocity=0 time=39\n",
      "443237 note_on channel=0 note=79 velocity=79 time=6\n",
      "443322 note_on channel=0 note=78 velocity=80 time=85\n",
      "443326 note_off channel=0 note=79 velocity=0 time=4\n",
      "443369 note_on channel=0 note=76 velocity=78 time=43\n",
      "443373 note_off channel=0 note=78 velocity=0 time=4\n",
      "443391 note_off channel=0 note=76 velocity=0 time=18\n",
      "443410 note_on channel=0 note=74 velocity=78 time=19\n",
      "443433 note_off channel=0 note=74 velocity=0 time=23\n",
      "443458 note_on channel=0 note=73 velocity=78 time=25\n",
      "443497 note_on channel=0 note=71 velocity=78 time=39\n",
      "443525 note_off channel=0 note=73 velocity=0 time=28\n",
      "443558 note_off channel=0 note=71 velocity=0 time=33\n",
      "443589 note_on channel=0 note=69 velocity=64 time=31\n",
      "443600 note_off channel=0 note=69 velocity=0 time=11\n",
      "443634 note_on channel=0 note=67 velocity=75 time=34\n",
      "443665 note_on channel=0 note=66 velocity=81 time=31\n",
      "443696 note_off channel=0 note=67 velocity=0 time=31\n",
      "443725 note_on channel=0 note=64 velocity=73 time=29\n",
      "443741 note_off channel=0 note=66 velocity=0 time=16\n",
      "443772 note_off channel=0 note=64 velocity=0 time=31\n",
      "443787 note_on channel=0 note=45 velocity=68 time=15\n",
      "443787 note_on channel=0 note=62 velocity=96 time=0\n",
      "443796 note_on channel=0 note=54 velocity=70 time=9\n",
      "443983 note_on channel=0 note=57 velocity=73 time=187\n",
      "443998 note_off channel=0 note=54 velocity=0 time=15\n",
      "444060 note_off channel=0 note=62 velocity=0 time=62\n",
      "444091 note_off channel=0 note=57 velocity=0 time=31\n",
      "444136 note_on channel=0 note=62 velocity=89 time=45\n",
      "444179 note_on channel=0 note=54 velocity=69 time=43\n",
      "444187 note_off channel=0 note=62 velocity=0 time=8\n",
      "444215 note_off channel=0 note=54 velocity=0 time=28\n",
      "444348 note_on channel=0 note=57 velocity=66 time=133\n",
      "444353 note_off channel=0 note=57 velocity=0 time=5\n",
      "444463 note_on channel=0 note=64 velocity=77 time=110\n",
      "444464 note_on channel=0 note=61 velocity=65 time=1\n",
      "444478 note_off channel=0 note=61 velocity=0 time=14\n",
      "444509 note_off channel=0 note=64 velocity=0 time=31\n",
      "444516 note_on channel=0 note=66 velocity=80 time=7\n",
      "444524 note_on channel=0 note=55 velocity=64 time=8\n",
      "444540 note_on channel=0 note=61 velocity=33 time=16\n",
      "444557 note_on channel=0 note=64 velocity=71 time=17\n",
      "444565 note_off channel=0 note=66 velocity=0 time=8\n",
      "444595 note_off channel=0 note=61 velocity=0 time=30\n",
      "444603 note_off channel=0 note=55 velocity=0 time=8\n",
      "444634 note_on channel=0 note=62 velocity=74 time=31\n",
      "444635 note_off channel=0 note=64 velocity=0 time=1\n",
      "444639 note_on channel=0 note=57 velocity=70 time=4\n",
      "444686 note_on channel=0 note=64 velocity=79 time=47\n",
      "444702 note_off channel=0 note=62 velocity=0 time=16\n",
      "444707 note_off channel=0 note=57 velocity=0 time=5\n",
      "444744 note_on channel=0 note=66 velocity=86 time=37\n",
      "444773 note_off channel=0 note=64 velocity=0 time=29\n",
      "444788 note_off channel=0 note=45 velocity=0 time=15\n",
      "444820 note_on channel=0 note=62 velocity=89 time=32\n",
      "444885 note_on channel=0 note=54 velocity=67 time=65\n",
      "444892 note_off channel=0 note=66 velocity=0 time=7\n",
      "444893 note_on channel=0 note=50 velocity=63 time=1\n",
      "445002 note_off channel=0 note=62 velocity=0 time=109\n",
      "445004 note_off channel=0 note=50 velocity=0 time=2\n",
      "445017 note_off channel=0 note=54 velocity=0 time=13\n",
      "445245 note_on channel=0 note=45 velocity=80 time=228\n",
      "445786 note_on channel=0 note=57 velocity=83 time=541\n",
      "445786 note_on channel=0 note=85 velocity=100 time=0\n",
      "445789 note_on channel=0 note=76 velocity=82 time=3\n",
      "445800 note_off channel=0 note=85 velocity=0 time=11\n",
      "445807 note_off channel=0 note=45 velocity=0 time=7\n",
      "445809 note_off channel=0 note=57 velocity=0 time=2\n",
      "445816 note_off channel=0 note=76 velocity=0 time=7\n",
      "445997 note_on channel=0 note=86 velocity=95 time=181\n",
      "446436 note_on channel=0 note=78 velocity=91 time=439\n",
      "446437 note_on channel=0 note=38 velocity=88 time=1\n",
      "446438 note_on channel=0 note=74 velocity=84 time=1\n",
      "446440 note_on channel=0 note=50 velocity=81 time=2\n",
      "446464 note_off channel=0 note=74 velocity=0 time=24\n",
      "446479 note_off channel=0 note=78 velocity=0 time=15\n",
      "446484 note_off channel=0 note=50 velocity=0 time=5\n",
      "446487 note_off channel=0 note=86 velocity=0 time=3\n",
      "446488 note_off channel=0 note=38 velocity=0 time=1\n",
      "446488\n"
     ]
    }
   ],
   "source": [
    "from mido import MidiFile\n",
    "import string\n",
    "import matplotlib.pyplot as plt\n",
    "import numpy as np\n",
    "\n",
    "mid2 = MidiFile('mi_mid.midi', clip=True)\n",
    "#print(mid2.tracks[0])\n",
    "file = '../maestro-v3.0.0/2018/MIDI-Unprocessed_Chamber2_MID--AUDIO_09_R3_2018_wav--1.midi'\n",
    "mid = MidiFile(file, clip=True)\n",
    "def contar_ticks(track):\n",
    "    rta = 0\n",
    "    for x in track:\n",
    "        rta+=x.time\n",
    "        if x.type == 'note_on' or x.type == 'note_off':\n",
    "            print(rta, x)\n",
    "    return rta\n",
    "rta = contar_ticks(mid2.tracks[0])\n",
    "print(rta)"
   ]
  },
  {
   "cell_type": "code",
   "execution_count": null,
   "id": "fd150891-16e9-4b88-9353-bda94ecfac87",
   "metadata": {},
   "outputs": [],
   "source": []
  }
 ],
 "metadata": {
  "kernelspec": {
   "display_name": "Python 3 (ipykernel)",
   "language": "python",
   "name": "python3"
  },
  "language_info": {
   "codemirror_mode": {
    "name": "ipython",
    "version": 3
   },
   "file_extension": ".py",
   "mimetype": "text/x-python",
   "name": "python",
   "nbconvert_exporter": "python",
   "pygments_lexer": "ipython3",
   "version": "3.9.5"
  }
 },
 "nbformat": 4,
 "nbformat_minor": 5
}
